<svg xmlns="http://www.w3.org/2000/svg" viewBox="0 0 24 24"><path d="M10.627 13.373C11.0262 13.7528 11.0262 14.376 10.627 14.7557C10.2472 15.1355 9.62402 15.1355 9.24425 14.7557C7.34542 12.8569 7.34542 9.77008 9.24425 7.87125L12.6914 4.42413C14.5902 2.52529 17.677 2.52529 19.5759 4.42413C21.4747 6.32296 21.4747 9.40979 19.5759 11.3086L18.125 12.7595C18.1347 11.961 18.0081 11.1626 17.7355 10.403L18.1931 9.93562C19.3422 8.79632 19.3422 6.94617 18.1931 5.80687C17.0538 4.65783 15.2037 4.65783 14.0644 5.80687L10.627 9.24425C9.47796 10.3836 9.47796 12.2337 10.627 13.373ZM13.373 9.24425C13.7528 8.86448 14.376 8.86448 14.7557 9.24425C16.6546 11.1431 16.6546 14.2299 14.7557 16.1288L11.3086 19.5759C9.40979 21.4747 6.32296 21.4747 4.42413 19.5759C2.52529 17.677 2.52529 14.5902 4.42413 12.6914L5.87503 11.2405C5.8653 12.039 5.99189 12.8374 6.26454 13.6067L5.80687 14.0644C4.65783 15.2037 4.65783 17.0538 5.80687 18.1931C6.94617 19.3422 8.79632 19.3422 9.93562 18.1931L13.373 14.7557C14.522 13.6164 14.522 11.7663 13.373 10.627C12.9738 10.2472 12.9738 9.62402 13.373 9.24425Z"/></svg>