<svg xmlns="http://www.w3.org/2000/svg" viewBox="0 0 24 24"><path d="M18.3085 13.3401C19.112 13.541 19.6131 14.3642 19.2656 15.1159C17.9974 17.8594 15.221 19.763 12 19.763C7.58172 19.763 4 16.1813 4 11.763C4 8.54198 5.90356 5.76558 8.64707 4.49739C9.39881 4.1499 10.222 4.651 10.4229 5.45445C10.6239 6.25876 10.115 7.05668 9.40652 7.48732C7.96372 8.36436 7 9.95112 7 11.763C7 14.5244 9.23858 16.763 12 16.763C13.8119 16.763 15.3986 15.7993 16.2757 14.3565C16.7063 13.648 17.5042 13.139 18.3085 13.3401Z"/></svg>