<svg xmlns="http://www.w3.org/2000/svg" viewBox="0 0 24 24"><path fill-rule="evenodd" d="M10.8301 4.36557C10.682 4.47713 10.5297 4.67651 10.4967 5.08131C10.2782 7.76009 9.27456 9.66748 8.33107 10.8959C7.54319 11.9217 7 12.9646 7 13.9808V20C7 20.5528 7.44743 21 7.99919 21H19.1491C19.1567 20.9973 19.2918 20.9659 19.5321 20.6733C19.7976 20.35 20.0818 19.8322 20.3309 19.1362C20.8268 17.751 21.1161 15.8506 20.9556 13.9077C20.8638 12.7974 20.0339 11.9185 18.9449 11.772C17.137 11.5287 15.0741 11.6158 13.2043 11.9096C12.8359 11.9675 12.4659 11.8157 12.2444 11.5156C12.023 11.2156 11.9869 10.8172 12.1507 10.4823C12.3395 10.0966 12.6694 9.24573 12.8933 8.23063C13.1192 7.20701 13.2146 6.11663 13.0218 5.20749C12.9062 4.66252 12.325 4.20923 11.6019 4.17069C11.2663 4.1528 11.0004 4.23734 10.8301 4.36557ZM11.7083 2.17352C13.0635 2.24576 14.6239 3.12187 14.9782 4.79253C15.2553 6.09903 15.1007 7.50864 14.8464 8.66155C14.7635 9.03709 14.6676 9.39598 14.567 9.72785C16.1097 9.58975 17.719 9.58896 19.2116 9.78982C21.2465 10.0637 22.7809 11.7119 22.9488 13.743C23.1321 15.9615 22.8088 18.1485 22.2139 19.8102C21.9177 20.6378 21.5369 21.3833 21.0778 21.9425C20.6379 22.4782 19.9905 23 19.1581 23H7.99919C6.3418 23 5 21.6563 5 20V13.9808C5 12.287 5.88209 10.801 6.74493 9.6776C7.49111 8.7061 8.32072 7.15706 8.50331 4.9187C8.57873 3.99411 8.98444 3.25184 9.62695 2.76796C10.2473 2.30073 11.0047 2.13601 11.7083 2.17352ZM2 12C2.55228 12 3 12.4477 3 13V22C3 22.5523 2.55228 23 2 23C1.44772 23 1 22.5523 1 22V13C1 12.4477 1.44772 12 2 12Z" clip-rule="evenodd"/></svg>