<svg xmlns="http://www.w3.org/2000/svg" viewBox="0 0 24 24"><path fill-rule="evenodd" d="M10.2177 2.03524C10.7505 2.18056 11.0646 2.7303 10.9193 3.26312L10.0365 6.50001H16.5544L17.5807 2.73689C17.726 2.20406 18.2757 1.88993 18.8086 2.03524C19.3414 2.18056 19.6555 2.7303 19.5102 3.26312L18.6274 6.50001H21C21.5523 6.50001 22 6.94772 22 7.50001C22 8.05229 21.5523 8.50001 21 8.50001H18.082L16.1729 15.5H18.9545C19.5068 15.5 19.9545 15.9477 19.9545 16.5C19.9545 17.0523 19.5068 17.5 18.9545 17.5H15.6274L14.6011 21.2631C14.4558 21.7959 13.9061 22.1101 13.3732 21.9648C12.8404 21.8195 12.5263 21.2697 12.6716 20.7369L13.5544 17.5H7.03652L6.01022 21.2631C5.8649 21.7959 5.31516 22.1101 4.78234 21.9648C4.24951 21.8195 3.93538 21.2697 4.08069 20.7369L4.96348 17.5H3C2.44772 17.5 2 17.0523 2 16.5C2 15.9477 2.44772 15.5 3 15.5H5.50893L7.41802 8.50001H4.63636C4.08408 8.50001 3.63636 8.05229 3.63636 7.50001C3.63636 6.94772 4.08408 6.50001 4.63636 6.50001H7.96348L8.98978 2.73689C9.1351 2.20406 9.68484 1.88993 10.2177 2.03524ZM9.49107 8.50001L7.58198 15.5H14.0998L16.0089 8.50001H9.49107Z" clip-rule="evenodd"/></svg>