<svg xmlns="http://www.w3.org/2000/svg" viewBox="0 0 24 24"><path d="M13.4 5.88235L12.728 4.51765C12.5693 4.19765 12.2427 4 11.888 4H5.93333C5.42 4 5 4.42353 5 4.94118V19.0588C5 19.5765 5.42 20 5.93333 20C6.44667 20 6.86667 19.5765 6.86667 19.0588V13.4118H11.5333L12.2053 14.7765C12.364 15.0965 12.6907 15.2941 13.036 15.2941H18.0667C18.58 15.2941 19 14.8706 19 14.3529V6.82353C19 6.30588 18.58 5.88235 18.0667 5.88235H13.4ZM17.1333 13.4118H13.4L12.4667 11.5294H6.86667V5.88235H11.5333L12.4667 7.76471H17.1333V13.4118Z"/></svg>