<svg xmlns="http://www.w3.org/2000/svg" viewBox="0 0 24 24"><path d="M9.28975 12.0179C9.28755 12.0198 9.28892 12.0235 9.29187 12.0235C9.29481 12.0235 9.29619 12.0271 9.29399 12.029L7.80688 13.3503L7.79645 13.3607C7.30438 13.8528 6.65274 14.1218 5.95 14.1218C4.51005 14.1218 3.3425 12.9596 3.3425 11.5235C3.3425 10.0874 4.51005 8.92513 5.95 8.92513C6.64836 8.92513 7.30126 9.191 7.83311 9.72285L7.84389 9.73363L8.28231 10.1216C8.81917 10.5967 9.62626 10.5962 10.1625 10.1203C10.7995 9.55501 10.7977 8.55956 10.1586 7.99657L9.79376 7.67515C8.76579 6.65315 7.39656 6.0918 5.95 6.0918C2.9434 6.0918 0.5 8.53278 0.5 11.5235C0.5 14.5141 2.9434 16.9551 5.95 16.9551C7.39288 16.9551 8.76307 16.3963 9.74815 15.4174L11.9723 13.4526C11.9759 13.4494 11.9815 13.4495 11.985 13.453C11.9885 13.4565 11.9941 13.4566 11.9977 13.4533L14.395 11.2942L16.1931 9.69661L16.2036 9.68618C16.6956 9.19411 17.3473 8.92513 18.05 8.92513C19.49 8.92513 20.6575 10.0874 20.6575 11.5235C20.6575 12.9596 19.49 14.1218 18.05 14.1218C17.36 14.1218 16.6982 13.8554 16.1669 13.3241L16.1562 13.3134L15.7088 12.917C15.172 12.4414 14.3644 12.4417 13.828 12.9178C13.1912 13.4829 13.1927 14.478 13.8313 15.0411L14.207 15.3725C15.2341 16.3842 16.5936 16.946 18.05 16.946C21.056 16.946 23.5 14.5147 23.5 11.5143C23.5 8.51264 21.0548 6.0918 18.05 6.0918C16.6069 6.0918 15.2366 6.65073 14.2515 7.62989L11.6694 9.92007L11.6682 9.92106L9.28975 12.0179Z"/></svg>