<svg xmlns="http://www.w3.org/2000/svg" viewBox="0 0 24 24"><path d="M17.3 6.70997C16.91 6.31997 16.28 6.31997 15.89 6.70997L12 10.59L8.10997 6.69997C7.71997 6.30997 7.08997 6.30997 6.69997 6.69997C6.30997 7.08997 6.30997 7.71997 6.69997 8.10997L10.59 12L6.69997 15.89C6.30997 16.28 6.30997 16.91 6.69997 17.3C7.08997 17.69 7.71997 17.69 8.10997 17.3L12 13.41L15.89 17.3C16.28 17.69 16.91 17.69 17.3 17.3C17.69 16.91 17.69 16.28 17.3 15.89L13.41 12L17.3 8.10997C17.68 7.72997 17.68 7.08997 17.3 6.70997Z"/></svg>