<svg xmlns="http://www.w3.org/2000/svg" viewBox="0 0 24 24"><path fill-rule="evenodd" d="M13 5.18C14.16 5.6 15 6.7 15 8C15 9.66 13.66 11 12 11C10.34 11 9 9.66 9 8C9 6.7 9.84 5.6 11 5.18V3H13V5.18ZM11 8C11 8.55 11.45 9 12 9C12.55 9 13 8.55 13 8C13 7.45 12.55 7 12 7C11.45 7 11 7.45 11 8Z" clip-rule="evenodd"/><path d="M6.36011 18.78L6.61011 21 8.23011 19.46 11.0001 11.86C10.3201 11.69 9.72011 11.35 9.23011 10.88L6.36011 18.78zM14.77 10.88C14.28 11.35 13.67 11.69 13 11.86L15.77 19.46 17.39 21 17.65 18.78 14.77 10.88z"/></svg>