<svg xmlns="http://www.w3.org/2000/svg" viewBox="0 0 24 24"><path fill-rule="evenodd" d="M3.36228 7L3.92115 4.30728L2 6.22843V12H7.91759C7.91775 11.9999 7.91739 12.0001 7.91759 12C7.92083 11.9979 7.92475 11.9941 7.92738 11.9889L10.0588 7.0089C10.059 7.00853 10.0591 7.00818 10.0593 7.00784C10.0595 7.00741 10.0596 7.007 10.0598 7.00662C10.059 7.00503 10.058 7.00319 10.0567 7.00125C10.0565 7.00081 10.0562 7.0004 10.0559 7H3.36228ZM9.76 12.79C9.44 13.52 8.72 14 7.92 14H2C0.9 14 0 13.1 0 12V6.21C0 5.68 0.21 5.17 0.6 4.8L4.6 0.800001C5.03 0.360001 5.74 0.360001 6.18 0.800001C6.44 1.07 6.56 1.45 6.48 1.82L5.82 5H10.06C11.49 5 12.46 6.47 11.9 7.79L9.76 12.79ZM19.4 23.2C18.97 23.64 18.26 23.64 17.82 23.2C17.56 22.93 17.44 22.55 17.52 22.18L18.18 19H13.94C12.5 19 11.54 17.53 12.1 16.21L14.24 11.21C14.56 10.48 15.28 10 16.08 10H22C23.1 10 24 10.9 23.99 12V17.79C23.99 18.32 23.78 18.82 23.4 19.2L19.4 23.2ZM16.0726 12.0111L13.9412 16.9911C13.941 16.9915 13.9409 16.9918 13.9407 16.9922C13.9399 16.9942 13.9393 16.9958 13.9389 16.9971C13.9391 16.9977 13.9395 16.9984 13.9399 16.9991C13.94 16.9994 13.9402 16.9997 13.9404 17H20.6377L20.0788 19.6927L21.9858 17.7858C21.9875 17.7841 21.9889 17.7826 21.99 17.7813V12H16.0824C16.0822 12.0001 16.0826 11.9999 16.0824 12C16.0792 12.0021 16.0753 12.0059 16.0726 12.0111ZM22.0003 12C22.0004 12 22.0003 12 22.0003 12V12Z" clip-rule="evenodd"/></svg>