<svg xmlns="http://www.w3.org/2000/svg" viewBox="0 0 24 24"><path d="M14.7323 20.6323C13.9993 20.6964 13.4504 19.9737 13.7089 19.2848L19.421 4.06101C19.5563 3.7005 19.8865 3.44967 20.2701 3.41611L20.8229 3.36775C21.5559 3.30362 22.1048 4.02635 21.8463 4.71524L16.1342 19.939C15.999 20.2995 15.6687 20.5504 15.2851 20.5839L14.7323 20.6323zM8.58662 17.9177C6.76262 17.9177 5.22062 17.2997 3.96062 16.0637 2.71262 14.8157 2.08862 13.2497 2.08862 11.3657 2.08862 9.51765 2.71862 7.96365 3.97862 6.70365 5.25062 5.44365 6.83462 4.81365 8.73062 4.81365 10.841 4.81365 12.5268 5.59903 13.7881 7.16977 13.9232 7.338 13.8873 7.5825 13.7167 7.71463L11.7775 9.21686C11.6049 9.35051 11.3584 9.3196 11.2093 9.16021 10.4857 8.38651 9.64748 7.99965 8.69462 7.99965 7.81862 7.99965 7.09862 8.32365 6.53462 8.97165 5.97062 9.61965 5.68862 10.4177 5.68862 11.3657 5.68862 12.3257 5.97062 13.1297 6.53462 13.7777 7.09862 14.4137 7.81862 14.7317 8.69462 14.7317 9.30662 14.7317 9.82862 14.6057 10.2606 14.3537 10.6091 14.1407 10.9537 13.8497 11.2943 13.4806 11.4362 13.3269 11.6703 13.2954 11.8406 13.4168L13.8363 14.8384C14.018 14.9678 14.0595 15.2215 13.9195 15.3952 13.317 16.1425 12.6314 16.7373 11.8626 17.1797 10.9866 17.6717 9.89462 17.9177 8.58662 17.9177z"/></svg>