<svg xmlns="http://www.w3.org/2000/svg" viewBox="0 0 24 24"><path d="M19.3291 20.2487C18.4161 21.6126 17.4482 22.9435 15.9743 22.9655C14.5004 22.9985 14.0274 22.0966 12.3555 22.0966C10.6726 22.0966 10.1557 22.9435 8.75877 22.9985C7.31786 23.0535 6.22893 21.5466 5.305 20.2157C3.42412 17.4989 1.98322 12.4942 3.91909 9.12846C4.87602 7.45657 6.59191 6.40064 8.45079 6.36764C9.85869 6.34564 11.2006 7.32458 12.0695 7.32458C12.9275 7.32458 14.5554 6.14766 16.2603 6.32365C16.9752 6.35664 18.9771 6.60963 20.264 8.5015C20.165 8.5675 17.8772 9.90941 17.8992 12.6922C17.9322 16.014 20.814 17.1249 20.847 17.1359C20.814 17.2129 20.385 18.7198 19.3291 20.2487ZM13.0485 2.64989C13.8514 1.73695 15.1823 1.044 16.2823 1C16.4253 2.28691 15.9083 3.58483 15.1383 4.50877C14.3794 5.4437 13.1255 6.16966 11.8936 6.07066C11.7286 4.80575 12.3445 3.48583 13.0485 2.64989Z"/></svg>