<svg xmlns="http://www.w3.org/2000/svg" viewBox="0 0 24 24"><path d="M10 12C12.2091 12 14 10.2091 14 8 14 5.79086 12.2091 4 10 4 7.79086 4 6 5.79086 6 8 6 10.2091 7.79086 12 10 12zM10.67 13.02C10.45 13.01 10.23 13 10 13 7.58 13 5.32 13.67 3.39 14.82 2.51 15.34 2 16.32 2 17.35V19C2 19.55 2.45 20 3 20H11.26C10.47 18.87 10 17.49 10 16 10 14.93 10.25 13.93 10.67 13.02z"/><path fill-rule="evenodd" d="M20.6936 15.3963C20.7223 15.5967 20.7499 15.7892 20.7499 16C20.7499 16.2108 20.7223 16.4033 20.6936 16.6038L20.6899 16.63L21.5299 17.36C21.7099 17.52 21.7499 17.78 21.6299 17.99L21.0399 19.01C20.9199 19.21 20.6799 19.31 20.4499 19.23L19.3899 18.87C19.0699 19.14 18.7099 19.35 18.3099 19.5L18.0899 20.59C18.0399 20.82 17.8399 20.99 17.5999 20.99H16.4199C16.1799 20.99 15.9799 20.82 15.9299 20.59L15.7099 19.5C15.3099 19.35 14.9499 19.14 14.6299 18.87L13.5699 19.23C13.3499 19.31 13.0999 19.22 12.9799 19.01L12.3899 17.99C12.2699 17.78 12.3099 17.52 12.4899 17.36L13.3299 16.63L13.3261 16.6038C13.2974 16.4033 13.2699 16.2108 13.2699 16C13.2699 15.7892 13.2974 15.5967 13.3261 15.3962C13.3274 15.3875 13.3286 15.3788 13.3299 15.37L12.4899 14.64C12.3099 14.48 12.2699 14.22 12.3899 14.01L12.9799 12.99C13.0999 12.79 13.3399 12.69 13.5699 12.77L14.6299 13.13C14.9499 12.86 15.3099 12.65 15.7099 12.5L15.9299 11.41C15.9799 11.18 16.1799 11.01 16.4199 11.01H17.5999C17.8399 11.01 18.0399 11.18 18.0899 11.41L18.3099 12.5C18.7099 12.65 19.0699 12.86 19.3899 13.13L20.4499 12.77C20.6699 12.69 20.9199 12.78 21.0399 12.99L21.6299 14.01C21.7499 14.22 21.7099 14.48 21.5299 14.64L20.6899 15.37L20.6936 15.3963ZM14.9999 16C14.9999 17.1 15.8999 18 16.9999 18C18.0999 18 18.9999 17.1 18.9999 16C18.9999 14.9 18.0999 14 16.9999 14C15.8999 14 14.9999 14.9 14.9999 16Z" clip-rule="evenodd"/></svg>