<svg xmlns="http://www.w3.org/2000/svg" viewBox="0 0 24 24"><path d="M10.5996 4.5C10.8796 4.5 11.0996 4.72 11.0996 5V7H17.0996V13H19.0996C19.3796 13 19.5996 13.22 19.5996 13.5C19.5996 13.78 19.3796 14 19.0996 14H17.0996V20H14.9796C14.2996 18.25 12.5896 17 10.5996 17C8.60961 17 6.89961 18.25 6.21961 20H4.09961V17.88C5.84961 17.2 7.09961 15.49 7.09961 13.5C7.09961 11.51 5.85961 9.8 4.10961 9.12L4.09961 7H10.0996V5C10.0996 4.72 10.3196 4.5 10.5996 4.5ZM10.5996 2.5C9.21961 2.5 8.09961 3.62 8.09961 5H4.09961C2.99961 5 2.10961 5.9 2.10961 7V10.8H2.39961C3.88961 10.8 5.09961 12.01 5.09961 13.5C5.09961 14.99 3.88961 16.2 2.39961 16.2H2.09961V20C2.09961 21.1 2.99961 22 4.09961 22H7.89961V21.7C7.89961 20.21 9.10961 19 10.5996 19C12.0896 19 13.2996 20.21 13.2996 21.7V22H17.0996C18.1996 22 19.0996 21.1 19.0996 20V16C20.4796 16 21.5996 14.88 21.5996 13.5C21.5996 12.12 20.4796 11 19.0996 11V7C19.0996 5.9 18.1996 5 17.0996 5H13.0996C13.0996 3.62 11.9796 2.5 10.5996 2.5Z"/></svg>