<svg width="24" height="25" viewBox="0 0 24 25" fill="none" xmlns="http://www.w3.org/2000/svg">
<path fill-rule="evenodd" clip-rule="evenodd" d="M6.87738 21.5495L9.99772 22.3774V21.2948L10.2524 21.04H12.0355V22.3136V23.2051H10.1251L7.76889 22.1863L6.87738 21.5495Z" fill="#CDBDB2"/>
<path fill-rule="evenodd" clip-rule="evenodd" d="M17.0661 21.5495L14.0095 22.3774V21.2948L13.7548 21.04H11.9717V22.3136V23.2051H13.8821L16.2382 22.1863L17.0661 21.5495Z" fill="#CDBDB2"/>
<path fill-rule="evenodd" clip-rule="evenodd" d="M10.2524 19.1935L9.99771 21.2948L10.3161 21.0401H13.6274L14.0094 21.2948L13.7547 19.1935L13.2453 18.875L10.6981 18.9387L10.2524 19.1935Z" fill="#393939"/>
<path fill-rule="evenodd" clip-rule="evenodd" d="M8.53305 4.99292L10.0614 8.55896L10.7619 18.9387H13.2453L14.0095 8.55896L15.4104 4.99292H8.53305Z" fill="#F89C35"/>
<path fill-rule="evenodd" clip-rule="evenodd" d="M1.84677 12.8254L0.0637512 17.9834L4.5213 17.7287H7.38681V15.4999L7.25945 10.915L6.62266 11.4245L1.84677 12.8254Z" fill="#F89D35"/>
<path fill-rule="evenodd" clip-rule="evenodd" d="M5.2218 13.3984L10.4435 13.5258L9.87044 16.2003L7.3869 15.5635L5.2218 13.3984Z" fill="#D87C30"/>
<path fill-rule="evenodd" clip-rule="evenodd" d="M5.2218 13.4622L7.3869 15.4999V17.5376L5.2218 13.4622Z" fill="#EA8D3A"/>
<path fill-rule="evenodd" clip-rule="evenodd" d="M7.38684 15.5637L9.93401 16.2005L10.7619 18.9388L10.1887 19.2571L7.38684 17.6015V15.5637Z" fill="#F89D35"/>
<path fill-rule="evenodd" clip-rule="evenodd" d="M7.38681 17.6013L6.87738 21.5494L10.2524 19.1934L7.38681 17.6013Z" fill="#EB8F35"/>
<path fill-rule="evenodd" clip-rule="evenodd" d="M10.4435 13.5259L10.7619 18.9387L9.80667 16.1686L10.4435 13.5259Z" fill="#EA8E3A"/>
<path fill-rule="evenodd" clip-rule="evenodd" d="M4.45758 17.6651L7.38683 17.6013L6.87739 21.5494L4.45758 17.6651Z" fill="#D87C30"/>
<path fill-rule="evenodd" clip-rule="evenodd" d="M1.46469 23.2688L6.87737 21.5494L4.45756 17.665L0.0637512 17.9834L1.46469 23.2688Z" fill="#EB8F35"/>
<path fill-rule="evenodd" clip-rule="evenodd" d="M10.0614 8.55884L7.32327 10.8513L5.2218 13.3985L10.4435 13.5896L10.0614 8.55884Z" fill="#E8821E"/>
<path fill-rule="evenodd" clip-rule="evenodd" d="M6.87738 21.5494L10.2524 19.1934L9.99772 21.2311V22.3773L7.70527 21.9315L6.87738 21.5494Z" fill="#DFCEC3"/>
<path fill-rule="evenodd" clip-rule="evenodd" d="M17.0661 21.5494L13.7548 19.1934L14.0095 21.2311V22.3773L16.3019 21.9315L17.0661 21.5494Z" fill="#DFCEC3"/>
<path fill-rule="evenodd" clip-rule="evenodd" d="M9.04248 14.6721L9.74301 16.1368L7.25946 15.5L9.04248 14.6721Z" fill="#393939"/>
<path fill-rule="evenodd" clip-rule="evenodd" d="M1.40097 2L10.0613 8.55891L8.59678 4.99287L1.40097 2Z" fill="#E88F35"/>
<path fill-rule="evenodd" clip-rule="evenodd" d="M1.40102 2L0.254791 5.50236L0.891584 9.32311L0.445829 9.57783L1.08262 10.1509L0.573187 10.5967L1.27366 11.2335L0.827904 11.6156L1.84677 12.8891L6.62271 11.4245C8.95762 9.5566 10.1038 8.60141 10.0614 8.55896C10.0189 8.51651 7.13215 6.33019 1.40102 2Z" fill="#8E5A30"/>
<path fill-rule="evenodd" clip-rule="evenodd" d="M22.0966 12.8254L23.8796 17.9834L19.4221 17.7287H16.5566V15.4999L16.6839 10.915L17.3207 11.4245L22.0966 12.8254Z" fill="#F89D35"/>
<path fill-rule="evenodd" clip-rule="evenodd" d="M18.7217 13.3984L13.5 13.5258L14.0731 16.2003L16.5566 15.5635L18.7217 13.3984Z" fill="#D87C30"/>
<path fill-rule="evenodd" clip-rule="evenodd" d="M18.7217 13.4622L16.5566 15.4999V17.5376L18.7217 13.4622Z" fill="#EA8D3A"/>
<path fill-rule="evenodd" clip-rule="evenodd" d="M16.5565 15.5635L14.0093 16.2003L13.1815 18.9385L13.7546 19.2569L16.5565 17.6012V15.5635Z" fill="#F89D35"/>
<path fill-rule="evenodd" clip-rule="evenodd" d="M16.5567 17.6013L17.0661 21.5494L13.7548 19.257L16.5567 17.6013Z" fill="#EB8F35"/>
<path fill-rule="evenodd" clip-rule="evenodd" d="M13.5 13.5259L13.1815 18.9387L14.1368 16.1686L13.5 13.5259Z" fill="#EA8E3A"/>
<path fill-rule="evenodd" clip-rule="evenodd" d="M19.4858 17.6651L16.5566 17.6013L17.066 21.5494L19.4858 17.6651Z" fill="#D87C30"/>
<path fill-rule="evenodd" clip-rule="evenodd" d="M22.4787 23.2688L17.066 21.5494L19.4858 17.665L23.8796 17.9834L22.4787 23.2688Z" fill="#EB8F35"/>
<path fill-rule="evenodd" clip-rule="evenodd" d="M13.8821 8.55884L16.6202 10.8513L18.7217 13.3985L13.5 13.5896L13.8821 8.55884Z" fill="#E8821E"/>
<path fill-rule="evenodd" clip-rule="evenodd" d="M14.9008 14.6721L14.2003 16.1368L16.6839 15.5L14.9008 14.6721Z" fill="#393939"/>
<path fill-rule="evenodd" clip-rule="evenodd" d="M22.5424 2L13.882 8.55891L15.3466 4.99287L22.5424 2Z" fill="#E88F35"/>
<path fill-rule="evenodd" clip-rule="evenodd" d="M22.5425 2L23.6887 5.50236L23.0519 9.32311L23.4977 9.57783L22.8609 10.1509L23.3703 10.5967L22.6699 11.2335L23.1156 11.6156L22.0967 12.8891L17.3208 11.4245C14.9859 9.5566 13.8397 8.60141 13.8821 8.55896C13.9246 8.51651 16.8114 6.33019 22.5425 2Z" fill="#8E5A30"/>
</svg>
