<svg width="24" height="25" viewBox="0 0 24 25" fill="none" xmlns="http://www.w3.org/2000/svg">
<path d="M4.91617 7.87377C8.82885 4.04208 15.1711 4.04208 19.0889 7.87377L19.5596 8.33439C19.757 8.52673 19.757 8.83549 19.5596 9.02784L17.95 10.6071C17.8538 10.7033 17.6919 10.7033 17.5957 10.6071L16.9478 9.97437C14.2195 7.3018 9.79057 7.3018 7.06232 9.97437L6.36887 10.6526C6.2727 10.7488 6.11072 10.7488 6.01455 10.6526L4.39987 9.07339C4.20247 8.88105 4.20247 8.57229 4.39987 8.37994L4.91617 7.87377ZM22.4195 11.1335L23.8519 12.5356C24.0494 12.7279 24.0494 13.0367 23.8519 13.229L17.3882 19.5612C17.1908 19.7536 16.8769 19.7536 16.6795 19.5612L12.0886 15.0664C12.038 15.0209 11.962 15.0209 11.9114 15.0664L7.32553 19.5612C7.12812 19.7536 6.8143 19.7536 6.61689 19.5612L0.148054 13.2341C-0.0493515 13.0418 -0.0493515 12.733 0.148054 12.5407L1.58051 11.1386C1.77792 10.9462 2.09174 10.9462 2.28915 11.1386L6.8801 15.6333C6.93072 15.6789 7.00664 15.6789 7.05726 15.6333L11.6432 11.1386C11.8406 10.9462 12.1544 10.9462 12.3518 11.1386L16.9427 15.6333C16.9934 15.6789 17.0693 15.6789 17.1199 15.6333L21.7108 11.1386C21.9032 10.9412 22.2221 10.9412 22.4195 11.1335Z" fill="#3A99FB"/>
</svg>
