<svg width="145" height="110" viewBox="0 0 145 110" fill="none" xmlns="http://www.w3.org/2000/svg">
<g clip-path="url(#clip0)">
<path d="M0.360695 23.0065C0.360695 10.3004 10.696 0 23.4453 0H121.555C134.304 0 144.639 10.3004 144.639 23.0065V264.575C144.639 277.281 134.304 287.582 121.555 287.582H23.4453C10.696 287.582 0.360695 277.281 0.360695 264.575V23.0065Z" fill="white"/>
<path d="M0.360695 23.0065C0.360695 10.3004 10.696 0 23.4453 0H121.555C134.304 0 144.639 10.3004 144.639 23.0065V264.575C144.639 277.281 134.304 287.582 121.555 287.582H23.4453C10.696 287.582 0.360695 277.281 0.360695 264.575V23.0065Z" fill="#141414" fill-opacity="0.08"/>
<path d="M7.57463 24.4444C7.57463 14.9148 15.3261 7.18954 24.8881 7.18954H120.112C129.674 7.18954 137.425 14.9148 137.425 24.4444V251.634C137.425 261.164 129.674 268.889 120.112 268.889H24.8881C15.3261 268.889 7.57463 261.164 7.57463 251.634V24.4444Z" fill="white"/>
<path d="M97.0274 30.1961C97.0274 25.4313 100.903 21.5686 105.684 21.5686H117.226C122.007 21.5686 125.883 25.4313 125.883 30.1961V41.6994C125.883 46.4642 122.007 50.3268 117.226 50.3268H105.684C100.903 50.3268 97.0274 46.4642 97.0274 41.6994V30.1961Z" fill="#3D5AFE"/>
<path d="M22.0025 30.1961C22.0025 25.4313 25.8782 21.5686 30.6592 21.5686H42.2015C46.9825 21.5686 50.8582 25.4313 50.8582 30.1961V41.6994C50.8582 46.4642 46.9825 50.3268 42.2015 50.3268H30.6592C25.8782 50.3268 22.0025 46.4642 22.0025 41.6994V30.1961Z" fill="white"/>
<path d="M22.0025 30.1961C22.0025 25.4313 25.8782 21.5686 30.6592 21.5686H42.2015C46.9825 21.5686 50.8582 25.4313 50.8582 30.1961V41.6994C50.8582 46.4642 46.9825 50.3268 42.2015 50.3268H30.6592C25.8782 50.3268 22.0025 46.4642 22.0025 41.6994V30.1961Z" fill="#141414" fill-opacity="0.08"/>
<path d="M22.0025 104.967C22.0025 100.203 25.8782 96.3399 30.6592 96.3399H42.2015C46.9825 96.3399 50.8582 100.203 50.8582 104.967V116.471C50.8582 121.235 46.9825 125.098 42.2015 125.098H30.6592C25.8782 125.098 22.0025 121.235 22.0025 116.471V104.967Z" fill="white"/>
<path d="M22.0025 104.967C22.0025 100.203 25.8782 96.3399 30.6592 96.3399H42.2015C46.9825 96.3399 50.8582 100.203 50.8582 104.967V116.471C50.8582 121.235 46.9825 125.098 42.2015 125.098H30.6592C25.8782 125.098 22.0025 121.235 22.0025 116.471V104.967Z" fill="#141414" fill-opacity="0.08"/>
<path d="M22.0025 67.5817C22.0025 62.8169 25.8782 58.9543 30.6592 58.9543H42.2015C46.9825 58.9543 50.8582 62.8169 50.8582 67.5817V79.085C50.8582 83.8498 46.9825 87.7124 42.2015 87.7124H30.6592C25.8782 87.7124 22.0025 83.8498 22.0025 79.085V67.5817Z" fill="white"/>
<path d="M22.0025 67.5817C22.0025 62.8169 25.8782 58.9543 30.6592 58.9543H42.2015C46.9825 58.9543 50.8582 62.8169 50.8582 67.5817V79.085C50.8582 83.8498 46.9825 87.7124 42.2015 87.7124H30.6592C25.8782 87.7124 22.0025 83.8498 22.0025 79.085V67.5817Z" fill="#141414" fill-opacity="0.08"/>
<path d="M22.0025 142.353C22.0025 137.588 25.8782 133.725 30.6592 133.725H42.2015C46.9825 133.725 50.8582 137.588 50.8582 142.353V153.856C50.8582 158.621 46.9825 162.484 42.2015 162.484H30.6592C25.8782 162.484 22.0025 158.621 22.0025 153.856V142.353Z" fill="white"/>
<path d="M22.0025 142.353C22.0025 137.588 25.8782 133.725 30.6592 133.725H42.2015C46.9825 133.725 50.8582 137.588 50.8582 142.353V153.856C50.8582 158.621 46.9825 162.484 42.2015 162.484H30.6592C25.8782 162.484 22.0025 158.621 22.0025 153.856V142.353Z" fill="#141414" fill-opacity="0.08"/>
<path d="M59.5149 30.1961C59.5149 25.4313 63.3907 21.5686 68.1716 21.5686H79.7139C84.4949 21.5686 88.3706 25.4313 88.3706 30.1961V41.6994C88.3706 46.4642 84.4949 50.3268 79.7139 50.3268H68.1716C63.3907 50.3268 59.5149 46.4642 59.5149 41.6994V30.1961Z" fill="white"/>
<path d="M59.5149 30.1961C59.5149 25.4313 63.3907 21.5686 68.1716 21.5686H79.7139C84.4949 21.5686 88.3706 25.4313 88.3706 30.1961V41.6994C88.3706 46.4642 84.4949 50.3268 79.7139 50.3268H68.1716C63.3907 50.3268 59.5149 46.4642 59.5149 41.6994V30.1961Z" fill="#141414" fill-opacity="0.08"/>
<path d="M59.5149 104.967C59.5149 100.203 63.3907 96.3399 68.1716 96.3399H79.7139C84.4949 96.3399 88.3706 100.203 88.3706 104.967V116.471C88.3706 121.235 84.4949 125.098 79.7139 125.098H68.1716C63.3907 125.098 59.5149 121.235 59.5149 116.471V104.967Z" fill="white"/>
<path d="M59.5149 104.967C59.5149 100.203 63.3907 96.3399 68.1716 96.3399H79.7139C84.4949 96.3399 88.3706 100.203 88.3706 104.967V116.471C88.3706 121.235 84.4949 125.098 79.7139 125.098H68.1716C63.3907 125.098 59.5149 121.235 59.5149 116.471V104.967Z" fill="#141414" fill-opacity="0.08"/>
<path d="M59.5149 67.5817C59.5149 62.8169 63.3907 58.9543 68.1716 58.9543H79.7139C84.4949 58.9543 88.3706 62.8169 88.3706 67.5817V79.085C88.3706 83.8498 84.4949 87.7124 79.7139 87.7124H68.1716C63.3907 87.7124 59.5149 83.8498 59.5149 79.085V67.5817Z" fill="white"/>
<path d="M59.5149 67.5817C59.5149 62.8169 63.3907 58.9543 68.1716 58.9543H79.7139C84.4949 58.9543 88.3706 62.8169 88.3706 67.5817V79.085C88.3706 83.8498 84.4949 87.7124 79.7139 87.7124H68.1716C63.3907 87.7124 59.5149 83.8498 59.5149 79.085V67.5817Z" fill="#141414" fill-opacity="0.08"/>
<path d="M59.5149 142.353C59.5149 137.588 63.3907 133.725 68.1716 133.725H79.7139C84.4949 133.725 88.3706 137.588 88.3706 142.353V153.856C88.3706 158.621 84.4949 162.484 79.7139 162.484H68.1716C63.3907 162.484 59.5149 158.621 59.5149 153.856V142.353Z" fill="white"/>
<path d="M59.5149 142.353C59.5149 137.588 63.3907 133.725 68.1716 133.725H79.7139C84.4949 133.725 88.3706 137.588 88.3706 142.353V153.856C88.3706 158.621 84.4949 162.484 79.7139 162.484H68.1716C63.3907 162.484 59.5149 158.621 59.5149 153.856V142.353Z" fill="#141414" fill-opacity="0.08"/>
<path d="M97.0274 104.967C97.0274 100.203 100.903 96.3399 105.684 96.3399H117.226C122.007 96.3399 125.883 100.203 125.883 104.967V116.471C125.883 121.235 122.007 125.098 117.226 125.098H105.684C100.903 125.098 97.0274 121.235 97.0274 116.471V104.967Z" fill="white"/>
<path d="M97.0274 104.967C97.0274 100.203 100.903 96.3399 105.684 96.3399H117.226C122.007 96.3399 125.883 100.203 125.883 104.967V116.471C125.883 121.235 122.007 125.098 117.226 125.098H105.684C100.903 125.098 97.0274 121.235 97.0274 116.471V104.967Z" fill="#141414" fill-opacity="0.08"/>
<path d="M97.0274 67.5817C97.0274 62.8169 100.903 58.9543 105.684 58.9543H117.226C122.007 58.9543 125.883 62.8169 125.883 67.5817V79.085C125.883 83.8498 122.007 87.7124 117.226 87.7124H105.684C100.903 87.7124 97.0274 83.8498 97.0274 79.085V67.5817Z" fill="white"/>
<path d="M97.0274 67.5817C97.0274 62.8169 100.903 58.9543 105.684 58.9543H117.226C122.007 58.9543 125.883 62.8169 125.883 67.5817V79.085C125.883 83.8498 122.007 87.7124 117.226 87.7124H105.684C100.903 87.7124 97.0274 83.8498 97.0274 79.085V67.5817Z" fill="#141414" fill-opacity="0.08"/>
<path d="M97.0274 142.353C97.0274 137.588 100.903 133.725 105.684 133.725H117.226C122.007 133.725 125.883 137.588 125.883 142.353V153.856C125.883 158.621 122.007 162.484 117.226 162.484H105.684C100.903 162.484 97.0274 158.621 97.0274 153.856V142.353Z" fill="white"/>
<path d="M97.0274 142.353C97.0274 137.588 100.903 133.725 105.684 133.725H117.226C122.007 133.725 125.883 137.588 125.883 142.353V153.856C125.883 158.621 122.007 162.484 117.226 162.484H105.684C100.903 162.484 97.0274 158.621 97.0274 153.856V142.353Z" fill="#141414" fill-opacity="0.08"/>
</g>
<defs>
<clipPath id="clip0">
<rect width="145" height="110" fill="white"/>
</clipPath>
</defs>
</svg>
