<svg width="156" height="254" viewBox="0 0 156 254" fill="none" xmlns="http://www.w3.org/2000/svg">
<path d="M45.3649 144.546C39.8067 141.819 34.0613 139.491 28.1723 137.581C19.6863 134.969 9.67373 137.36 9.45316 140.187C9.23259 143.013 10.7417 141.719 12.721 144.784C14.7003 147.849 13.8065 155.011 16.639 161.541C19.4715 168.071 27.9517 171.333 27.9517 171.333L45.3649 144.546Z" fill="#FFBCCC" stroke="#263238" stroke-linecap="round" stroke-linejoin="round"/>
<path opacity="0.2" d="M39.7056 150.861C39.7056 150.861 26.6458 142.59 19.0304 139.757C11.415 136.925 10.9797 141.063 10.9797 141.063C12.2326 141.523 13.3077 142.368 14.0512 143.476C14.7946 144.584 15.1681 145.9 15.1182 147.233C15.1182 152.121 17.5619 162.243 23.4998 164.333C29.4377 166.423 39.7056 150.861 39.7056 150.861Z" fill="black"/>
<path d="M132.893 160.103C136.306 158.806 137.944 154.784 136.552 151.119C135.16 147.454 131.264 145.534 127.851 146.831C124.438 148.127 122.799 152.149 124.192 155.814C125.584 159.479 129.479 161.399 132.893 160.103Z" fill="#FFBCCC" stroke="#263238" stroke-linecap="round" stroke-linejoin="round"/>
<path d="M39.3167 229.423L46.6419 251.399C46.8406 251.994 47.2216 252.512 47.7311 252.879C48.2405 253.245 48.8525 253.443 49.4802 253.442H60.8975C61.4815 253.443 62.053 253.272 62.5411 252.951C63.0291 252.63 63.4123 252.173 63.6429 251.637L68.7508 239.784" fill="#FFBCCC"/>
<path opacity="0.2" d="M42.9909 229.423L49.0507 251.399C49.1654 251.951 49.4581 252.449 49.8839 252.818C50.3096 253.188 50.8449 253.407 51.4073 253.442H60.8742C61.3942 253.415 61.8928 253.227 62.3007 252.903C62.7086 252.58 63.0053 252.137 63.1496 251.637L67.3868 239.784" fill="black"/>
<path d="M39.3167 229.423L46.6419 251.399C46.8406 251.994 47.2216 252.512 47.7311 252.879C48.2405 253.245 48.8525 253.443 49.4802 253.442H60.8975C61.4815 253.443 62.053 253.272 62.5411 252.951C63.0291 252.63 63.4123 252.173 63.6429 251.637L68.7508 239.784" stroke="#263238" stroke-linecap="round" stroke-linejoin="round"/>
<path d="M94.412 229.423L87.0927 251.399C86.894 251.994 86.5129 252.512 86.0035 252.879C85.494 253.245 84.882 253.443 84.2543 253.442H72.8487C72.2646 253.443 71.6931 253.272 71.2051 252.951C70.717 252.63 70.3339 252.173 70.1032 251.637L64.9953 239.784" fill="#263238"/>
<path d="M94.412 229.423L87.0927 251.399C86.894 251.994 86.5129 252.512 86.0035 252.879C85.494 253.245 84.882 253.443 84.2543 253.442H72.8487C72.2646 253.443 71.6931 253.272 71.2051 252.951C70.717 252.63 70.3339 252.173 70.1032 251.637L64.9953 239.784" stroke="#263238" stroke-linecap="round" stroke-linejoin="round"/>
<path d="M118.669 229.423L111.343 251.399C111.145 251.994 110.764 252.512 110.254 252.879C109.745 253.245 109.133 253.443 108.505 253.442H97.0878C96.5037 253.443 95.9322 253.272 95.4442 252.951C94.9561 252.63 94.573 252.173 94.3423 251.637L89.2345 239.784" fill="#FFBCCC"/>
<path opacity="0.2" d="M113.479 229.423L108.47 251.399C108.192 252.618 107.414 253.442 106.532 253.442H98.7247C97.912 253.442 97.1749 252.734 96.8498 251.637L91.9974 240.028" fill="black"/>
<path d="M118.669 229.423L111.343 251.399C111.145 251.994 110.764 252.512 110.254 252.879C109.745 253.245 109.133 253.443 108.505 253.442H97.0878C96.5037 253.443 95.9322 253.272 95.4442 252.951C94.9561 252.63 94.573 252.173 94.3423 251.637L89.2345 239.784" stroke="#263238" stroke-linecap="round" stroke-linejoin="round"/>
<path d="M79.5237 243.882C114.2 243.882 142.31 218.389 142.31 186.941C142.31 155.493 114.2 130 79.5237 130C44.8479 130 16.7377 155.493 16.7377 186.941C16.7377 218.389 44.8479 243.882 79.5237 243.882Z" fill="#FFD1DC"/>
<path opacity="0.1" d="M122.766 148.034C126.448 155.336 128.367 163.399 128.368 171.577C128.368 203.025 100.257 228.518 65.5816 228.518C52.6776 228.583 40.0296 224.919 29.1591 217.965C40.1061 232.656 58.6395 242.344 79.6572 242.344C113.323 242.344 140.603 217.611 140.603 187.098C140.568 171.826 133.754 158.029 122.766 148.034Z" fill="black"/>
<path d="M79.5237 243.882C114.2 243.882 142.31 218.389 142.31 186.941C142.31 155.493 114.2 130 79.5237 130C44.8479 130 16.7377 155.493 16.7377 186.941C16.7377 218.389 44.8479 243.882 79.5237 243.882Z" stroke="#263238" stroke-linecap="round" stroke-linejoin="round"/>
<path d="M137.028 192.049C135.658 203.518 130.37 213.926 122.407 222.145" stroke="#FFBCCC" stroke-width="2" stroke-linecap="round" stroke-linejoin="round"/>
<path d="M135.989 174.386C136.915 178.228 137.383 182.165 137.382 186.117" stroke="#FFBCCC" stroke-width="2" stroke-linecap="round" stroke-linejoin="round"/>
<path d="M63.9564 133.552C69.1298 132.343 74.4256 131.735 79.7385 131.741C83.1399 131.741 86.5368 131.989 89.902 132.484" stroke="#263238" stroke-width="4" stroke-linecap="round" stroke-linejoin="round"/>
<path d="M91.8407 173.301C91.8407 173.301 97.9353 169.162 98.1558 161.547C98.3764 153.931 88.358 142.834 80.3073 138.26C72.2566 133.686 66.3768 134.562 66.162 137.824C65.9473 141.086 63.1147 144.79 62.0293 151.099C60.9439 157.408 60.5028 166.771 68.9946 169.818" fill="#FFBCCC"/>
<path d="M91.8407 173.301C91.8407 173.301 97.9353 169.162 98.1558 161.547C98.3764 153.931 88.358 142.834 80.3073 138.26C72.2566 133.686 66.3768 134.562 66.162 137.824C65.9473 141.086 63.1147 144.79 62.0293 151.099C60.9439 157.408 60.5028 166.771 68.9946 169.818" stroke="#263238" stroke-linecap="round" stroke-linejoin="round"/>
<path opacity="0.2" d="M78.7285 170.857L79.9765 171.043C85.3281 171.815 87.2087 168.321 87.052 163.073C86.8373 155.673 77.0453 140.001 72.9067 137.824C68.7682 135.648 67.468 138.695 67.468 138.695C67.468 138.695 68.0485 139.084 66.0111 145.846C65.0708 148.969 61.5708 159.858 65.036 164.687C68.1007 168.953 73.7948 170.12 78.7285 170.857Z" fill="black"/>
<path opacity="0.3" d="M96.0662 163.358H95.985C95.909 163.348 95.8358 163.323 95.7695 163.284C95.7032 163.246 95.6452 163.195 95.5988 163.134C95.5523 163.073 95.5185 163.003 95.4991 162.929C95.4797 162.855 95.4752 162.778 95.4858 162.702C95.5487 162.256 95.5855 161.806 95.5961 161.355C95.7122 157.292 92.3979 151.459 86.9475 146.078C86.893 146.024 86.8497 145.96 86.8199 145.89C86.7901 145.819 86.7745 145.744 86.7739 145.667C86.7734 145.591 86.7879 145.515 86.8167 145.444C86.8455 145.373 86.888 145.308 86.9417 145.254C86.9955 145.199 87.0594 145.156 87.1299 145.126C87.2004 145.096 87.2761 145.081 87.3527 145.08C87.4292 145.08 87.5051 145.094 87.576 145.123C87.6469 145.152 87.7115 145.194 87.766 145.248C93.5239 150.936 96.8847 156.967 96.757 161.384C96.7445 161.877 96.7057 162.37 96.6409 162.859C96.6213 162.997 96.5524 163.124 96.4468 163.216C96.3412 163.307 96.2061 163.358 96.0662 163.358Z" fill="black"/>
<path opacity="0.3" d="M92.9435 170.358C92.8336 170.358 92.726 170.327 92.6329 170.269C92.5399 170.211 92.4653 170.127 92.4179 170.028C92.3705 169.929 92.3522 169.818 92.3651 169.709C92.378 169.6 92.4215 169.497 92.4907 169.412C93.4473 168.24 94.2115 166.923 94.7545 165.511C94.8091 165.367 94.9187 165.251 95.0591 165.188C95.1995 165.125 95.3593 165.12 95.5032 165.175C95.6472 165.229 95.7635 165.339 95.8266 165.479C95.8898 165.62 95.8945 165.779 95.8399 165.923C95.2535 167.452 94.4265 168.876 93.3904 170.143C93.3364 170.21 93.2683 170.264 93.191 170.301C93.1138 170.338 93.0292 170.357 92.9435 170.358Z" fill="black"/>
<path opacity="0.3" d="M50.6745 197.958C52.3912 191.078 46.4077 183.661 37.31 181.391C28.2123 179.121 19.4456 182.858 17.7289 189.738C16.0123 196.618 21.9958 204.036 31.0935 206.306C40.1911 208.576 48.9579 204.838 50.6745 197.958Z" fill="black"/>
<path d="M49.8576 196.709C51.5743 189.829 45.5908 182.411 36.4931 180.141C27.3954 177.871 18.6287 181.609 16.912 188.489C15.1954 195.369 21.1789 202.786 30.2766 205.056C39.3742 207.326 48.141 203.589 49.8576 196.709Z" fill="#FFBCCC" stroke="#263238" stroke-linecap="round" stroke-linejoin="round"/>
<path d="M28.2594 190.522C28.3639 192.078 27.766 193.39 26.9302 193.425C26.0943 193.459 25.3224 192.264 25.1889 190.708C25.0554 189.153 25.6822 187.835 26.5239 187.806C27.3655 187.777 28.1549 188.961 28.2594 190.522Z" stroke="#263238" stroke-linecap="round" stroke-linejoin="round"/>
<path d="M39.7637 193.407C39.8682 194.969 39.2703 196.275 38.4345 196.309C37.5986 196.344 36.8267 195.148 36.6932 193.587C36.5597 192.026 37.1865 190.72 38.0282 190.685C38.8698 190.65 39.6418 191.846 39.7637 193.407Z" stroke="#263238" stroke-linecap="round" stroke-linejoin="round"/>
<path d="M58.7498 197.441C58.6273 198.559 58.366 199.656 57.972 200.709C54.6403 209.712 42.5788 213.606 30.6624 209.729" stroke="#263238" stroke-width="2" stroke-linecap="round" stroke-linejoin="round"/>
<path d="M56.8054 196.588H60.5028" stroke="#263238" stroke-width="2" stroke-linecap="round" stroke-linejoin="round"/>
<path d="M33.2512 172.488C32.8448 174.177 31.8059 175.39 30.9294 175.17C30.0529 174.949 29.6699 173.428 30.082 171.722C30.4941 170.015 31.5273 168.82 32.4037 169.035C33.2802 169.249 33.6633 170.793 33.2512 172.488Z" fill="#263238" stroke="#263238" stroke-linecap="round" stroke-linejoin="round"/>
<path d="M43.9558 174.822C44.3643 173.126 43.9856 171.581 43.1099 171.37C42.2342 171.159 41.1931 172.362 40.7845 174.057C40.3759 175.753 40.7546 177.298 41.6303 177.509C42.506 177.72 43.5472 176.517 43.9558 174.822Z" fill="#263238" stroke="#263238" stroke-linecap="round" stroke-linejoin="round"/>
<path d="M59.9397 236.493L66.3246 251.643C66.5537 252.184 66.9374 252.647 67.4278 252.972C67.9181 253.297 68.4933 253.471 69.0816 253.471H80.6904C81.2734 253.47 81.8434 253.299 82.331 252.98C82.8186 252.66 83.2025 252.206 83.4359 251.672L90.4012 235.576H90.0993" fill="#FFBCCC"/>
<path opacity="0.1" d="M71 236C67.32 236 63 236 63 236.5L67.9672 251.614C68.1093 252.118 68.4055 252.566 68.8146 252.894C69.2236 253.221 69.7249 253.413 70.2483 253.442H79.814C80.3311 253.413 80.8267 253.225 81.2321 252.902C81.6376 252.58 81.933 252.14 82.0777 251.643L87.5 235.5H82.5C75.1342 236.301 75.9279 236 71 236Z" fill="black"/>
<path d="M59.9397 236.493L66.3246 251.643C66.5537 252.184 66.9374 252.647 67.4278 252.972C67.9181 253.297 68.4933 253.471 69.0816 253.471H80.6904C81.2734 253.47 81.8434 253.299 82.331 252.98C82.8186 252.66 83.2025 252.206 83.4359 251.672L90.4012 235.576H90.0993" stroke="#263238" stroke-linecap="round" stroke-linejoin="round"/>
<path d="M173.586 -9.79104L141.482 36.4641C141.482 36.4641 138.737 43.0115 135.359 47.8697C131.981 52.728 122.508 57.5863 122.508 57.5863C122.508 57.5863 121.666 66.6644 118.921 69.8335C116.175 73.0027 110.26 71.1047 110.26 71.1047C110.26 71.1047 107.724 73.8502 104.978 75.1155C102.233 76.3809 93.7876 71.7374 93.7876 71.7374C93.7876 71.7374 101.386 79.9738 102.442 82.7193C103.498 85.4648 105.402 87.7865 102.024 90.323C98.6459 92.8596 94.8382 89.2666 94.8382 89.2666C94.8382 89.2666 96.5331 94.7576 91.6748 95.814C86.8166 96.8704 81.523 86.3064 79.4102 82.7193C77.2974 79.1322 71.1737 65.608 70.1231 64.9753C69.0726 64.3426 67.5924 60.9644 69.7052 57.7952C71.818 54.6261 86.805 34.3513 88.494 32.906C90.1831 31.4607 122.508 23.7931 122.508 23.7931L134.761 -10" fill="white"/>
<path opacity="0.2" d="M138.18 36.9691C138.18 36.9691 134.697 47.417 130.924 49.4485C127.151 51.4801 105.675 56.9943 97.2587 55.8334C88.8423 54.6725 84.1988 51.4801 84.1988 51.4801C84.1988 51.4801 79.5553 57.5747 77.5237 59.6062C76.1091 60.92 74.4256 61.9103 72.59 62.5084C72.59 62.5084 82.6897 87.8794 89.9509 95.7327C90.5151 95.907 91.1143 95.935 91.6923 95.814C96.5505 94.7576 94.8557 89.2667 94.8557 89.2667C94.8557 89.2667 98.6575 92.8538 102.041 90.3231C105.425 87.7923 103.516 85.4648 102.459 82.7193C101.403 79.9738 93.776 71.7374 93.776 71.7374C93.776 71.7374 102.221 76.3809 104.967 75.1156C107.712 73.8502 110.249 71.0989 110.249 71.0989C110.249 71.0989 116.164 73.0028 118.909 69.8336C121.655 66.6644 122.496 57.5863 122.496 57.5863C122.496 57.5863 131.998 52.728 135.382 47.8698C138.766 43.0115 141.506 36.4641 141.506 36.4641L154.734 17.4083L138.18 36.9691Z" fill="black"/>
<path d="M173.586 -9.79104L141.482 36.4641C141.482 36.4641 138.737 43.0115 135.359 47.8697C131.981 52.728 122.508 57.5863 122.508 57.5863C122.508 57.5863 121.666 66.6644 118.921 69.8335C116.175 73.0027 110.26 71.1047 110.26 71.1047C110.26 71.1047 107.724 73.8502 104.978 75.1155C102.233 76.3809 93.7876 71.7374 93.7876 71.7374C93.7876 71.7374 101.386 79.9738 102.442 82.7193C103.498 85.4648 105.402 87.7865 102.024 90.323C98.6459 92.8596 94.8382 89.2666 94.8382 89.2666C94.8382 89.2666 96.5331 94.7576 91.6748 95.814C86.8166 96.8704 81.523 86.3064 79.4102 82.7193C77.2974 79.1322 71.1737 65.608 70.1231 64.9753C69.0726 64.3426 67.5924 60.9644 69.7052 57.7953C71.818 54.6261 86.805 34.3513 88.494 32.906C90.1831 31.4607 122.508 23.7931 122.508 23.7931L134.761 -10" stroke="#263238" stroke-linecap="round" stroke-linejoin="round"/>
<path d="M63.7848 113.552L64.6264 116.721L77.7211 113.552L89.9742 81.4481L81.9467 78.7027L63.7848 113.552Z" fill="white" stroke="#263238" stroke-linecap="round" stroke-linejoin="round"/>
<path d="M67.7956 70.89L85.9575 77.6521L77.0884 117.778L55.7573 111.23L67.7956 70.89Z" fill="white" stroke="#263238" stroke-linecap="round" stroke-linejoin="round"/>
<path d="M56.4712 108.833L75.3993 114.4L83.6358 78.7027L67.0526 73.3742L56.4712 108.833Z" fill="#15E844"/>
<path d="M56.4712 108.833L75.3993 114.4L83.6358 78.7027L67.0526 73.3742L56.4712 108.833Z" fill="white" fill-opacity="0.32"/>
<path d="M66.9772 82.2027C66.1534 81.9847 65.2926 81.9451 64.4523 82.0866L59.5069 98.6581C60.2227 99.3556 61.1032 99.8608 62.0667 100.127C65.944 101.195 70.1928 98.0429 71.551 93.0917C72.9093 88.1406 70.8487 83.2649 66.9772 82.2027Z" fill="white" stroke="#263238" stroke-linecap="round" stroke-linejoin="round"/>
<path d="M66.2748 84.9482C66.25 84.9369 66.2296 84.9177 66.2169 84.8935C66.2043 84.8693 66.2002 84.8415 66.2052 84.8147L66.4258 83.9556C66.4392 83.9194 66.4443 83.8806 66.4405 83.8422C66.4368 83.8038 66.4245 83.7667 66.4043 83.7337C66.3842 83.7007 66.3569 83.6728 66.3244 83.6519C66.2919 83.631 66.2551 83.6178 66.2168 83.6132L65.2939 83.3926C65.2578 83.3779 65.2187 83.3719 65.1798 83.3751C65.1409 83.3783 65.1033 83.3905 65.07 83.4108C65.0367 83.4311 65.0087 83.459 64.9881 83.4921C64.9675 83.5252 64.9549 83.5627 64.9514 83.6015L64.7715 84.4896C64.7647 84.5162 64.7488 84.5395 64.7265 84.5554C64.7042 84.5714 64.6769 84.5789 64.6496 84.5767C64.3351 84.5445 64.0181 84.5445 63.7035 84.5767L62.0144 90.2476C63.332 91.6174 65.3868 92.3023 65.114 93.4516C64.9572 94.1017 64.3652 94.6125 63.3262 94.3803C63.109 94.3512 62.9005 94.2757 62.715 94.1589C62.5296 94.0421 62.3714 93.8867 62.2514 93.7033C62.1313 93.52 62.0521 93.3129 62.0193 93.0961C61.9864 92.8794 62.0006 92.6582 62.0609 92.4474L62.1131 92.2153C62.1421 92.0876 62.0667 91.9831 61.8867 91.9425L61.5327 91.8554L60.5285 95.2103C60.9318 95.577 61.4031 95.8609 61.9157 96.0462C61.9418 96.0576 61.963 96.0778 61.9757 96.1032C61.9884 96.1287 61.9919 96.1578 61.9854 96.1855L61.7764 96.9226C61.7604 96.9587 61.7534 96.9981 61.7559 97.0374C61.7585 97.0768 61.7705 97.115 61.7911 97.1487C61.8116 97.1823 61.8401 97.2105 61.8739 97.2308C61.9077 97.2511 61.946 97.2629 61.9854 97.2651L62.9431 97.4973C62.9768 97.5151 63.0141 97.5251 63.0522 97.5263C63.0903 97.5275 63.1282 97.52 63.1629 97.5043C63.1977 97.4886 63.2284 97.4652 63.2527 97.4358C63.2769 97.4064 63.2942 97.3718 63.303 97.3347L63.4597 96.6034C63.4684 96.5763 63.4854 96.5527 63.5084 96.536C63.5313 96.5193 63.559 96.5104 63.5874 96.5105C65.6306 96.7253 67.0178 95.7211 67.4473 93.9334C67.784 92.5055 67.3022 91.2924 65.8105 90.1489C64.4465 89.1157 63.007 88.6049 63.2566 87.5485C63.4307 86.8172 64.0982 86.4805 64.9979 86.6953C65.2205 86.7311 65.4328 86.8148 65.62 86.9405C65.8073 87.0662 65.9651 87.2309 66.0826 87.4234C66.2001 87.6159 66.2745 87.8316 66.3006 88.0556C66.3268 88.2796 66.3041 88.5066 66.2342 88.721L66.1936 88.8835C66.1936 88.9822 66.2516 89.0693 66.4316 89.1157L68.1323 89.522C68.1685 89.5355 68.2072 89.5405 68.2457 89.5368C68.2841 89.5331 68.3212 89.5207 68.3542 89.5006C68.3871 89.4805 68.4151 89.4532 68.436 89.4207C68.4569 89.3882 68.4701 89.3514 68.4747 89.3131L68.6024 88.7733C68.9913 87.0726 68.1729 85.6273 66.2748 84.9482Z" fill="#263238"/>
<path d="M82.7883 49.7678C82.7883 49.7678 85.3248 53.5696 85.7486 56.9536C86.1086 59.8379 85.434 62.7563 83.8447 65.19C82.5794 67.0881 81.314 68.7771 80.2576 71.7374C79.2012 74.6976 78.9923 78.9174 77.5121 81.0244C76.032 83.1314 75.1904 85.2442 77.2974 87.148C79.4044 89.0519 84.9011 88.8371 87.8614 83.3462C90.8216 77.8552 92.7196 71.9405 94.6177 69.8277C96.5157 67.7149 102.645 62.8625 102.645 62.8625C102.645 62.8625 119.327 60.5407 122.496 57.5863C125.665 54.6319 128.411 46.6044 128.411 46.6044" fill="white"/>
<path opacity="0.2" d="M127.151 49.4485C127.151 49.4485 118.154 55.2529 111.189 56.9943C104.224 58.7356 99.8706 58.7356 97.2587 62.2182C94.6467 65.7008 92.0347 76.7292 88.5521 78.7607C85.0695 80.7922 84.489 73.5368 79.5553 74.9879L79.3928 75.0459C78.911 77.3096 78.4873 79.6314 77.5121 81.0302C76.032 83.143 75.1904 85.25 77.2974 87.1539C79.4044 89.0577 84.9011 88.8429 87.8614 83.352C90.8216 77.861 92.7196 71.9464 94.6177 69.8336C96.5157 67.7208 102.645 62.8683 102.645 62.8683C102.645 62.8683 119.327 60.5465 122.496 57.5921C124.412 55.8044 126.17 52.1708 127.262 49.5704L127.151 49.4485Z" fill="black"/>
<path d="M82.7883 49.7678C82.7883 49.7678 85.3248 53.5696 85.7486 56.9536C86.1086 59.8379 85.434 62.7563 83.8447 65.19C82.5794 67.0881 81.314 68.7771 80.2576 71.7374C79.2012 74.6976 78.9923 78.9174 77.5121 81.0244C76.032 83.1314 75.1904 85.2442 77.2974 87.148C79.4044 89.0519 84.9011 88.8371 87.8614 83.3462C90.8216 77.8552 92.7196 71.9405 94.6177 69.8277C96.5157 67.7149 102.645 62.8625 102.645 62.8625C102.645 62.8625 119.327 60.5407 122.496 57.5863C125.665 54.6319 128.411 46.6044 128.411 46.6044" stroke="#263238" stroke-linecap="round" stroke-linejoin="round"/>
<path d="M76.241 60.3318C76.241 60.3318 81.7377 63.2862 85.7486 59.9081" stroke="#263238" stroke-linecap="round" stroke-linejoin="round"/>
<path d="M94.8266 89.2666L89.9742 79.9738" stroke="#263238" stroke-linecap="round" stroke-linejoin="round"/>
<path d="M110.249 71.1047C110.249 71.1047 114.051 67.9355 113.836 60.9644" stroke="#263238" stroke-linecap="round" stroke-linejoin="round"/>
</svg>
