<svg xmlns="http://www.w3.org/2000/svg" viewBox="0 0 24 24"><path d="M11.6099 7.7118L8.7299 10.5918H21.8999C22.4499 10.5918 22.8999 11.0418 22.8999 11.5918C22.8999 12.1418 22.4499 12.5918 21.8999 12.5918H8.7299L11.6099 15.4718C11.9999 15.8618 11.9999 16.4918 11.6099 16.8818C11.2199 17.2718 10.5899 17.2718 10.1999 16.8818L5.6099 12.2918C5.2199 11.9018 5.2199 11.2718 5.6099 10.8818L10.1999 6.2918C10.5899 5.9018 11.2199 5.9018 11.6099 6.2918C11.9899 6.6818 11.9999 7.3218 11.6099 7.7118ZM3.8999 6.5918V16.5918C3.8999 17.1418 3.4499 17.5918 2.8999 17.5918C2.3499 17.5918 1.8999 17.1418 1.8999 16.5918V6.5918C1.8999 6.0418 2.3499 5.5918 2.8999 5.5918C3.4499 5.5918 3.8999 6.0418 3.8999 6.5918Z"/></svg>