<svg id="Слой_2" data-name="Слой 2" xmlns="http://www.w3.org/2000/svg" viewBox="0 0 100 100"><title>Монтажная область 12</title><path d="M91.5,56H89c-.47-15.39-9.27-28.26-22.39-34H83v2.5a1.5,1.5,0,0,0,3,0v-8a1.5,1.5,0,0,0-3,0V19H56V16.5A1.5,1.5,0,0,0,54.5,15h-8A1.5,1.5,0,0,0,45,16.5V19H18V16.5a1.5,1.5,0,0,0-3,0v8a1.5,1.5,0,0,0,3,0V22H34.34A38.4,38.4,0,0,0,11,57H8.5A1.5,1.5,0,0,0,7,58.5v8A1.5,1.5,0,0,0,8.5,68h8A1.5,1.5,0,0,0,18,66.5v-8A1.5,1.5,0,0,0,16.5,57H14A35.57,35.57,0,0,1,45,22.14V24.5A1.5,1.5,0,0,0,46.5,26h2.58L33.51,65.51a1.5,1.5,0,0,0,0,1.07l5.58,15.19L39,91.49A1.5,1.5,0,0,0,40.5,93h19A1.5,1.5,0,0,0,61,91.5V81.82l6.81-15.15a1.5,1.5,0,0,0,0-1.17L51.92,26H54.5A1.5,1.5,0,0,0,56,24.5V22.14C73,24.47,85.39,38.44,86,56H83.5A1.5,1.5,0,0,0,82,57.5v8A1.5,1.5,0,0,0,83.5,67h8A1.5,1.5,0,0,0,93,65.5v-8A1.5,1.5,0,0,0,91.5,56ZM15,65H10V60h5ZM42,90l.06-7H58v7ZM58.53,80H41.63L36.51,66.08,49,34.39V61.5a1.5,1.5,0,0,0,3,0V34.24L64.81,66ZM53,23H48V18h5ZM90,64H85V59h5Z"/></svg>