<?xml version="1.0" encoding="iso-8859-1"?>
<!-- Generator: Adobe Illustrator 21.0.0, SVG Export Plug-In . SVG Version: 6.00 Build 0)  -->
<svg version="1.1" id="Layer_1" xmlns="http://www.w3.org/2000/svg" xmlns:xlink="http://www.w3.org/1999/xlink" x="0px" y="0px"
	 viewBox="0 0 100.353 100.353" style="enable-background:new 0 0 100.353 100.353;" xml:space="preserve">
<path style="fill:#231F20;" d="M87.355,45.955c0.489-0.669,0.343-1.607-0.326-2.096L71.535,32.531l-0.064-0.048
	c-0.81-1.39-1.06-2.634-0.634-3.215c0.397-0.543,1.567-0.702,3.026-0.425c0.152,0.067,0.318,0.11,0.493,0.124
	c1.998,0.15,3.589-0.444,4.495-1.674c1.07-1.463,0.985-3.521-0.24-5.795c-1.038-1.928-2.827-3.879-5.035-5.493
	c-3.27-2.389-6.912-3.622-9.493-3.219c-1.237,0.193-2.225,0.754-2.853,1.614c-0.769,1.042-0.944,2.442-0.512,3.99
	c-0.02,0.306,0.056,0.614,0.221,0.882c0.917,1.484,1.22,2.839,0.77,3.454c-0.396,0.543-1.558,0.703-3.007,0.425L42.954,11.643
	c-0.32-0.235-0.723-0.332-1.115-0.271c-0.394,0.061-0.746,0.276-0.98,0.597L29.163,27.974c-0.121,0.166-0.207,0.354-0.252,0.554
	c-0.651,2.874-0.099,5.201,1.519,6.386c1.623,1.179,3.988,1.001,6.525-0.482c0.003,0,0.005-0.001,0.007-0.002
	c0.799-0.303,1.475-0.341,1.81-0.093c0.27,0.196,0.382,0.6,0.43,0.904c0.229,1.477-0.511,4.293-2.682,7.261
	c-2.166,2.968-4.627,4.528-6.104,4.757c-0.303,0.047-0.72,0.062-0.987-0.133c-0.32-0.235-0.488-0.815-0.469-1.607
	c0.639-2.888,0.097-5.132-1.533-6.327c-1.682-1.223-4.162-0.986-6.801,0.645c-0.165,0.102-0.309,0.235-0.423,0.392L8.647,56.046
	c-0.489,0.669-0.343,1.607,0.326,2.096l16.009,11.7c0.166,0.122,0.355,0.207,0.556,0.252c2.918,0.656,5.187,0.117,6.382-1.519
	c1.16-1.583,1.013-3.884-0.389-6.368c-0.015-0.066-0.034-0.132-0.058-0.196c-0.283-0.77-0.307-1.4-0.066-1.729
	c0.705-0.964,4.323-0.556,8.168,2.25c3.839,2.811,5.321,6.132,4.619,7.093c-0.219,0.298-0.753,0.466-1.462,0.47
	c-0.05-0.017-0.102-0.031-0.153-0.043c-2.875-0.644-5.2-0.088-6.383,1.526c-1.236,1.699-1.007,4.114,0.646,6.8
	c0.102,0.166,0.235,0.31,0.393,0.425l15.813,11.555c0.267,0.195,0.576,0.289,0.884,0.289c0.462,0,0.918-0.213,1.212-0.615
	l11.431-15.637c1.39-0.806,2.634-1.056,3.212-0.63c0.488,0.358,0.971,1.857,0.599,3.661c-0.036,0.12-0.059,0.244-0.063,0.37
	c-0.11,2.433,0.855,3.668,1.688,4.277c2.764,2.015,7.616-0.251,11.281-5.273c1.615-2.209,2.728-4.611,3.133-6.764
	c0.479-2.538-0.064-4.524-1.534-5.598c-0.807-0.583-2.222-1.121-4.395-0.373c-0.104,0.036-0.204,0.083-0.298,0.141
	c-1.65,1.019-3.287,0.863-3.87,0.439c-0.542-0.397-0.703-1.562-0.429-3.013L87.355,45.955z M74.558,67.066
	c1.774,1.292,4.65,1.198,7.054-0.212c0.446-0.138,1.122-0.272,1.515,0.01c0.449,0.328,0.587,1.355,0.35,2.616
	c-0.32,1.698-1.271,3.72-2.608,5.55c-2.803,3.841-6.126,5.322-7.09,4.62c-0.312-0.229-0.479-0.798-0.465-1.574
	c0.588-2.783-0.126-5.539-1.754-6.731c-1.676-1.23-4.159-0.996-6.808,0.645c-0.164,0.102-0.307,0.234-0.421,0.39L53.606,87.05
	L39.251,76.559c-0.803-1.393-1.052-2.637-0.633-3.213c0.391-0.533,1.523-0.697,2.937-0.442c0.182,0.096,0.384,0.156,0.6,0.17
	c1.973,0.136,3.563-0.458,4.459-1.677c2.018-2.759-0.247-7.612-5.27-11.289C36.313,56.437,31,55.752,28.985,58.51
	c-0.776,1.062-0.944,2.487-0.487,4.051c0,0.276,0.076,0.549,0.225,0.788c0.919,1.487,1.225,2.842,0.776,3.453
	c-0.395,0.541-1.555,0.701-3.009,0.425L11.954,56.603l10.491-14.361c1.39-0.803,2.635-1.048,3.213-0.628
	c0.558,0.409,0.71,1.631,0.397,3.139c-0.047,0.132-0.075,0.271-0.083,0.414c-0.113,1.947,0.485,3.501,1.685,4.379
	c0.866,0.635,1.978,0.869,3.219,0.677c2.589-0.402,5.68-2.683,8.066-5.951c2.391-3.268,3.625-6.905,3.223-9.492
	c-0.192-1.24-0.754-2.23-1.617-2.861c-1.116-0.824-2.64-0.966-4.325-0.409c-0.2,0.029-0.396,0.098-0.574,0.209
	c-1.485,0.917-2.843,1.217-3.449,0.773c-0.542-0.397-0.701-1.561-0.424-3.008l10.621-14.534l14.798,10.815
	c0.165,0.121,0.354,0.207,0.554,0.252c2.919,0.661,5.187,0.12,6.383-1.519c1.148-1.567,1.021-3.833-0.333-6.281
	c-0.016-0.095-0.04-0.188-0.073-0.28c-0.292-0.788-0.32-1.427-0.074-1.761c0.193-0.266,0.594-0.377,0.896-0.424
	c1.479-0.23,4.294,0.508,7.262,2.677c1.827,1.335,3.345,2.973,4.164,4.493c0.608,1.13,0.789,2.151,0.463,2.597
	c-0.237,0.321-0.803,0.488-1.574,0.471c-0.021-0.005-0.043-0.011-0.063-0.016c-2.922-0.652-5.185-0.11-6.38,1.523
	c-1.23,1.679-0.994,4.159,0.647,6.805c0.1,0.16,0.228,0.3,0.379,0.412l14.606,10.681L73.287,60.122
	c-0.122,0.167-0.208,0.357-0.253,0.558C72.378,63.599,72.919,65.866,74.558,67.066z"/>
</svg>
