<?xml version="1.0" encoding="UTF-8"?> <svg xmlns="http://www.w3.org/2000/svg" width="3680" height="2454" viewBox="0 0 3680 2454" fill="none"> <path d="M3009.44 2212.08C3009.44 2212.08 3235.76 2265.73 3347.17 2022.57C3491.7 1707.12 3288.84 1407.44 2938.88 1385.85C2434.16 1354.73 2713.89 548.907 1917.44 767.549C1693.48 829.027 1206.39 511.657 919.645 1049.4C870.888 1140.84 725.132 1136.35 530.942 1292.35C188.385 1567.52 311.702 2215 600.331 2217.95C888.957 2220.88 3009.44 2212.08 3009.44 2212.08" fill="#FCECDB"></path> <path d="M650.783 2216.77C650.783 2216.77 661.303 2147.84 795.546 2129.29C929.79 2110.75 1054.61 1962.04 1275.99 1983.63C1497.38 2005.2 1681.08 2140.63 1933.07 2099.13C2185.08 2057.64 2342.88 2110.52 2399.39 2152.24C2455.91 2193.95 2689.85 2142.45 2707.13 2218.88L650.783 2216.77" fill="#A8D29F"></path> <path d="M1202.61 574.107C1202.61 574.107 1051.1 566.707 1131.47 1028.47C1131.47 1028.47 1185.55 1185.22 1117.29 1286.25H2122.09V574.107H1202.61Z" fill="#AFCDFB"></path> <path d="M1305.81 1774.67C1305.81 1774.67 1235.61 1692.77 1301.48 1640.75C1301.48 1640.75 1349.6 1611.61 1388.83 1613.99C1388.83 1613.99 1333.24 1707.2 1351.23 1716.48C1369.21 1725.75 1405.68 1608.13 1405.68 1608.13C1405.68 1608.13 1515.16 1597.52 1550.39 1614.45C1550.39 1614.45 1456.79 1691.05 1476.51 1695.61C1496.21 1700.17 1597.32 1624.99 1597.32 1624.99C1597.32 1624.99 1699.21 1642.33 1693.79 1704.49C1688.35 1766.65 1653.24 1785.85 1637.8 1784.2C1622.37 1782.55 1532.09 1748.09 1530.13 1760.73C1528.16 1773.37 1582.51 1814.71 1620.56 1816.64C1620.56 1816.64 1548.72 1895.87 1500.96 1873C1453.21 1850.13 1449.15 1813.89 1419.37 1800.29C1389.61 1786.69 1364.2 1786.73 1376.49 1800.6C1388.79 1814.47 1442.65 1827.93 1459.67 1858.04C1476.69 1888.16 1491.96 1908.45 1442.56 1901.03C1393.16 1893.6 1312.86 1857.44 1309.34 1816.05C1305.81 1774.67 1305.81 1774.67 1305.81 1774.67Z" fill="#599DAD"></path> <path d="M1643.72 1706.17C1643.72 1706.17 1366.93 1695.51 1305.81 1774.67C1305.81 1774.67 1292.29 1815.15 1250.7 1852.01L1244.21 1869.68C1244.21 1869.68 1292.18 1819.11 1309.34 1816.05C1309.34 1816.05 1282.5 1717.99 1643.72 1706.17" fill="#599DAD"></path> <path d="M1250.7 1852.01C1250.7 1852.01 1191.29 1895.95 1187.16 1974.45L1197.95 1975.41C1197.95 1975.41 1216.92 1894.24 1251.21 1862.51C1285.51 1830.76 1250.7 1852.01 1250.7 1852.01" fill="#599DAD"></path> <path d="M1060.38 1671.67C1060.38 1671.67 1172.04 1609.13 1119.93 1524.27C1119.93 1524.27 1078.25 1472.16 1033.58 1458.76C1033.58 1458.76 1057.4 1585.32 1033.58 1588.29C1009.76 1591.27 1017.2 1445.36 1017.2 1445.36C1017.2 1445.36 899.58 1388.79 853.424 1393.25C853.424 1393.25 926.379 1516.83 902.557 1513.85C878.736 1510.87 796.847 1385.8 796.847 1385.8C796.847 1385.8 676.248 1363.47 656.892 1434.93C637.536 1506.4 668.804 1542.13 686.669 1546.6C704.535 1551.07 819.18 1549.59 816.201 1564.47C813.225 1579.36 735.803 1603.17 692.625 1589.79C692.625 1589.79 740.269 1707.4 802.803 1701.44C865.335 1695.49 884.691 1656.79 923.403 1653.8C962.112 1650.83 990.401 1661.25 971.045 1671.67C951.691 1682.09 886.18 1675.08 854.913 1701.67C823.647 1728.24 798.335 1744.63 856.401 1756.53C914.468 1768.44 1018.69 1761 1039.53 1716.33C1060.38 1671.67 1060.38 1671.67 1060.38 1671.67" fill="#6BB7BF"></path> <path d="M711.98 1457.27C711.98 1457.27 1024.65 1558.52 1060.38 1671.67C1060.38 1671.67 1058.89 1722.29 1090.16 1780.36V1802.69C1090.16 1802.69 1057.4 1726.76 1039.53 1716.33C1039.53 1716.33 1109.51 1618.07 711.98 1457.27Z" fill="#6BB7BF"></path> <path d="M1090.16 1780.36C1090.16 1780.36 1138.37 1853.57 1110.89 1942.71L1098.48 1939.37C1098.48 1939.37 1110.52 1841.2 1085.29 1791.83C1060.07 1742.45 1090.16 1780.36 1090.16 1780.36" fill="#6BB7BF"></path> <path d="M1238.03 1585.43C1238.03 1585.43 1090.83 1503 1159.53 1391.13C1159.53 1391.13 1214.48 1322.44 1273.36 1304.77C1273.36 1304.77 1241.96 1471.6 1273.36 1475.52C1304.76 1479.44 1294.95 1287.11 1294.95 1287.11C1294.95 1287.11 1450 1212.53 1510.84 1218.42C1510.84 1218.42 1414.67 1381.32 1446.07 1377.39C1477.47 1373.47 1585.41 1208.6 1585.41 1208.6C1585.41 1208.6 1744.39 1179.16 1769.91 1273.37C1795.41 1367.57 1754.2 1414.68 1730.65 1420.57C1707.09 1426.45 1555.97 1424.49 1559.91 1444.12C1563.83 1463.75 1665.88 1495.15 1722.8 1477.48C1722.8 1477.48 1660 1632.53 1577.56 1624.68C1495.13 1616.83 1469.61 1565.8 1418.59 1561.88C1367.56 1557.95 1330.27 1571.69 1355.79 1585.43C1381.31 1599.17 1467.65 1589.93 1508.87 1624.97C1550.09 1660 1583.45 1681.6 1506.91 1697.29C1430.37 1713 1292.98 1703.19 1265.51 1644.31C1238.03 1585.43 1238.03 1585.43 1238.03 1585.43" fill="#86D1CD"></path> <path d="M1697.28 1302.81C1697.28 1302.81 1285.13 1436.27 1238.03 1585.43C1238.03 1585.43 1239.99 1652.16 1198.78 1728.69V1758.13C1198.78 1758.13 1241.96 1658.04 1265.51 1644.31C1265.51 1644.31 1173.26 1514.77 1697.28 1302.81" fill="#6BB7BF"></path> <path d="M1198.78 1728.69C1198.78 1728.69 1135.22 1825.21 1171.45 1942.71L1187.81 1938.32C1187.81 1938.32 1171.93 1808.91 1205.19 1743.83C1238.44 1678.73 1198.78 1728.69 1198.78 1728.69Z" fill="#6BB7BF"></path> <path d="M1233.07 2197.49C1392.32 2197.49 1521.4 2068.4 1521.4 1909.16H944.736C944.736 2068.4 1073.83 2197.49 1233.07 2197.49" fill="#EFCBAB"></path> <path d="M1304.02 2195.29C1292.29 2196.76 1280.34 2197.49 1268.2 2197.49C1108.96 2197.49 979.876 2068.4 979.876 1909.16H1051.51C1051.51 2056.28 1161.68 2177.65 1304.02 2195.29" fill="#FFEBDC"></path> <path d="M1525.39 2212.17H940.753C940.753 2192.52 956.68 2176.6 976.326 2176.6H1489.81C1509.47 2176.6 1525.39 2192.52 1525.39 2212.17Z" fill="#EFCBAB"></path> <path d="M1527.96 1918H935.253V1909.16H1527.96V1918Z" fill="#EFCDAF"></path> <path d="M2276.42 812.848C2276.42 812.848 2225.92 717.542 2301.6 681.245C2301.6 681.245 2354.92 663.393 2392.69 674.315C2392.69 674.315 2318 753.047 2333.51 766.048C2349 779.032 2410.41 672.302 2410.41 672.302C2410.41 672.302 2519.54 685.98 2550.2 710.233C2550.2 710.233 2442.07 764.414 2460.3 773.192C2478.55 781.969 2593.67 730.807 2593.67 730.807C2593.67 730.807 2689.28 770.09 2670.34 829.549C2651.39 889.004 2612.93 900.025 2598.21 895.026C2583.53 890.025 2503.01 836.589 2498.33 848.495C2493.63 860.4 2537.58 912.645 2574.27 922.882C2574.27 922.882 2486.79 984.414 2445.23 951.623C2403.67 918.834 2407.65 882.576 2381.58 862.781C2355.53 842.984 2330.73 837.441 2339.68 853.666C2348.64 869.89 2398.23 894.859 2408.23 927.971C2418.21 961.08 2428.67 984.243 2382.09 966.147C2335.54 948.053 2265.12 895.161 2270.78 854.007C2276.42 812.848 2276.42 812.848 2276.42 812.848" fill="#599DAD"></path> <path d="M2621.13 820.194C2621.13 820.194 2353.45 749.022 2276.42 812.83C2276.42 812.83 2254.36 849.369 2205.69 876.204L2195.49 892.023C2195.49 892.023 2253.38 853.213 2270.8 853.996C2270.8 853.996 2266.13 752.431 2621.13 820.194" fill="#599DAD"></path> <path d="M2205.69 876.2C2205.69 876.2 2138.09 906.023 2116.83 981.71L2127.14 985.015C2127.14 985.015 2163.46 909.989 2203.89 886.554C2244.31 863.106 2205.69 876.2 2205.69 876.2" fill="#599DAD"></path> <path d="M1943.85 640.943C1943.85 640.943 1794.27 562.924 1859.6 449.065C1859.6 449.065 1912.48 378.759 1970.81 359.354C1970.81 359.354 1944.39 527.037 1975.9 530.021C2007.41 533.021 1991.87 341.051 1991.87 341.051C1991.87 341.051 2144.63 261.9 2205.62 265.971C2205.62 265.971 2114.33 431.664 2145.6 426.798C2176.88 421.946 2279.87 253.942 2279.87 253.942C2279.87 253.942 2437.9 219.784 2466.2 313.183C2494.51 406.597 2454.7 454.895 2431.35 461.491C2407.98 468.072 2256.87 470.612 2261.37 490.109C2265.89 509.606 2368.83 537.964 2425.18 518.605C2425.18 518.605 2367.03 675.453 2284.4 670.066C2201.78 664.679 2174.77 614.421 2123.62 612.019C2072.51 609.616 2035.64 624.461 2061.57 637.438C2087.48 650.4 2173.51 638.601 2215.75 672.392C2257.99 706.198 2291.99 726.781 2215.95 744.748C2139.91 762.73 2002.28 757.006 1973.06 698.975C1943.85 640.943 1943.85 640.943 1943.85 640.943" fill="#86D1CD"></path> <path d="M2394.49 344.77C2394.49 344.77 1986.49 490.452 1943.86 640.938C1943.86 640.938 1947.79 707.587 1908.88 785.313L1909.76 814.737C1909.76 814.737 1949.94 713.404 1973.06 698.979C1973.06 698.979 1877.02 572.247 2394.49 344.77" fill="#6BB7BF"></path> <path d="M1908.88 785.32C1908.88 785.32 1848.23 883.68 1887.95 1000.04L1904.16 995.173C1904.16 995.173 1884.44 866.293 1915.73 800.24C1947.04 734.2 1908.88 785.32 1908.88 785.32Z" fill="#6BB7BF"></path> <path d="M1266.33 847.424V2215.53H2315.38V847.424H1266.33Z" fill="#9ABCEF"></path> <path d="M1300.62 847.437V2215.53H2332.03V847.437H1300.62Z" fill="#E9F3FE"></path> <path d="M3059.28 2212.17H2851.45C2840.32 2202.73 2859.14 2181.28 2878.84 2179.84C2887.39 2179.19 2898.22 2180.97 2910.56 2183.59C2913.44 2145.6 2929.76 1974.83 2991.32 1981.69C3060.53 1989.38 2991.32 2056.89 2971.75 2096.87C2957.27 2126.48 2941.97 2168.95 2934.97 2188.99C2940.6 2190.2 2946.42 2191.4 2952.36 2192.49C2961.53 2164.32 2995.68 2069.57 3039.07 2075.09C3090.04 2081.56 3069.55 2119.55 3033.44 2142.09C3006.92 2158.68 2974.39 2182.24 2958.92 2193.63C2972.04 2195.77 2985.7 2197.21 2999.56 2196.89C3035.18 2196.04 3052.55 2206.53 3059.28 2212.17" fill="#A8D29F"></path> <path d="M2332.05 847.409C2332.04 847.423 2332.04 847.423 2332.04 847.423H1300.62C1306.32 769.425 1297.73 712.797 1283.96 672.062C1257.51 593.745 1211.92 574.104 1211.92 574.104H2184.64C2267.65 574.104 2332.04 624.122 2349.56 690.512C2350.21 693.011 2350.82 695.495 2351.36 697.979C2367.98 773.929 2332.72 846.029 2332.05 847.409Z" fill="#E9F3FE"></path> <path d="M2332.05 847.409C2332.04 847.423 2332.04 847.423 2332.04 847.423H1300.62C1306.32 769.425 1297.73 712.797 1283.96 672.062C1389.36 691.369 1650.42 732.497 1929.86 725.567C2110.62 721.078 2253.49 708.991 2351.36 697.979C2367.98 773.929 2332.72 846.029 2332.05 847.409Z" fill="#D8E8FD"></path> <path d="M2059.57 1162.9H1512.6C1506.99 1162.9 1502.4 1158.3 1502.4 1152.69V1147.45C1502.4 1141.84 1506.99 1137.24 1512.6 1137.24H2059.57C2065.19 1137.24 2069.79 1141.84 2069.79 1147.45V1152.69C2069.79 1158.3 2065.19 1162.9 2059.57 1162.9Z" fill="#BBD5FC"></path> <path d="M1847.88 1206.07H1510.45C1506.03 1206.07 1502.4 1202.44 1502.4 1198.01V1188.47C1502.4 1184.03 1506.03 1180.41 1510.45 1180.41H1847.88C1852.31 1180.41 1855.93 1184.03 1855.93 1188.47V1198.01C1855.93 1202.44 1852.31 1206.07 1847.88 1206.07" fill="#BBD5FC"></path> <path d="M1449.71 1201.91V1149.5H1442.8C1438.6 1149.5 1436.51 1147.76 1436.51 1144.26C1436.51 1141.75 1438.15 1139.97 1441.44 1138.92C1443.11 1138.36 1445.79 1137.94 1449.45 1137.66C1453.12 1137.38 1456.07 1137.24 1458.31 1137.24C1460.47 1137.24 1461.84 1137.68 1462.4 1138.55C1462.95 1139.43 1463.24 1141.64 1463.24 1145.21V1201.91H1470.36C1474.97 1201.91 1477.28 1203.9 1477.28 1207.89C1477.28 1212.08 1474.97 1214.17 1470.36 1214.17H1441.64C1439.61 1214.17 1437.92 1213.63 1436.56 1212.55C1435.2 1211.47 1434.52 1209.95 1434.52 1207.99C1434.52 1203.94 1436.85 1201.91 1441.53 1201.91H1449.71Z" fill="#BBD5FC"></path> <path d="M2059.57 1433.09H1512.6C1506.99 1433.09 1502.4 1428.51 1502.4 1422.88V1417.65C1502.4 1412.04 1506.99 1407.44 1512.6 1407.44H2059.57C2065.19 1407.44 2069.79 1412.04 2069.79 1417.65V1422.88C2069.79 1428.51 2065.19 1433.09 2059.57 1433.09Z" fill="#D2E4FD"></path> <path d="M1847.88 1476.27H1510.45C1506.03 1476.27 1502.4 1472.64 1502.4 1468.2V1458.67C1502.4 1454.23 1506.03 1450.6 1510.45 1450.6H1847.88C1852.31 1450.6 1855.93 1454.23 1855.93 1458.67V1468.2C1855.93 1472.64 1852.31 1476.27 1847.88 1476.27" fill="#D2E4FD"></path> <path d="M1478.36 1471.03C1478.36 1474.52 1475.92 1476.27 1471.04 1476.27H1440.67C1436.28 1476.27 1434.08 1474.51 1434.08 1470.99C1434.08 1469.87 1434.67 1468.57 1435.84 1467.09C1437.57 1465.12 1440.11 1462.15 1443.44 1458.2C1448.51 1451.84 1452.73 1446.35 1456.13 1441.71C1457.31 1440.17 1458.97 1437.83 1461.13 1434.67C1462.92 1431.52 1463.81 1428.87 1463.81 1426.71C1463.81 1424.29 1463.04 1422.31 1461.51 1420.73C1459.96 1419.16 1457.99 1418.37 1455.57 1418.37C1453.23 1418.37 1451.19 1419.11 1449.45 1420.59C1448.28 1421.59 1447.36 1423.43 1446.68 1426.15C1445.81 1429.67 1445.27 1431.71 1445.01 1432.27C1444.09 1434.24 1442.57 1435.23 1440.48 1435.23C1438.63 1435.23 1437.17 1434.55 1436.12 1433.19C1435.13 1432.01 1434.64 1430.47 1434.64 1428.56C1434.64 1426.4 1434.97 1424.2 1435.65 1421.99C1437.15 1417.23 1439.76 1413.59 1443.53 1411.05C1447.11 1408.64 1451.47 1407.44 1456.59 1407.44C1462.21 1407.44 1466.91 1409.15 1470.67 1412.55C1474.56 1416.13 1476.51 1420.71 1476.51 1426.27C1476.51 1430.41 1475.12 1434.68 1472.33 1439.08C1470.8 1441.49 1467.61 1445.76 1462.8 1451.88C1460.33 1455.04 1456.44 1459.61 1451.13 1465.61H1471.13C1475.95 1465.61 1478.36 1467.41 1478.36 1471.03" fill="#D2E4FD"></path> <path d="M2059.57 1658.49H1512.6C1506.99 1658.49 1502.4 1653.89 1502.4 1648.28V1643.04C1502.4 1637.43 1506.99 1632.83 1512.6 1632.83H2059.57C2065.19 1632.83 2069.79 1637.43 2069.79 1643.04V1648.28C2069.79 1653.89 2065.19 1658.49 2059.57 1658.49Z" fill="#D2E4FD"></path> <path d="M1847.88 1701.65H1510.45C1506.03 1701.65 1502.4 1698.03 1502.4 1693.6V1684.05C1502.4 1679.63 1506.03 1676 1510.45 1676H1847.88C1852.31 1676 1855.93 1679.63 1855.93 1684.05V1693.6C1855.93 1698.03 1852.31 1701.65 1847.88 1701.65" fill="#D2E4FD"></path> <path d="M1478.36 1680.16C1478.36 1686.72 1476.05 1692 1471.45 1695.97C1467.09 1699.76 1461.57 1701.65 1454.88 1701.65C1449.71 1701.65 1445.28 1700.43 1441.63 1697.96C1435.81 1694.05 1432.91 1689.35 1432.91 1683.85C1432.91 1682.28 1433.41 1680.92 1434.43 1679.79C1435.44 1678.65 1436.73 1678.08 1438.31 1678.08C1439.95 1678.08 1441.49 1679.19 1442.95 1681.39C1445.28 1685.05 1446.64 1687.08 1447.03 1687.45C1449.11 1689.67 1451.79 1690.76 1455.07 1690.76C1459.49 1690.76 1462.64 1689.12 1464.53 1685.84C1465.41 1684.2 1465.87 1682.12 1465.87 1679.59C1465.87 1673.41 1462.23 1669.97 1454.97 1669.28C1450.87 1668.89 1448.81 1667.16 1448.81 1664.07C1448.81 1661.8 1450.01 1660.19 1452.39 1659.24C1456.84 1657.6 1459.11 1656.75 1459.16 1656.68C1461.55 1655.11 1462.73 1652.36 1462.73 1648.44C1462.73 1646.11 1462.04 1644.27 1460.67 1642.91C1459.28 1641.55 1457.43 1640.87 1455.09 1640.87C1452.2 1640.87 1449.93 1641.56 1448.31 1642.95C1446.92 1644.15 1445.75 1646.2 1444.81 1649.11C1444.05 1651.32 1442.61 1652.41 1440.47 1652.41C1438.96 1652.41 1437.72 1651.76 1436.75 1650.43C1435.77 1649.11 1435.28 1647.65 1435.28 1646.08C1435.28 1644.12 1435.81 1642.16 1436.89 1640.2C1438.65 1636.92 1441.37 1634.37 1445.03 1632.53C1448.37 1630.83 1452.04 1629.99 1456.01 1629.99C1461.37 1629.99 1465.84 1631.6 1469.41 1634.85C1472.97 1638.11 1474.76 1642.39 1474.76 1647.68C1474.76 1654.07 1472.11 1659.11 1466.81 1662.84C1474.51 1665.93 1478.36 1671.71 1478.36 1680.16" fill="#D2E4FD"></path> <path d="M1995.87 938.293H1655.12C1649.29 938.293 1644.52 933.533 1644.52 927.693V919.093C1644.52 913.267 1649.29 908.493 1655.12 908.493H1995.87C2001.69 908.493 2006.47 913.267 2006.47 919.093V927.693C2006.47 933.533 2001.69 938.293 1995.87 938.293Z" fill="#BBD5FC"></path> <path d="M2084.72 984.253H1566.28C1559.12 984.253 1553.27 978.4 1553.27 971.253V967.453C1553.27 960.307 1559.12 954.453 1566.28 954.453H2084.72C2091.87 954.453 2097.72 960.307 2097.72 967.453V971.253C2097.72 978.4 2091.87 984.253 2084.72 984.253" fill="#BBD5FC"></path> <path d="M1785.54 1301.24C1673.17 1301.24 1566.54 1287.14 1487.07 1266.99C1406.76 1246.63 1363.5 1213.35 1363.5 1183.84C1363.5 1157.09 1398.76 1132.48 1465.44 1112.69C1401.53 1131.66 1367.35 1159.52 1367.35 1183.84C1367.35 1210.82 1411.66 1237.54 1488.91 1257.13C1568.13 1277.21 1673.45 1288.27 1785.54 1288.27C1897.6 1288.27 2002.95 1277.21 2082.15 1257.13C2159.4 1237.54 2203.7 1210.82 2203.7 1183.84C2203.7 1155.26 2157.06 1119.74 2081.95 1091.14C1996.56 1058.63 1891.29 1046.56 1785.54 1046.56C1586.99 1046.56 1505.27 1069.73 1434.35 1098.78C1505.57 1069.61 1586.29 1036.55 1785.54 1036.55C1891.71 1036.55 1997.42 1054.54 2083.24 1087.2C2159.92 1116.41 2207.56 1153.44 2207.56 1183.84C2207.56 1213.35 2163.33 1240.82 2083.03 1261.18C2003.55 1281.33 1897.89 1301.24 1785.54 1301.24" fill="#C65447"></path> <path d="M2467.84 1564.64C2467.84 1564.64 2464.13 1600.61 2460.07 1607.41C2456.02 1614.23 2438.74 1635.96 2431.37 1640.23C2424.01 1644.49 2435.87 1611.59 2434.38 1605.17C2432.87 1598.77 2428.31 1616.87 2425.07 1617.29C2421.82 1617.72 2422.65 1601.43 2422.54 1595.51C2422.42 1589.57 2438.32 1574.95 2443.93 1562.33C2449.54 1549.72 2467.84 1564.64 2467.84 1564.64" fill="#FFB27D"></path> <path d="M2025.92 1232.89L2017.65 1217.29C2017.65 1217.29 2021.76 1189.5 1986.93 1171.92C1986.93 1171.92 1974.2 1166.73 1967.01 1177.12C1960.4 1186.68 1979.63 1184.95 1978.6 1201.31C1977.56 1217.67 1985.33 1227.26 1996.13 1232.59L2005.07 1242.94L2025.92 1232.89Z" fill="#FFB27D"></path> <path d="M2355.05 1195.6C2355.05 1195.6 2325.14 1342.38 2160.56 1390.36C2109.18 1405.33 1992.47 1236.18 1992.47 1236.18C1992.47 1236.18 1996.56 1220.59 2022.28 1224.17C2022.28 1224.17 2135.93 1299.41 2150.23 1307.58C2162.93 1314.83 2246.42 1214.35 2284.47 1198.14C2322.54 1181.94 2355.05 1195.6 2355.05 1195.6Z" fill="#E58638"></path> <path d="M2069.93 1190.21L2065.27 1220.59L1912.43 1197.12L1917.09 1166.73L2069.93 1190.21Z" fill="#C65447"></path> <path d="M1879.23 1176.47L1912.43 1197.12L1917.09 1166.73L1879.23 1176.47Z" fill="#FFB27D"></path> <path d="M2086.16 1203.02L2084.68 1212.62C2083.77 1218.53 2078.24 1222.59 2072.33 1221.68L2065.27 1220.59L2069.93 1190.21L2077.63 1191.39C2083.19 1192.25 2087.01 1197.45 2086.16 1203.02" fill="#FFB27D"></path> <path d="M2551.53 2118.39C2551.53 2118.39 2571.94 2137.01 2567.97 2150.25C2563.99 2163.49 2545.56 2172.32 2543.07 2188.49C2540.59 2204.68 2530.62 2213.51 2521.66 2213.51C2512.69 2213.51 2478.91 2213.51 2478.91 2213.51C2478.91 2213.51 2472.32 2202.12 2488.25 2198.69C2504.19 2195.25 2510.2 2176.24 2509.21 2158.59C2508.21 2140.93 2510.71 2117.4 2510.71 2117.4L2544.55 2109.56L2551.53 2118.39" fill="#233862"></path> <path d="M2301.06 2166.57C2301.06 2166.57 2304.71 2208.97 2295.75 2213.39L2181.05 2213.16C2181.05 2213.16 2181.05 2199.92 2199.46 2196.97C2217.88 2194.03 2250.26 2183.24 2255.73 2159.21C2261.22 2135.19 2301.06 2166.57 2301.06 2166.57Z" fill="#233862"></path> <path d="M2204.2 1567.56C2204.2 1567.56 2210.26 1641.89 2217.37 1731.24C2227.03 1852.61 2238.65 2001.71 2239.8 2029.95C2241.8 2079 2249.76 2157.45 2249.76 2157.45C2249.76 2157.45 2268.69 2176.08 2306.54 2168.23C2306.54 2168.23 2340.27 2056.24 2349.92 1937.75C2350.06 1935.81 2350.21 1933.85 2350.36 1931.89C2359.32 1811.27 2373.26 1557.27 2373.26 1557.27L2204.2 1567.56" fill="#2B478B"></path> <path d="M2204.2 1567.56C2204.2 1567.56 2210.26 1641.89 2217.37 1731.24L2349.92 1937.75C2350.06 1935.81 2350.21 1933.85 2350.36 1931.89C2359.32 1811.27 2373.26 1557.27 2373.26 1557.27L2204.2 1567.56" fill="#233862"></path> <path d="M2231.83 1576.39C2231.83 1576.39 2340.9 1845.59 2412.61 1972.09C2484.31 2098.61 2506.72 2133.91 2506.72 2133.91C2506.72 2133.91 2547.81 2117.73 2551.54 2106.69C2551.54 2106.69 2524.11 1862.47 2476.1 1802.93C2448.96 1769.29 2417.09 1668.33 2415.59 1633.03C2414.1 1597.72 2405.88 1527.84 2405.88 1527.84L2231.83 1576.39Z" fill="#2B478B"></path> <path d="M2375.32 1161.53C2375.32 1161.53 2301.54 1197.14 2258.99 1183.93C2258.99 1183.93 2269.45 1170.72 2287.79 1160.89C2286.31 1152.35 2285.18 1144.94 2284.51 1138.66C2282.71 1124.15 2282.71 1115.94 2282.71 1115.94L2311.17 1093.55L2338.18 1072.12C2336.05 1132.37 2375.32 1161.53 2375.32 1161.53Z" fill="#FFB27D"></path> <path d="M2414.2 1541.64C2414.38 1546.14 2404.72 1551.31 2400.47 1553.24C2368.89 1567.09 2339.43 1576.76 2306.06 1579.97C2266.63 1584 2220 1575.14 2203.96 1575.47C2202.33 1575.47 2200.86 1574.83 2199.56 1573.69C2198.4 1572.89 2197.57 1525.36 2198.4 1465.6C2198.4 1463.17 2198.4 1460.76 2198.57 1458.34V1457.53C2198.89 1434.17 2199.71 1409.69 2200.86 1385.2C2203.16 1331.39 2207.39 1279.51 2214.59 1250.84C2223.27 1217.01 2242.9 1194.61 2260.73 1178.34L2275.45 1165.45C2290.19 1168.35 2305.73 1167.55 2321.27 1159.98C2338.29 1151.76 2356.61 1142.9 2359.56 1145.15C2381.82 1161.42 2396.87 1197.99 2404.88 1244.72C2409.46 1271.62 2411.76 1301.75 2411.59 1333.32C2411.59 1344.92 2411.25 1356.85 2410.6 1368.61C2406.69 1432.4 2410.6 1487.83 2412.9 1519.88C2413.55 1529.23 2414.04 1536.48 2414.2 1541.64" fill="#EE9849"></path> <path d="M2412.9 1538.71C2154.51 1538.18 2365.25 1258.31 2365.25 1258.31L2407.11 1244.72C2410.41 1273.46 2412.07 1305.65 2411.95 1339.38C2411.95 1351.77 2411.73 1364.52 2411.24 1377.08C2408.4 1445.24 2411.24 1504.45 2412.9 1538.71" fill="#E58638"></path> <path d="M2338.66 1095.16C2338.66 1095.16 2320.01 1129.15 2284.5 1138.66C2282.7 1124.16 2282.7 1115.95 2282.7 1115.95L2311.17 1093.55L2338.66 1095.16Z" fill="#ED985F"></path> <path d="M2269.75 1114.95C2269.75 1114.95 2340.13 1126.47 2346.75 1083.19C2353.34 1039.92 2366.89 1012.26 2322.22 1003.08C2277.56 993.891 2266.28 1009.11 2260.5 1023.03C2254.73 1036.94 2251.6 1110.84 2269.75 1114.95Z" fill="#FFB27D"></path> <path d="M2372.31 997.906C2372.96 997.175 2374.42 996.584 2377.7 996.404C2377.7 996.404 2375.09 994.764 2371.57 994.676C2370.88 990.112 2368.46 982.042 2360.61 980.087C2360.61 980.087 2364.83 982.334 2365.38 987.179C2356.28 977.839 2336.81 971.039 2282.86 975.3C2211.77 980.919 2235.19 1026.44 2244.4 1031.86C2253.6 1037.29 2276.76 1022.41 2293.92 1023.77C2311.07 1025.13 2314.32 1049.92 2320.15 1053.32C2325.97 1056.72 2323.68 1050.7 2331.56 1047.15C2339.42 1043.59 2340.17 1056.63 2337.89 1065.11C2335.61 1073.59 2346.43 1084.78 2346.43 1084.78C2346.43 1084.78 2346.43 1084.78 2357.36 1073.01C2368.3 1061.24 2378.6 1011.38 2373.63 1000.75C2373.19 999.812 2372.75 998.863 2372.31 997.906" fill="#2C3A64"></path> <path d="M2359.52 1144.8C2359.52 1144.8 2404.06 1165.89 2425.41 1198.31C2458.53 1248.61 2496.95 1431.91 2497.65 1448.88C2498.36 1465.85 2469.62 1585.68 2469.62 1585.68C2469.62 1585.68 2440.48 1583.76 2432.95 1569.05C2432.95 1569.05 2438.78 1445.94 2435.08 1438.02C2431.41 1430.09 2313.6 1272.86 2326.84 1239.3C2340.09 1205.75 2359.52 1144.8 2359.52 1144.8" fill="#EE9849"></path> <path d="M2017.51 1216.55C2017.51 1216.55 2019.92 1206.99 2013.28 1202.69C2006.65 1198.39 2000.55 1186.69 1997.75 1188.27C1991.95 1191.56 2000.92 1201.76 1999.28 1214.49C1998.71 1218.95 2009.08 1230.63 2017.51 1216.55Z" fill="#FFB27D"></path> <path d="M935.253 2122.59C935.253 2122.59 830.633 1854.69 757.26 1897.35C683.888 1940.01 935.253 2122.59 935.253 2122.59" fill="#A8D29F"></path> <path d="M883.528 2122.59C883.528 2122.59 745.316 2003.15 682.183 2025.32C619.047 2047.51 883.528 2122.59 883.528 2122.59Z" fill="#A8D29F"></path> <path d="M2346.96 2161.17C2346.96 2161.17 2378.81 2050.43 2416.17 2063.49C2453.54 2076.56 2346.96 2161.17 2346.96 2161.17" fill="#A8D29F"></path> <path d="M2376.04 2155.13C2376.04 2155.13 2457.35 2101.76 2475.21 2118.25C2493.07 2134.76 2376.04 2155.13 2376.04 2155.13Z" fill="#A8D29F"></path> <path d="M2098.17 1918H1463.95C1459.69 1918 1456.23 1914.53 1456.23 1910.28C1456.23 1906.04 1459.69 1902.57 1463.95 1902.57H2098.17C2102.41 1902.57 2105.89 1906.04 2105.89 1910.28C2105.89 1914.53 2102.41 1918 2098.17 1918" fill="#D2E4FD"></path> <path d="M2098.17 1948.89H1463.95C1459.69 1948.89 1456.23 1945.43 1456.23 1941.17C1456.23 1936.93 1459.69 1933.47 1463.95 1933.47H2098.17C2102.41 1933.47 2105.89 1936.93 2105.89 1941.17C2105.89 1945.43 2102.41 1948.89 2098.17 1948.89Z" fill="#D2E4FD"></path> <path d="M2098.17 1983.13H1463.95C1459.69 1983.13 1456.23 1979.67 1456.23 1975.41C1456.23 1971.17 1459.69 1967.69 1463.95 1967.69H2098.17C2102.41 1967.69 2105.89 1971.17 2105.89 1975.41C2105.89 1979.67 2102.41 1983.13 2098.17 1983.13Z" fill="#D2E4FD"></path> <path d="M2014.91 2017.37H1463.43C1459.47 2017.37 1456.23 2014.12 1456.23 2010.16V2009.13C1456.23 2005.17 1459.47 2001.93 1463.43 2001.93H2014.91C2018.87 2001.93 2022.12 2005.17 2022.12 2009.13V2010.16C2022.12 2014.12 2018.87 2017.37 2014.91 2017.37Z" fill="#D2E4FD"></path> <path d="M3438.63 2218.88H293.458C291.771 2218.88 290.39 2217.51 290.39 2215.81V2215.24C290.39 2213.56 291.771 2212.17 293.458 2212.17H3438.63C3440.32 2212.17 3441.69 2213.56 3441.69 2215.24V2215.81C3441.69 2217.51 3440.32 2218.88 3438.63 2218.88Z" fill="#1C468A"></path> </svg> 