<?xml version="1.0" encoding="UTF-8"?> <svg xmlns="http://www.w3.org/2000/svg" width="5118" height="3199" viewBox="0 0 5118 3199" fill="none"> <path d="M617.806 2891.99L1980.78 2884.86L2344.07 2884.75L2464.44 2884.7L2828.43 2884.59L4491.41 2884.14C4491.41 2884.14 4871.77 2391.85 4465.47 1924.28C4044.2 1439.5 3839.37 1834.31 3709.9 1151.92C3383.94 -565.738 161.4 433.977 1006.65 1895.63C1310.99 2421.93 407.57 2142.19 617.806 2891.99Z" fill="#EBF3FA"></path> <path d="M2194.41 2809.23C2194.41 2809.23 2199.59 2869.14 2186.92 2875.37L2024.89 2875.04C2024.89 2875.04 2024.89 2856.34 2050.91 2852.18C2076.93 2848.02 2122.66 2832.78 2130.4 2798.84C2138.14 2764.9 2194.41 2809.23 2194.41 2809.23" fill="#233862"></path> <path d="M2659.36 2786.04C2659.36 2786.04 2664.23 2869.14 2651.56 2875.37L2489.54 2875.04C2489.54 2875.04 2489.54 2856.34 2515.56 2852.18C2541.58 2848.02 2587.29 2832.78 2595.04 2798.84C2602.79 2764.9 2659.36 2786.04 2659.36 2786.04Z" fill="#233862"></path> <path d="M2664.88 2796.26C2664.88 2796.26 2632.72 2812.85 2618.94 2815.85C2603.64 2819.23 2574.91 2817.09 2574.91 2817.09C2519.8 2669.33 2348.87 2068.66 2348.87 2068.66C2341.45 2234.76 2311.47 2400.4 2280.32 2533.56C2279.5 2537.13 2278.67 2540.66 2277.84 2544.18V2544.23C2277.08 2547.43 2276.32 2550.61 2275.55 2553.74C2275.52 2553.9 2275.48 2554.03 2275.47 2554.18C2237.65 2711.31 2199.75 2818.32 2199.75 2818.32C2199.75 2818.32 2189.96 2830.7 2162.71 2825.04C2131.48 2818.56 2121.07 2804.83 2121.07 2804.83C2141.26 2164.81 2152.55 1803.91 2152.55 1803.91C2152.55 1803.91 2423.08 1657.75 2496.59 1782.69C2570.07 1907.63 2664.88 2796.26 2664.88 2796.26Z" fill="#2A4E96"></path> <path d="M2555.87 1869C2520.79 1743.6 2515.03 1624.53 2515.31 1525.96C2515.67 1385.65 2528.28 1286.83 2486.05 1270.18C2486.05 1270.18 2355.61 1232.25 2265.82 1215.54C2251.52 1207.67 2235.64 1199.42 2223.6 1194.52C2195.25 1183.02 2084.72 1022.34 2065.98 983.869C2047.25 945.401 2016.22 777.789 2016.22 777.789L1973.15 791.513C1973.15 791.513 1960.21 979.662 1966.42 1028.7C1972.62 1077.73 2109.48 1288.59 2120.84 1307.05C2169.55 1485.15 2120.84 1774.98 2143.1 1839.6C2154.55 1872.84 2366.96 1933.75 2483.22 1926.09C2489.01 1925.7 2494.58 1925.14 2499.86 1924.41C2499.87 1924.41 2499.89 1924.39 2499.9 1924.39C2527.41 1920.57 2547.42 1911.79 2554.75 1896.37C2558.33 1888.88 2558.9 1879.81 2555.87 1869Z" fill="#AEC3FF"></path> <path d="M2016.22 777.789C2016.22 777.789 2040.56 707.059 2022.76 705.012C2004.96 702.948 1960.29 703.172 1954.79 715.121C1949.27 727.069 1973.15 791.513 1973.15 791.513L2016.22 777.789" fill="#FFB27D"></path> <path d="M1552.88 953.974L1409.21 867.089C1415.58 856.548 1425.63 849.59 1436.72 846.855C1447.82 844.12 1459.94 845.624 1470.49 852.006C1479.78 857.62 1491.87 854.629 1497.49 845.352L1536.37 781.052L1570.01 801.382L1531.13 865.681C1528.32 870.336 1527.66 875.678 1528.86 880.573C1530.07 885.467 1533.14 889.898 1537.78 892.697C1548.32 899.079 1555.29 909.124 1558.02 920.208C1560.75 931.309 1559.25 943.433 1552.88 953.974Z" fill="#ED7D2B"></path> <path d="M1552.88 953.974L1457.37 896.216C1435.25 877.758 1446.06 861.939 1457.15 859.204C1468.26 856.484 1480.38 857.988 1490.93 864.37C1500.22 869.984 1512.31 866.993 1517.93 857.7L1556.81 793.4L1570.01 801.382L1531.13 865.681C1528.32 870.336 1527.66 875.678 1528.86 880.573C1530.07 885.467 1533.14 889.898 1537.78 892.697C1548.32 899.079 1555.29 909.124 1558.02 920.208C1560.75 931.309 1559.25 943.433 1552.88 953.974Z" fill="#F99746"></path> <path d="M1973.15 535.119L1856.87 681.694C1816.45 748.527 1746.56 780.594 1679.6 783.276C1679.58 783.276 1679.58 783.276 1679.56 783.276C1656.74 784.199 1634.28 781.713 1613.43 776.014C1596.21 771.326 1576.38 780.594 1565.48 798.599L1563.2 802.363C1556.45 813.496 1550.79 822.854 1550.79 822.854L1526.31 808.045C1526.31 808.045 1532.01 798.581 1538.8 787.359C1550.74 767.544 1550.09 743.396 1537 728.747C1481.04 666.14 1460.04 562.57 1513.56 474.075L1592.29 304.79L1973.15 535.119" fill="#F99746"></path> <path d="M1486.79 593.017C1496.29 538.105 1469.73 508.177 1441.61 476.5C1419.13 451.172 1395.88 424.979 1390.88 385.996C1385.34 342.755 1405.46 298.612 1440.97 276.171C1467.97 259.106 1497.79 258.565 1522.85 274.62C1558.42 297.476 1571.64 341.709 1561.09 402.52C1553.53 446.085 1536.6 482.868 1535.89 484.419L1513.56 474.064C1514.19 472.693 1575.64 337.794 1509.55 295.329C1486.76 280.663 1465.03 290.08 1454.11 296.971C1426.97 314.145 1411 349.448 1415.29 382.857C1419.32 414.318 1439.09 436.596 1460.01 460.174C1489.32 493.186 1522.55 530.618 1511.03 597.22L1486.79 593.017" fill="#ED7D2B"></path> <path d="M1763.96 760.668C1808.19 726.749 1847.03 736.367 1888.13 746.55C1921.01 754.71 1954.99 763.129 1991.84 749.449C2032.7 734.278 2062.44 695.955 2065.82 654.087C2068.38 622.24 2055.02 595.574 2029.17 580.841C1992.4 559.955 1947.11 568.779 1898.15 606.373C1863.08 633.314 1838.36 665.388 1837.34 666.731L1856.87 681.691C1857.77 680.51 1948.71 563.42 2017 602.245C2040.57 615.618 2042.33 639.224 2041.3 652.111C2038.71 684.12 2014.84 714.655 1983.27 726.377C1953.53 737.419 1924.64 730.247 1894.04 722.669C1851.19 712.048 1802.6 700.003 1749 741.143L1763.96 760.668" fill="#F99746"></path> <path d="M1679.56 783.276C1656.74 784.199 1634.28 781.713 1613.43 776.014C1596.21 771.326 1576.38 780.595 1565.48 798.599L1563.2 802.363C1554.64 806.767 1548.18 812.36 1545.12 819.409L1526.31 808.045C1526.31 808.045 1532.01 798.581 1538.8 787.36C1550.74 767.544 1550.09 743.396 1537 728.747C1481.04 666.14 1460.04 562.57 1513.56 474.075L1592.29 304.79L1655.25 342.859C1655.25 342.859 1399.62 689.276 1679.56 783.276" fill="#ED7D2B"></path> <path d="M1566.25 837.738L1503.53 799.798C1495.02 794.648 1492.26 783.467 1497.41 774.958C1502.56 766.448 1513.74 763.681 1522.25 768.832L1584.98 806.772C1593.49 811.922 1596.25 823.103 1591.1 831.612C1585.95 840.137 1574.77 842.889 1566.25 837.738Z" fill="#F99746"></path> <path d="M1585.45 626.928L1592.18 615.8C1624.08 633.04 1628.19 631.003 1641.29 609.335L1707.16 500.406C1716.43 485.068 1711.75 480.59 1700.3 471.616L1692.21 464.663L1698.2 454.73C1723 466.027 1752.51 475.657 1774.09 480.085L1681.31 633.528C1667.84 655.802 1668 659.59 1697.78 679.659L1691.05 690.804L1585.45 626.928" fill="white"></path> <path d="M1954.79 715.121C1954.79 715.121 1952.49 739.465 1960.29 744.055C1968.1 748.646 1970.86 715.121 1970.86 715.121C1970.86 715.121 1971.31 742.616 1977.29 744.487C1983.26 746.359 1986.94 712.817 1986.94 712.817C1986.94 712.817 1987.56 739.465 1991.61 738.537C1995.65 737.625 1998.42 712.817 1998.42 712.817C1998.42 712.817 2000.26 732.155 2005.76 728.684C2011.28 725.229 2016.51 704.468 2016.51 704.468L1954.79 715.121" fill="#FFB27D"></path> <path d="M2016.22 777.789C2016.22 777.789 2032.87 764.721 2036.53 752.789C2040.21 740.841 2051.01 720.767 2045.26 718.336C2039.52 715.904 2022.76 741.752 2022.76 741.752L2016.22 777.789Z" fill="#FFB27D"></path> <path d="M2304.72 1196.3L2302.64 1207.17C2302.64 1207.17 2292.94 1240.59 2333.82 1253.83C2374.69 1267.09 2409.14 1273.22 2413.2 1246.76C2413.44 1225.71 2412.93 1192.84 2415.97 1175.98C2417.1 1169.71 2418.83 1163.17 2421.49 1155.93L2340.7 1138.27L2316.04 1137.44L2304.72 1196.3" fill="#FFB27D"></path> <path d="M2316.04 1137.44L2308.52 1177.1C2385.26 1197.43 2418.83 1163.17 2421.49 1155.93L2340.7 1138.27L2316.04 1137.44Z" fill="#E2915A"></path> <path d="M2433.32 1139.47C2409.52 1187.84 2344.12 1167.68 2316.57 1156.49C2308.81 1153.35 2304.06 1150.92 2304.06 1150.92C2295.71 1145.98 2294.65 1130.33 2297.55 1111.04C2303.24 1072.86 2324.31 1020.37 2334.42 1008.28C2349.64 990.075 2373.62 972.496 2435.38 1007.37C2497.15 1042.25 2463.84 1077.49 2433.32 1139.47" fill="#FFB27D"></path> <path d="M2327.7 953.974C2327.7 953.974 2357.51 959.924 2396.15 954.614C2427.5 950.311 2459.01 973.584 2468.76 982.829C2468.97 980.893 2468.94 978.174 2467.9 975.151C2467.9 975.151 2472.03 980.238 2471.35 985.548C2471.77 986.092 2471.93 986.428 2471.77 986.476C2471.77 986.476 2477.9 987.051 2481.16 989.787C2481.16 989.787 2478.65 988.667 2477.24 990.091C2477.1 990.234 2476.9 990.346 2476.7 990.442C2514.38 1023.73 2499.07 1093.77 2480.57 1105.77C2458.3 1120.21 2420.08 1159.97 2420.08 1159.97C2420.08 1159.97 2421.42 1145.45 2429.23 1129.44C2437.03 1113.43 2422.46 1109.33 2406.2 1096.49C2389.95 1083.65 2411.31 1066.48 2398.87 1048.9C2386.41 1031.34 2325.19 1022.45 2328.75 1012.68C2309.07 998.536 2327.07 956.229 2327.7 953.974" fill="#233862"></path> <path d="M2337.52 1121.63C2337.52 1121.63 2333.54 1127.62 2317.59 1120.55C2317.59 1120.55 2304.22 1114.63 2307.31 1107.57C2307.31 1107.57 2322.48 1107.37 2337.52 1121.63Z" fill="white"></path> <path d="M2319.57 1285.18C2319.57 1285.18 2282.72 1529.7 2007.14 1699.5L1981.42 1774.23H2080.88C2080.88 1774.23 2327.73 1567.21 2344.27 1292.22L2319.57 1285.18" fill="#ED7D2B"></path> <path d="M2319.57 1285.18V1248.12L2365 1260.98L2344.27 1292.22L2319.57 1285.18" fill="#DB6516"></path> <path d="M2304.72 1196.3L2278.13 1219.01C2278.13 1219.01 2270.79 1250.76 2288.71 1285.18L2342.28 1254.55C2342.28 1254.55 2310.63 1239.26 2304.72 1196.3Z" fill="#9DB0F4"></path> <path d="M2342.28 1254.55C2342.28 1254.55 2347.59 1283.33 2361.56 1297.56C2361.56 1297.56 2421.92 1287.01 2438.68 1258.07L2413.39 1218.56C2413.39 1218.56 2407.35 1245.51 2342.28 1254.55Z" fill="#9DB0F4"></path> <path d="M2703.97 1888.3C2703.97 1888.3 2704.09 1943.05 2699.05 1953.93C2694.02 1964.82 2671.41 2000.28 2661.01 2007.86C2650.59 2015.46 2663.26 1964.02 2659.98 1954.62C2656.71 1945.21 2652.7 1973.17 2647.89 1974.32C2643.07 1975.47 2641.76 1950.82 2640.64 1941.93C2639.54 1933.02 2661.17 1908.49 2667.63 1888.6C2674.06 1868.72 2703.97 1888.3 2703.97 1888.3" fill="#FFB27D"></path> <path d="M2485.2 1270.16C2485.2 1270.16 2538.28 1284.63 2574.24 1363.78C2611.98 1446.78 2712.93 1631.17 2716.67 1656.62C2720.41 1682.05 2709.98 1919.7 2709.98 1919.7C2709.98 1919.7 2665.8 1921.41 2652.17 1900.46C2652.17 1900.46 2636.78 1691.84 2629.99 1680.5C2623.16 1669.16 2449.34 1461.81 2463.97 1409.2C2478.61 1356.59 2485.2 1270.16 2485.2 1270.16Z" fill="#AEC3FF"></path> <path d="M2554.75 1896.37C2541.6 1907.66 2523.83 1917.48 2499.9 1924.39C2499.89 1924.39 2499.87 1924.41 2499.86 1924.41C2493.97 1926.1 2488.45 1926.61 2483.22 1926.09C2386.08 1916.07 2401.01 1538.59 2448.08 1510.7C2497.68 1481.31 2515.31 1525.96 2515.31 1525.96C2515.03 1624.53 2520.79 1743.6 2555.87 1869C2558.9 1879.81 2558.33 1888.88 2554.75 1896.37" fill="#9DB0F4"></path> <path d="M2275.54 2553.75C2276.2 2550.8 2276.95 2547.64 2277.83 2544.23C2277.08 2547.43 2276.31 2550.61 2275.54 2553.75Z" fill="#233862"></path> <path d="M2280.33 2533.56C2310.06 2392.85 2278.01 2015.8 2292.32 2008.64C2307.02 2001.29 2348.87 2068.67 2348.87 2068.67C2341.45 2234.76 2311.46 2400.4 2280.33 2533.56Z" fill="#233862"></path> <path d="M1553.45 2820.94L1544.89 2759.22L1580.88 2729.15L1592.22 2810.85L1553.45 2820.94Z" fill="#FFB27D"></path> <path d="M1672.98 2876.08H1526.24C1526.24 2876.08 1522.72 2853.7 1530.39 2836.73C1537.73 2820.45 1549.16 2810.4 1550.2 2797.93C1559.53 2807.54 1571 2813.71 1592.22 2810.85C1594.82 2815.07 1608.99 2837.63 1617.67 2843.86C1627.27 2850.76 1670.02 2848.29 1672.98 2876.08Z" fill="#233862"></path> <path d="M1643.5 1987.54C1633.91 2064.75 1626.05 2137.52 1619.66 2205.36C1585.51 2566.8 1592.21 2787.7 1592.21 2787.7C1592.21 2787.7 1589.74 2794.25 1568.57 2794.34C1556.61 2794.41 1544.89 2791.78 1544.89 2791.78C1544.89 2791.78 1468.43 2555.78 1474.33 2421.47C1475.03 2405.31 1476.93 2390.63 1480.3 2377.99C1498.64 2309.28 1412.42 2046.48 1506.14 1948.62C1599.84 1850.77 1647.92 1952.11 1643.5 1987.54" fill="#F99746"></path> <path d="M1643.5 1987.54C1633.91 2064.75 1626.05 2137.52 1619.66 2205.36L1474.33 2421.47C1475.03 2405.31 1476.93 2390.63 1480.3 2377.99C1498.64 2309.28 1412.42 2046.48 1506.14 1948.62C1599.84 1850.77 1647.92 1952.11 1643.5 1987.54" fill="#ED7D2B"></path> <path d="M1758.98 1251.16C1758.98 1251.16 1755.44 1233.53 1751.46 1220.07C1749.7 1214.12 1761.98 1174.99 1770.48 1170.18C1778.98 1165.36 1801.12 1191.71 1794.87 1211.94C1791.64 1222.32 1786.36 1256.14 1786.36 1256.14L1758.98 1251.16Z" fill="#FFB27D"></path> <path d="M1758.98 1251.16C1758.98 1251.16 1754.35 1240.94 1750.18 1239.28C1746.02 1237.63 1741.54 1220.9 1738.47 1214.28C1738.47 1214.28 1741.43 1209.93 1746.61 1215.51C1749.78 1218.91 1756.82 1228.9 1756.82 1228.9L1758.98 1251.16" fill="#FFB27D"></path> <path d="M1153.23 1310.5C1152.33 1312.36 1151.08 1315.67 1149.97 1318.79C1149.95 1317.94 1149.94 1317.09 1149.93 1316.28C1149.87 1310.05 1126.68 1276.26 1117.14 1274.13C1107.6 1272.02 1094.14 1303.69 1106.05 1321.2C1112.17 1330.19 1127.12 1360.98 1127.12 1360.98L1151.84 1348.2C1151.84 1348.2 1153.27 1337.09 1156.77 1334.27C1160.28 1331.47 1159.66 1314.17 1160.65 1306.94C1160.65 1306.94 1156.55 1303.64 1153.23 1310.5Z" fill="#FFB27D"></path> <path d="M1307.36 2802.44C1305.29 2782.65 1304.78 2730.62 1304.78 2730.62C1304.78 2730.62 1357.81 2713.66 1355.85 2725.29C1346.26 2782.52 1348.86 2810.85 1348.86 2810.85L1327.42 2823.66L1307.36 2802.44Z" fill="#FFB27D"></path> <path d="M1599.21 1983.86C1599.21 1983.86 1394.35 2545.46 1354.02 2789.06C1354.02 2789.06 1344.68 2795.48 1327.25 2793.35C1307.49 2790.94 1302.07 2777.21 1302.07 2777.21C1302.07 2777.21 1265.07 2485.24 1338.62 2383.88C1389.16 2314.24 1316.82 2008.4 1434.53 1983.86C1552.23 1959.34 1599.21 1983.86 1599.21 1983.86Z" fill="#F99746"></path> <path d="M1562.82 1443.64C1562.82 1443.63 1562.82 1443.63 1562.82 1443.63C1562.78 1443.37 1562.73 1443.13 1562.65 1442.89C1561.45 1437.95 1560.14 1433.09 1558.74 1428.26C1558.73 1428.24 1558.73 1428.24 1558.73 1428.24C1554.45 1413.48 1549.35 1399.42 1543.84 1386.99C1540.67 1379.87 1537.39 1373.28 1534.03 1367.41C1533.52 1366.5 1533.02 1365.65 1532.53 1364.79L1532.51 1364.77C1524.59 1351.47 1516.45 1342.27 1509.11 1339.42C1495.72 1334.24 1480.82 1335.69 1470.56 1337.82C1472.81 1334.69 1477.92 1332.9 1477.92 1332.9C1471.35 1332.9 1457.99 1341.39 1457.99 1341.39C1363.63 1320.28 1369.15 1453.77 1375.57 1484.02C1381.97 1514.28 1351.59 1528.98 1308.75 1559.93C1226.99 1619 1228.36 1681.62 1228.36 1681.62C1229.1 1681.92 1229.9 1682.27 1230.74 1682.71C1234.03 1674.6 1241.01 1659.27 1248.32 1656.03C1248.11 1656.75 1242.16 1676.61 1240.47 1687.73C1252.93 1694.59 1270.16 1705.23 1288.88 1717.22C1288.88 1717.22 1288.88 1717.22 1288.9 1717.24C1313.94 1733.27 1341.58 1751.71 1363.73 1766.68C1362.67 1760.59 1361.63 1751.9 1363.18 1746.99L1370.24 1768.86L1371.16 1771.7C1385.3 1781.28 1396.45 1788.94 1402.11 1792.86C1402.69 1793.26 1403.21 1793.63 1403.67 1793.94C1405.32 1795.07 1406.21 1795.69 1406.21 1795.69C1404.33 1787.97 1412.58 1767.82 1426.42 1742.43C1427.37 1740.66 1428.38 1738.86 1429.4 1737.04C1433.87 1729.01 1438.87 1720.55 1444.24 1711.83C1446.17 1708.68 1448.13 1705.53 1450.16 1702.32C1450.15 1702.3 1450.17 1702.3 1450.17 1702.3C1451.8 1699.71 1453.44 1697.15 1455.14 1694.53L1455.16 1694.51C1459.17 1688.3 1463.32 1682.07 1467.56 1675.81C1478.52 1659.61 1490.13 1643.53 1501.61 1628.77C1518.27 1607.31 1534.62 1588.62 1548.31 1576.4C1548.76 1575.48 1549.18 1574.55 1549.56 1573.59C1551.71 1568.61 1553.35 1563.08 1554.63 1557.45C1555.02 1555.75 1555.37 1554.06 1555.69 1552.36C1559.1 1534.4 1559.16 1516.58 1559.12 1512.34C1560.22 1529.7 1559.78 1542.78 1558.62 1552.67C1558.36 1554.84 1558.07 1556.86 1557.74 1558.73L1557.74 1558.74C1557.01 1562.97 1556.17 1566.45 1555.27 1569.35C1557.51 1566.57 1559.48 1563.53 1561.22 1560.18C1562.36 1558.01 1563.4 1555.72 1564.32 1553.34C1575.36 1525.14 1572.39 1483.09 1562.82 1443.64" fill="#163560"></path> <path d="M1545.1 1578.87C1545.41 1578.96 1518.68 1598.32 1496 1595.6C1474.68 1593.05 1457.33 1568.47 1457.6 1568.36C1466.03 1565.35 1466.76 1553.05 1458.95 1501.82L1462.99 1502.01L1530.91 1505.26C1530.91 1505.26 1532.5 1526.24 1535.36 1545.8C1537.76 1562.25 1541.07 1577.67 1545.1 1578.87Z" fill="#FFB27D"></path> <path d="M1530.91 1505.26C1530.91 1505.26 1532.5 1526.24 1535.36 1545.8C1498.29 1550.27 1473.76 1519.48 1462.99 1502.01L1530.91 1505.26Z" fill="#ED975D"></path> <path d="M1455.1 1495.84C1455.1 1495.84 1431.21 1468.13 1422.68 1442.69C1416.59 1424.51 1415.8 1353.91 1486.8 1353.54C1486.8 1353.54 1507.29 1352.52 1528.17 1362.52C1544.78 1370.47 1569.84 1389.25 1554.46 1453.24L1551.17 1474.56L1455.1 1495.84" fill="#163560"></path> <path d="M1652.06 1973.08C1652.06 1973.08 1563.67 2025.61 1452.7 1998.61C1451.39 1998.29 1361.32 1983.91 1361.32 1983.91C1362.87 1979.67 1374.51 1910.09 1376.03 1906.2C1395.72 1855.39 1431.7 1579.63 1461.76 1566.04C1469.44 1574.39 1491.38 1580.11 1510.15 1578.45C1531.77 1576.53 1539.01 1567.19 1537.22 1557.15C1561.14 1568.45 1579.53 1578.98 1579.53 1578.98C1601.39 1611.75 1652.06 1973.08 1652.06 1973.08Z" fill="white"></path> <path d="M1545.99 1521.94C1545.99 1521.94 1458.86 1536.38 1450.7 1481.97C1442.55 1427.57 1425.81 1392.78 1481.1 1381.26C1536.39 1369.75 1550.34 1388.89 1557.48 1406.39C1564.61 1423.89 1568.45 1516.79 1545.99 1521.94Z" fill="#FFB27D"></path> <path d="M1520.69 1374.02C1520.69 1374.02 1506.27 1441.42 1470.96 1456.31C1435.66 1471.22 1418.28 1463.75 1418.28 1463.75C1418.28 1463.75 1443.11 1437.18 1443.14 1397.28C1443.14 1397.28 1498.13 1346.32 1520.69 1374.02Z" fill="#163560"></path> <path d="M1515.53 1380.08C1515.53 1380.08 1535.51 1391.68 1541.93 1404.89C1548.34 1418.1 1554.55 1446.33 1562.72 1444.12C1562.72 1444.12 1574.28 1398.04 1550.38 1376.51C1525.03 1353.67 1515.53 1380.08 1515.53 1380.08Z" fill="#163560"></path> <path d="M1786.95 1252.42C1783.4 1251.18 1778.19 1248.22 1771.37 1247.61C1765.31 1247.07 1757.68 1249.03 1757.68 1249.03C1757.68 1249.03 1733.1 1401.88 1731.28 1409.98C1729.45 1418.07 1625.81 1534.82 1597.88 1534.35C1572.65 1533.92 1542.77 1553.4 1537.22 1557.15C1537.22 1557.15 1595.97 1681.39 1598.9 1704.73C1602.09 1730.13 1632.5 2121.19 1632.5 2121.19C1632.5 2121.19 1630.69 2139.4 1664.68 2129.61C1698.68 2119.83 1707.17 2111.74 1707.17 2111.74C1707.17 2111.74 1675.95 1803.85 1669.4 1708.11C1668.52 1695.26 1666.42 1683.36 1663.43 1672.39C1660.55 1661.8 1662.82 1650.49 1669.28 1641.63C1712.26 1582.63 1780.12 1487.06 1783.89 1466.74C1789.46 1436.88 1786.95 1252.42 1786.95 1252.42Z" fill="#2B478B"></path> <path d="M1429.63 2876.08H1282.89C1282.89 2876.08 1279.37 2853.7 1287.04 2836.73C1294.38 2820.45 1305.81 2810.4 1306.85 2797.93C1316.18 2807.54 1327.65 2813.71 1348.86 2810.85C1351.46 2815.07 1365.64 2837.63 1374.32 2843.86C1383.91 2850.76 1426.67 2848.29 1429.63 2876.08Z" fill="#233862"></path> <path d="M1530.42 1716.79C1525.48 1686.37 1462.34 1564.17 1462.34 1564.17C1462.34 1564.17 1422.42 1552.22 1396.15 1561.74C1369.88 1571.25 1233.96 1494.51 1229.6 1487.44C1225.25 1480.37 1152.44 1344.7 1152.44 1344.7C1152.44 1344.7 1146.41 1341.21 1136.74 1346.25C1127.16 1351.24 1127.12 1360.98 1127.12 1360.98C1127.12 1360.98 1183.31 1531.79 1198.26 1558.22C1207.27 1574.15 1283.06 1629.63 1341.81 1671.17C1353.03 1679.11 1358.93 1692.61 1357.08 1706.22C1349.18 1764.63 1347.17 1797.53 1338.09 1897.76C1330.55 1980.92 1327.66 2141.89 1327.66 2141.89C1327.66 2141.89 1393.41 2164.64 1438.79 2167.66C1484.17 2170.68 1494.06 2122.84 1494.06 2122.84C1494.06 2122.84 1535.51 1748.09 1530.42 1716.79Z" fill="#2B478B"></path> <path d="M1517.44 1495.04C1517.44 1495.04 1528.03 1501.26 1540.53 1499.39C1549.09 1498.11 1551.03 1487.95 1551.03 1487.95C1551.03 1487.95 1545.08 1486.06 1535.58 1487.98C1526.09 1489.89 1517.44 1495.04 1517.44 1495.04Z" fill="white"></path> <path d="M3214.84 1483.64C3214.84 1483.64 3241.92 1528.25 3191.02 1556.35C3191.02 1556.35 3230.14 1570.45 3243.75 1565.13C3243.75 1565.13 3240.37 1568.64 3237.83 1569.93C3237.83 1569.93 3274.58 1581.6 3292.9 1575.23C3311.23 1568.86 3350.7 1390.83 3242.18 1381.44C3242.18 1381.44 3156.59 1350.79 3138.48 1446.32C3120.39 1541.85 3087.43 1532.57 3087.43 1532.57C3087.43 1532.57 3095.41 1539.33 3099.83 1540.57C3099.83 1540.57 3106.96 1540.11 3109.14 1537.17C3109.14 1537.17 3106.41 1542 3104.31 1543.18C3104.31 1543.18 3139.01 1556.3 3160.27 1548.91C3181.52 1541.51 3214.49 1504.31 3214.84 1483.64Z" fill="#163560"></path> <path d="M3105.89 2889.08H3244.34C3244.34 2889.08 3247.65 2867.99 3240.41 2851.97C3233.5 2836.6 3222.72 2827.12 3221.73 2815.36C3212.92 2824.42 3202.1 2830.24 3182.1 2827.55C3179.65 2831.53 3166.26 2852.81 3158.07 2858.69C3149.02 2865.19 3108.68 2862.88 3105.89 2889.08Z" fill="#233862"></path> <path d="M3220.3 2836.2C3220.3 2836.2 3208.48 2840.03 3196.15 2841.11C3174.35 2843.06 3171.18 2836.57 3171.18 2836.57C3171.18 2836.57 3149.5 2643.64 3079.35 2274.88C3069.24 2221.61 3065.24 2192.13 3061.58 2144.8C3060.49 2130.62 3059.42 2114.86 3058.26 2096.37C3055.06 2046.66 3062.62 1963.02 3099.91 1941.03C3116.86 1931.02 3139.96 1933.77 3171.01 1958.24C3173.47 1960.16 3175.98 1962.22 3178.52 1964.43C3269.41 2043.08 3232.15 2268.89 3235.83 2375.07C3236.43 2392.66 3238.18 2406.98 3241.8 2416.78C3246.49 2429.47 3256.56 2447.06 3258.86 2463.62C3277.94 2601.32 3220.3 2836.2 3220.3 2836.2" fill="#2B478B"></path> <path d="M3235.82 2375.07L3061.58 2144.8C3060.49 2130.62 3059.41 2114.86 3058.25 2096.37C3055.08 2046.66 3062.62 1963.02 3099.91 1941.03L3171.03 1958.24C3173.48 1960.16 3175.99 1962.22 3178.51 1964.43C3269.42 2043.08 3232.15 2268.89 3235.82 2375.07Z" fill="#233862"></path> <path d="M3728.37 2597.7L3670.76 2471.8C3670.76 2471.8 3650.17 2477.56 3638.64 2490.8C3627.55 2503.5 3619.52 2501.23 3594.29 2483.72C3603.78 2498.4 3605.06 2507.06 3610.94 2526.36C3615.59 2526.94 3641.98 2552.48 3669.02 2559.52C3679.79 2562.33 3703.37 2606.06 3728.37 2597.7Z" fill="#233862"></path> <path d="M3124.23 1996.29C3124.23 1996.29 3248.3 2427.59 3293.77 2455.34C3339.21 2483.11 3578.21 2521.29 3626.77 2542.12C3626.77 2542.12 3632.7 2533.64 3629.22 2515.5C3628.46 2511.49 3621.6 2496.99 3621.6 2496.99C3621.6 2496.99 3473.19 2385.43 3375.51 2374.17C3351.26 2371.37 3424.85 2001.15 3261.05 1986.35C3111.42 1972.85 3124.23 1996.29 3124.23 1996.29Z" fill="#2B478B"></path> <path d="M2947.24 1288.67C2947.24 1288.67 2950.58 1272.02 2954.34 1259.33C2956 1253.71 2944.42 1216.8 2936.38 1212.25C2928.37 1207.71 2907.47 1232.58 2913.39 1251.66C2916.42 1261.45 2921.4 1293.35 2921.4 1293.35L2947.24 1288.67Z" fill="#FFB27D"></path> <path d="M2947.24 1288.68C2947.24 1288.68 2951.61 1279.03 2955.54 1277.47C2959.47 1275.9 2963.69 1260.12 2966.59 1253.86C2966.59 1253.86 2963.79 1249.76 2958.91 1255.04C2955.92 1258.24 2949.28 1267.65 2949.28 1267.65L2947.24 1288.68Z" fill="#FFB27D"></path> <path d="M3518.76 1344.64C3519.62 1346.39 3520.78 1349.52 3521.84 1352.46C3521.86 1351.66 3521.88 1350.87 3521.88 1350.09C3521.94 1344.23 3543.81 1312.32 3552.82 1310.33C3561.81 1308.33 3574.51 1338.21 3563.28 1354.74C3557.51 1363.22 3543.39 1392.27 3543.39 1392.27L3520.08 1380.22C3520.08 1380.22 3518.74 1369.72 3515.43 1367.07C3512.12 1364.42 3512.71 1348.1 3511.77 1341.27C3511.77 1341.27 3515.63 1338.17 3518.76 1344.64Z" fill="#FFB27D"></path> <path d="M3149.05 1597.84C3148.75 1597.92 3173.99 1616.18 3195.37 1613.62C3215.49 1611.22 3231.85 1588.03 3231.59 1587.93C3223.64 1585.09 3222.97 1573.48 3230.32 1525.14L3226.51 1525.32L3162.43 1528.39C3162.43 1528.39 3160.93 1548.19 3158.23 1566.65C3155.97 1582.15 3152.86 1596.71 3149.05 1597.84" fill="#FFB27D"></path> <path d="M3162.41 1528.4C3162.41 1528.4 3160.9 1548.2 3158.21 1566.66C3193.21 1570.86 3216.33 1541.82 3226.5 1525.33L3162.41 1528.4Z" fill="#ED975D"></path> <path d="M3233.97 1519.5C3233.97 1519.5 3256.5 1493.37 3264.55 1469.35C3270.29 1452.21 3271.03 1385.6 3204.05 1385.25C3204.05 1385.25 3184.72 1384.29 3165.03 1393.72C3149.36 1401.22 3125.72 1418.93 3140.21 1479.31L3143.32 1499.44L3233.97 1519.5Z" fill="#163560"></path> <path d="M3068.66 1979.67C3068.66 1979.67 3131.52 2019.34 3236.22 1993.86C3237.45 1993.55 3295.75 1984.26 3295.75 1984.26C3294.29 1980.26 3233.03 1879.05 3231.59 1875.37C3213.01 1827.43 3256.04 1598.57 3227.67 1585.74C3220.41 1593.62 3199.72 1599.02 3182.01 1597.45C3161.61 1595.64 3154.78 1586.83 3156.48 1577.35C3133.91 1588.03 3116.56 1597.95 3116.56 1597.95C3095.92 1628.87 3068.66 1979.67 3068.66 1979.67Z" fill="#FFB27D"></path> <path d="M3148.2 1544.13C3148.2 1544.13 3230.42 1557.75 3238.12 1506.42C3245.81 1455.09 3261.59 1422.27 3209.43 1411.41C3157.26 1400.54 3144.1 1418.59 3137.37 1435.11C3130.63 1451.62 3127.03 1539.27 3148.2 1544.13Z" fill="#FFB27D"></path> <path d="M3172.07 1404.57C3172.07 1404.57 3185.68 1468.16 3218.97 1482.22C3252.3 1496.28 3268.69 1489.23 3268.69 1489.23C3268.69 1489.23 3245.26 1464.18 3245.24 1426.52C3245.24 1426.52 3193.34 1378.43 3172.07 1404.57Z" fill="#163560"></path> <path d="M3176.95 1410.29C3176.95 1410.29 3158.1 1421.23 3152.04 1433.69C3145.99 1446.15 3140.15 1472.79 3132.43 1470.71C3132.43 1470.71 3121.53 1427.24 3144.08 1406.92C3167.98 1385.38 3176.95 1410.29 3176.95 1410.29Z" fill="#163560"></path> <path d="M3538.06 1392.26C3538.06 1392.26 3485.04 1553.42 3470.93 1578.35C3462.42 1593.39 3366.94 1652.86 3311.5 1692.04C3310.89 1692.46 3310.2 1693.32 3309.37 1694.6C3309.35 1694.62 3309.33 1694.64 3309.31 1694.67C3295.48 1716.07 3252.46 1848.51 3262.75 1872.28C3305.98 1972.18 3335.59 2010.83 3346.38 2038.85C3351.76 2052.83 3344.58 2068.49 3330.47 2073.51C3312.69 2079.84 3286.54 2087.79 3255.67 2093.09C3249.77 2094.11 3243.71 2095.02 3237.5 2095.81C3152.31 2106.62 3094.61 2086.63 3065.33 2071.85C3051.48 2064.86 3043.13 2050.32 3043.99 2034.83C3045.75 2003.23 3061.55 1971.94 3068.67 1895.93C3074.08 1838.25 3024.31 1750.47 3026.41 1719.78C3027.26 1707.64 3036.81 1693.12 3041.98 1683.71C3041.98 1683.71 3041.98 1683.69 3041.98 1683.68C3051.11 1667.01 3056.15 1651.96 3050.07 1643.6C3009.53 1587.95 2921.96 1511.2 2918.38 1492.05C2913.15 1463.88 2915.52 1289.84 2915.52 1289.84C2918.86 1288.67 2923.79 1285.87 2930.21 1285.3C2935.94 1284.79 2943.13 1286.65 2943.13 1286.65C2943.13 1286.65 2966.31 1430.86 2968.05 1438.49C2969.78 1446.13 3067.55 1556.28 3093.9 1555.83C3117.71 1555.43 3151.27 1573.82 3156.47 1577.35C3156.47 1577.35 3135.12 1615.22 3129.8 1666.36C3126.06 1702.12 3149.96 1686.22 3164.96 1661.72C3185.3 1628.56 3226.17 1581.34 3226.17 1581.34C3226.17 1581.34 3259.45 1572.69 3284.24 1581.68C3309.02 1590.66 3437.26 1518.24 3441.36 1511.58C3445.49 1504.91 3514.17 1376.92 3514.17 1376.92C3514.17 1376.92 3519.85 1373.61 3528.99 1378.36C3538.02 1383.07 3538.06 1392.26 3538.06 1392.26Z" fill="#F99746"></path> <path d="M3172.07 1516.26C3172.07 1516.26 3168.55 1523.36 3163.82 1523.49C3159.11 1523.62 3147.06 1522.48 3146.27 1521.25C3145.45 1520.03 3143.46 1512.62 3143.46 1512.62C3143.46 1512.62 3163.31 1511.82 3172.07 1516.26Z" fill="white"></path> <path d="M3330.47 2073.51C3312.7 2079.84 3286.54 2087.79 3255.66 2093.09C3226.27 2052.56 3176.51 2001.56 3189.32 1907.75C3202.54 1810.79 3297.87 1708.74 3309.31 1694.67C3295.47 1716.07 3252.47 1848.51 3262.75 1872.28C3305.98 1972.18 3335.61 2010.82 3346.38 2038.85C3351.77 2052.83 3344.59 2068.49 3330.47 2073.51Z" fill="#ED7D2B"></path> <path d="M3041.99 1683.68C3051.11 1667.01 3056.16 1651.96 3050.05 1643.6C3009.51 1587.95 2921.95 1511.21 2918.39 1492.05C2927.06 1512.87 3033.09 1575.08 3062.89 1601.84C3092.38 1628.24 3043.18 1682.39 3041.99 1683.68Z" fill="#ED7D2B"></path> <path d="M1262.28 916.21C1262.28 916.21 1282.16 943.417 1280.03 974.463C1278.44 997.512 1257.9 1020.83 1256.52 1021.74L1288.94 1039.04C1288.94 1039.04 1312.98 996.361 1304.88 960.692C1302.4 949.767 1290.9 932.285 1282.46 924.479C1273.15 915.906 1262.28 916.21 1262.28 916.21Z" fill="#6BB7BF"></path> <path d="M1196.01 919.089L1175.47 873.695C1175.47 873.695 1271.29 876.942 1303.04 955.014C1303.04 955.014 1235.99 907.189 1196.01 919.089Z" fill="#86D1CD"></path> <path d="M834.079 2073.85C834.079 2073.85 811.24 2056.61 805.346 2030.84C800.972 2011.71 811.947 1987.71 812.842 1986.63L782.24 1980.52C782.24 1980.52 773.176 2021.14 788.524 2048.14C793.226 2056.41 806.865 2067.8 815.644 2072.07C825.316 2076.76 834.079 2073.85 834.079 2073.85Z" fill="#6BB7BF"></path> <path d="M887.255 2055.23L915.095 2087.08C915.095 2087.08 836.401 2107.98 791.416 2052.3C791.416 2052.3 857.668 2074.71 887.255 2055.23Z" fill="#86D1CD"></path> <path d="M4336.29 2222.19C4336.29 2222.19 4334.29 2192.26 4390.47 2177.77C4415.65 2171.28 4471.73 2182.82 4436.17 2237.99C4399.22 2295.37 4366.25 2274.65 4366.25 2274.65C4366.25 2274.65 4443.36 2214.3 4412.5 2186.69C4378.45 2156.24 4365.37 2216.59 4365.37 2216.59C4365.37 2216.59 4351.65 2215.87 4336.29 2222.19Z" fill="#F1A34F"></path> <path d="M4356.23 2278.11C4356.23 2278.11 4335.22 2266.73 4343.57 2241.48L4373.77 2246.72C4373.77 2246.72 4362.13 2274.06 4390.55 2277.37C4390.55 2277.37 4363.21 2283.86 4356.23 2278.11Z" fill="#DB7714"></path> <path d="M2385.95 672.798C2385.95 672.798 2417.34 627.58 2465.48 659.602L2494.8 631.563C2494.8 631.563 2467.4 610.769 2404.23 648.07C2362.88 672.462 2385.95 672.798 2385.95 672.798Z" fill="#5685D8"></path> <path d="M2354.97 717.12C2354.97 717.12 2348.75 665.216 2435.62 632.842C2435.62 632.842 2404.23 648.07 2394.54 699.797L2354.97 717.12Z" fill="#739AF0"></path> <path d="M2703.98 441.864C2703.98 441.864 2729.64 425.655 2732.35 406.053C2732.35 406.053 2757.35 407.407 2762.75 415.511C2762.75 415.511 2751.27 447.947 2737.75 454.03C2737.75 454.03 2707.34 456.052 2703.98 441.864Z" fill="#F99746"></path> <path d="M1877.84 2291.91C1877.84 2291.91 1850.46 2274.62 1847.58 2253.71C1847.58 2253.71 1820.9 2255.15 1815.15 2263.8C1815.15 2263.8 1827.4 2298.4 1841.81 2304.88C1841.81 2304.88 1874.24 2307.04 1877.84 2291.91Z" fill="#F99746"></path> <path d="M3001.95 952.724C3001.95 952.724 3029.46 935.349 3032.36 914.363C3032.36 914.363 3059.13 915.811 3064.92 924.498C3064.92 924.498 3052.63 959.249 3038.15 965.756C3038.15 965.756 3005.56 967.937 3001.95 952.724" fill="#86D1CD"></path> <path d="M3537.28 1749.25C3537.28 1749.25 3521.39 1729.96 3512.83 1727.24C3504.29 1724.53 3487.72 1711.72 3485.57 1717C3483.41 1722.28 3496.7 1730.42 3495.98 1736.45C3495.31 1742.5 3453.77 1752.18 3454.01 1758.56C3454.27 1764.95 3463.8 1780.38 3479.62 1778.61C3495.48 1776.84 3535.65 1767.31 3543.88 1771.42C3552.14 1775.54 3537.28 1749.25 3537.28 1749.25Z" fill="#FFB27D"></path> <path d="M3965.58 1655.37C3942.14 1686.86 3914.67 1711.75 3886.47 1731.36C3796.81 1793.74 3699.57 1803.02 3699.57 1803.02C3676.26 1795.56 3604.65 1787.77 3562.36 1780.96H3562.34C3543.88 1777.98 3531.02 1775.2 3530.16 1772.72L3531.22 1735.87C3531.22 1735.87 3686.51 1727.66 3712.23 1715.73C3752.76 1680.8 3788.59 1635.44 3811.92 1599.99C3831.65 1570.06 3853.72 1547.96 3890.09 1534.98C3942.71 1516.23 4038.37 1557.56 3965.58 1655.37Z" fill="#AEC3FF"></path> <path d="M3894.36 1708.17L3886.45 1731.36C3796.81 1793.75 3699.55 1803.02 3699.55 1803.02C3680.84 1803.02 3604.65 1787.78 3562.34 1780.96C3564.01 1781.09 3677.54 1789.97 3702.61 1787.38C3727.91 1784.76 3845.57 1682.77 3845.57 1682.77L3894.36 1708.17Z" fill="#9DB0F4"></path> <path d="M3793.01 2876.07H3964.63C3976.9 2867.73 3961.28 2786.2 3961.28 2786.2C3961.28 2786.2 3914.46 2768.43 3906.36 2804.58C3898.26 2840.69 3846.71 2852.18 3819.43 2856.58C3800.77 2859.62 3794.86 2869.87 3793.01 2876.07Z" fill="#233862"></path> <path d="M4047.49 2876.08H4219.09C4231.39 2867.73 4215.79 2786.2 4215.79 2786.2C4215.79 2786.2 4168.96 2768.43 4160.86 2804.58C4152.76 2840.7 4101.2 2852.18 4073.92 2856.58C4055.26 2859.62 4049.36 2869.87 4047.49 2876.08Z" fill="#233862"></path> <path d="M3839.17 2044.38C3839.17 2044.38 3846.88 2140.63 3855.96 2256.3C3868.27 2413.45 3901.51 2803.09 3901.51 2803.09C3901.51 2803.09 3923.3 2821.68 3971.56 2811.51C3971.56 2811.51 4012.63 2677.1 4024.91 2523.67C4025.11 2521.16 4025.29 2518.64 4025.49 2516.09C4036.93 2359.92 4054.69 2031.04 4054.69 2031.04L3839.17 2044.38Z" fill="#2B478B"></path> <path d="M3836.53 2011.11C3836.53 2011.11 3846.88 2140.63 3855.96 2256.3L4024.91 2523.67C4025.11 2521.16 4025.29 2518.64 4025.49 2516.09C4036.93 2359.92 4054.69 2031.04 4054.69 2031.04L3836.53 2011.11" fill="#233862"></path> <path d="M3885.78 2011.11C3885.78 2011.11 4008.32 2316.19 4047.5 2431.81C4075.43 2514.19 4154.11 2803.15 4154.11 2803.15C4154.11 2803.15 4188.34 2813.57 4217.1 2793.43C4217.1 2793.43 4246.38 2498.21 4187.24 2414.97C4155.85 2370.81 4179.46 1955.88 4052.22 1952.32C3925.01 1948.76 3885.78 2011.11 3885.78 2011.11Z" fill="#2B478B"></path> <path d="M3940.53 1561.41C3959.21 1571.26 3977.5 1571.88 3993.32 1568.52C4007.78 1565.47 4020.21 1559.08 4029.07 1553.42C4038.17 1547.61 4043.51 1542.55 4043.51 1542.55C4043.51 1542.55 4042.89 1541.64 4041.82 1539.84C4036.29 1530.38 4019.54 1496.39 4026.98 1441.78C4027.08 1441.07 4021.68 1442.08 4013.49 1444.01C3989.18 1449.77 3940.31 1463.64 3938.13 1464.25C3938.1 1464.25 3938.05 1464.25 3938.05 1464.25C3938.05 1464.25 3937.46 1475.74 3935.45 1496.33C3935.27 1498.14 3935.1 1500.04 3934.9 1502C3934.63 1504.42 3934.41 1506.98 3934.08 1509.61C3931.83 1531.02 3940.53 1561.41 3940.53 1561.41Z" fill="#FFB27D"></path> <path d="M3935.44 1496.33C3971.74 1504.65 4025.91 1451.05 4025.91 1451.05C4021.96 1448.11 4017.78 1445.78 4013.49 1444.01C3989.18 1449.77 3940.3 1463.64 3938.13 1464.25C3938.08 1464.25 3938.06 1464.25 3938.06 1464.25C3938.06 1464.25 3937.44 1475.74 3935.44 1496.33Z" fill="#ED975D"></path> <path d="M3923.11 1461.35C3923.11 1461.35 3938.06 1466.71 3957.07 1469.26C3984.89 1473.02 4021.48 1470.8 4032.99 1437.13C4052.35 1380.45 4077.08 1346.47 4020.11 1323.33C3989.61 1310.94 3970.08 1310.28 3956.85 1315.01C3945.32 1319.09 3938.54 1327.24 3933.39 1335.31C3922.33 1352.65 3900.07 1451.43 3923.11 1461.35Z" fill="#FFB27D"></path> <path d="M3888.53 1339.79C3921.51 1363.5 3967.17 1340.19 3981.36 1346.5C3995.52 1352.8 3998.06 1376.57 3998.32 1384.11C3998.57 1391.67 3999.58 1398.04 4018.83 1393.52C4021.98 1392.79 4024.24 1393 4025.81 1393.94C4033.79 1398.68 4023.59 1421.64 4020.49 1426.61C4020.49 1426.61 4016.08 1443.05 4025.91 1451.06C4027.09 1452.01 4046.39 1460.45 4092.93 1389.26C4100.24 1378.08 4107.22 1352.9 4095.93 1328.66C4084.64 1304.42 4037.5 1280.99 3997.51 1268.57C3982.54 1263.92 3971.43 1264.09 3962.74 1267.28C3948.25 1272.57 3940.51 1286.27 3932.85 1300.04C3919.98 1323.15 3888.53 1339.79 3888.53 1339.79Z" fill="#A9453D"></path> <path d="M4100.83 2032.45C4100.83 2032.45 4084.86 2035.9 4064.69 2039.31C4044.94 2042.62 4021.11 2045.89 4004.28 2045.76C3918.23 2045.09 3846.23 2019.75 3846.23 2019.75C3830.06 2019.75 3822.67 1994.7 3820.03 1959.75C3818.2 1936.08 3818.61 1907.85 3819.9 1879.78C3820.31 1870.68 3820.84 1861.59 3821.4 1852.68C3822.54 1834.99 3823.86 1818.04 3825.06 1803.02C3826.2 1788.94 3827.21 1776.59 3827.82 1767.03C3827.82 1767.01 3825.51 1700.04 3826.43 1641.11C3827.09 1598.83 3850.82 1560.33 3856.73 1554.06C3873.97 1535.84 3923.87 1524.32 3933.87 1522.73C3934.63 1522.63 3935.04 1522.56 3935.04 1522.56C3976.08 1545.6 4031.33 1514.47 4031.33 1514.47C4032.58 1514.68 4033.82 1514.97 4035.01 1515.23C4039.1 1514.36 4080.55 1520.52 4090.22 1525.78C4114.08 1538.79 4127.94 1683.1 4127.94 1683.1C4131.92 1781.12 4126.92 1938.11 4134.66 1998.03C4137.23 2017.76 4118.14 2028.45 4100.83 2032.45Z" fill="#AEC3FF"></path> <path d="M4034.72 1515.3C4034.72 1515.3 3973.58 1578.37 3929.87 1565.45C3929.87 1565.45 3924.05 1556.94 3943.73 1554.21C3963.43 1551.48 3984.67 1552.59 4034.72 1515.3Z" fill="#9DB0F4"></path> <path d="M3922.66 1424.76C3922.66 1424.76 3921.47 1432.1 3938.53 1437.96C3938.53 1437.96 3952.87 1442.87 3955.47 1435.35C3955.47 1435.35 3944.09 1424.51 3922.66 1424.76Z" fill="white"></path> <path d="M4068.25 1753.9C4068.25 1753.9 3979.44 1902.43 3929.08 1928.58C3895.01 1946.26 3847.31 1955.56 3820.01 1959.76C3818.21 1936.09 3818.61 1907.85 3819.88 1879.78C3855.97 1875.42 3910.93 1868.44 3910.93 1868.44L4068.25 1753.9Z" fill="#9DB0F4"></path> <path d="M3951.3 1679.26L3903.98 1850.12C3903.98 1850.12 3848.27 1853.66 3821.39 1852.68C3822.53 1834.99 3822.55 1834.4 3823.77 1819.39C3823.77 1819.39 3887.71 1786.06 3951.3 1679.26Z" fill="#9DB0F4"></path> <path d="M3666.3 1862.78C3666.3 1862.78 3650.38 1843.49 3641.84 1840.77C3633.28 1838.07 3616.73 1825.25 3614.56 1830.53C3612.41 1835.81 3625.69 1843.95 3624.99 1849.98C3624.29 1856.03 3582.78 1865.71 3583.03 1872.09C3583.28 1878.48 3592.79 1893.91 3608.64 1892.14C3624.47 1890.37 3664.65 1880.84 3672.89 1884.95C3681.14 1889.07 3666.3 1862.78 3666.3 1862.78Z" fill="#FFB27D"></path> <path d="M4132.86 1625.74C4132.86 1625.74 4135.65 1716.24 3929.41 1897.79L3887.98 1823.61C3880.36 1819.16 4021.23 1516.16 4061.71 1518.58C4140.15 1523.26 4132.86 1625.74 4132.86 1625.74Z" fill="#AEC3FF"></path> <path d="M3912.67 1814.76C3912.67 1814.76 3678.08 1841.57 3669.43 1846.24C3660.74 1850.9 3642.1 1869.05 3648.32 1891.81C3648.32 1891.81 3769.71 1907.07 3836.52 1906.8C3894.14 1906.54 3931.43 1897.31 3931.43 1897.31L3912.67 1814.76Z" fill="#AEC3FF"></path> <path d="M4756.27 2889.08H349.434C346.457 2889.08 344.018 2886.65 344.018 2883.66V2880.78C344.018 2877.8 346.457 2875.37 349.434 2875.37H4756.27C4759.25 2875.37 4761.68 2877.8 4761.68 2880.78V2883.66C4761.68 2886.65 4759.25 2889.08 4756.27 2889.08Z" fill="#2E3552"></path> </svg> 