<?xml version="1.0" encoding="UTF-8"?> <svg xmlns="http://www.w3.org/2000/svg" width="667" height="667" viewBox="0 0 667 667" fill="none"> <path d="M205.713 246.215C195.708 246.215 187.569 254.355 187.569 264.359V469.027C187.569 479.032 195.708 487.172 205.713 487.172H478.248C488.252 487.172 496.393 479.032 496.393 469.027V264.359C496.393 254.355 488.252 246.215 478.248 246.215H205.713ZM478.248 488.379H205.713C195.043 488.379 186.361 479.697 186.361 469.027V264.359C186.361 253.689 195.043 245.008 205.713 245.008H478.248C488.919 245.008 497.599 253.689 497.599 264.359V469.027C497.599 479.697 488.919 488.379 478.248 488.379" fill="#B3DCFF"></path> <path d="M538.533 271.999C538.533 271.999 543.507 274.241 545.728 275.02C546.865 275.42 549.557 275.384 552.032 275.348C554.387 275.315 556.545 275.281 556.985 275.621C557.889 276.319 557.927 278.957 556.62 279.419C555.311 279.881 545.596 282.279 542.208 281.936C540.5 281.764 538.136 282.26 536.031 282.756C533.961 283.243 532.141 283.731 531.436 283.584C530.015 283.288 529.889 275.297 530.191 273.455C530.491 271.613 538.533 271.999 538.533 271.999" fill="#484E7D"></path> <path d="M537.391 268.796L538.533 271.999C538.533 271.999 532.54 274.133 530.191 273.455L529.405 270.191L537.391 268.796Z" fill="#EEA886"></path> <path d="M525.131 274.847C525.131 274.847 529.82 277.705 531.939 278.761C534.059 279.817 542.232 279.981 543.052 280.789C543.872 281.597 543.619 284.221 542.268 284.513C540.919 284.805 531.008 285.952 527.681 285.181C525.903 284.769 523.312 285.011 521.073 285.251C519.125 285.46 517.445 285.669 516.804 285.449C515.423 284.973 516.183 277.024 516.684 275.233C517.187 273.443 525.131 274.847 525.131 274.847" fill="#5B639E"></path> <path d="M524.428 271.519L525.131 274.847C525.131 274.847 518.943 276.205 516.684 275.233L516.264 271.892L524.428 271.519Z" fill="#EEA886"></path> <path d="M477.424 211.601C477.424 211.601 498.807 211.789 501.429 212.16C504.271 212.563 515.397 212.921 516.741 214.96C530.301 235.54 539.152 269.237 539.152 269.237L528.435 271.347C528.435 271.347 518.071 251.261 513.729 240.827C509.832 231.459 506.496 229.051 498.311 229.257C490.127 229.464 463.948 227.66 448.855 225.789L477.424 211.601Z" fill="#292C47"></path> <path d="M475.163 162.032C475.163 162.032 481.508 175.688 480.993 180.76C480.48 185.832 475.024 199.892 474.639 202.718C474.252 205.543 477.013 211.128 477.013 211.128L448.443 224.354C448.443 224.354 447.292 215.992 448.443 206.363C449.593 196.732 450.443 186.383 451.713 180.94C456.047 162.37 467.512 154.672 467.512 154.672L475.163 162.032Z" fill="#FF7E55"></path> <path d="M477.013 211.128C477.013 211.128 498.397 211.316 501.019 211.687C503.861 212.089 515.239 212.283 516.329 214.487C524.099 230.177 525.844 272.063 525.844 272.063L515.848 273.271C515.848 273.271 511.593 251.892 509.396 241.889C508.229 236.581 503.805 230.144 497.744 230.5C489.571 230.979 457.5 238.903 448.443 224.353L477.013 211.128" fill="#323657"></path> <path d="M458.548 174.931C458.609 172.287 460.145 160.875 466.584 161.655C473.02 162.436 472.276 170.159 471.68 175.983C471.056 182.079 467.893 197.021 468.9 197.791C469.907 198.559 477.543 200.853 479.185 201.181C480.827 201.509 490.727 203.939 491.54 204.165C492.336 204.387 490.743 208.237 490.743 208.237C490.743 208.237 463.323 207.433 458.736 205.26C454.149 203.087 458.548 174.931 458.548 174.931" fill="#EEA886"></path> <path d="M491.54 204.165C491.54 204.165 493.579 204.679 494.56 204.756C495.541 204.835 500.192 202.989 501.639 203.256C503.084 203.523 512.388 208.013 512.805 208.328C513.221 208.643 512.557 209.261 512.557 209.261L490.743 208.473L491.54 204.165Z" fill="#EEA886"></path> <path d="M518.721 212.696L482.444 211.231L482.579 207.908L518.856 209.373L518.721 212.696Z" fill="#807066"></path> <path d="M531.004 178.527L518.733 212.696L515.603 211.573L527.873 177.403L531.004 178.527" fill="#807066"></path> <path d="M491.801 140.527C491.801 140.527 492.485 146.135 490.967 146.37C489.711 146.564 490.153 151.976 490.153 152.832C490.153 153.688 487.8 153.39 487.157 153.688C486.516 153.988 482.864 159.338 481.029 158.824C479.196 158.311 472.327 152.432 471.043 149.334C469.757 146.235 471.963 135.37 475.087 131.646C478.211 127.922 490.56 130.715 491.801 140.527" fill="#EEA886"></path> <path d="M477.495 154.855C477.495 154.855 477.309 155.345 477.037 156.108C476.836 156.669 476.588 157.377 476.329 158.148C475.632 160.235 474.867 162.767 474.809 164.004C474.701 166.315 467.512 154.673 467.512 154.673C467.512 154.673 470.099 147.661 471.711 139.461C473.321 131.26 477.495 154.855 477.495 154.855Z" fill="#EEA886"></path> <path d="M491.907 141.725C491.907 141.725 496.413 137.723 493.235 132.203C490.057 126.68 478.972 129.848 477.912 129.719C476.853 129.591 471.323 127.836 470.251 138.493C469.179 149.151 469.855 147.552 469.855 147.552C469.855 147.552 472.571 142.977 474.509 143.716C476.448 144.453 479.839 144.807 479.839 144.807C479.839 144.807 479.903 139.832 482.695 140.216C485.488 140.601 489.699 139.756 491.907 141.725Z" fill="#D88A51"></path> <path d="M458.059 175.427L472.756 175.959C472.756 175.959 475.039 160.665 466.591 160.959C458.141 161.253 458.059 175.427 458.059 175.427" fill="#FF7E55"></path> <path d="M478.091 141.259C478.099 140.577 478.371 137.735 475.589 138.377C472.808 139.02 474.483 145.232 474.841 145.444C475.199 145.656 478.027 147.007 478.091 141.259" fill="#EEA886"></path> <path d="M467.512 154.672C467.512 154.672 480.124 177.464 479.796 174.233C479.539 171.708 474.077 159.509 474.077 159.509L467.512 154.672" fill="#EEA886"></path> <path d="M477.037 156.108C476.836 156.67 476.588 157.378 476.329 158.148C473.787 154.984 472.024 151.404 471.503 150.29C472.541 152.18 477.037 156.108 477.037 156.108" fill="#A77860"></path> <path d="M477.013 211.128L448.92 228.094L448.443 224.353L477.013 211.128Z" fill="#D6C5BF"></path> <path d="M400.296 200.521C400.296 200.521 403.993 229.041 383.387 250.941C362.779 272.84 316.316 265.032 316.316 265.032C316.316 265.032 324 239.149 340.847 228.485C357.692 217.821 390.785 214.149 400.296 200.521Z" fill="#869135"></path> <path d="M376.321 146.437C376.321 146.437 393.308 178.415 378.716 213.353C364.123 248.291 305.899 259.66 305.899 259.66C305.899 259.66 303.497 225.749 318.631 205.721C333.765 185.692 371.145 166.712 376.321 146.437" fill="#48753A"></path> <path d="M236.921 278.453H127.011V277.121H236.921V278.453" fill="#78C2FF"></path> <path d="M112.295 333.332L90.3047 298.972L101.474 304.037L112.295 333.332Z" fill="#D6D6D6"></path> <path d="M112.295 333.332L110.953 312.624L102.964 308.069L112.295 333.332Z" fill="#E8E8E8"></path> <path d="M95.3614 306.875L92.615 310.493L112.295 333.332L95.3614 306.875Z" fill="#C2C2C2"></path> <path d="M510.304 246.881V451.549C510.304 461.904 501.912 470.297 491.557 470.297H219.023C208.668 470.297 200.275 461.904 200.275 451.549V246.881C200.275 236.527 208.668 228.133 219.023 228.133H491.557C501.912 228.133 510.304 236.527 510.304 246.881" fill="#E3F2FF"></path> <path d="M510.304 246.881V252.181H200.275V246.881C200.275 236.527 208.668 228.133 219.023 228.133H491.557C501.912 228.133 510.304 236.527 510.304 246.881Z" fill="#4DA8F2"></path> <path d="M322.987 321.861H235.495C231.496 321.861 228.253 318.619 228.253 314.62V291.691C228.253 287.692 231.496 284.449 235.495 284.449H322.987C326.985 284.449 330.228 287.692 330.228 291.691V314.62C330.228 318.619 326.985 321.861 322.987 321.861Z" fill="#B3DCFF"></path> <path d="M235.495 334.733C231.835 334.733 228.857 337.711 228.857 341.369V364.3C228.857 367.96 231.835 370.937 235.495 370.937H322.987C326.647 370.937 329.624 367.96 329.624 364.3V341.369C329.624 337.711 326.647 334.733 322.987 334.733H235.495ZM322.987 372.143H235.495C231.169 372.143 227.651 368.625 227.651 364.3V341.369C227.651 337.045 231.169 333.527 235.495 333.527H322.987C327.312 333.527 330.831 337.045 330.831 341.369V364.3C330.831 368.625 327.312 372.143 322.987 372.143Z" fill="#B3DCFF"></path> <path d="M434.339 389.844H355.041C354 389.844 353.156 389 353.156 387.959V385.695C353.156 384.652 354 383.808 355.041 383.808H434.339C435.38 383.808 436.224 384.652 436.224 385.695V387.959C436.224 389 435.38 389.844 434.339 389.844Z" fill="#B3DCFF"></path> <path d="M434.339 411.765H355.041C354 411.765 353.156 410.923 353.156 409.881V407.619C353.156 406.577 354 405.732 355.041 405.732H434.339C435.38 405.732 436.224 406.577 436.224 407.619V409.881C436.224 410.923 435.38 411.765 434.339 411.765Z" fill="#B3DCFF"></path> <path d="M363.465 285.053C358.113 285.053 353.76 289.407 353.76 294.757V361.232C353.76 366.584 358.113 370.937 363.465 370.937H472.277C477.628 370.937 481.981 366.584 481.981 361.232V294.757C481.981 289.407 477.628 285.053 472.277 285.053H363.465ZM472.277 372.143H363.465C357.448 372.143 352.553 367.249 352.553 361.232V294.757C352.553 288.741 357.448 283.847 363.465 283.847H472.277C478.293 283.847 483.189 288.741 483.189 294.757V361.232C483.189 367.249 478.293 372.143 472.277 372.143Z" fill="#B3DCFF"></path> <path d="M467.617 391.747L460.725 385.737C460.16 385.245 460.101 384.388 460.593 383.823C461.085 383.257 461.944 383.197 462.509 383.692L467.383 387.94L474.333 380.188C474.833 379.631 475.693 379.583 476.251 380.084C476.808 380.584 476.856 381.441 476.356 382L467.617 391.747" fill="#4DA8F2"></path> <path d="M467.617 415.028L460.725 409.02C460.16 408.527 460.101 407.668 460.593 407.103C461.085 406.537 461.944 406.479 462.509 406.972L467.383 411.221L474.333 403.469C474.833 402.911 475.693 402.863 476.251 403.363C476.808 403.864 476.856 404.723 476.356 405.281L467.617 415.028" fill="#4DA8F2"></path> <path d="M434.339 435.047H355.041C354 435.047 353.156 434.203 353.156 433.163V430.899C353.156 429.859 354 429.015 355.041 429.015H434.339C435.38 429.015 436.224 429.859 436.224 430.899V433.163C436.224 434.203 435.38 435.047 434.339 435.047Z" fill="#B3DCFF"></path> <path d="M467.617 438.308L460.725 432.3C460.16 431.807 460.101 430.949 460.593 430.384C461.085 429.819 461.944 429.76 462.509 430.252L467.383 434.503L474.333 426.749C474.833 426.192 475.693 426.144 476.251 426.645C476.808 427.145 476.856 428.004 476.356 428.563L467.617 438.308" fill="#4DA8F2"></path> <path d="M200.275 260.588H187.963C189.325 254.171 194.091 248.995 200.275 247.047V260.588ZM186.731 260.588H149.729C141.209 260.588 134.303 253.681 134.303 245.161V150.193C134.303 141.673 141.209 134.767 149.729 134.767H313.199C321.719 134.767 328.625 141.673 328.625 150.193V195.015C324.787 198.557 321.349 202.123 318.631 205.721C313.685 212.265 310.613 220.291 308.717 228.133H219.023C209.039 228.133 200.879 235.936 200.307 245.776C193.439 247.777 188.139 253.491 186.731 260.588" fill="#E4F3FE"></path> <path d="M187.963 260.588H186.731C188.139 253.491 193.439 247.777 200.307 245.776C200.285 246.143 200.275 246.509 200.275 246.881V247.047C194.091 248.995 189.325 254.171 187.963 260.588" fill="#D8EDFF"></path> <path d="M328.625 228.133H308.717C310.613 220.291 313.685 212.265 318.631 205.721C321.349 202.123 324.787 198.557 328.625 195.015V228.133Z" fill="#C6DCDE"></path> <path d="M313.199 260.588H200.275V246.881C200.275 246.509 200.285 246.143 200.307 245.776C200.879 235.936 209.039 228.133 219.023 228.133H308.717H328.625H219.023C208.668 228.133 200.275 236.527 200.275 246.881V252.181H326.939C324.384 257.172 319.191 260.588 313.199 260.588Z" fill="#E1F1FF"></path> <path d="M326.939 252.181H200.275V246.881C200.275 236.527 208.668 228.133 219.023 228.133H328.625V245.161C328.625 247.689 328.017 250.076 326.939 252.181Z" fill="#C7E5FD"></path> <path d="M158.167 179.901C158.256 172.897 161.625 166.7 166.793 162.755C170.559 159.877 175.275 158.195 180.376 158.259C189.755 158.379 197.681 164.371 200.707 172.696L200.712 172.708C201.429 174.688 201.871 176.8 201.989 178.997C202.015 179.483 202.023 179.972 202.019 180.467C201.955 185.423 200.248 189.972 197.431 193.608C193.361 198.857 186.965 202.2 179.813 202.108C177.449 202.077 175.181 201.675 173.06 200.956C164.301 197.995 158.044 189.652 158.167 179.901V179.901ZM170.715 207.889C173.541 208.849 176.568 209.384 179.717 209.425C189.256 209.547 197.789 205.089 203.217 198.092C206.98 193.241 209.252 187.171 209.333 180.559C209.344 179.903 209.331 179.248 209.297 178.601C209.14 175.665 208.549 172.843 207.587 170.195C203.555 159.095 192.981 151.103 180.472 150.941C173.731 150.853 167.497 153.053 162.501 156.821C155.524 162.083 150.971 170.397 150.852 179.808C150.685 192.808 159.028 203.936 170.715 207.889Z" fill="#78C2FF"></path> <path d="M197.429 193.61L203.217 198.091C197.788 205.09 189.256 209.548 179.717 209.426C176.568 209.386 173.543 208.848 170.715 207.891L173.061 200.958C175.183 201.675 177.451 202.078 179.812 202.108C186.964 202.2 193.36 198.858 197.429 193.61" fill="#1A598C"></path> <path d="M207.587 170.195L200.707 172.696L200.712 172.708C201.624 175.222 202.052 177.856 202.017 180.467C201.953 185.423 200.251 189.974 197.429 193.61L203.217 198.091C206.979 193.241 209.251 187.171 209.335 180.559C209.381 176.977 208.785 173.493 207.587 170.195" fill="#2273B5"></path> <path d="M162.501 156.821C167.497 153.053 173.731 150.853 180.472 150.941C192.981 151.103 203.555 159.095 207.587 170.195L200.712 172.708L200.707 172.696C197.681 164.371 189.755 158.379 180.376 158.259C175.275 158.195 170.559 159.877 166.793 162.755L162.501 156.821" fill="#4DA8F2"></path> <path d="M239.641 303.051C239.675 300.448 240.927 298.146 242.847 296.679C244.245 295.611 245.999 294.984 247.893 295.008C251.379 295.054 254.324 297.28 255.448 300.374L255.451 300.378C255.717 301.114 255.881 301.898 255.925 302.715H255.924C255.935 302.895 255.939 303.078 255.936 303.26C255.925 304.05 255.797 304.808 255.579 305.528C255.287 306.487 254.829 307.372 254.231 308.144C254.012 308.427 253.773 308.692 253.52 308.944C252.023 310.426 249.957 311.332 247.684 311.303C247.083 311.295 246.5 311.218 245.937 311.087C245.679 311.027 245.423 310.959 245.175 310.875C241.92 309.775 239.595 306.674 239.641 303.051V303.051ZM258.655 303.296C258.657 303.114 258.651 302.934 258.644 302.754L258.64 302.568C258.583 301.476 258.363 300.428 258.005 299.444C256.507 295.319 252.577 292.35 247.929 292.29C245.424 292.256 243.108 293.074 241.252 294.474C238.659 296.43 236.967 299.519 236.923 303.016C236.861 307.847 239.961 311.982 244.304 313.451V313.452C245.355 313.807 246.479 314.007 247.649 314.022C248.979 314.039 250.255 313.816 251.439 313.395C253.409 312.692 255.121 311.436 256.381 309.811C257.613 308.222 258.416 306.28 258.609 304.162C258.636 303.875 258.651 303.587 258.655 303.296" fill="#E3F2FF"></path> <path d="M297.491 243.584H241.829C234.332 243.584 228.253 237.507 228.253 230.009V164.515C228.253 157.016 234.332 150.939 241.829 150.939H297.491C304.988 150.939 311.065 157.016 311.065 164.515V230.009C311.065 237.507 304.988 243.584 297.491 243.584Z" fill="#78C2FF"></path> <path d="M209.077 228.8H154.855C153.151 228.8 151.769 227.417 151.769 225.715V225.323C151.769 223.619 153.151 222.237 154.855 222.237H209.077C210.781 222.237 212.164 223.619 212.164 225.323V225.715C212.164 227.417 210.781 228.8 209.077 228.8Z" fill="#B3DCFF"></path> <path d="M209.077 243.584H154.855C153.151 243.584 151.769 242.203 151.769 240.5V240.108C151.769 238.404 153.151 237.023 154.855 237.023H209.077C210.781 237.023 212.164 238.404 212.164 240.108V240.5C212.164 242.203 210.781 243.584 209.077 243.584Z" fill="#B3DCFF"></path> <path d="M537.293 367.78H510.304V280.691H516.044C515.952 283.016 516.099 285.207 516.804 285.449C516.997 285.516 517.287 285.543 517.649 285.543C518.485 285.543 519.715 285.397 521.073 285.251C522.433 285.105 523.923 284.959 525.281 284.959C526.159 284.959 526.983 285.02 527.681 285.181C528.493 285.369 529.696 285.444 531.073 285.444C535.335 285.443 541.248 284.735 542.268 284.513C542.968 284.363 543.373 283.584 543.487 282.757C545.985 284.639 547.601 287.629 547.601 290.999V357.471C547.601 363.164 542.985 367.78 537.293 367.78" fill="#73BAF4"></path> <path d="M517.649 285.543C517.287 285.543 516.997 285.516 516.804 285.449C516.099 285.207 515.952 283.016 516.044 280.691H537.293C539.617 280.691 541.763 281.46 543.487 282.757C543.373 283.584 542.968 284.363 542.268 284.513C541.248 284.735 535.335 285.443 531.073 285.444C529.696 285.444 528.493 285.369 527.681 285.181C526.983 285.02 526.159 284.959 525.281 284.959C523.923 284.959 522.433 285.105 521.073 285.251C519.715 285.397 518.485 285.543 517.649 285.543" fill="#5099E0"></path> <path d="M510.304 367.78H481C482.373 365.955 483.189 363.687 483.189 361.232V294.757C483.189 288.741 478.293 283.847 472.277 283.847H421.057C422.932 281.9 425.565 280.691 428.48 280.691H510.304V367.78V367.78ZM479.433 367.78H428.48C422.788 367.78 418.173 363.164 418.173 357.471V290.999C418.173 288.784 418.871 286.733 420.059 285.053H472.277C477.628 285.053 481.981 289.407 481.981 294.757V361.232C481.981 363.753 481.015 366.052 479.433 367.78Z" fill="#6EB8F5"></path> <path d="M481 367.78H479.433C481.015 366.052 481.981 363.753 481.981 361.232V294.757C481.981 289.407 477.628 285.053 472.277 285.053H420.059C420.361 284.625 420.695 284.223 421.057 283.847H472.277C478.293 283.847 483.189 288.741 483.189 294.757V361.232C483.189 363.687 482.373 365.955 481 367.78" fill="#63B3F5"></path> <path d="M470.813 327.995H435.107C432.959 327.995 431.217 326.253 431.217 324.107V294.985C431.217 292.837 432.959 291.097 435.107 291.097H470.813C472.963 291.097 474.703 292.837 474.703 294.985V324.107C474.703 326.253 472.963 327.995 470.813 327.995Z" fill="#E3F2FF"></path> <path d="M535.66 300.939H484.26C483.001 300.939 481.981 299.919 481.981 298.66V293.375C481.981 292.117 483.001 291.097 484.26 291.097H535.66C536.917 291.097 537.937 292.117 537.937 293.375V298.66C537.937 299.919 536.917 300.939 535.66 300.939Z" fill="#E3F2FF"></path> <path d="M535.66 316.335H484.26C483.001 316.335 481.981 315.315 481.981 314.056V308.771C481.981 307.512 483.001 306.492 484.26 306.492H535.66C536.917 306.492 537.937 307.512 537.937 308.771V314.056C537.937 315.315 536.917 316.335 535.66 316.335Z" fill="#E3F2FF"></path> <path d="M535.867 355.861H516.043C514.9 355.861 513.972 354.935 513.972 353.792V352.853C513.972 351.709 514.9 350.783 516.043 350.783H535.867C537.012 350.783 537.937 351.709 537.937 352.853V353.792C537.937 354.935 537.012 355.861 535.867 355.861Z" fill="#E3F2FF"></path> <path d="M522.695 388.948C522.695 388.948 520.628 385.333 523.904 375.644C527.073 366.275 538.04 367.124 541.527 373.128C545.012 379.131 543.835 382.859 538.703 389.637C533.572 396.415 524.824 392.047 522.695 388.948" fill="#EEA886"></path> <path d="M548.169 555.639C548.169 555.639 548.712 559.619 548.78 560.216C548.848 560.813 554.817 559.863 554.817 559.863L555.301 555.128C555.301 555.128 548.916 555.079 548.169 555.639" fill="#EEA886"></path> <path d="M548.716 559.709C548.716 559.709 546.824 562.108 544.995 563.152C543.165 564.197 540.292 564.612 539.209 565.693C538.428 566.474 536.365 569.836 543.964 569.768C551.561 569.7 555.224 570.243 556.037 568.953C556.853 567.665 554.861 559.44 554.861 559.44C554.861 559.44 553 559.965 548.716 559.709Z" fill="#5377B3"></path> <path d="M506.835 555.639C506.835 555.639 507.377 559.619 507.445 560.216C507.513 560.813 513.483 559.863 513.483 559.863L513.967 555.128C513.967 555.128 507.581 555.079 506.835 555.639" fill="#EEA886"></path> <path d="M507.381 559.71C507.381 559.71 505.491 562.108 503.661 563.152C501.832 564.198 495.1 565.056 494.019 566.138C493.237 566.919 491.939 570.063 502.629 569.768C510.224 569.559 513.891 570.243 514.704 568.953C515.519 567.665 513.527 559.44 513.527 559.44C513.527 559.44 511.167 559.862 507.381 559.71" fill="#5B83C2"></path> <path d="M546.159 456.564C546.159 456.564 549.22 466.076 548.817 474.273C548.415 482.471 550.4 491.44 551.211 500.003C552.116 509.548 555.82 532.147 555.955 537.252C556.088 542.36 555.379 558.664 555.379 558.664L547.967 558.844C547.967 558.844 541.74 519.336 540.128 515.304C538.515 511.273 530.519 482.533 530.249 479.308C529.98 476.084 546.159 456.564 546.159 456.564" fill="#2F4563"></path> <path d="M515.421 455.575C515.421 455.575 510.921 480.724 510.384 485.741C509.847 490.757 509.488 510.02 509.219 513.153C508.951 516.291 507.427 554.186 505.995 558.844H514.26C514.26 558.844 522.748 531.296 522.748 518.26C522.748 505.227 528.367 489.924 531.996 481.324C535.624 472.724 543.928 472.521 546.159 456.564C546.159 456.564 518.441 450.513 515.421 455.575" fill="#354C70"></path> <path d="M525.693 391.507C525.693 391.507 526.625 394.22 525.693 396.156C524.759 398.094 537.605 396.931 537.605 396.931C537.605 396.931 537.025 392.93 538.703 389.638C540.381 386.344 525.693 391.507 525.693 391.507Z" fill="#EEA886"></path> <path d="M546.755 458.637C546.755 458.637 542.136 463.383 515.008 457.897L515.421 455.575L546.26 456.736L546.755 458.637Z" fill="#2B3B57"></path> <path d="M523.749 396.785C523.749 396.785 519.004 397.269 517.648 397.528C516.292 397.787 507.168 395.896 505.296 395.701C503.423 395.508 495.441 390.039 495.184 389.393C494.924 388.748 490.327 377.107 490.069 374.588C489.811 372.071 485.589 373.371 485.952 375.107C486.629 378.352 487.499 386.23 487.975 388.512C488.489 390.976 489.868 396.56 490.643 397.248C491.417 397.935 498.604 403.403 505.64 405.725C512.677 408.049 517.973 411.472 517.973 411.472H552.651C552.651 411.472 566.139 392.192 566.428 389.287C566.719 386.381 557.008 367.076 555.072 364.653C553.135 362.235 550.333 365.446 550.333 365.446C550.333 365.446 556.137 382.471 556.912 384.891C557.685 387.311 550.161 397.947 548.096 397.979C546.029 398.012 540.725 397.335 538.369 397.238C536.013 397.14 533.528 396.108 533.528 396.108L523.749 396.785" fill="#EEA886"></path> <path d="M508.805 409.664C508.805 409.664 513.049 412.485 513.436 417.327C513.823 422.169 515.372 429.817 516.147 432.431C516.921 435.047 515.471 454.025 515.276 455.38C515.083 456.736 542.109 459.956 546.26 456.736C546.26 456.736 547.421 439.016 547.907 433.98C548.391 428.947 550.713 416.747 551.488 415.1C552.263 413.453 561.655 400.28 562.043 398.543C562.043 398.543 557.184 390.797 553.697 390.7C553.697 390.7 548.161 397.188 546.357 397.477C544.552 397.768 533.488 395.741 533.485 395.724C533.485 395.724 532.279 397.368 525.86 395.431C525.86 395.431 518.213 396.295 516.971 396.453C515.464 396.645 504.995 395.139 504.995 395.139C504.995 395.139 500.796 402.231 501.531 405.812L508.805 409.664" fill="#FF7E55"></path> <path d="M490.311 376.101C490.311 376.101 489.363 371.615 490.505 370.325C491.155 369.592 492.716 367.651 492.86 367.364C493.003 367.081 494.679 366.117 494.679 365.652C494.679 365.191 493.037 364.619 491.611 365.939C490.185 367.257 489.293 367.544 488.721 367.401C488.151 367.257 487.331 362.515 487.259 361.337C487.188 360.16 486.735 357.057 485.997 357.271C485.261 357.485 485.299 358.841 485.299 358.841C485.299 358.841 484.441 356.485 483.871 356.951C483.301 357.415 483.371 358.555 483.371 358.555C483.371 358.555 482.303 357.236 482.016 358.197C481.731 359.161 482.016 360.019 482.016 360.019C482.016 360.019 480.911 359.412 480.839 360.909C480.768 362.408 481.16 366.795 481.945 368.363C482.729 369.933 485.667 374.039 486.017 375.641C486.367 377.247 490.311 376.101 490.311 376.101Z" fill="#EEA886"></path> <path d="M551.279 368.221C551.279 368.221 548.052 362.797 546.956 362.313C545.859 361.829 544.308 361.555 542.953 360.585C541.597 359.619 539.805 358.812 539.903 358.489C540 358.167 541.597 358.296 543.308 359.037C545.019 359.78 545.769 359.421 545.931 359.033C546.092 358.647 545.019 355.913 544.503 355.265C543.985 354.621 540.305 350.919 540.919 350.371C541.532 349.823 543.92 351.857 544.308 352.276C544.308 352.276 542.404 348.273 543.147 348.08C543.889 347.887 545.277 349.305 545.277 349.305C545.277 349.305 545.116 345.885 548.796 351.436C548.796 351.436 548.021 349.596 549.149 350.209C550.28 350.823 551.377 354.276 551.732 356.02C552.087 357.763 553.697 363.315 555.072 364.653C556.444 365.993 551.279 368.221 551.279 368.221" fill="#EEA886"></path> <path d="M538.703 389.637C538.703 389.637 537.003 389.787 533.388 388.539C529.773 387.291 529.503 380.971 528.721 381.719C527.127 383.247 525.62 382.192 525.019 381.288C525.019 381.288 526.783 378.964 525.965 377.846C525.147 376.727 523.815 375.91 523.815 375.91C523.815 375.91 526.359 363.653 537.928 369.237C551.484 375.78 538.703 389.637 538.703 389.637" fill="#353A3D"></path> <path d="M525.693 396.156L526.1 394.385C526.1 394.385 533.484 394.236 537.515 394.819L537.937 396.936C537.937 396.936 532.779 399.276 525.693 396.156" fill="#FF7E55"></path> <path d="M527.515 380.17C528.185 379.055 530.665 378.303 530.957 381.46C531.183 383.908 526.524 386.582 526.48 384.3C526.437 382.02 527.068 380.912 527.515 380.17" fill="#EEA886"></path> <path d="M490.136 375.083C490.136 375.083 487.472 375.148 486.18 376.315C486.18 376.315 486.095 377.057 486.395 377.641C486.395 377.641 488.704 376.564 490.475 376.361C490.475 376.361 490.445 375.393 490.136 375.083" fill="#E55353"></path> <path d="M486.995 375.748C486.749 376.331 487.021 377.003 487.604 377.248C488.188 377.495 488.86 377.221 489.105 376.639C489.352 376.055 489.079 375.383 488.496 375.137C487.913 374.891 487.241 375.164 486.995 375.748" fill="#353A3D"></path> <path d="M200.275 376.349H187.569V338.937H200.275V376.349ZM186.361 376.349H182.349C178.351 376.349 175.108 373.107 175.108 369.108V346.18C175.108 342.181 178.351 338.937 182.349 338.937H186.361V376.349Z" fill="#71B8F0"></path> <path d="M186.361 376.349H187.569V338.937H186.361V376.349Z" fill="#51A1F5"></path> <path d="M269.841 376.349H200.275V338.937H228.036C227.785 339.704 227.651 340.521 227.651 341.369V364.3C227.651 368.625 231.169 372.143 235.495 372.143H276.417C275.269 374.625 272.756 376.349 269.841 376.349V376.349ZM276.849 370.937H235.495C231.835 370.937 228.857 367.96 228.857 364.3V341.369C228.857 340.512 229.021 339.691 229.319 338.937H269.841C273.84 338.937 277.081 342.181 277.081 346.18V369.108C277.081 369.74 277.001 370.353 276.849 370.937" fill="#68B1F5"></path> <path d="M276.417 372.143H235.495C231.169 372.143 227.651 368.625 227.651 364.3V341.369C227.651 340.521 227.785 339.704 228.036 338.937H229.319C229.021 339.691 228.857 340.512 228.857 341.369V364.3C228.857 367.96 231.835 370.937 235.495 370.937H276.849C276.74 371.356 276.595 371.759 276.417 372.143Z" fill="#51A1F5"></path> <path d="M95.8598 449.204C95.8598 449.204 96.263 451.393 97.4921 451.717C98.5369 451.992 99.689 453.103 100.044 453.443C100.519 453.899 102.499 454.756 101.93 455.361C101.36 455.967 98.5973 454.105 97.9401 453.831C97.2822 453.557 98.2239 456.599 97.9583 457.292C97.6926 457.984 92.5639 459.257 92.1593 457.093C91.7551 454.931 92.7505 452.353 92.6041 451.985C92.4578 451.62 92.2478 450.424 92.2478 450.424L95.8598 449.204" fill="#EEA886"></path> <path d="M97.9829 456.764C97.9829 456.764 98.7813 463.471 98.461 463.961C98.1402 464.452 97.7741 464.473 97.6736 463.851C97.5725 463.227 96.7141 457.393 96.7141 457.393C96.7141 457.393 96.3261 465.489 96.1512 465.948C96.049 466.219 95.3433 466.303 95.258 465.973C95.1736 465.644 95.0996 457.599 95.0996 457.599C95.0996 457.599 94.7236 465.157 94.4626 465.497C94.234 465.797 93.5662 465.711 93.5564 465.148C93.546 464.585 93.498 457.553 93.498 457.553C93.498 457.553 92.8783 463.036 92.4876 463.195C92.2485 463.292 91.6418 463.392 91.846 461.981C92.0501 460.573 92.1829 457.195 92.1829 457.195L97.9829 456.764" fill="#EEA886"></path> <path d="M167.871 366.944C167.871 366.944 168.972 364.888 169.348 363.247C169.725 361.604 171.773 359.417 172.608 358.901C173.443 358.383 179.492 354.048 180.192 354.048C180.892 354.049 180.485 355.393 179.88 355.785C179.275 356.177 174.361 360.005 174.361 360.005C174.361 360.005 180.475 355.787 181.113 355.903C181.752 356.016 182.207 356.828 181.521 357.664C181.521 357.664 182.915 358.581 181.463 359.695L178.573 361.928C178.573 361.928 180.273 361.044 179.641 362.411C179.305 363.137 175.752 365.257 175.183 365.907C174.613 366.555 170.131 368.739 170.131 368.739L167.871 366.944" fill="#EEA886"></path> <path d="M132.046 554.853H133.561C133.561 554.853 133.057 549.131 134.46 549.074C135.861 549.017 139.34 553.731 141.417 554.462C143.495 555.191 154.155 555.805 154.211 553.843C154.268 551.88 150.116 551.093 148.825 550.532C147.535 549.972 141.249 543.855 140.128 543.126C139.004 542.396 137.152 538.693 137.152 538.693H131.43C131.43 538.693 130.802 541.8 130.442 544.309C130.307 545.239 130.209 546.084 130.195 546.662C130.14 548.793 132.046 554.853 132.046 554.853Z" fill="#EEA886"></path> <path d="M105.714 553.721H106.977V548.393C108.029 548.481 111.565 551.828 112.659 552.797C113.753 553.764 115.254 553.721 119.863 554.015C124.471 554.307 124.906 551.549 124.177 550.609C123.447 549.669 121.09 549.259 119.863 548.673C118.636 548.085 113.796 542.628 112.505 541.336C111.215 540.045 110.428 536.348 110.428 536.348L105.042 536.816C105.042 536.816 105.076 540.2 104.463 543.037V543.039L104.456 543.06C104.404 543.304 104.347 543.54 104.284 543.771C103.484 546.721 105.714 553.721 105.714 553.721" fill="#EEA886"></path> <path d="M118.316 375.656C118.316 375.656 115.686 381.203 117.091 385.739C117.091 385.739 109.002 384.636 108.76 383.691C108.519 382.744 109.773 374.239 108.838 371.631C107.904 369.021 118.316 375.656 118.316 375.656Z" fill="#EEA886"></path> <path d="M118.508 383.902C118.508 383.902 123.19 385.912 125.326 386.528C127.463 387.148 131.851 389.571 130.911 397.424C129.971 405.278 128.121 412.013 127.383 415.363C126.645 418.713 126.329 427.355 126.826 431.599C126.826 431.599 115.109 433.597 101.769 429.784C101.769 429.784 104.688 422.816 104.76 420.967C104.832 419.113 97.9922 403.332 97.7965 400.904C97.6012 398.476 96.7678 387.771 100.569 385.695C104.371 383.619 107.304 384.14 108.919 383.206C110.534 382.271 116.316 382.987 118.508 383.902" fill="#FF7E55"></path> <path d="M118.485 396.116C118.485 396.116 116.688 386.683 125.832 386.697C133.871 386.712 141.464 385.188 142.737 384.48C144.011 383.773 148.927 381.357 151.509 378.701C154.091 376.047 168.08 365.408 168.08 365.408L171.947 369.319C171.947 369.319 157.189 385.344 154.811 386.905C152.431 388.467 132.454 399.624 129.919 399.975C127.385 400.328 120.268 402.263 118.485 396.116Z" fill="#FF7E55"></path> <path d="M89.7499 425.261C89.4759 428.584 91.2843 451.52 91.2843 451.52L97.7874 452.269C97.7874 452.269 97.3254 429.617 96.9609 424.392C96.8535 422.851 97.2103 420.492 97.765 417.935V417.933C98.1166 416.308 98.5499 414.603 98.9969 412.976C100.226 408.483 101.553 404.581 101.553 404.581C101.553 404.581 108.835 385.637 99.6983 386.403C99.6983 386.403 96.303 389.904 94.8666 395.647C93.4291 401.392 91.7843 410 91.7213 413.429C91.6587 416.86 89.951 422.819 89.7499 425.261" fill="#FF7E55"></path> <path d="M125.257 431.413C125.257 431.413 127.356 436.375 127.541 437.629C127.726 438.881 134.305 455.26 134.763 460.053C135.225 464.899 136.615 477.831 137.108 479.683C137.603 481.535 135.997 489.805 135.751 491.657C135.503 493.509 135.627 523.755 137.849 538.692C137.849 538.692 132.664 540.915 128.714 538.692C128.714 538.692 122.17 515.36 122.541 501.904C122.912 488.447 124.619 482.769 122.531 477.336C120.443 471.905 108.221 455.609 106.987 453.88C105.752 452.152 98.0178 442.601 105.341 432.255C112.665 421.908 125.257 431.413 125.257 431.413" fill="#EDDAD3"></path> <path d="M99.9827 475.608C100.633 479.93 99.9488 485.608 98.592 501.412C97.2327 517.212 100.968 536.347 100.968 536.347C105.659 537.952 111.06 536.347 111.06 536.347C110.936 535.236 111.06 497.83 111.06 494.496C111.06 491.163 112.018 487.38 112.264 483.554C112.432 480.947 113.645 476.139 115.01 471.232C115.419 469.762 115.841 468.284 116.253 466.854V466.852C116.484 466.05 116.709 465.26 116.93 464.498C118.852 457.831 121.437 432.09 121.437 432.09C121.437 432.09 107.11 420.55 100.135 431.415C93.1587 442.276 96.74 450.178 96.9868 451.535C97.2327 452.894 99.3327 471.288 99.9827 475.608" fill="#EDDAD3"></path> <path d="M127.746 411.996C127.746 411.996 126.474 432.448 130.281 443.957C130.281 443.957 115.152 446.48 95.8506 439.976C95.8506 439.976 101.159 426.228 100.976 424.08C100.792 421.931 95.2058 396.897 97.8875 391.296C100.569 385.695 126.794 393.643 127.746 411.996" fill="#FF7E55"></path> <path d="M115.388 352.855C118.847 352.715 127.679 354.055 126.034 367.364C124.389 380.675 119.583 379.523 114.821 377.753C110.062 375.985 105.024 365.224 105.224 362.453C105.425 359.683 105.519 353.252 115.388 352.855" fill="#EEA886"></path> <path d="M125.984 361.212C125.984 361.212 121.763 365.861 117.792 366.757C117.792 366.757 114.412 371.891 109.096 372.875C109.096 372.875 98.738 361.427 108.675 354.101C118.614 346.776 126.342 357.132 125.984 361.212Z" fill="#353A3D"></path> <path d="M118.656 364.973C118.58 364.235 117.066 362.631 115.697 364.203C114.328 365.775 116.325 369.817 117.187 369.88C118.049 369.943 118.948 367.78 118.656 364.973" fill="#EEA886"></path> <path d="M105.924 452.392C106.035 452.639 113.174 468.484 115.01 471.232C115.419 469.762 115.841 468.284 116.253 466.854V466.852C116.253 466.852 106.162 452.742 105.924 452.392" fill="#C9B9B3"></path> <path d="M97.4454 401.692C97.4454 401.692 96.9407 411.76 97.7651 417.933C98.1167 416.308 98.55 414.603 98.997 412.976C98.9615 412.747 97.5776 403.28 97.4454 401.692" fill="#BA5C3D"></path> <path d="M112.724 351.992C112.724 351.992 100.687 351.716 102.496 372.398C103.886 388.294 98.0412 396.144 98.864 398.463C99.6874 400.779 102.51 404.651 108.829 401.159C115.148 397.667 110.988 379.45 114.383 372.36C117.777 365.271 125.229 361.986 125.229 361.986C125.229 361.986 123.921 349.916 112.724 351.992" fill="#353A3D"></path> <path d="M128.965 393.871C128.965 393.871 131.713 403.687 132.367 406.005C133.216 409.019 129.275 414.688 125.784 412.947C122.293 411.203 128.965 393.871 128.965 393.871Z" fill="#FF7E55"></path> <path d="M105.714 553.721H106.977V548.393C108.029 548.481 111.565 551.828 112.659 552.797C113.753 553.764 115.254 553.721 119.863 554.015C124.471 554.307 124.906 551.549 124.177 550.609C123.447 549.669 121.09 549.259 119.863 548.673C114.933 548.936 108.917 542.005 106.029 542.02C104.494 542.028 104.509 542.877 104.463 543.037V543.039L104.456 543.06C104.404 543.304 104.347 543.54 104.284 543.771C103.484 546.721 105.714 553.721 105.714 553.721" fill="#DBCAC3"></path> <path d="M132.046 554.853H133.561C133.561 554.853 133.057 549.131 134.46 549.074C135.861 549.017 139.34 553.731 141.417 554.462C143.495 555.191 154.155 555.805 154.211 553.843C154.268 551.88 150.116 551.093 148.825 550.532C144.428 550.523 137.277 545.683 135.059 544.702C132.842 543.72 130.442 544.309 130.442 544.309C130.307 545.239 130.209 546.084 130.195 546.662C130.14 548.793 132.046 554.853 132.046 554.853Z" fill="#DBCAC3"></path> <path d="M440.472 143.556L440.197 142.38C442.331 141.883 443.433 141.451 443.445 141.447L443.888 142.569C443.84 142.588 442.691 143.037 440.472 143.556" fill="#C2BEBC"></path> <path d="M238.539 86.8054C236.347 86.7308 234.137 86.6935 231.972 86.6935H231.696L231.695 85.4867L231.972 85.4854C234.151 85.4868 236.375 85.5254 238.58 85.6001L238.539 86.8054ZM218.031 87.2241L217.937 86.0201C220.203 85.8454 222.516 85.7121 224.812 85.6227L224.859 86.8295C222.577 86.9175 220.28 87.0495 218.031 87.2241V87.2241ZM252.195 87.7427C249.919 87.5107 247.624 87.3148 245.373 87.1601L245.457 85.9561C247.72 86.1121 250.028 86.3094 252.317 86.5427L252.195 87.7427ZM204.451 88.8201L204.261 87.6281C206.508 87.2708 208.804 86.9534 211.084 86.6854L211.224 87.8854C208.96 88.1508 206.681 88.4641 204.451 88.8201V88.8201ZM265.765 89.5681C263.509 89.1934 261.231 88.8494 258.993 88.5494L259.155 87.3521C261.404 87.6561 263.695 88.0001 265.963 88.3774L265.765 89.5681ZM191.055 91.5388L190.764 90.3668C192.973 89.8188 195.235 89.3094 197.484 88.8534L197.724 90.0361C195.492 90.4894 193.248 90.9948 191.055 91.5388ZM279.205 92.2067C276.976 91.7027 274.723 91.2254 272.504 90.7894L272.737 89.6054C274.967 90.0441 277.232 90.5228 279.472 91.0308L279.205 92.2067ZM177.945 95.4147L177.552 94.2748C179.709 93.5308 181.917 92.8241 184.115 92.1748L184.457 93.3308C182.277 93.9761 180.087 94.6774 177.945 95.4147ZM292.48 95.5988C290.281 94.9735 288.056 94.3721 285.865 93.8121L286.164 92.6427C288.365 93.2054 290.601 93.8094 292.809 94.4388L292.48 95.5988ZM305.557 99.6908C303.397 98.9534 301.207 98.2361 299.045 97.5601L299.405 96.4081C301.577 97.0868 303.777 97.8067 305.947 98.5481L305.557 99.6908ZM165.239 100.455L164.744 99.3548C166.827 98.4161 168.961 97.5134 171.089 96.6694L171.535 97.7908C169.423 98.6281 167.305 99.5241 165.239 100.455V100.455ZM318.413 104.44C316.301 103.6 314.149 102.773 312.015 101.984L312.433 100.852C314.577 101.645 316.739 102.475 318.86 103.32L318.413 104.44ZM153.044 106.628L152.451 105.576C154.444 104.451 156.488 103.357 158.527 102.325L159.071 103.403C157.049 104.425 155.021 105.511 153.044 106.628V106.628ZM331.013 109.832C328.959 108.891 326.849 107.956 324.747 107.057L325.223 105.948C327.333 106.849 329.452 107.788 331.516 108.735L331.013 109.832ZM141.452 113.872L140.768 112.879C142.657 111.577 144.595 110.305 146.528 109.097L147.167 110.121C145.249 111.32 143.327 112.581 141.452 113.872V113.872ZM343.309 115.877C341.337 114.836 339.283 113.791 337.204 112.769L337.737 111.687C339.824 112.712 341.889 113.763 343.873 114.809L343.309 115.877ZM130.557 122.117L129.779 121.195C130.981 120.183 132.224 119.179 133.472 118.212C134.039 117.772 134.608 117.336 135.179 116.907L135.905 117.869C135.339 118.297 134.775 118.728 134.211 119.165C132.975 120.123 131.746 121.116 130.557 122.117V122.117ZM355.221 122.664C354.433 122.2 353.641 121.727 352.845 121.245C351.723 120.567 350.536 119.869 349.315 119.172L349.915 118.124C351.143 118.827 352.339 119.529 353.469 120.212C354.261 120.692 355.051 121.161 355.833 121.624L355.221 122.664ZM367.303 129.263C365.287 128.248 363.236 127.171 361.207 126.061L361.787 125.003C363.804 126.105 365.841 127.176 367.845 128.185L367.303 129.263ZM120.671 131.521L119.789 130.699C121.351 129.023 122.984 127.373 124.641 125.797L125.474 126.672C123.833 128.231 122.218 129.864 120.671 131.521V131.521ZM379.821 134.999C377.737 134.139 375.612 133.215 373.507 132.248L374.009 131.152C376.1 132.112 378.211 133.031 380.281 133.883L379.821 134.999ZM392.777 139.685C390.625 139.017 388.428 138.277 386.247 137.485L386.657 136.352C388.821 137.136 391.001 137.869 393.136 138.533L392.777 139.685ZM111.974 142.037L111 141.324C112.357 139.471 113.783 137.64 115.238 135.881L116.167 136.651C114.729 138.391 113.317 140.203 111.974 142.037V142.037ZM406.137 143.091C403.925 142.655 401.663 142.141 399.411 141.565L399.709 140.396C401.94 140.968 404.181 141.475 406.369 141.907L406.137 143.091ZM419.815 144.905C417.572 144.76 415.26 144.529 412.944 144.22L413.104 143.024C415.393 143.331 417.677 143.557 419.892 143.701L419.815 144.905ZM426.723 145.087L426.705 143.88C429.043 143.848 431.328 143.715 433.501 143.484L433.629 144.684C431.419 144.919 429.096 145.055 426.723 145.087V145.087ZM104.536 153.497L103.488 152.897C104.633 150.899 105.841 148.916 107.081 147.005L108.093 147.663C106.866 149.555 105.669 151.517 104.536 153.497V153.497ZM98.3834 165.699L97.2792 165.212C98.2094 163.103 99.2 161.004 100.222 158.973L101.3 159.517C100.286 161.528 99.3052 163.609 98.3834 165.699V165.699ZM93.486 178.464L92.3402 178.085C93.062 175.897 93.8407 173.712 94.6542 171.589L95.7812 172.023C94.9746 174.127 94.2022 176.293 93.486 178.464V178.464ZM89.7834 191.633L88.6084 191.357C89.135 189.113 89.7136 186.867 90.3276 184.68L91.4896 185.007C90.8798 187.177 90.3063 189.407 89.7834 191.633V191.633ZM87.2079 205.075L86.014 204.895C86.3563 202.62 86.7464 200.333 87.1735 198.1L88.3588 198.327C87.9344 200.544 87.547 202.815 87.2079 205.075V205.075ZM85.6954 218.675L84.4918 218.587C84.6594 216.297 84.8719 213.989 85.1224 211.727L86.3224 211.86C86.0724 214.108 85.8615 216.4 85.6954 218.675V218.675ZM85.1948 232.352H83.988C83.9891 230.063 84.0312 227.747 84.1146 225.465L85.3208 225.508C85.238 227.776 85.1954 230.079 85.1948 232.352V232.352ZM84.4771 246.115C84.314 243.84 84.1902 241.527 84.1088 239.237L85.3151 239.195C85.3959 241.469 85.5188 243.769 85.6807 246.028L84.4771 246.115ZM85.9714 259.807C85.6402 257.564 85.3454 255.265 85.0959 252.975L86.2959 252.844C86.5438 255.12 86.836 257.404 87.1651 259.631L85.9714 259.807ZM88.5474 273.344C88.0312 271.156 87.5495 268.888 87.1156 266.601L88.3016 266.377C88.7318 268.645 89.2094 270.896 89.7219 273.067L88.5474 273.344ZM92.4131 286.583C91.6698 284.501 90.9579 282.292 90.297 280.015L91.4558 279.677C92.1099 281.932 92.8146 284.119 93.5495 286.177L92.4131 286.583" fill="#C2BEBC"></path> <path d="M96.4781 296.139C95.9666 295.139 95.4587 294.076 94.9688 292.981L96.0702 292.488C96.5521 293.564 97.051 294.608 97.5526 295.589L96.4781 296.139" fill="#C2BEBC"></path> <path d="M230.343 402.476H221.063V436.188H230.343V402.476Z" fill="#78C2FF"></path> <path d="M243.549 399.076H234.268V436.188H243.549V399.076Z" fill="#78C2FF"></path> <path d="M256.932 406.139H247.652V436.188H256.932V406.139Z" fill="#78C2FF"></path> <path d="M270.315 392.211H261.035V436.188H270.315V392.211Z" fill="#78C2FF"></path> <path d="M284.357 396.591H275.077V436.188H284.357V396.591Z" fill="#78C2FF"></path> <path d="M298.588 402.476H289.308V436.188H298.588V402.476Z" fill="#78C2FF"></path> <path d="M311.795 399.076H302.515V436.188H311.795V399.076Z" fill="#78C2FF"></path> <path d="M325.177 406.139H315.897V436.188H325.177V406.139Z" fill="#78C2FF"></path> <path d="M187.764 356.785C187.797 354.183 189.049 351.88 190.969 350.415C192.368 349.344 194.12 348.719 196.016 348.743C199.501 348.787 202.447 351.015 203.571 354.108L203.573 354.112C203.84 354.848 204.003 355.633 204.048 356.448H204.047C204.056 356.629 204.06 356.811 204.057 356.995C204.048 357.785 203.919 358.544 203.7 359.265C203.408 360.223 202.951 361.107 202.353 361.877C202.135 362.161 201.895 362.427 201.641 362.677C200.144 364.159 198.08 365.065 195.807 365.036C195.204 365.028 194.62 364.952 194.056 364.82C193.799 364.76 193.545 364.693 193.297 364.609C190.043 363.508 187.717 360.409 187.764 356.785V356.785ZM206.767 356.46L206.763 356.303C206.705 355.211 206.485 354.163 206.128 353.179C204.629 349.053 200.7 346.084 196.052 346.024C193.547 345.991 191.231 346.807 189.375 348.208C186.781 350.164 185.089 353.252 185.045 356.751C184.983 361.581 188.084 365.716 192.425 367.187C193.477 367.541 194.601 367.741 195.772 367.756C197.147 367.773 198.464 367.532 199.681 367.083C201.601 366.371 203.269 365.137 204.504 363.544C205.728 361.968 206.527 360.043 206.728 357.941C206.756 357.64 206.773 357.336 206.777 357.029C206.78 356.839 206.773 356.648 206.767 356.46" fill="#E3F2FF"></path> <path d="M446.688 516.64H374.036C368.919 516.64 364.769 512.491 364.769 507.373V488.379H455.955V507.373C455.955 512.491 451.804 516.64 446.688 516.64ZM455.955 487.172H364.769V470.297H455.955V487.172Z" fill="#7ABDF4"></path> <path d="M364.769 488.379H455.955V487.172H364.769V488.379Z" fill="#67B5F5"></path> <path d="M455.955 470.297H364.769V454.623C364.769 449.505 368.919 445.356 374.036 445.356H446.688C451.804 445.356 455.955 449.505 455.955 454.623V470.297Z" fill="#74BBF5"></path> <path d="M444.844 508.037H412.301C409.171 508.037 406.635 505.501 406.635 502.372V458.312C406.635 455.183 409.171 452.645 412.301 452.645H444.844C447.973 452.645 450.511 455.183 450.511 458.312V502.372C450.511 505.501 447.973 508.037 444.844 508.037Z" fill="#E3F2FF"></path> <path d="M394.295 460.543H377.631C375.712 460.543 374.157 458.987 374.157 457.069V456.119C374.157 454.2 375.712 452.645 377.631 452.645H394.295C396.212 452.645 397.767 454.2 397.767 456.119V457.069C397.767 458.987 396.212 460.543 394.295 460.543Z" fill="#E3F2FF"></path> <path d="M394.295 475.285H377.631C375.712 475.285 374.157 473.731 374.157 471.812V470.861C374.157 468.943 375.712 467.388 377.631 467.388H394.295C396.212 467.388 397.767 468.943 397.767 470.861V471.812C397.767 473.731 396.212 475.285 394.295 475.285Z" fill="#E3F2FF"></path> </svg> 