<?xml version="1.0" encoding="UTF-8"?> <svg xmlns="http://www.w3.org/2000/svg" width="3334" height="3334" viewBox="0 0 3334 3334" fill="none"> <path d="M2618.65 2593.13H771.753V753.353H2618.65V2593.13Z" fill="#AAE0FF"></path> <path d="M223.497 3007.92H3179.36C3188.36 3007.92 3195.67 3000.61 3195.67 2991.6C3195.67 2982.59 3188.36 2975.28 3179.36 2975.28H223.497C214.484 2975.28 207.177 2982.59 207.177 2991.6C207.177 3000.61 214.484 3007.92 223.497 3007.92Z" fill="#2D5B98"></path> <path d="M1020.01 2845.96C928.788 2845.96 854.84 2772.01 854.84 2680.79V2455.63H1185.17V2680.79C1185.17 2772.01 1111.23 2845.96 1020.01 2845.96" fill="#5896FA"></path> <path d="M854.84 2975.28H836.533V2625.79H854.84V2975.28Z" fill="#0E0E0E"></path> <path d="M1203.48 2975.28H1185.17V2625.79H1203.48V2975.28Z" fill="#0E0E0E"></path> <path d="M1063.39 2975.28H1045.09V2625.79H1063.39V2975.28Z" fill="#0E0E0E"></path> <path d="M836.533 2864.27V2845.96H1186.02V2864.27H836.533Z" fill="#0E0E0E"></path> <path d="M1277.24 2083.63C1297.18 2112.35 1257.05 2137.09 1250.8 2176.89C1244.56 2216.68 1290.14 2239.08 1241.79 2291.19C1212.02 2323.28 1186.88 2280.65 1162.68 2329.84C1138.47 2379.03 1157.55 2387.32 1130.34 2405.01C1082.91 2435.87 1010.35 2367.68 1034.75 2318.55C1059.16 2269.41 1108.52 2273.81 1085.68 2233.39C1062.84 2192.96 1054.35 2175.55 1093.73 2154.77C1142.48 2129.07 1185.43 2152.68 1189.35 2115.07C1193.27 2077.45 1250.87 2045.65 1277.24 2083.63Z" fill="#FFCA59"></path> <path d="M1068.87 2453.37L1060.67 2451.75C1099.1 2257.49 1226.51 2121.47 1227.79 2120.12L1233.86 2125.88C1232.59 2127.21 1106.82 2261.57 1068.87 2453.37" fill="#0E0E0E"></path> <path d="M638.421 2011.87C617.813 2053.87 675.889 2078.55 692.16 2129.96C708.431 2181.36 648.516 2199.52 722.976 2258.76C768.836 2295.25 778.435 2272.44 795.295 2354.05C810.139 2425.91 864.735 2357.53 905.563 2399.71C958.243 2454.12 1040.56 2334.69 998.388 2274.59C956.213 2214.48 906.997 2230.01 929.091 2171.93C951.185 2113.84 924.833 2070.08 868.539 2050.51C798.863 2026.29 773.803 2084.77 761.049 2035.79C748.296 1986.8 665.677 1956.31 638.421 2011.87Z" fill="#ED5A24"></path> <path d="M988.517 2459.24C899.683 2212.93 706.269 2060.56 704.328 2059.05L711.199 2050.2C713.167 2051.73 909.125 2206.11 999.049 2455.44L988.517 2459.24Z" fill="#0E0E0E"></path> <path d="M1937 1070.95C1937 1461.08 1620.73 1777.35 1230.59 1777.35C840.448 1777.35 524.176 1461.08 524.176 1070.95C524.176 680.815 840.448 364.538 1230.59 364.538C1620.73 364.538 1937 680.815 1937 1070.95Z" stroke="#2E77E6" stroke-width="11.6408" stroke-miterlimit="10" stroke-dasharray="17.46 17.46"></path> <path d="M1409.44 1024.58C1410.19 1019.07 1410.71 1013.48 1410.71 1007.77C1410.71 939.004 1354.96 883.269 1286.21 883.269C1234.62 883.269 1190.37 914.639 1171.48 959.341C1156.11 945.663 1135.91 937.276 1113.71 937.276C1065.66 937.276 1026.71 976.221 1026.71 1024.26H1010.48C964.275 1024.26 926.474 1062.06 926.474 1108.27C926.474 1154.46 964.275 1192.26 1010.48 1192.26H1403.24C1449.44 1192.26 1487.24 1154.46 1487.24 1108.27C1487.24 1064.15 1452.76 1027.79 1409.44 1024.58" fill="white"></path> <path d="M1486.69 1938.35H960.834C943.137 1938.35 928.791 1924 928.791 1906.31V1465.13C928.791 1447.44 943.137 1433.09 960.834 1433.09H1486.69C1504.39 1433.09 1518.73 1447.44 1518.73 1465.13V1906.31C1518.73 1924 1504.39 1938.35 1486.69 1938.35" fill="#5896FA"></path> <path d="M1402.37 1738.17H1046.73C1035.09 1738.17 1025.57 1728.64 1025.57 1717.01C1025.57 1705.37 1035.09 1695.85 1046.73 1695.85H1402.37C1414 1695.85 1423.53 1705.37 1423.53 1717.01C1423.53 1728.64 1414 1738.17 1402.37 1738.17Z" fill="white"></path> <path d="M1402.37 1806.32H1046.73C1035.09 1806.32 1025.57 1796.8 1025.57 1785.16C1025.57 1773.52 1035.09 1764 1046.73 1764H1402.37C1414 1764 1423.53 1773.52 1423.53 1785.16C1423.53 1796.8 1414 1806.32 1402.37 1806.32Z" fill="white"></path> <path d="M1113.13 1787.04C1113.13 1791.15 1109.8 1794.48 1105.68 1794.48C1101.57 1794.48 1098.23 1791.15 1098.23 1787.04C1098.23 1782.92 1101.57 1779.59 1105.68 1779.59C1109.8 1779.59 1113.13 1782.92 1113.13 1787.04Z" fill="#80B2FF"></path> <path d="M1138.68 1787.04C1138.68 1791.15 1135.34 1794.48 1131.23 1794.48C1127.11 1794.48 1123.78 1791.15 1123.78 1787.04C1123.78 1782.92 1127.11 1779.59 1131.23 1779.59C1135.34 1779.59 1138.68 1782.92 1138.68 1787.04Z" fill="#80B2FF"></path> <path d="M1164.22 1787.04C1164.22 1791.15 1160.88 1794.48 1156.77 1794.48C1152.65 1794.48 1149.32 1791.15 1149.32 1787.04C1149.32 1782.92 1152.65 1779.59 1156.77 1779.59C1160.88 1779.59 1164.22 1782.92 1164.22 1787.04Z" fill="#80B2FF"></path> <path d="M1189.76 1787.04C1189.76 1791.15 1186.42 1794.48 1182.31 1794.48C1178.19 1794.48 1174.86 1791.15 1174.86 1787.04C1174.86 1782.92 1178.19 1779.59 1182.31 1779.59C1186.42 1779.59 1189.76 1782.92 1189.76 1787.04Z" fill="#80B2FF"></path> <path d="M1215.3 1787.04C1215.3 1791.15 1211.97 1794.48 1207.85 1794.48C1203.74 1794.48 1200.4 1791.15 1200.4 1787.04C1200.4 1782.92 1203.74 1779.59 1207.85 1779.59C1211.97 1779.59 1215.3 1782.92 1215.3 1787.04Z" fill="#80B2FF"></path> <path d="M1240.84 1787.04C1240.84 1791.15 1237.51 1794.48 1233.39 1794.48C1229.28 1794.48 1225.94 1791.15 1225.94 1787.04C1225.94 1782.92 1229.28 1779.59 1233.39 1779.59C1237.51 1779.59 1240.84 1782.92 1240.84 1787.04Z" fill="#80B2FF"></path> <path d="M1266.38 1787.04C1266.38 1791.15 1263.05 1794.48 1258.93 1794.48C1254.82 1794.48 1251.48 1791.15 1251.48 1787.04C1251.48 1782.92 1254.82 1779.59 1258.93 1779.59C1263.05 1779.59 1266.38 1782.92 1266.38 1787.04Z" fill="#80B2FF"></path> <path d="M1291.93 1787.04C1291.93 1791.15 1288.59 1794.48 1284.48 1794.48C1280.36 1794.48 1277.03 1791.15 1277.03 1787.04C1277.03 1782.92 1280.36 1779.59 1284.48 1779.59C1288.59 1779.59 1291.93 1782.92 1291.93 1787.04Z" fill="#80B2FF"></path> <path d="M1317.47 1787.04C1317.47 1791.15 1314.13 1794.48 1310.02 1794.48C1305.9 1794.48 1302.57 1791.15 1302.57 1787.04C1302.57 1782.92 1305.9 1779.59 1310.02 1779.59C1314.13 1779.59 1317.47 1782.92 1317.47 1787.04Z" fill="#80B2FF"></path> <path d="M1306.42 1554.88C1306.42 1600.04 1269.82 1636.64 1224.67 1636.64C1179.52 1636.64 1142.91 1600.04 1142.91 1554.88C1142.91 1509.73 1179.52 1473.13 1224.67 1473.13C1269.82 1473.13 1306.42 1509.73 1306.42 1554.88Z" fill="white"></path> <path d="M1224.78 1551.6C1232.76 1551.6 1240.13 1547.71 1244.84 1541.77C1248.32 1537.47 1250.37 1531.95 1250.37 1525.8C1250.37 1511.68 1238.91 1500.01 1224.78 1500.01C1210.46 1500.01 1199 1511.68 1199 1525.8C1199 1531.95 1201.04 1537.47 1204.52 1541.77C1209.23 1547.71 1216.59 1551.6 1224.78 1551.6Z" fill="#005CEA"></path> <path d="M1270.1 1597.55C1270.1 1613.83 1179.22 1613.83 1179.22 1597.55L1179.25 1578.59C1182.84 1552.65 1262.71 1551.56 1270.11 1578.59L1270.1 1597.55Z" fill="#005CEA"></path> <path d="M1057.46 1788.81V1793.15C1057.46 1793.93 1056.79 1794.48 1056.01 1794.48C1055.23 1794.48 1054.68 1793.93 1054.68 1793.15V1788.81C1053.9 1788.37 1053.34 1787.59 1053.34 1786.59C1053.34 1785.15 1054.57 1783.92 1056.01 1783.92C1057.46 1783.92 1058.68 1785.15 1058.68 1786.59C1058.68 1787.59 1058.12 1788.37 1057.46 1788.81ZM1050.68 1780.12C1050.68 1777.24 1052.46 1774.63 1056.04 1774.63C1059.62 1774.63 1061.45 1777.08 1061.45 1780.12V1781.25H1050.68V1780.12ZM1064.36 1781.25V1780.12C1064.36 1775.53 1060.63 1771.8 1056.04 1771.8C1051.45 1771.8 1047.71 1775.53 1047.71 1780.12V1781.25H1046.45V1796.27C1046.45 1798.85 1065.68 1798.85 1065.68 1796.27V1781.25H1064.36" fill="#5896FA"></path> <path d="M1056.06 1715.47C1057.74 1715.47 1059.3 1714.65 1060.29 1713.4C1061.03 1712.49 1061.46 1711.33 1061.46 1710.03C1061.46 1707.05 1059.04 1704.59 1056.06 1704.59C1053.04 1704.59 1050.62 1707.05 1050.62 1710.03C1050.62 1711.33 1051.05 1712.49 1051.78 1713.4C1052.78 1714.65 1054.33 1715.47 1056.06 1715.47Z" fill="#5896FA"></path> <path d="M1065.62 1725.17C1065.62 1728.6 1046.35 1728.6 1046.35 1725.17L1046.45 1721.17C1047.21 1715.69 1064.06 1715.47 1065.63 1721.17L1065.62 1725.17Z" fill="#5896FA"></path> <path d="M1180.63 1723.21H1102.69C1099.28 1723.21 1096.49 1720.43 1096.49 1717.01C1096.49 1713.59 1099.28 1710.8 1102.69 1710.8H1180.63C1184.05 1710.8 1186.84 1713.59 1186.84 1717.01C1186.84 1720.43 1184.05 1723.21 1180.63 1723.21Z" fill="#80B2FF"></path> <path d="M1283.42 1723.21H1205.49C1202.07 1723.21 1199.28 1720.43 1199.28 1717.01C1199.28 1713.59 1202.07 1710.8 1205.49 1710.8H1283.42C1286.84 1710.8 1289.63 1713.59 1289.63 1717.01C1289.63 1720.43 1286.84 1723.21 1283.42 1723.21Z" fill="#80B2FF"></path> <path d="M1250.61 1872.35H1179.99C1169.97 1872.35 1161.86 1864.23 1161.86 1854.23C1161.86 1844.21 1169.97 1836.09 1179.99 1836.09H1250.61C1260.63 1836.09 1268.74 1844.21 1268.74 1854.23C1268.74 1864.23 1260.63 1872.35 1250.61 1872.35Z" fill="#1251B3"></path> <path d="M326.197 1134.28C326.201 1133.69 326.201 1133.43 326.201 1133.38C326.201 1133.48 326.197 1134.28 326.197 1134.28Z" fill="#D9FFFF"></path> <path d="M326.197 1134.28C326.201 1133.69 326.201 1133.43 326.201 1133.38C326.201 1133.48 326.197 1134.28 326.197 1134.28Z" fill="#D9FFFF"></path> <path d="M673.846 1135.82C673.846 1135.82 673.849 1135.03 673.85 1134.92C673.85 1134.97 673.849 1135.23 673.846 1135.82Z" fill="#D9FFFF"></path> <path d="M673.846 1135.82C673.846 1135.82 673.849 1135.03 673.85 1134.92C673.85 1134.97 673.849 1135.23 673.846 1135.82Z" fill="#D9FFFF"></path> <path d="M500.737 1040.34C460.224 1083.73 395.58 1119.3 326.403 1134.45C326.383 1139.08 326.27 1164.66 325.742 1282.65C325.039 1440.03 474.819 1516.94 498.073 1528.74C520.605 1518.36 672.276 1441.58 672.979 1284.2C673.505 1166.21 673.619 1140.62 673.642 1135.99C604.606 1120.24 540.859 1084.09 500.737 1040.34" fill="white"></path> <path d="M500.321 1068.78C460.649 1105.18 405.688 1133.78 345.251 1149.38L344.653 1282.72C344.381 1343.73 368.62 1398.94 416.701 1446.78C448.293 1478.22 481.508 1497.73 498.362 1506.5C499.087 1506.13 499.883 1505.7 500.667 1505.3V1069.09C500.551 1068.99 500.432 1068.9 500.321 1068.78" fill="#296ACC"></path> <path d="M500.667 1069.09V1505.3C518.195 1496.18 550.049 1477.33 580.558 1447.51C629.061 1400.09 653.796 1345.1 654.065 1284.1L654.662 1150.74C594.539 1134.67 539.983 1105.69 500.667 1069.09" fill="#2E77E6"></path> <path d="M507.769 1316.16V1345.44C507.769 1349.33 504.597 1352.57 500.697 1352.57C496.733 1352.57 493.56 1349.33 493.56 1345.44V1316.09C487.545 1313.37 483.316 1307.29 483.316 1300.29C483.316 1290.71 491.113 1282.97 500.697 1282.97C510.28 1282.97 518.015 1290.71 518.015 1300.29C518.015 1307.36 513.849 1313.44 507.769 1316.16ZM430.441 1261.29V1364.6C430.441 1376.11 570.889 1376.11 570.889 1364.6V1261.29H430.441Z" fill="white"></path> <path d="M558.596 1253.93H544.379V1246.97C544.379 1222.88 524.769 1203.27 500.672 1203.27C476.569 1203.27 456.961 1222.88 456.961 1246.97V1253.93H442.744V1246.97C442.744 1215.04 468.729 1189.05 500.672 1189.05C532.609 1189.05 558.596 1215.04 558.596 1246.97V1253.93Z" fill="white"></path> <path d="M1540.29 506.782H1286.59V190.106H1540.29V506.782" fill="#296ACC"></path> <path d="M1573.2 539.477H1319.49V222.794H1573.2V539.477Z" fill="white"></path> <path d="M1573.2 539.477H1319.49V222.794H1573.2V539.477Z" stroke="#5896FA" stroke-width="8.4541" stroke-miterlimit="10"></path> <path d="M1614.97 571.595H1361.28V254.915H1614.97V571.595Z" fill="white"></path> <path d="M1614.97 571.595H1361.28V254.915H1614.97V571.595Z" stroke="#5896FA" stroke-width="8.45407" stroke-miterlimit="10"></path> <path d="M1645.38 604.283H1391.68V287.602H1645.38V604.283Z" fill="#5896FA"></path> <path d="M1605.91 360.177H1474.69V339.588H1605.91V360.177Z" fill="#005CEA"></path> <path d="M1605.91 408.588H1435.87V387.988H1605.91V408.588Z" fill="#005CEA"></path> <path d="M1605.91 456.965H1435.87V436.367H1605.91V456.965Z" fill="#005CEA"></path> <path d="M1605.91 505.371H1435.87V484.767H1605.91V505.371Z" fill="#005CEA"></path> <path d="M1605.91 553.743H1435.87V533.145H1605.91V553.743Z" fill="#005CEA"></path> <path d="M819.618 534.794C819.618 584.282 779.499 624.397 730.011 624.397C680.523 624.397 640.404 584.282 640.404 534.794C640.404 485.306 680.523 445.191 730.011 445.191C779.499 445.191 819.618 485.306 819.618 534.794Z" fill="white"></path> <path d="M683.78 611.507C641.361 585.938 627.731 530.9 653.312 488.481C678.851 446.135 733.884 432.508 776.303 458.077C818.656 483.627 832.283 538.647 806.744 581.011C781.164 623.43 726.131 637.057 683.78 611.507ZM871.392 619.987C883.01 600.719 890.274 579.894 893.351 558.886L900.027 559.875L913.207 561.798L913.377 561.817C916.934 537.768 915.723 513.463 909.914 490.221L890.307 495.093C885.045 474.067 875.777 454.029 862.566 436.391L878.819 424.303C864.914 405.42 847.065 388.917 825.757 376.078L815.288 393.441C795.952 381.774 775.199 374.558 754.185 371.481L757.114 351.444C733.071 347.891 708.715 349.173 685.524 354.905L690.379 374.521C669.358 379.778 649.332 389.046 631.679 402.251L619.598 386.005C600.721 399.907 584.218 417.764 571.366 439.065L588.731 449.542C577.072 468.883 569.846 489.635 566.769 510.643L552.604 508.555L546.809 507.749L546.745 507.712C543.188 531.761 544.462 556.12 550.206 579.308L569.817 574.454C575.077 595.462 584.409 615.536 597.618 633.193L581.366 645.262C595.272 664.146 613.056 680.612 634.363 693.451L644.834 676.106C664.168 687.755 684.989 695.026 706.002 698.103L703.702 713.653L703.072 718.122C727.115 721.675 751.405 720.356 774.596 714.624L769.744 695.008C790.761 689.751 810.828 680.41 828.547 667.241L840.626 683.506C859.439 669.549 875.901 651.765 888.754 630.463L871.392 619.987" fill="#005CEA"></path> <path d="M489.611 695.415C467.861 709.807 438.61 703.853 424.218 682.094C409.848 660.387 415.804 631.126 437.554 616.734C459.27 602.375 488.519 608.33 502.887 630.037C517.279 651.796 511.327 681.04 489.611 695.415ZM536.035 608.109C529.499 598.224 521.236 590.076 511.939 583.849L513.913 580.906L517.814 575.071L517.858 574.986C507.227 567.875 495.39 562.958 483.029 560.457L480.909 570.886C469.724 568.64 458.106 568.521 446.727 570.818L444.655 560.355C432.533 562.703 420.652 567.466 409.727 574.697L415.618 583.594C405.704 590.161 397.579 598.395 391.367 607.683L382.506 601.763C375.381 612.396 370.485 624.27 367.976 636.604L378.397 638.713C376.15 649.907 376.031 661.527 378.326 672.908L367.865 674.966C370.215 687.096 374.973 698.97 382.203 709.909L391.105 704.006C397.665 713.924 405.901 722.056 415.2 728.265L411.006 734.526L409.315 737.095L409.281 737.128C419.912 744.24 431.782 749.139 444.11 751.657L446.232 741.228C457.415 743.474 469.067 743.576 480.446 741.279L482.52 751.742C494.64 749.394 506.487 744.648 517.414 737.418L511.521 728.52C521.435 721.971 529.594 713.703 535.806 704.414L542.687 709.025L544.666 710.317C551.792 699.702 556.654 687.844 559.163 675.528L548.742 673.401C550.989 662.207 551.084 650.554 548.825 639.156L559.284 637.08C556.904 624.985 552.166 613.144 544.938 602.222L536.035 608.109" fill="#1251B3"></path> <path d="M2001.53 790.213H1783.69C1779.1 790.213 1775.38 786.493 1775.38 781.916V658.302C1775.38 653.726 1779.1 650.005 1783.69 650.005H2001.53C2006.11 650.005 2009.83 653.726 2009.83 658.302V781.916C2009.83 786.493 2006.11 790.213 2001.53 790.213Z" fill="#005CEA"></path> <path d="M2009.84 700.666H1775.38V676.477H2009.84V700.666Z" fill="#5896FA"></path> <path d="M1829.09 763.301H1794.62C1792.43 763.301 1790.65 765.083 1790.65 767.274C1790.65 769.466 1792.43 771.232 1794.62 771.232H1829.09C1831.28 771.232 1833.06 769.466 1833.06 767.274C1833.06 765.083 1831.28 763.301 1829.09 763.301Z" fill="#D1F5FF"></path> <path d="M1882.11 763.301H1847.63C1845.44 763.301 1843.67 765.083 1843.67 767.274C1843.67 769.466 1845.44 771.232 1847.63 771.232H1882.11C1884.29 771.232 1886.07 769.466 1886.07 767.274C1886.07 765.083 1884.29 763.301 1882.11 763.301Z" fill="#D1F5FF"></path> <path d="M1935.12 763.301H1900.64C1898.45 763.301 1896.68 765.083 1896.68 767.274C1896.68 769.466 1898.45 771.232 1900.64 771.232H1935.12C1937.32 771.232 1939.08 769.466 1939.08 767.274C1939.08 765.083 1937.32 763.301 1935.12 763.301Z" fill="#D1F5FF"></path> <path d="M1988.12 763.301H1953.65C1951.47 763.301 1949.68 765.083 1949.68 767.274C1949.68 769.466 1951.47 771.232 1953.65 771.232H1988.12C1990.32 771.232 1992.09 769.466 1992.09 767.274C1992.09 765.083 1990.32 763.301 1988.12 763.301Z" fill="#D1F5FF"></path> <path d="M1793.04 657.112C1790.61 657.112 1788.65 659.066 1788.65 661.496V663.023C1788.65 665.453 1790.61 667.406 1793.04 667.406C1795.45 667.406 1797.42 665.453 1797.42 663.023V661.496C1797.42 659.066 1795.45 657.112 1793.04 657.112Z" fill="#D1F5FF"></path> <path d="M1802.46 662.268C1802.46 665.108 1804.77 667.406 1807.61 667.406H1825.87C1828.71 667.406 1831.01 665.108 1831.01 662.268C1831.01 659.411 1828.71 657.112 1825.87 657.112H1807.61C1804.77 657.112 1802.46 659.411 1802.46 662.268Z" fill="#D1F5FF"></path> <path d="M1800.08 713.684H1823.65C1827.41 713.684 1830.48 716.738 1830.48 720.531V740.845C1830.48 744.622 1827.41 747.675 1823.65 747.675H1800.08C1796.29 747.675 1793.24 744.622 1793.24 740.845V720.531C1793.24 716.738 1796.29 713.684 1800.08 713.684Z" fill="#5896FA"></path> <path d="M1915.25 1147.34V1131.33C1915.25 1124.06 1909.35 1118.16 1902.1 1118.16H1761.9C1754.65 1118.16 1748.73 1124.06 1748.73 1131.33V1414.44H2111.34V1147.34H1915.25Z" fill="#1251B3"></path> <path d="M2126.42 1157.09H1770.85L1748.74 1414.45H2109.57L2126.42 1157.09" fill="white"></path> <path d="M2111.35 1414.44H1748.75L1787.21 1160.28C1788.35 1152.85 1794.73 1147.35 1802.25 1147.35H2134.09C2143.4 1147.35 2150.52 1155.64 2149.13 1164.84L2111.35 1414.44Z" fill="#3383FF"></path> <path d="M2232.37 1157.08C2232.37 1202.96 2195.2 1240.17 2149.3 1240.17C2103.42 1240.17 2066.22 1202.96 2066.22 1157.08C2066.22 1111.2 2103.42 1074 2149.3 1074C2195.2 1074 2232.37 1111.2 2232.37 1157.08Z" fill="#005CEA"></path> <path d="M2149.31 1077.04C2105.16 1077.04 2069.27 1112.93 2069.27 1157.07C2069.27 1201.2 2105.16 1237.12 2149.31 1237.12C2193.45 1237.12 2229.34 1201.2 2229.34 1157.07C2229.34 1112.93 2193.45 1077.04 2149.31 1077.04ZM2149.31 1243.19C2101.82 1243.19 2063.17 1204.56 2063.17 1157.07C2063.17 1109.6 2101.82 1070.96 2149.31 1070.96C2196.79 1070.96 2235.43 1109.6 2235.43 1157.07C2235.43 1204.56 2196.79 1243.19 2149.31 1243.19Z" fill="white"></path> <path d="M2153.36 1173.29V1189.96C2153.36 1192.18 2151.55 1194.02 2149.33 1194.02C2147.06 1194.02 2145.25 1192.18 2145.25 1189.96V1173.25C2141.84 1171.7 2139.42 1168.25 2139.42 1164.26C2139.42 1158.8 2143.86 1154.39 2149.33 1154.39C2154.79 1154.39 2159.18 1158.8 2159.18 1164.26C2159.18 1168.28 2156.8 1171.74 2153.36 1173.29V1173.29ZM2109.32 1142.05V1200.88C2109.32 1207.42 2189.28 1207.42 2189.28 1200.88V1142.05H2109.32Z" fill="white"></path> <path d="M2182.29 1137.86H2174.19V1133.9C2174.19 1120.18 2163.03 1109 2149.29 1109C2135.58 1109 2124.41 1120.18 2124.41 1133.9V1137.86H2116.31V1133.9C2116.31 1115.71 2131.12 1100.91 2149.29 1100.91C2167.49 1100.91 2182.29 1115.71 2182.29 1133.9V1137.86" fill="white"></path> <path d="M1892.61 461.768C1892.61 479.331 1878.38 493.562 1860.82 493.562C1843.23 493.562 1829 479.331 1829 461.768C1829 444.187 1843.23 429.955 1860.82 429.955C1878.38 429.955 1892.61 444.187 1892.61 461.768Z" fill="#AAE0FF"></path> <path d="M1057.38 580.452C1057.38 598.014 1043.14 612.262 1025.57 612.262C1008 612.262 993.763 598.014 993.763 580.452C993.763 562.889 1008 548.641 1025.57 548.641C1043.14 548.641 1057.38 562.889 1057.38 580.452Z" fill="#AAE0FF"></path> <path d="M2100.5 1003.94C2100.5 1013.14 2093.04 1020.58 2083.86 1020.58C2074.68 1020.58 2067.22 1013.14 2067.22 1003.94C2067.22 994.762 2074.68 987.307 2083.86 987.307C2093.04 987.307 2100.5 994.762 2100.5 1003.94Z" fill="white"></path> <path d="M359.018 1035.16C359.018 1044.35 351.568 1051.79 342.377 1051.79C333.189 1051.79 325.739 1044.35 325.739 1035.16C325.739 1025.97 333.189 1018.52 342.377 1018.52C351.568 1018.52 359.018 1025.97 359.018 1035.16Z" fill="#AAE0FF"></path> <path d="M634.503 1641.56C634.503 1659.12 620.263 1673.36 602.696 1673.36C585.129 1673.36 570.889 1659.12 570.889 1641.56C570.889 1623.99 585.129 1609.75 602.696 1609.75C620.263 1609.75 634.503 1623.99 634.503 1641.56Z" fill="#AAE0FF"></path> <path d="M1113.12 264.703C1110.07 264.703 1107.61 262.238 1107.61 259.196V200.177C1107.61 197.135 1110.07 194.67 1113.12 194.67C1116.16 194.67 1118.63 197.135 1118.63 200.177V259.196C1118.63 262.238 1116.16 264.703 1113.12 264.703Z" fill="#AAE0FF"></path> <path d="M1078.11 229.675C1078.11 226.623 1080.57 224.163 1083.62 224.163H1142.62C1145.67 224.163 1148.13 226.623 1148.13 229.675C1148.13 232.708 1145.67 235.188 1142.62 235.188H1083.62C1080.57 235.188 1078.11 232.708 1078.11 229.675Z" fill="#AAE0FF"></path> <path d="M1740.39 1022.32C1737.34 1022.32 1734.87 1019.85 1734.87 1016.82V957.801C1734.87 954.763 1737.34 952.294 1740.39 952.294C1743.43 952.294 1745.9 954.763 1745.9 957.801V1016.82C1745.9 1019.85 1743.43 1022.32 1740.39 1022.32Z" fill="white"></path> <path d="M1705.38 987.319C1705.38 984.275 1707.84 981.808 1710.87 981.808H1769.88C1772.92 981.808 1775.39 984.275 1775.39 987.319C1775.39 990.363 1772.92 992.83 1769.88 992.83H1710.87C1707.84 992.83 1705.38 990.363 1705.38 987.319Z" fill="white"></path> <path d="M1680.39 1799.47C1677.35 1799.47 1674.88 1797 1674.88 1793.96V1734.96C1674.88 1731.92 1677.35 1729.44 1680.39 1729.44C1683.44 1729.44 1685.91 1731.92 1685.91 1734.96V1793.96C1685.91 1797 1683.44 1799.47 1680.39 1799.47Z" fill="white"></path> <path d="M1645.37 1764.45C1645.37 1761.41 1647.84 1758.95 1650.89 1758.95H1709.89C1712.93 1758.95 1715.4 1761.41 1715.4 1764.45C1715.4 1767.51 1712.93 1769.97 1709.89 1769.97H1650.89C1647.84 1769.97 1645.37 1767.51 1645.37 1764.45Z" fill="white"></path> <path d="M1206.94 1359.05C1206.94 1368.8 1199.05 1376.69 1189.3 1376.69C1179.56 1376.69 1171.66 1368.8 1171.66 1359.05C1171.66 1349.32 1179.56 1341.41 1189.3 1341.41C1199.05 1341.41 1206.94 1349.32 1206.94 1359.05Z" stroke="white" stroke-width="5.63423" stroke-miterlimit="10"></path> <path d="M1622.89 2975.09H1553.85L1546.71 2824.99H1630.03L1622.89 2975.09Z" fill="#0E0E0E"></path> <path d="M2822.72 2975.09H2753.67L2746.54 2824.99H2829.85L2822.72 2975.09" fill="#0E0E0E"></path> <path d="M2762.54 2564.47C2754.92 2588.07 2746.64 2612.29 2737.55 2637.15H1591.48C1591.48 2637.15 1443.57 2035.13 1591.48 1925.04C1595.27 1922.22 1599.8 1919.45 1605.1 1916.73C1804.3 1814.38 2602.96 1790.34 2765.1 1922.02C2766.36 1923.01 2767.51 1924.03 2768.6 1925.04C2828.35 1979.88 2880.3 2198.81 2762.54 2564.47" fill="#EA7B00"></path> <path d="M2023.57 2637.15H1591.73L1633.85 2215.21C1709.15 2247.88 1909.63 2420.4 2023.57 2637.15Z" fill="#982C20"></path> <path d="M2762.52 2564.47C2754.91 2588.07 2746.61 2612.3 2737.54 2637.15H2321.28C2392.87 2504.39 2566.45 2303.28 2735 2210.72L2762.52 2564.47Z" fill="#982C20"></path> <path d="M2906.15 2209.3H2747.26C2720.54 2209.3 2697.97 2229.09 2694.46 2255.57L2643.79 2638.74H1715.15L1664.48 2255.57C1660.98 2229.09 1638.41 2209.3 1611.7 2209.3H1452.8C1419.64 2209.3 1394.56 2239.26 1400.38 2271.9L1488.59 2910.01H1575.86H2867.54H2870.34L2958.56 2271.9C2964.38 2239.26 2939.3 2209.3 2906.15 2209.3Z" fill="#EA7B00"></path> <path d="M2634.52 2429.45C2709.3 2454.48 2694.72 2612.8 2634.52 2637.13H1727.44C1659.68 2619.65 1653.96 2410.24 1751.65 2425.98C2349.59 2538.41 2378.55 2359.06 2634.52 2429.45Z" fill="#F2B066"></path> <path d="M1943.15 2268.97C1942.87 2309.85 1945.07 2348.33 1949.47 2382.04H2374.8L2399.99 1966.72C2374.72 1815.02 2305.57 1778.26 2196.08 1778.26C2098.11 1778.26 2032.85 1858.18 1993.2 1965.17C1958.92 2057.61 1943.76 2170.22 1943.15 2268.97Z" fill="#007880"></path> <path d="M1943.15 2277L2097.07 2267.73C2011.61 2239.76 2004.81 2108.6 2091.68 2027L1993.2 1965.17C1958.92 2057.61 1943.76 2178.24 1943.15 2277" fill="#005459"></path> <path d="M1913.85 2467.85H2498.22V2268.99H1971.82L1913.85 2467.85" fill="#0E0E0E"></path> <path d="M2572.88 2404.75L2415.91 2975.09H2293.52C2332.27 2732.39 2323.6 2574.61 2360.04 2373.08C2392.02 2207.65 2610.93 2251.44 2572.88 2404.75Z" fill="#0E0E0E"></path> <path d="M2371.96 2975.09C2371.96 2974.72 2371.93 2974.35 2371.93 2973.96C2371.93 2931.68 2406.21 2897.41 2448.5 2897.41C2490.78 2897.41 2525.04 2931.68 2525.04 2973.96C2525.04 2974.35 2525.03 2974.72 2525.01 2975.09H2371.96" fill="#B15626"></path> <path d="M2463.23 2898.84L2435.41 2890.33C2417.05 2854.2 2338.7 2858.67 2349.62 2902.65C2318.87 2907.23 2302.72 2891.92 2302.72 2891.92L2293.51 2975.09H2459.49L2463.23 2898.84" fill="#B15626"></path> <path d="M1883.65 2404.75L2040.63 2975.09H2163.01C2124.27 2732.39 2132.95 2574.61 2096.51 2373.08C2064.53 2207.65 1845.6 2251.44 1883.65 2404.75Z" fill="#0E0E0E"></path> <path d="M2084.59 2975.09C2084.59 2974.72 2084.61 2974.35 2084.61 2973.96C2084.61 2931.68 2050.33 2897.41 2008.05 2897.41C1965.77 2897.41 1931.49 2931.68 1931.49 2973.96C1931.49 2974.35 1931.52 2974.72 1931.53 2975.09H2084.59" fill="#B15626"></path> <path d="M1993.29 2898.84L2021.12 2890.33C2039.49 2854.2 2117.83 2858.67 2106.92 2902.65C2137.65 2907.23 2153.83 2891.92 2153.83 2891.92L2163.01 2975.09H1997.04L1993.29 2898.84" fill="#B15626"></path> <path d="M2130.52 1791.62C2187.93 1826.46 2196.11 1929.91 2166.68 1971.13L2002.88 2093.15L2169.66 2179.03L2142.57 2267.74C2142.57 2267.74 1968.48 2253.57 1883.28 2166.17C1801.47 2082.25 2000.93 1835.73 2130.52 1791.62Z" fill="#007880"></path> <path d="M2246.99 1948.55C2197.88 1886.88 2231.79 1791.61 2294.39 1794.42C2498.23 1866.18 2561.14 2065.41 2496.56 2154.86C2441.24 2231.48 2197.88 2260.99 2197.88 2260.99V2177.09L2366.97 2140.56C2366.97 2140.56 2279.78 2005.48 2246.99 1948.55" fill="#007880"></path> <path d="M2068.37 2239.71C2065.22 2211.61 2081.66 2176.48 2123.93 2168.81C2197.79 2155.4 2224.52 2195.92 2231.51 2224.88C2233.32 2232.43 2226.45 2240.41 2220.12 2239.71C2213.77 2239.01 2209.31 2235.43 2208.23 2229.68C2206.91 2222.76 2203.26 2214.2 2195.34 2209.73C2202.97 2224.69 2199.79 2239.71 2178.98 2239.71H2068.37" fill="#F7A594"></path> <path d="M2235.12 2239.64L2293.24 1948.23H2305.56C2301.63 1968.29 2244.45 2259.88 2242.66 2268.99C2227.42 2268.99 2087.51 2268.99 2068.5 2268.99L2049.47 2239.64H2235.12" fill="#99C1FF"></path> <path d="M2305.56 1948.22H2738.03L2674.06 2268.98H2242.67L2305.56 1948.22Z" fill="white"></path> <path d="M2179.46 1812.5C2179.46 1845.66 2278.86 1867.66 2311.36 1832.79C2316.28 1827.55 2319.66 1821.08 2320.96 1813.13L2339.68 1729.14L2220.96 1684.39L2217.43 1695.36L2179.46 1812.5" fill="#F7A594"></path> <path d="M2320.96 1813.13L2339.68 1729.14L2227.36 1698.9C2198.29 1785.43 2302.04 1854.55 2320.96 1813.13" fill="#F4856D"></path> <path d="M2212.2 1652.11C2205.94 1734.66 2271.19 1807.35 2325.92 1811.05C2380.65 1814.73 2456.01 1753.59 2462.26 1671.05C2468.52 1588.5 2417.6 1517.34 2348.54 1512.11C2279.48 1506.89 2218.45 1569.57 2212.2 1652.11Z" fill="#F7A594"></path> <path d="M2303.7 1518.37C2379.39 1470.43 2421.05 1515.52 2458.75 1563.33C2485.19 1596.87 2503.93 1620.98 2536.84 1626.02C2473.53 1705.89 2346.89 1653.21 2307 1573.18C2303.07 1618.74 2249.37 1656.46 2212.19 1652.12C2200.14 1601.43 2235.26 1498.95 2303.7 1518.37Z" fill="#0E0E0E"></path> <path d="M2193.68 1653.21C2193.68 1671.41 2208.43 1686.16 2226.62 1686.16C2244.82 1686.16 2259.57 1671.41 2259.57 1653.21C2259.57 1635.01 2244.82 1620.27 2226.62 1620.27C2208.43 1620.27 2193.68 1635.01 2193.68 1653.21Z" fill="#F7A594"></path> </svg> 