<?xml version="1.0" encoding="UTF-8"?> <svg xmlns="http://www.w3.org/2000/svg" width="91" height="19" viewBox="0 0 91 19" fill="none"> <path d="M83.6437 18.6767C82.9107 18.7408 82.3618 18.0181 82.6203 17.3292L88.3324 2.10545C88.4676 1.74493 88.7979 1.4941 89.1815 1.46054L89.7343 1.41218C90.4673 1.34805 91.0162 2.07078 90.7577 2.75967L85.0456 17.9834C84.9103 18.344 84.5801 18.5948 84.1965 18.6283L83.6437 18.6767Z" fill="black" fill-opacity="0.4"></path> <path d="M65.6214 15.3101C65.6214 15.531 65.8005 15.7101 66.0214 15.7101H68.6234C68.8443 15.7101 69.0234 15.531 69.0234 15.3101V9.10809C69.0234 8.88717 69.2025 8.70809 69.4234 8.70809H70.8014C71.0223 8.70809 71.2014 8.529 71.2014 8.30809V6.48009C71.2014 6.25917 71.0223 6.08009 70.8014 6.08009H69.2034C69.0742 6.08009 68.9694 5.97532 68.9694 5.84609C68.9694 5.23409 69.2934 4.92809 69.9414 4.92809C70.1932 4.92809 70.4429 4.95051 70.6907 4.99535C70.9565 5.04347 71.2194 4.85121 71.2194 4.58108V3.0117C71.2194 2.83506 71.1038 2.67795 70.9319 2.63732C70.3868 2.5085 69.7386 2.44409 68.9874 2.44409C67.8594 2.44409 67.0134 2.72609 66.4494 3.29009C65.8974 3.84209 65.6214 4.68209 65.6214 5.81009C65.6214 5.92938 65.5247 6.02609 65.4054 6.02609H64.8874C64.6665 6.02609 64.4874 6.20517 64.4874 6.42609V8.30809C64.4874 8.529 64.6665 8.70809 64.8874 8.70809H65.2214C65.4423 8.70809 65.6214 8.88717 65.6214 9.10809V15.3101Z" fill="black" fill-opacity="0.4"></path> <path d="M13.7824 15.7101C13.5615 15.7101 13.3824 15.531 13.3824 15.3101V2.97009C13.3824 2.74917 13.5615 2.57009 13.7824 2.57009H16.4024C16.6234 2.57009 16.8024 2.74917 16.8024 2.97009V6.1398C16.8024 6.5205 17.3173 6.71065 17.6184 6.47768C18.2401 5.99662 18.9401 5.75609 19.7184 5.75609C20.7504 5.75609 21.5604 6.08009 22.1484 6.72809C22.7364 7.36409 23.0304 8.23409 23.0304 9.33809V15.3101C23.0304 15.531 22.8514 15.7101 22.6304 15.7101H20.0104C19.7895 15.7101 19.6104 15.531 19.6104 15.3101V10.4361C19.6104 9.92009 19.4844 9.51809 19.2324 9.23009C18.9924 8.94209 18.6624 8.79809 18.2424 8.79809C17.8104 8.79809 17.4624 8.94209 17.1984 9.23009C16.9344 9.51809 16.8024 9.92009 16.8024 10.4361V15.3101C16.8024 15.531 16.6234 15.7101 16.4024 15.7101H13.7824Z" fill="black" fill-opacity="0.4"></path> <path d="M6.498 15.9621C4.674 15.9621 3.132 15.3441 1.872 14.1081C0.624 12.8601 0 11.2941 0 9.41009C0 7.56209 0.63 6.00809 1.89 4.74809C3.162 3.48809 4.746 2.85809 6.642 2.85809C8.75235 2.85809 10.4382 3.64346 11.6995 5.2142C11.8346 5.38244 11.7987 5.62694 11.6281 5.75907L9.68884 7.2613C9.51631 7.39494 9.26976 7.36404 9.12069 7.20464C8.39708 6.43094 7.55885 6.04409 6.606 6.04409C5.73 6.04409 5.01 6.36809 4.446 7.01609C3.882 7.66409 3.6 8.46209 3.6 9.41009C3.6 10.3701 3.882 11.1741 4.446 11.8221C5.01 12.4581 5.73 12.7761 6.606 12.7761C7.218 12.7761 7.74 12.6501 8.172 12.3981C8.52047 12.1851 8.86503 11.8941 9.20569 11.525C9.34755 11.3713 9.58163 11.3399 9.752 11.4612L11.7477 12.8828C11.9294 13.0122 11.9708 13.2659 11.8308 13.4396C11.2284 14.1869 10.5428 14.7818 9.774 15.2241C8.898 15.7161 7.806 15.9621 6.498 15.9621Z" fill="black" fill-opacity="0.4"></path> <path fill-rule="evenodd" clip-rule="evenodd" d="M24.7906 18.1901C24.7906 18.411 24.9697 18.5901 25.1906 18.5901H27.8106C28.0316 18.5901 28.2106 18.411 28.2106 18.1901V15.6016C28.2106 15.2305 28.7 15.0371 29.003 15.2513C29.6395 15.7012 30.3654 15.9261 31.1806 15.9261C32.3806 15.9261 33.3946 15.4641 34.2226 14.5401C35.0626 13.6041 35.4826 12.3681 35.4826 10.8321C35.4826 9.30809 35.0626 8.08409 34.2226 7.16009C33.3826 6.22409 32.3626 5.75609 31.1626 5.75609C30.3159 5.75609 29.5551 6.03416 28.8805 6.59032C28.633 6.79437 28.2106 6.63457 28.2106 6.31378C28.2106 6.12507 28.0577 5.97209 27.8689 5.97209H25.1906C24.9697 5.97209 24.7906 6.15117 24.7906 6.37209V18.1901ZM31.5406 12.4341C31.1566 12.8541 30.6826 13.0641 30.1186 13.0641C29.5666 13.0641 29.0986 12.8541 28.7146 12.4341C28.3306 12.0141 28.1386 11.4861 28.1386 10.8501C28.1386 10.2021 28.3306 9.66809 28.7146 9.24809C29.0986 8.82809 29.5666 8.61809 30.1186 8.61809C30.6826 8.61809 31.1566 8.82809 31.5406 9.24809C31.9246 9.65609 32.1166 10.1781 32.1166 10.8141C32.1166 11.4741 31.9246 12.0141 31.5406 12.4341Z" fill="black" fill-opacity="0.4"></path> <path fill-rule="evenodd" clip-rule="evenodd" d="M41.9227 15.9441C40.3867 15.9441 39.1087 15.4521 38.0887 14.4681C37.0687 13.4721 36.5587 12.2661 36.5587 10.8501C36.5587 9.44609 37.0687 8.24609 38.0887 7.25009C39.1207 6.25409 40.4107 5.75609 41.9587 5.75609C43.4947 5.75609 44.7727 6.25409 45.7927 7.25009C46.8127 8.23409 47.3227 9.43409 47.3227 10.8501C47.3227 12.2541 46.8067 13.4541 45.7747 14.4501C44.7547 15.4461 43.4707 15.9441 41.9227 15.9441ZM41.9587 13.0461C42.5707 13.0461 43.0627 12.8361 43.4347 12.4161C43.8067 11.9961 43.9927 11.4741 43.9927 10.8501C43.9927 10.2501 43.7947 9.73409 43.3987 9.30209C43.0027 8.87009 42.5107 8.65409 41.9227 8.65409C41.3107 8.65409 40.8187 8.86409 40.4467 9.28409C40.0747 9.70409 39.8887 10.2261 39.8887 10.8501C39.8887 11.4501 40.0867 11.9661 40.4827 12.3981C40.8787 12.8301 41.3707 13.0461 41.9587 13.0461Z" fill="black" fill-opacity="0.4"></path> <path d="M48.7672 15.3101C48.7672 15.531 48.9463 15.7101 49.1672 15.7101H51.7872C52.0081 15.7101 52.1872 15.531 52.1872 15.3101V13.5724C52.1872 13.4767 52.2215 13.3842 52.2839 13.3116L52.7058 12.8208C52.8843 12.6132 53.2138 12.6422 53.3533 12.8777L54.915 15.514C54.987 15.6355 55.1179 15.7101 55.2592 15.7101H58.0893C58.3997 15.7101 58.5918 15.372 58.433 15.1054L55.4671 10.1263C55.3788 9.97814 55.3955 9.79007 55.5084 9.6597L58.1297 6.63401C58.3542 6.37497 58.1702 5.97209 57.8274 5.97209H55.0236C54.9032 5.97209 54.7891 6.02639 54.7131 6.11992L52.8977 8.35526C52.6603 8.64762 52.1872 8.47972 52.1872 8.10309V2.97009C52.1872 2.74917 52.0081 2.57009 51.7872 2.57009H49.1672C48.9463 2.57009 48.7672 2.74917 48.7672 2.97009V15.3101Z" fill="black" fill-opacity="0.4"></path> <path d="M60.0849 15.7101C59.864 15.7101 59.6849 15.531 59.6849 15.3101V6.37209C59.6849 6.15117 59.864 5.97209 60.0849 5.97209H62.7049C62.9258 5.97209 63.1049 6.15117 63.1049 6.37209V15.3101C63.1049 15.531 62.9258 15.7101 62.7049 15.7101H60.0849Z" fill="black" fill-opacity="0.4"></path> <path d="M60.0129 5.09009C59.792 5.09009 59.6129 4.911 59.6129 4.69009V2.97009C59.6129 2.74917 59.792 2.57009 60.0129 2.57009H62.7769C62.9978 2.57009 63.1769 2.74917 63.1769 2.97009V4.69009C63.1769 4.911 62.9978 5.09009 62.7769 5.09009H60.0129Z" fill="black" fill-opacity="0.4"></path> <path d="M75.1667 18.6441C74.2015 18.6441 73.2649 18.4188 72.3572 17.9683C72.1721 17.8764 72.0988 17.6537 72.1826 17.4648L72.9127 15.8189C73.0104 15.5988 73.2783 15.5164 73.4944 15.6228C73.9051 15.825 74.2706 15.9261 74.5907 15.9261C74.8479 15.9261 75.0628 15.8488 75.2356 15.6942C75.338 15.6026 75.3518 15.4527 75.3009 15.3251L71.7856 6.5204C71.6808 6.25769 71.8743 5.97209 72.1571 5.97209H74.8599C75.0323 5.97209 75.1853 6.0826 75.2396 6.2463L76.7021 10.6611C76.8243 11.0299 77.3476 11.0256 77.4636 10.6548L78.841 6.25265C78.8932 6.08572 79.0478 5.97209 79.2227 5.97209H81.8615C82.1408 5.97209 82.3341 6.25104 82.2361 6.51254L78.8747 15.4761C78.4427 16.6281 77.9567 17.4441 77.4167 17.9241C76.8767 18.4041 76.1267 18.6441 75.1667 18.6441Z" fill="black" fill-opacity="0.4"></path> </svg> 