<?xml version="1.0" encoding="UTF-8"?> <svg xmlns="http://www.w3.org/2000/svg" height="512" viewBox="0 0 512 512" width="512"> <g id="Filled_Outline" data-name="Filled Outline"> <path d="m429.581 307.019a24.436 24.436 0 0 0 -32.3 12.284 154.821 154.821 0 0 1 -279.667 6.033l13.84 6.162a24.437 24.437 0 1 0 19.879-44.649l-64.315-28.634a24.437 24.437 0 0 0 -32.264 12.385l-28.635 64.313a24.437 24.437 0 1 0 44.649 19.879l3.266-7.335a203.681 203.681 0 0 0 181.966 112.188c1.181 0 2.368-.011 3.551-.031a203.669 203.669 0 0 0 182.315-120.292 24.438 24.438 0 0 0 -12.285-32.303z" fill="#ff9800"></path> <path d="m473.5 144.823a24.438 24.438 0 0 0 -32.264 12.385l-3.266 7.335a203.685 203.685 0 0 0 -367.085 6.494 24.437 24.437 0 1 0 44.406 20.415 154.82 154.82 0 0 1 279.1-4.788l-13.84-6.162a24.438 24.438 0 0 0 -19.879 44.65l64.128 28.548.117.052a24.435 24.435 0 0 0 32.329-12.352l28.635-64.313a24.437 24.437 0 0 0 -12.381-32.264z" fill="#ff9800"></path> <path d="m256.014 468a211.688 211.688 0 0 1 -181.741-103.157 32.437 32.437 0 0 1 -55.451-32.829l28.635-64.314a32.439 32.439 0 0 1 42.826-16.44l64.317 28.64a32.448 32.448 0 0 1 -18.075 61.716 146.82 146.82 0 0 0 253.471-25.23 32.436 32.436 0 0 1 42.877-16.3 32.436 32.436 0 0 1 16.306 42.878 211.668 211.668 0 0 1 -189.47 125.013q-1.85.023-3.695.023zm-181.967-128.188a8 8 0 0 1 7.144 4.4 195.687 195.687 0 0 0 353.388-7.812 16.437 16.437 0 0 0 -8.263-21.728 16.437 16.437 0 0 0 -21.727 8.263 162.822 162.822 0 0 1 -294.114 6.347 8 8 0 0 1 10.4-10.9l13.839 6.162a16.438 16.438 0 0 0 13.372-30.033l-64.311-28.633a16.437 16.437 0 0 0 -21.7 8.33l-28.636 64.314a16.437 16.437 0 1 0 30.031 13.372l3.268-7.336a8 8 0 0 1 7.117-4.744c.065-.002.128-.002.192-.002z"></path> <path d="m434.91 263.543a32.2 32.2 0 0 1 -13.279-2.844l-.121-.054-64.11-28.54a32.44 32.44 0 0 1 18.085-61.7 146.819 146.819 0 0 0 -252.945 24.037 32.437 32.437 0 1 1 -58.943-27.1 211.692 211.692 0 0 1 374.123-20.197 32.466 32.466 0 0 1 39.019-9.985 32.438 32.438 0 0 1 16.439 42.827l-28.635 64.313a32.438 32.438 0 0 1 -29.633 19.244zm-64.288-77.508a16.437 16.437 0 0 0 -6.711 31.453l64.276 28.617a16.519 16.519 0 0 0 12.594.355 16.327 16.327 0 0 0 9.145-8.668l28.635-64.314a16.436 16.436 0 0 0 -8.33-21.7 16.434 16.434 0 0 0 -21.7 8.331l-3.267 7.335a8 8 0 0 1 -14.454.344 195.685 195.685 0 0 0 -352.671 6.237 16.437 16.437 0 1 0 29.869 13.732 162.821 162.821 0 0 1 293.519-5.037 8 8 0 0 1 -10.4 10.9l-13.839-6.161a16.343 16.343 0 0 0 -6.666-1.424z"></path> </g> </svg> 