<?xml version="1.0" encoding="UTF-8"?> <svg xmlns="http://www.w3.org/2000/svg" width="1400" height="800" viewBox="0 0 1400 800" fill="none"> <rect width="1400" height="800" fill="white"></rect> <path d="M1326 175H765V549H1326V175Z" fill="#FEFEFE"></path> <path opacity="0.25" d="M832.941 420.86C899.288 505.441 1040.82 487.298 1131.57 469.592C1177.34 460.661 1226.06 447.571 1261.51 414.827C1302.44 377.024 1298.07 336.73 1243.59 318.194C1191.58 300.498 1140.73 293.831 1090.55 268.66C1044.14 245.379 1000.71 207.409 949.087 196.91C824.557 171.585 759.776 327.592 832.941 420.86Z" fill="#C6D0D6"></path> <path d="M818.714 502.655H796.065L792.951 469.248H821.828L818.714 502.655Z" fill="#C6D0D6"></path> <path d="M795.776 332.954C794.452 334.264 795.66 337.32 798.283 339.967C800.905 342.614 803.949 343.852 805.272 342.542C806.595 341.231 805.387 338.176 802.764 335.528C800.142 332.88 797.098 331.643 795.776 332.954Z" fill="#FFCD32"></path> <path d="M809.431 342.562C810.742 343.884 813.797 342.676 816.444 340.054C819.092 337.431 820.329 334.388 819.019 333.064C817.708 331.741 814.654 332.95 812.006 335.572C809.358 338.195 808.118 341.239 809.431 342.562Z" fill="#FFCD32"></path> <path d="M795.776 349.14C794.452 350.45 795.66 353.505 798.283 356.153C800.905 358.801 803.949 360.038 805.272 358.727C806.595 357.417 805.387 354.361 802.764 351.714C800.142 349.067 797.098 347.829 795.776 349.14Z" fill="#FFCD32"></path> <path d="M812.004 351.758C809.356 354.381 808.119 357.424 809.429 358.747C810.74 360.069 813.795 358.862 816.442 356.24C819.089 353.617 820.327 350.574 819.017 349.25C817.706 347.927 814.652 349.134 812.004 351.758Z" fill="#FFCD32"></path> <path d="M795.776 365.326C794.452 366.635 795.66 369.691 798.283 372.339C800.905 374.987 803.949 376.223 805.272 374.913C806.595 373.604 805.387 370.547 802.764 367.9C800.142 365.253 797.098 364.015 795.776 365.326Z" fill="#FFCD32"></path> <path d="M812.004 367.944C809.356 370.566 808.119 373.61 809.429 374.933C810.74 376.255 813.795 375.047 816.442 372.425C819.089 369.802 820.327 366.759 819.017 365.436C817.706 364.114 814.652 365.321 812.004 367.944Z" fill="#FFCD32"></path> <path d="M807.461 319.457C805.598 319.449 804.292 322.464 804.275 326.189C804.258 329.915 805.534 332.942 807.396 332.952C809.259 332.962 810.564 329.946 810.582 326.22C810.6 322.494 809.323 319.466 807.461 319.457Z" fill="#FFCD32"></path> <path d="M807.857 334.52H806.922V485.888H807.857V334.52Z" fill="#10000D"></path> <path d="M823.66 473.265H791.122L790.335 464.85H824.444L823.66 473.265ZM791.972 472.33H822.808L823.418 465.785H791.361L791.972 472.33Z" fill="#10000D"></path> <path d="M1284.13 296.753H1261.48L1258.36 273.631H1287.24L1284.13 296.753Z" fill="#C6D0D6"></path> <path d="M1261.19 235.98C1259.87 237.29 1261.08 240.345 1263.7 242.993C1266.32 245.641 1269.36 246.878 1270.69 245.568C1272.01 244.258 1270.8 241.202 1268.18 238.554C1265.56 235.906 1262.51 234.669 1261.19 235.98Z" fill="#896BFF"></path> <path d="M1274.84 245.587C1276.15 246.91 1279.21 245.702 1281.86 243.079C1284.5 240.457 1285.74 237.413 1284.43 236.091C1283.12 234.768 1280.07 235.975 1277.42 238.598C1274.77 241.22 1273.53 244.265 1274.84 245.587Z" fill="#896BFF"></path> <path d="M1261.19 252.165C1259.87 253.476 1261.08 256.531 1263.7 259.178C1266.32 261.826 1269.36 263.064 1270.69 261.753C1272.01 260.443 1270.8 257.388 1268.18 254.74C1265.56 252.092 1262.51 250.855 1261.19 252.165Z" fill="#896BFF"></path> <path d="M1277.42 254.784C1274.77 257.406 1273.53 260.45 1274.84 261.773C1276.15 263.096 1279.21 261.888 1281.86 259.265C1284.5 256.643 1285.74 253.599 1284.43 252.276C1283.12 250.953 1280.07 252.161 1277.42 254.784Z" fill="#896BFF"></path> <path d="M1272.87 222.483C1271.01 222.474 1269.71 225.489 1269.69 229.215C1269.67 232.941 1270.95 235.969 1272.81 235.978C1274.67 235.987 1275.98 232.971 1276 229.246C1276.01 225.52 1274.74 222.492 1272.87 222.483Z" fill="#896BFF"></path> <path d="M1273.27 237.546H1272.34V290.271H1273.27V237.546Z" fill="#10000D"></path> <path d="M1289.07 278.583H1256.54L1255.75 270.168H1289.86L1289.07 278.583ZM1257.39 277.648H1288.22L1288.83 271.103H1256.77L1257.39 277.648Z" fill="#10000D"></path> <path d="M1300.15 293.927H1245.45V297.368H1300.15V293.927Z" fill="#C6D0D6"></path> <path d="M1293.46 295.39L1287.61 304.035L1288.38 304.559L1294.23 295.914L1293.46 295.39Z" fill="#C6D0D6"></path> <path d="M1288.23 295.964H1287.3V309.906H1288.23V295.964Z" fill="#C6D0D6"></path> <path d="M1252.15 295.385L1251.38 295.908L1257.22 304.557L1258 304.033L1252.15 295.385Z" fill="#C6D0D6"></path> <path d="M1258.31 295.964H1257.38V309.906H1258.31V295.964Z" fill="#C6D0D6"></path> <path d="M1152.02 371.138C1151.98 371.002 1151.96 370.858 1151.97 370.715C1151.99 370.573 1152.03 370.434 1152.1 370.309C1152.17 370.184 1152.26 370.074 1152.38 369.987C1152.49 369.9 1152.62 369.838 1152.76 369.804C1152.76 369.804 1149.82 370.654 1149.48 369.505C1149.22 368.585 1150.3 368.022 1150.3 368.022C1150.3 368.022 1147.77 368.753 1147.44 367.603C1147.11 366.454 1149.64 365.723 1149.64 365.723C1149.49 365.766 1149.33 365.78 1149.17 365.762C1149.02 365.745 1148.86 365.697 1148.73 365.621C1148.59 365.545 1148.47 365.442 1148.37 365.319C1148.27 365.196 1148.2 365.056 1148.16 364.904C1147.69 363.295 1153.55 362.1 1153.55 362.1C1153.55 362.1 1150.81 361.485 1151 360.096C1151.22 358.544 1162.08 359.638 1162.08 359.638C1162.67 359.748 1165.4 367.593 1165.3 368.178L1158.12 370.497L1157.54 370.663C1157.54 370.663 1152.55 372.356 1152.02 371.138Z" fill="#FFA87C"></path> <path d="M1154.57 363.807L1149.05 365.405L1149.31 366.303L1154.83 364.705L1154.57 363.807Z" fill="#10000D"></path> <path d="M1155.23 366.117L1149.71 367.706L1149.97 368.605L1155.49 367.016L1155.23 366.117Z" fill="#10000D"></path> <path d="M1155.9 368.408L1152.22 369.473L1152.48 370.371L1156.16 369.306L1155.9 368.408Z" fill="#10000D"></path> <path d="M1200.55 323.729C1194.92 346.121 1181.61 352.334 1161.08 357.829C1160.88 357.883 1164.64 369.648 1164.84 369.589C1171.55 367.644 1210.19 364.225 1213.99 315.07C1213.99 315.07 1201.21 321.137 1200.55 323.729Z" fill="#896BFF"></path> <path d="M1226 313.566C1224.94 313.591 1223.9 313.191 1223.13 312.455C1222.36 311.719 1221.91 310.706 1221.89 309.64L1221.69 307.264L1221.54 295.096L1229.59 294.907L1229.93 309.451C1229.95 310.517 1229.55 311.549 1228.82 312.32C1228.08 313.092 1227.07 313.54 1226 313.566V313.566Z" fill="#FFA87C"></path> <path d="M1220.99 305.478C1214.1 305.403 1211 298.401 1211.54 291.001C1212.19 282.045 1217.23 274.479 1226.37 276.241C1243.04 279.453 1237.99 305.665 1220.99 305.478Z" fill="#FFA87C"></path> <path d="M1225.44 290.865C1225.42 291.025 1225.35 291.176 1225.24 291.297C1225.14 291.418 1225 291.504 1224.84 291.545C1224.68 291.586 1224.52 291.58 1224.36 291.527C1224.21 291.474 1224.08 291.377 1223.98 291.249C1223.88 291.12 1223.83 290.965 1223.82 290.803C1223.81 290.642 1223.84 290.481 1223.93 290.342C1224.01 290.202 1224.13 290.09 1224.27 290.019C1224.42 289.948 1224.58 289.922 1224.74 289.944C1224.85 289.959 1224.95 289.994 1225.04 290.048C1225.14 290.103 1225.22 290.174 1225.28 290.26C1225.35 290.346 1225.4 290.443 1225.42 290.547C1225.45 290.651 1225.46 290.759 1225.44 290.865V290.865Z" fill="#10000D"></path> <path d="M1216.81 290.491C1216.79 290.651 1216.72 290.801 1216.61 290.922C1216.51 291.043 1216.37 291.13 1216.21 291.171C1216.05 291.211 1215.89 291.205 1215.74 291.152C1215.58 291.099 1215.45 291.002 1215.35 290.874C1215.25 290.745 1215.2 290.59 1215.19 290.428C1215.18 290.267 1215.22 290.106 1215.3 289.967C1215.38 289.827 1215.5 289.715 1215.64 289.644C1215.79 289.574 1215.95 289.548 1216.11 289.57C1216.22 289.584 1216.32 289.62 1216.42 289.674C1216.51 289.728 1216.59 289.8 1216.65 289.885C1216.72 289.971 1216.77 290.069 1216.79 290.173C1216.82 290.277 1216.83 290.385 1216.81 290.491V290.491Z" fill="#10000D"></path> <path d="M1226.78 289.75C1226.6 289.335 1226.31 288.968 1225.96 288.68C1225.61 288.391 1225.19 288.188 1224.75 288.086C1224.37 288.036 1223.99 288.079 1223.64 288.21C1223.28 288.341 1222.97 288.557 1222.71 288.84L1222.06 288.174C1222.41 287.788 1222.86 287.494 1223.35 287.318C1223.85 287.142 1224.38 287.089 1224.9 287.164C1225.49 287.287 1226.05 287.548 1226.52 287.924C1226.99 288.301 1227.37 288.784 1227.62 289.333L1226.78 289.75Z" fill="#10000D"></path> <path d="M1220.5 294.536L1217.28 294.346L1217.5 288.843C1217.38 288.554 1217.19 288.3 1216.95 288.104C1216.71 287.908 1216.42 287.776 1216.12 287.721C1215.71 287.718 1215.32 287.815 1214.96 288.002C1214.6 288.189 1214.3 288.46 1214.07 288.793L1213.34 288.213C1213.66 287.752 1214.09 287.381 1214.6 287.132C1215.1 286.884 1215.66 286.767 1216.22 286.792C1216.7 286.87 1217.16 287.072 1217.54 287.379C1217.92 287.686 1218.21 288.087 1218.39 288.542L1218.44 288.647L1218.24 293.467L1220.55 293.604L1220.5 294.536Z" fill="#10000D"></path> <path d="M1224.34 273.969C1210.24 274.585 1209.93 282.132 1217.2 284.347C1219.77 285.13 1230.74 282.447 1231.79 286.707C1232.49 289.584 1231.59 294.723 1228.32 294.155C1222.19 293.088 1212.31 293.379 1211.16 296.44C1209.43 301.088 1213.52 306.367 1219.66 307.444C1225.88 308.533 1234.19 305.284 1236.35 295.397C1237.77 288.924 1238.93 273.331 1224.34 273.969Z" fill="#10000D"></path> <path d="M1235.22 288.739L1234.73 295.488C1234.76 295.488 1234.8 295.488 1234.84 295.481C1235.64 295.395 1236.39 295.025 1236.95 294.438C1237.51 293.851 1237.84 293.084 1237.89 292.274C1237.94 291.465 1237.69 290.665 1237.21 290.017C1236.72 289.37 1236.02 288.917 1235.22 288.739V288.739Z" fill="#FFA87C"></path> <path d="M1220.16 297.684C1219.21 297.681 1218.3 297.368 1217.55 296.794L1218.1 296.046C1218.49 296.341 1218.93 296.55 1219.4 296.66C1219.87 296.771 1220.36 296.779 1220.83 296.685C1221.38 296.574 1221.9 296.352 1222.36 296.032C1222.82 295.712 1223.21 295.301 1223.51 294.824L1224.31 295.316C1223.94 295.902 1223.46 296.407 1222.89 296.801C1222.33 297.194 1221.68 297.467 1221.01 297.604C1220.73 297.657 1220.44 297.684 1220.16 297.684V297.684Z" fill="#FFA87C"></path> <path d="M1279.53 493.048L1287.38 485.938L1273.59 451.281L1257.57 456.018L1279.53 493.048Z" fill="#FFA87C"></path> <path d="M1270.46 503.159L1291.45 494.249L1287.38 485.938L1269.34 502.358L1270.46 503.159Z" fill="#FFA87C"></path> <path d="M1278.98 493.58L1289.26 488.72L1291.96 494.501L1270.46 503.159L1269.34 502.358L1278.98 493.58Z" fill="#896BFF"></path> <path d="M1268.93 502.529L1273.38 498.267L1274.39 500.464L1291.55 492.953L1292.43 494.765L1269.56 503.683L1268.93 502.529Z" fill="#10000D"></path> <path d="M1278.35 496.24L1280.82 494.542C1280.82 494.542 1279.52 489.836 1278.34 490.259C1276.97 490.749 1278.35 496.24 1278.35 496.24Z" fill="#896BFF"></path> <path d="M1269.94 484.522L1286.33 477.692L1268.45 430.867L1264.77 366.572C1264.77 366.572 1253.35 349.322 1232.17 350.128L1236.27 386.688L1244.26 430.904L1269.94 484.522Z" fill="#C6D0D6"></path> <path d="M1222.92 497.841L1233.6 493.139L1235.02 457.517L1221.19 465.48L1222.92 497.841Z" fill="#FFA87C"></path> <path d="M1211.58 503.036L1234.37 502.359L1233.6 493.138L1210.82 501.883L1211.58 503.036Z" fill="#FFA87C"></path> <path d="M1223 497.208L1234.34 496.413L1234.75 502.779L1211.58 503.036L1210.82 501.883L1223 497.208Z" fill="#896BFF"></path> <path d="M1210.38 501.893L1216.08 499.541L1216.22 501.954L1234.94 501.19L1235.09 503.198H1210.55L1210.38 501.893Z" fill="#10000D"></path> <path d="M1221.44 499.456L1224.35 498.769C1224.35 498.769 1224.86 493.914 1223.6 493.88C1222.15 493.839 1221.44 499.456 1221.44 499.456Z" fill="#896BFF"></path> <path d="M1236.08 490.811L1219.93 490.625L1209.03 364.898C1209.03 364.898 1220.15 350.101 1231.97 350.101L1236.27 352.744L1236.08 490.811Z" fill="#C6D0D6"></path> <path d="M1236.55 490.812L1235.62 490.81L1235.8 386.996L1229.38 384.185L1229.75 383.329L1236.74 386.386L1236.74 386.691L1236.55 490.812Z" fill="#10000D"></path> <path d="M1260.99 384.615C1258.84 384.598 1256.72 384.038 1254.85 382.987C1252.97 381.935 1251.38 380.427 1250.24 378.6L1251.04 378.12C1252.21 379.991 1253.88 381.497 1255.86 382.467C1257.84 383.437 1260.05 383.832 1262.24 383.607L1262.35 384.534C1261.9 384.588 1261.45 384.615 1260.99 384.615Z" fill="#10000D"></path> <path d="M1234.08 317.555L1219.4 318.275L1218.93 309.896L1232.73 308.848L1234.08 317.555Z" fill="#FFA87C"></path> <path d="M1255.11 323.86C1252.75 313.752 1242.69 307.012 1232.54 308.271C1232.27 308.305 1232 308.335 1231.73 308.368C1231.57 309.752 1230.94 311.04 1229.95 312.017C1228.96 312.994 1227.66 313.6 1226.28 313.735C1226.1 313.753 1225.92 313.764 1225.74 313.769C1224.39 313.788 1223.07 313.413 1221.93 312.692C1220.79 311.97 1219.89 310.932 1219.33 309.705C1218.67 309.766 1218.01 309.83 1217.35 309.888C1207.15 310.796 1199.54 319.418 1200.44 329.681C1202.03 346.332 1203.63 362.982 1205.23 379.631L1266.17 373.141C1262.48 356.715 1258.79 340.288 1255.11 323.86Z" fill="#896BFF"></path> <path d="M1204.76 379.676L1199.97 329.725C1199.06 319.285 1206.68 310.369 1217.31 309.422L1217.4 310.354C1207.28 311.251 1200.04 319.725 1200.9 329.64L1205.69 379.587L1204.76 379.676Z" fill="#10000D"></path> <path d="M1225.63 319.189C1223.89 319.206 1222.17 318.777 1220.65 317.942C1219.12 317.108 1217.83 315.896 1216.91 314.423L1217.7 313.927C1218.73 315.575 1220.25 316.858 1222.05 317.597C1223.84 318.335 1225.82 318.49 1227.71 318.041L1227.9 318.956C1227.15 319.111 1226.39 319.189 1225.63 319.189V319.189Z" fill="#10000D"></path> <path d="M1212.15 484.077C1239.4 456.831 1239.4 412.658 1212.15 385.412C1184.91 358.166 1140.73 358.166 1113.49 385.412C1086.24 412.658 1086.24 456.831 1113.49 484.077C1140.73 511.323 1184.91 511.323 1212.15 484.077Z" fill="#FFCD32"></path> <path d="M1206.98 478.906C1231.37 454.516 1231.37 414.973 1206.98 390.583C1182.59 366.194 1143.05 366.194 1118.66 390.583C1094.27 414.973 1094.27 454.516 1118.66 478.906C1143.05 503.295 1182.59 503.295 1206.98 478.906Z" fill="#C6D0D6"></path> <path d="M1191.4 379.266L1107.34 463.323C1113.24 474.821 1122.55 484.216 1133.99 490.223L1218.3 405.918C1212.29 394.475 1202.9 385.167 1191.4 379.266V379.266Z" fill="#FEFEFE"></path> <path d="M1162.42 434.673V392.387H1163.36V433.233L1184.62 423.75L1185.01 424.605L1162.42 434.673Z" fill="#10000D"></path> <path d="M1162.82 491.411C1151.61 491.412 1140.66 488.089 1131.34 481.862C1122.02 475.636 1114.75 466.786 1110.47 456.432C1106.18 446.077 1105.05 434.683 1107.24 423.691C1109.43 412.698 1114.82 402.601 1122.75 394.676C1130.67 386.75 1140.77 381.353 1151.76 379.167C1162.75 376.98 1174.15 378.102 1184.5 382.391C1194.86 386.68 1203.71 393.943 1209.93 403.262C1216.16 412.581 1219.48 423.537 1219.48 434.745C1219.47 449.768 1213.49 464.171 1202.87 474.795C1192.25 485.418 1177.84 491.394 1162.82 491.411V491.411ZM1162.82 379.013C1151.8 379.013 1141.02 382.282 1131.86 388.405C1122.69 394.529 1115.55 403.233 1111.33 413.417C1107.11 423.601 1106.01 434.807 1108.16 445.618C1110.31 456.429 1115.62 466.359 1123.41 474.154C1131.21 481.948 1141.14 487.256 1151.95 489.406C1162.76 491.557 1173.96 490.453 1184.15 486.235C1194.33 482.016 1203.04 474.873 1209.16 465.708C1215.28 456.543 1218.55 445.767 1218.55 434.745C1218.53 419.969 1212.66 405.803 1202.21 395.355C1191.76 384.907 1177.6 379.03 1162.82 379.013V379.013Z" fill="#10000D"></path> <path d="M1203.71 383.481C1203.63 383.365 1203.57 383.232 1203.54 383.092C1203.51 382.952 1203.51 382.808 1203.54 382.667C1203.57 382.527 1203.63 382.394 1203.71 382.278C1203.79 382.161 1203.9 382.063 1204.02 381.99C1204.02 381.99 1201.46 383.67 1200.8 382.669C1200.28 381.868 1201.15 381.012 1201.15 381.012C1201.15 381.012 1198.95 382.456 1198.29 381.455C1197.63 380.455 1199.84 379.01 1199.84 379.01C1199.57 379.184 1199.25 379.246 1198.94 379.181C1198.63 379.117 1198.35 378.931 1198.18 378.666C1197.26 377.264 1202.51 374.394 1202.51 374.394C1202.51 374.394 1199.7 374.619 1199.48 373.231C1199.23 371.684 1209.93 369.526 1209.93 369.526C1210.52 369.458 1215.45 376.147 1215.52 376.738L1209.35 381.076L1208.85 381.405C1208.85 381.405 1204.57 384.49 1203.71 383.481Z" fill="#FFA87C"></path> <path d="M1203.98 375.732L1199.18 378.883L1199.69 379.665L1204.49 376.514L1203.98 375.732Z" fill="#10000D"></path> <path d="M1205.29 377.729L1200.49 380.881L1201 381.662L1205.81 378.511L1205.29 377.729Z" fill="#10000D"></path> <path d="M1206.61 379.731L1203.4 381.832L1203.92 382.614L1207.12 380.513L1206.61 379.731Z" fill="#10000D"></path> <path d="M1235.9 321.054C1238.17 346.145 1227.15 356.339 1208.44 368.093C1208.27 368.203 1215.32 378.332 1215.5 378.221C1218.74 376.242 1257.36 361.309 1248.94 315.776" fill="#896BFF"></path> <path d="M1215.49 378.723C1215.15 378.723 1214.62 378.015 1212.14 374.484C1210.78 372.549 1209 369.957 1208.31 368.841C1208.02 368.37 1207.77 367.964 1208.19 367.697C1228.36 355.027 1237.58 344.822 1235.43 321.096L1236.36 321.013C1238.74 347.204 1226.01 357.576 1209.05 368.264C1210 369.831 1214.53 376.319 1215.59 377.637C1215.87 377.487 1216.23 377.306 1216.69 377.079C1249.32 360.847 1251.99 334.829 1248.48 315.86L1249.4 315.691C1252.97 334.976 1250.26 361.426 1217.11 377.916C1216.46 378.24 1215.99 378.473 1215.75 378.62C1215.67 378.677 1215.58 378.713 1215.49 378.723V378.723Z" fill="#10000D"></path> <path d="M1142.37 272.603H1182.9C1196.74 272.603 1207.96 261.383 1207.96 247.543C1207.96 233.703 1196.74 222.484 1182.9 222.484H1142.37C1128.53 222.484 1117.31 233.703 1117.31 247.543C1117.31 261.383 1128.53 272.603 1142.37 272.603Z" fill="#FFCD32"></path> <path d="M1191.96 286.998L1187.69 263.005L1169.03 271.003L1191.96 286.998Z" fill="#FFCD32"></path> <path d="M1189.82 235.997H1175.22V236.932H1189.82V235.997Z" fill="#10000D"></path> <path d="M1189.82 243.296H1135.08V244.231H1189.82V243.296Z" fill="#10000D"></path> <path d="M1147.85 250.596H1135.08V251.531H1147.85V250.596Z" fill="#10000D"></path> <path d="M1189.82 250.596H1153.32V251.531H1189.82V250.596Z" fill="#10000D"></path> <path d="M1189.82 257.895H1153.32V258.83H1189.82V257.895Z" fill="#10000D"></path> <path d="M982.494 364.673C982.2 361.321 980.726 358.183 978.332 355.817C975.939 353.452 972.783 352.014 969.428 351.761L914.518 347.6L912.431 374.342L982.484 377.814L982.494 364.673Z" fill="#10000D"></path> <path d="M841.438 376.175L859.423 504.151H1030.89L1016.75 403.568L1012.9 376.175H841.438Z" fill="#10000D"></path> <path d="M1008.78 403.568H837.311L841.161 376.175H1012.63L1008.78 403.568Z" fill="#896BFF"></path> <path d="M994.64 504.151H823.175L837.291 403.708H1008.76L994.64 504.151Z" fill="white"></path> <path d="M995.046 504.618H822.637L836.883 403.241H1009.3L1009.22 403.774L995.046 504.618ZM823.713 503.683H994.233L1008.22 404.176H837.697L823.713 503.683Z" fill="#10000D"></path> <path d="M972.429 453.963H949.809L952.913 431.877H975.533L972.429 453.963Z" fill="#FFCD32"></path> <path d="M924.153 475.824H901.532L904.636 453.738H927.257L924.153 475.824Z" fill="#FFCD32"></path> <path d="M879.065 475.824H856.445L859.549 453.738H882.169L879.065 475.824Z" fill="#896BFF"></path> <path d="M863.034 432.412H839.471L842.706 409.39H866.268L863.034 432.412ZM840.548 431.477H862.224L865.197 410.325H843.519L840.548 431.477Z" fill="#10000D"></path> <path d="M885.613 432.412H862.051L865.286 409.39H888.848L885.613 432.412ZM863.125 431.477H884.801L887.774 410.325H866.097L863.125 431.477Z" fill="#10000D"></path> <path d="M908.192 432.412H884.63L887.865 409.39H911.427L908.192 432.412ZM885.704 431.477H907.379L910.353 410.325H888.676L885.704 431.477Z" fill="#10000D"></path> <path d="M930.772 432.412H907.21L910.445 409.39H934.007L930.772 432.412ZM908.283 431.477H929.959L932.931 410.325H911.256L908.283 431.477Z" fill="#10000D"></path> <path d="M953.351 432.412H929.784L933.019 409.39H956.581L953.351 432.412ZM930.861 431.477H952.538L955.51 410.325H933.835L930.861 431.477Z" fill="#10000D"></path> <path d="M975.93 432.412H952.368L955.603 409.39H979.165L975.93 432.412ZM953.441 431.477H975.113L978.086 410.325H956.413L953.441 431.477Z" fill="#10000D"></path> <path d="M998.508 432.412H974.946L978.18 409.39H1001.74L998.508 432.412ZM976.02 431.477H997.695L1000.67 410.325H978.992L976.02 431.477Z" fill="#10000D"></path> <path d="M859.941 454.43H836.379L839.615 431.41H863.177L859.941 454.43ZM837.452 453.495H859.128L862.1 432.345H840.424L837.452 453.495Z" fill="#10000D"></path> <path d="M882.519 454.43H858.957L862.192 431.41H885.754L882.519 454.43ZM860.03 453.495H881.706L884.68 432.345H863.003L860.03 453.495Z" fill="#10000D"></path> <path d="M905.101 454.43H881.539L884.774 431.41H908.336L905.101 454.43ZM882.611 453.495H904.285L907.259 432.345H885.582L882.611 453.495Z" fill="#10000D"></path> <path d="M927.677 454.43H904.115L907.35 431.41H930.912L927.677 454.43ZM905.188 453.495H926.867L929.84 432.345H908.161L905.188 453.495Z" fill="#10000D"></path> <path d="M950.256 454.43H926.694L929.93 431.41H953.492L950.256 454.43ZM927.765 453.495H949.441L952.414 432.345H930.741L927.765 453.495Z" fill="#10000D"></path> <path d="M995.414 454.43H971.852L975.087 431.41H998.649L995.414 454.43ZM972.925 453.495H994.601L997.574 432.345H975.898L972.925 453.495Z" fill="#10000D"></path> <path d="M856.846 476.449H833.284L836.516 453.428H860.078L856.846 476.449ZM834.357 475.514H856.032L859.004 454.363H837.332L834.357 475.514Z" fill="#10000D"></path> <path d="M879.424 476.449H855.862L859.098 453.428H882.66L879.424 476.449ZM856.936 475.514H878.611L881.585 454.363H859.908L856.936 475.514Z" fill="#10000D"></path> <path d="M902.003 476.449H878.441L881.677 453.428H905.239L902.003 476.449ZM879.515 475.514H901.19L904.163 454.363H882.487L879.515 475.514Z" fill="#10000D"></path> <path d="M924.583 476.449H901.021L904.256 453.428H927.818L924.583 476.449ZM902.094 475.514H923.77L926.742 454.363H905.067L902.094 475.514Z" fill="#10000D"></path> <path d="M947.162 476.449H923.6L926.834 453.428H950.396L947.162 476.449ZM924.673 475.514H946.349L949.322 454.363H927.645L924.673 475.514Z" fill="#10000D"></path> <path d="M969.74 476.449H946.178L949.414 453.428H972.976L969.74 476.449ZM947.252 475.514H968.927L971.9 454.363H950.224L947.252 475.514Z" fill="#10000D"></path> <path d="M992.317 476.449H968.755L971.99 453.428H995.552L992.317 476.449ZM969.829 475.514H991.504L994.477 454.363H972.804L969.829 475.514Z" fill="#10000D"></path> <path d="M853.751 498.467H830.189L833.424 475.447H856.986L853.751 498.467ZM831.262 497.532H852.938L855.911 476.382H834.235L831.262 497.532Z" fill="#10000D"></path> <path d="M876.33 498.467H852.768L856.003 475.447H879.565L876.33 498.467ZM853.841 497.532H875.517L878.49 476.382H856.814L853.841 497.532Z" fill="#10000D"></path> <path d="M898.909 498.467H875.347L878.582 475.447H902.144L898.909 498.467ZM876.42 497.532H898.096L901.069 476.382H879.393L876.42 497.532Z" fill="#10000D"></path> <path d="M921.488 498.467H897.926L901.161 475.447H924.723L921.488 498.467ZM898.999 497.532H920.675L923.648 476.382H901.972L898.999 497.532Z" fill="#10000D"></path> <path d="M944.067 498.467H920.505L923.739 475.447H947.301L944.067 498.467ZM921.578 497.532H943.255L946.227 476.382H924.549L921.578 497.532Z" fill="#10000D"></path> <path d="M966.646 498.467H943.084L946.319 475.447H969.881L966.646 498.467ZM944.157 497.532H965.833L968.806 476.382H947.13L944.157 497.532Z" fill="#10000D"></path> <path d="M989.225 498.467H965.663L968.898 475.447H992.46L989.225 498.467ZM966.736 497.532H988.412L991.385 476.382H969.709L966.736 497.532Z" fill="#10000D"></path> <path d="M933.001 290.348L916.97 294.163C922.948 310.912 938.924 325.751 961.544 328.45C966.194 323.349 969.971 317.516 972.722 311.185C953.14 312.931 938.727 302.395 933.001 290.348Z" fill="#10000D"></path> <path d="M936.292 376.741H895.227C882.673 376.741 880.396 367.947 880.559 362.073C880.719 356.278 883.073 339.023 883.073 339.023L936.292 342.375V376.741Z" fill="white"></path> <path d="M936.762 377.208H895.227C890.265 377.208 886.433 375.854 883.836 373.184C880.407 369.658 880.022 364.701 880.091 362.06C880.25 356.307 882.586 339.132 882.61 338.959L882.669 338.529L936.765 341.936L936.762 377.208ZM883.475 339.516C883.111 342.223 881.167 356.891 881.023 362.085C880.953 364.579 881.314 369.253 884.504 372.533C886.918 375.014 890.525 376.273 895.224 376.273H935.827V342.815L883.475 339.516Z" fill="#10000D"></path> <path d="M930.816 426.687L921.917 420.838L933.343 385.316L946.058 386.691L930.816 426.687Z" fill="#FFA87C"></path> <path d="M939.563 434.389L917.825 427.909L922.5 419.609L940.783 433.519L939.563 434.389Z" fill="#FFA87C"></path> <path d="M931.009 426.083L920.387 422.437L917.277 428.197L939.563 434.389L940.783 433.519L931.009 426.083Z" fill="#896BFF"></path> <path d="M941.206 433.643L936.703 430.011L935.536 432.198L917.774 426.685L916.765 428.493L940.489 434.802L941.206 433.643Z" fill="#10000D"></path> <path d="M931.555 428.555L929.037 427.173C929.037 427.173 930.618 422.571 931.845 422.861C933.261 423.197 931.555 428.555 931.555 428.555Z" fill="#896BFF"></path> <path d="M895.227 376.741L930.009 377.579L918.649 412.579L942.787 419.411L958.271 369.768C961.003 360.66 954.123 354.563 947.287 354.038L905.281 349.876" fill="white"></path> <path d="M943.099 419.985L918.056 412.897L929.371 378.031L895.214 377.208L895.236 376.273L930.648 377.127L919.245 412.261L942.477 418.836L957.825 369.63C959.216 364.992 957.907 361.682 956.563 359.724C955.485 358.228 954.093 356.985 952.485 356.084C950.876 355.182 949.09 354.643 947.251 354.504L905.236 350.342L905.328 349.412L947.332 353.573C949.308 353.725 951.227 354.307 952.955 355.278C954.682 356.248 956.177 357.585 957.334 359.194C958.793 361.322 960.218 364.906 958.719 369.903L943.099 419.985Z" fill="#10000D"></path> <path d="M928.935 415.452L928.044 415.172L942.609 368.856L900.279 367.988C894.134 367.988 890.238 366.905 888.029 364.576C885.38 361.787 885.601 357.552 885.833 353.069L885.847 352.829C886.146 347.092 888.224 329.919 888.245 329.746L889.173 329.858C889.152 330.031 887.079 347.173 886.78 352.877L886.767 353.118C886.534 357.58 886.335 361.435 888.707 363.933C890.7 366.033 894.488 367.053 900.288 367.053L943.875 367.951L928.935 415.452Z" fill="#10000D"></path> <path d="M917.282 280.959H900.431V289.613H917.282V280.959Z" fill="#FFA87C"></path> <path d="M936.652 298.594C936.459 288.294 927.982 280.526 917.735 280.704C917.183 280.713 916.632 280.718 916.081 280.726C915.965 282.363 915.271 283.905 914.122 285.077C912.974 286.249 911.447 286.975 909.813 287.125V287.125C909.632 287.14 909.451 287.148 909.273 287.148C907.676 287.162 906.136 286.547 904.988 285.436C903.84 284.324 903.176 282.805 903.14 281.208L903.125 280.71C902.908 280.71 902.69 280.706 902.473 280.702C892.244 280.525 882.95 288.292 881.679 298.593C879.75 315.318 877.664 348.817 877.664 348.817L937.183 348.769L936.652 298.594Z" fill="#FFCD32"></path> <path d="M936.712 332.428C936.625 324.067 936.535 319.721 936.448 315.518C936.361 311.315 936.273 306.964 936.185 298.599C936.155 296.287 935.666 294.004 934.747 291.882C933.828 289.761 932.497 287.842 930.831 286.239C929.748 285.195 928.536 284.291 927.226 283.551C925.892 282.796 924.469 282.212 922.989 281.814C921.463 281.401 919.891 281.184 918.311 281.168C917.811 281.168 917.313 281.173 916.815 281.182L916.508 281.187C916.299 282.855 915.524 284.402 914.313 285.567C913.101 286.733 911.526 287.448 909.851 287.593C908.955 287.675 908.052 287.573 907.197 287.292C906.343 287.012 905.555 286.559 904.882 285.962C904.209 285.365 903.666 284.637 903.285 283.822C902.905 283.007 902.695 282.123 902.67 281.223C902.665 281.062 902.67 280.863 902.67 280.7L903.604 280.728C903.6 280.872 903.598 281.049 903.604 281.193C903.626 281.965 903.806 282.724 904.133 283.424C904.46 284.124 904.927 284.75 905.505 285.262C906.083 285.774 906.76 286.162 907.495 286.402C908.229 286.642 909.005 286.729 909.774 286.658C911.294 286.512 912.714 285.833 913.783 284.742C914.852 283.652 915.501 282.218 915.616 280.695L915.643 280.261L916.801 280.244C917.308 280.235 917.814 280.225 918.322 280.23C919.982 280.247 921.633 280.474 923.235 280.908C924.791 281.327 926.288 281.94 927.691 282.734C929.069 283.514 930.343 284.464 931.484 285.563C933.236 287.254 934.637 289.276 935.604 291.511C936.572 293.747 937.088 296.151 937.123 298.587C937.21 306.946 937.3 311.293 937.386 315.496C937.472 319.699 937.562 324.05 937.65 332.415L936.712 332.428Z" fill="#10000D"></path> <path d="M883.152 341.976L883.1 342.91L931.831 345.643L931.884 344.709L883.152 341.976Z" fill="#10000D"></path> <path d="M931.007 323.654C928.326 322.538 925.463 321.919 922.56 321.826V331.643C927.46 331.752 932.67 331.85 937.321 331.969C937.081 328.257 934.257 325.166 931.007 323.654Z" fill="#FFA87C"></path> <path d="M878.688 320.229C872.805 308.457 878.907 290.229 893.144 282.781C893.144 282.781 899.1 290.3 902.494 293.237C882.436 315.584 895.227 321.346 923.85 317.344L925.121 332.65C925.121 332.65 906.837 334.308 901.796 333.58C892.856 332.288 883.122 329.101 878.688 320.229Z" fill="#FFCD32"></path> <path d="M909.874 334.584C898.688 334.584 884.453 332.065 878.275 320.447C873.455 311.384 875.711 295.774 887.83 285.339L888.44 286.047C876.676 296.177 874.453 311.27 879.101 320.007C889.012 338.645 920.689 333.05 924.618 332.274C924.441 330.13 923.623 320.265 923.427 317.894C906.982 320.819 895.666 319.229 892.34 313.513C889.963 309.428 891.799 303.725 897.796 296.561L898.513 297.16C892.876 303.892 891.021 309.386 893.149 313.042C896.253 318.374 907.7 319.811 923.766 316.882L924.274 316.789L924.316 317.303C925.588 332.626 925.588 332.626 925.588 332.647V333.021L925.222 333.103C920.166 334.088 915.026 334.585 909.874 334.584V334.584Z" fill="#10000D"></path> <path d="M941.852 299.618L934.33 331.362L913.794 332.571L913.339 335.878H979.33L987.621 299.618H941.852Z" fill="#C6D0D6"></path> <path d="M960.996 321.533C960.446 321.542 959.901 321.429 959.4 321.203C958.899 320.977 958.454 320.643 958.097 320.225C957.695 319.724 957.407 319.142 957.252 318.518C957.097 317.895 957.079 317.245 957.2 316.614C957.629 313.985 959.972 311.847 962.424 311.847C962.973 311.838 963.518 311.95 964.019 312.177C964.52 312.403 964.965 312.737 965.322 313.155C965.724 313.656 966.013 314.238 966.168 314.861C966.322 315.484 966.34 316.134 966.22 316.765C965.79 319.392 963.445 321.533 960.996 321.533ZM962.424 312.782C960.411 312.782 958.481 314.569 958.123 316.765C958.024 317.262 958.035 317.774 958.153 318.267C958.272 318.76 958.496 319.221 958.809 319.619C959.079 319.933 959.415 320.184 959.793 320.353C960.171 320.522 960.582 320.606 960.996 320.598C963.009 320.598 964.938 318.811 965.297 316.614C965.395 316.117 965.385 315.605 965.266 315.112C965.148 314.62 964.924 314.159 964.61 313.761C964.34 313.447 964.004 313.196 963.626 313.027C963.248 312.858 962.838 312.774 962.424 312.782V312.782Z" fill="#10000D"></path> <path d="M913.821 333.037L913.766 332.104L933.955 330.915L941.397 299.51L942.307 299.725L934.704 331.808L913.821 333.037Z" fill="#10000D"></path> <path d="M977.706 332.351C977.713 332.208 977.749 332.068 977.813 331.939C977.877 331.811 977.966 331.698 978.076 331.606C978.186 331.514 978.314 331.446 978.452 331.406C978.589 331.367 978.734 331.356 978.876 331.375C978.876 331.375 975.824 331.099 975.931 329.907C976.017 328.953 977.231 328.822 977.231 328.822C977.231 328.822 974.608 328.586 974.716 327.394C974.824 326.201 977.446 326.439 977.446 326.439C977.129 326.41 976.838 326.257 976.634 326.014C976.431 325.77 976.333 325.455 976.361 325.139C976.511 323.47 981.803 324.198 983.308 325.272C985.597 326.906 983.779 332.86 981.632 334.073C980.699 334.602 977.755 333.677 977.706 332.351Z" fill="#FFA87C"></path> <path d="M977.011 325.93L976.927 326.861L982.649 327.377L982.733 326.446L977.011 325.93Z" fill="#10000D"></path> <path d="M976.795 328.315L976.711 329.246L982.434 329.762L982.518 328.831L976.795 328.315Z" fill="#10000D"></path> <path d="M978.487 330.869L978.403 331.8L982.218 332.144L982.302 331.213L978.487 330.869Z" fill="#10000D"></path> <path d="M909.311 285.89C910.412 285.908 911.476 285.499 912.283 284.75C913.089 284.001 913.575 282.969 913.639 281.87L913.607 279.531L913.592 267.362L905.418 267.276L905.268 281.823C905.265 282.899 905.69 283.931 906.448 284.694C907.206 285.456 908.236 285.887 909.311 285.89V285.89Z" fill="#FFA87C"></path> <path d="M913.639 280.504L903.104 273.067L914.293 266.356L913.639 280.504Z" fill="#10000D"></path> <path d="M914.156 277.738C921.048 277.572 924.053 270.53 923.417 263.138C922.648 254.191 917.508 246.692 908.391 248.573C891.765 252.004 897.162 278.149 914.156 277.738Z" fill="#FFA87C"></path> <path d="M909.514 263.189C909.538 263.349 909.608 263.498 909.717 263.618C909.826 263.738 909.968 263.822 910.125 263.861C910.282 263.9 910.447 263.892 910.599 263.837C910.751 263.782 910.884 263.684 910.98 263.554C911.076 263.423 911.131 263.268 911.139 263.106C911.146 262.945 911.106 262.785 911.022 262.646C910.939 262.508 910.816 262.397 910.67 262.328C910.524 262.259 910.36 262.235 910.2 262.259C910.094 262.275 909.992 262.312 909.9 262.367C909.808 262.423 909.728 262.496 909.664 262.582C909.6 262.668 909.554 262.766 909.528 262.871C909.503 262.975 909.498 263.083 909.514 263.189V263.189Z" fill="#10000D"></path> <path d="M918.137 262.701C918.161 262.861 918.232 263.01 918.341 263.129C918.45 263.249 918.592 263.333 918.748 263.372C918.905 263.411 919.07 263.403 919.222 263.348C919.375 263.293 919.507 263.194 919.603 263.064C919.699 262.934 919.754 262.778 919.762 262.617C919.769 262.455 919.729 262.295 919.645 262.157C919.562 262.018 919.439 261.908 919.293 261.839C919.147 261.77 918.983 261.746 918.823 261.77C918.717 261.786 918.615 261.823 918.523 261.878C918.431 261.934 918.351 262.007 918.287 262.093C918.223 262.18 918.177 262.278 918.151 262.382C918.126 262.486 918.121 262.595 918.137 262.701V262.701Z" fill="#10000D"></path> <path d="M908.155 262.087L907.313 261.682C907.557 261.129 907.928 260.641 908.396 260.258C908.864 259.875 909.415 259.607 910.006 259.477C910.525 259.396 911.057 259.442 911.555 259.611C912.053 259.78 912.502 260.068 912.865 260.449L912.217 261.122C911.961 260.844 911.641 260.632 911.285 260.505C910.928 260.378 910.546 260.341 910.172 260.395C909.728 260.503 909.315 260.712 908.965 261.005C908.615 261.299 908.338 261.669 908.155 262.087V262.087Z" fill="#10000D"></path> <path d="M914.824 269.934C914.559 269.933 914.293 269.91 914.032 269.863C913.353 269.736 912.707 269.471 912.134 269.085C911.561 268.699 911.074 268.2 910.701 267.619L911.491 267.118C911.793 267.59 912.189 267.996 912.654 268.31C913.119 268.624 913.643 268.84 914.195 268.944C914.67 269.031 915.158 269.016 915.627 268.9C916.096 268.784 916.535 268.569 916.914 268.27L917.481 269.013C916.723 269.608 915.788 269.932 914.824 269.934V269.934Z" fill="#10000D"></path> <path d="M916.246 267.286L916.104 266.362L917.43 266.159L916.458 260.873L916.522 260.738C916.696 260.285 916.986 259.885 917.362 259.577C917.738 259.27 918.188 259.066 918.667 258.985C919.23 258.952 919.791 259.062 920.3 259.305C920.809 259.548 921.247 259.915 921.576 260.373L920.85 260.963C920.617 260.633 920.307 260.365 919.946 260.182C919.585 260 919.186 259.908 918.781 259.916C918.484 259.971 918.205 260.1 917.97 260.291C917.735 260.481 917.551 260.728 917.435 261.007L918.524 266.94L916.246 267.286Z" fill="#10000D"></path> <path d="M899.545 266.256L905.897 257.28C905.897 257.28 922.044 259.177 925.025 255.003C927.302 251.815 925.025 246.35 916.372 246.35C883.224 246.346 899.545 266.256 899.545 266.256Z" fill="#10000D"></path> <path d="M903.032 265.172C902.969 265.846 902.707 266.487 902.281 267.012C901.854 267.538 901.281 267.925 900.634 268.125C899.987 268.325 899.295 268.329 898.646 268.136C897.997 267.943 897.42 267.561 896.988 267.04C896.555 266.519 896.287 265.881 896.217 265.208C896.148 264.534 896.279 263.855 896.595 263.256C896.911 262.657 897.398 262.166 897.993 261.843C898.589 261.521 899.267 261.383 899.941 261.446C900.845 261.53 901.678 261.97 902.258 262.669C902.838 263.368 903.116 264.268 903.032 265.172V265.172Z" fill="#FFA87C"></path> <path d="M902.707 265.019C900.788 265.299 897.695 259.098 897.695 259.098C897.695 257.715 906.157 254.087 906.349 255.455C906.353 255.455 904.676 264.732 902.707 265.019Z" fill="#10000D"></path> <path d="M988.329 393.008C984.904 393.007 981.556 391.992 978.708 390.089C975.86 388.186 973.641 385.481 972.33 382.316C971.019 379.152 970.676 375.67 971.345 372.31C972.013 368.951 973.662 365.865 976.084 363.443C978.506 361.021 981.592 359.372 984.951 358.704C988.311 358.035 991.793 358.378 994.957 359.689C998.122 361 1000.83 363.219 1002.73 366.067C1004.63 368.915 1005.65 372.263 1005.65 375.688H1004.71C1004.71 372.449 1003.75 369.281 1001.95 366.588C1000.15 363.894 997.594 361.794 994.601 360.554C991.608 359.314 988.314 358.99 985.137 359.622C981.959 360.254 979.04 361.814 976.749 364.105C974.458 366.396 972.898 369.315 972.266 372.493C971.634 375.67 971.958 378.964 973.198 381.957C974.438 384.95 976.538 387.509 979.231 389.309C981.925 391.109 985.093 392.07 988.332 392.07L988.329 393.008Z" fill="#10000D"></path> <path d="M988.102 395.728C989.737 395.728 991.063 394.403 991.063 392.767C991.063 391.132 989.737 389.807 988.102 389.807C986.467 389.807 985.142 391.132 985.142 392.767C985.142 394.403 986.467 395.728 988.102 395.728Z" fill="#10000D"></path> <path d="M853.067 393.008C849.641 393.008 846.293 391.992 843.445 390.089C840.597 388.186 838.377 385.481 837.066 382.317C835.756 379.152 835.413 375.67 836.081 372.311C836.749 368.951 838.398 365.865 840.82 363.443C843.242 361.021 846.328 359.372 849.687 358.704C853.047 358.035 856.529 358.378 859.693 359.689C862.858 360.999 865.563 363.219 867.466 366.067C869.369 368.915 870.385 372.263 870.385 375.688H869.45C869.45 372.449 868.489 369.281 866.689 366.588C864.889 363.894 862.331 361.794 859.338 360.554C856.344 359.314 853.051 358.99 849.873 359.622C846.695 360.254 843.776 361.814 841.485 364.105C839.195 366.396 837.634 369.315 837.002 372.493C836.37 375.67 836.695 378.964 837.934 381.957C839.174 384.95 841.274 387.509 843.968 389.309C846.662 391.109 849.829 392.07 853.069 392.07L853.067 393.008Z" fill="#10000D"></path> <path d="M852.839 395.728C854.474 395.728 855.8 394.403 855.8 392.767C855.8 391.132 854.474 389.807 852.839 389.807C851.204 389.807 849.878 391.132 849.878 392.767C849.878 394.403 851.204 395.728 852.839 395.728Z" fill="#10000D"></path> <path d="M890.868 393.462C887.256 393.462 883.734 392.333 880.796 390.233C877.858 388.133 875.65 385.166 874.481 381.749C873.312 378.332 873.241 374.634 874.277 371.174C875.314 367.714 877.406 364.665 880.261 362.453L880.834 363.192C878.131 365.284 876.151 368.169 875.17 371.442C874.188 374.716 874.255 378.214 875.361 381.448C876.467 384.681 878.557 387.488 881.337 389.475C884.118 391.461 887.45 392.529 890.868 392.527V393.462Z" fill="#10000D"></path> <path d="M890.64 396.184C892.275 396.184 893.601 394.858 893.601 393.223C893.601 391.588 892.275 390.262 890.64 390.262C889.005 390.262 887.68 391.588 887.68 393.223C887.68 394.858 889.005 396.184 890.64 396.184Z" fill="#10000D"></path> <path d="M947.772 274.827L949.45 265.389C946.018 264.38 943.064 262.168 941.13 259.158C939.196 256.148 938.411 252.542 938.92 249.001C939.429 245.46 941.197 242.221 943.901 239.877C946.604 237.534 950.061 236.243 953.639 236.242H976.933C980.878 236.242 984.661 237.809 987.451 240.598C990.24 243.388 991.807 247.171 991.807 251.116C991.807 255.061 990.24 258.844 987.451 261.633C984.661 264.423 980.878 265.99 976.933 265.99H960.439L947.772 274.827ZM953.641 237.177C950.253 237.177 946.981 238.412 944.437 240.649C941.893 242.886 940.251 245.973 939.817 249.334C939.384 252.694 940.189 256.097 942.082 258.906C943.975 261.716 946.826 263.74 950.103 264.601L950.52 264.71L949.088 272.769L960.146 265.055H976.935C980.632 265.055 984.178 263.586 986.792 260.972C989.406 258.358 990.874 254.813 990.874 251.116C990.874 247.419 989.406 243.873 986.792 241.259C984.178 238.645 980.632 237.177 976.935 237.177H953.641Z" fill="#10000D"></path> <path d="M1041.39 280.97C1041.56 280.297 1044.58 278.703 1048.39 276.688C1050.58 275.533 1053.02 274.246 1055.58 272.798H1030.42C1032.6 276.023 1034.25 278.514 1034.09 279.143C1030.1 295.115 1019.11 300.176 1010.28 304.242C1003.83 307.21 998.259 309.773 996.791 315.649L994.894 323.245L1055.25 338.322L1057.15 330.727C1058.61 324.851 1054.9 319.969 1050.61 314.317C1044.73 306.578 1037.4 296.943 1041.39 280.97Z" fill="#896BFF"></path> <path d="M1055.48 338.719L994.498 323.485L998.678 306.75C1001.18 296.727 1017.31 288.217 1026.95 283.131C1030.2 281.42 1033.55 279.65 1033.78 279.061C1033.85 278.446 1031.72 275.308 1029.66 272.272C1023.55 263.251 1013.31 248.153 1015.82 238.132L1020 221.398L1080.99 236.635L1076.81 253.369C1074.3 263.393 1058.17 271.903 1048.53 276.989C1045.29 278.7 1041.93 280.47 1041.71 281.06C1041.63 281.673 1043.76 284.812 1045.82 287.846C1051.93 296.868 1062.17 311.966 1059.66 321.988L1055.48 338.719ZM995.632 322.805L1054.8 337.586L1058.76 321.76C1061.16 312.143 1051.07 297.261 1045.05 288.369C1041.86 283.669 1040.58 281.727 1040.8 280.824C1041.03 279.921 1043.07 278.809 1048.1 276.16C1057.6 271.148 1073.5 262.757 1075.9 253.141L1079.85 237.314L1020.68 222.531L1016.73 238.356C1014.32 247.971 1024.41 262.853 1030.44 271.744C1033.62 276.445 1034.91 278.388 1034.68 279.291C1034.46 280.195 1032.41 281.305 1027.39 283.955C1017.89 288.967 1001.99 297.357 999.585 306.974L995.632 322.805Z" fill="#10000D"></path> <path d="M1032.43 270.653C1027.44 263.256 1017.04 247.86 1019.53 237.899L1020.43 238.123C1018.05 247.68 1028.29 262.842 1033.21 270.128L1032.43 270.653Z" fill="#10000D"></path> <path d="M1083.63 233.474L1019.16 217.368L1017.11 225.541L1081.59 241.647L1083.63 233.474Z" fill="#FFCD32"></path> <path d="M1058.45 334.268L993.977 318.162L991.935 326.335L1056.41 342.441L1058.45 334.268Z" fill="#FFCD32"></path> <path d="M1070.07 335.252C1052.49 335.252 1040.15 325.569 1034.27 320.949C1033.34 320.216 1032.6 319.637 1032.06 319.276C1031.7 319.036 1031.79 318.777 1032.25 317.973L1026.55 314.375C1025.1 313.495 1021.77 311.271 1022.48 309.852C1022.6 309.61 1022.79 309.411 1023.03 309.283C1022.29 308.588 1021.58 307.621 1022.13 306.805C1022.3 306.54 1022.56 306.34 1022.86 306.237L1022.83 306.202C1021.85 305.166 1021.99 304.442 1022.27 304.017C1022.56 303.592 1023.18 303.194 1024.5 303.707L1024.52 303.712C1024.53 303.398 1024.62 303.092 1024.8 302.832C1024.89 302.696 1025.01 302.581 1025.15 302.495C1025.29 302.409 1025.45 302.353 1025.61 302.333C1026.71 302.161 1028.58 303.269 1029.83 304.128C1029.64 303.277 1029.64 302.291 1030.45 301.784C1030.88 301.516 1032 300.812 1037.85 309.086C1038.56 308.035 1038.63 308.021 1038.82 307.985C1038.89 307.974 1038.95 307.974 1039.01 307.987C1039.07 308 1039.13 308.025 1039.18 308.06C1054.72 318.947 1065.98 324.062 1080.95 319.911C1081.06 319.889 1081.18 319.911 1081.28 319.973C1081.38 320.035 1081.46 320.132 1081.49 320.245C1081.52 320.358 1081.51 320.478 1081.45 320.583C1081.4 320.687 1081.31 320.768 1081.2 320.808C1065.99 325.027 1054.59 319.951 1039 309.065C1038.85 309.26 1038.62 309.594 1038.24 310.164C1038.2 310.227 1038.14 310.279 1038.08 310.315C1038.01 310.352 1037.94 310.371 1037.86 310.372C1037.78 310.372 1037.71 310.354 1037.64 310.319C1037.57 310.284 1037.51 310.234 1037.47 310.172C1033.99 305.183 1031.54 302.586 1030.91 302.586H1030.9C1030.33 302.96 1030.86 304.509 1031.22 305.204C1031.27 305.299 1031.28 305.408 1031.26 305.513C1031.24 305.618 1031.18 305.712 1031.1 305.78C1031.02 305.848 1030.92 305.885 1030.81 305.886C1030.7 305.887 1030.6 305.851 1030.51 305.785C1029.18 304.726 1026.7 303.097 1025.76 303.251C1025.63 303.271 1025.59 303.325 1025.57 303.347C1025.47 303.507 1025.43 303.703 1025.46 303.893C1025.5 304.082 1025.61 304.249 1025.77 304.358V304.358C1025.87 304.427 1025.94 304.535 1025.97 304.656C1025.99 304.778 1025.97 304.905 1025.9 305.008C1025.86 305.059 1025.82 305.102 1025.77 305.136C1025.72 305.17 1025.66 305.194 1025.6 305.205C1025.48 305.229 1025.35 305.203 1025.25 305.134V305.134C1024.51 304.642 1023.3 304.144 1023.04 304.536C1022.86 304.816 1023.3 305.343 1023.51 305.557C1023.79 305.851 1024.1 306.115 1024.43 306.348C1024.54 306.41 1024.61 306.509 1024.64 306.624C1024.67 306.739 1024.66 306.862 1024.6 306.967C1024.55 307.072 1024.45 307.152 1024.34 307.189C1024.23 307.227 1024.1 307.221 1023.99 307.171C1023.99 307.171 1023.21 306.863 1022.9 307.326C1022.67 307.667 1023.65 308.709 1024.65 309.378C1024.7 309.413 1024.74 309.457 1024.78 309.508C1024.81 309.559 1024.83 309.617 1024.84 309.677C1024.86 309.737 1024.86 309.799 1024.84 309.859C1024.83 309.92 1024.81 309.977 1024.77 310.028C1024.74 310.079 1024.69 310.122 1024.64 310.156C1024.59 310.19 1024.53 310.214 1024.47 310.225C1024.41 310.237 1024.35 310.237 1024.29 310.225C1024.23 310.212 1024.17 310.188 1024.12 310.154V310.154C1024.04 310.102 1023.96 310.067 1023.86 310.051C1023.77 310.035 1023.67 310.038 1023.58 310.06C1023.52 310.073 1023.47 310.099 1023.42 310.135C1023.37 310.171 1023.34 310.217 1023.31 310.269C1023.13 310.632 1024.75 312.191 1027.04 313.585L1027.56 313.93L1033.12 317.418C1033.23 317.483 1033.3 317.585 1033.33 317.704C1033.36 317.822 1033.34 317.946 1033.28 318.051C1033.09 318.368 1032.97 318.58 1032.9 318.724C1033.42 319.098 1034.06 319.603 1034.84 320.214C1041.94 325.786 1058.55 338.832 1082.44 332.718C1082.56 332.687 1082.69 332.705 1082.8 332.768C1082.9 332.832 1082.98 332.935 1083.01 333.055C1083.04 333.175 1083.02 333.302 1082.96 333.409C1082.9 333.516 1082.79 333.593 1082.67 333.624C1078.56 334.693 1074.32 335.24 1070.07 335.252V335.252Z" fill="#10000D"></path> <path d="M1107.03 498.936L1116.63 494.041L1114.76 458.906L1102.14 458.957L1107.03 498.936Z" fill="#A34F2A"></path> <path d="M1095.24 503.423H1118.59L1116.63 494.041L1094.42 502.249L1095.24 503.423Z" fill="#A34F2A"></path> <path d="M1102.82 498.711C1106.8 505.345 1117.78 498.786 1117.78 498.786L1118.78 503.579H1094.22L1093.97 502.252L1102.82 498.711Z" fill="#10000D"></path> <path d="M1094.33 475.712H1124.11C1124.11 475.712 1125.38 347.482 1078.86 349.251L1094.33 475.712Z" fill="#896BFF"></path> <path d="M1118.39 475.717L1117.45 475.709C1117.46 474.792 1118.04 383.737 1090.57 357.038C1085.32 351.929 1079.29 349.465 1072.69 349.719L1072.65 348.784C1079.53 348.521 1085.78 351.075 1091.23 356.368C1118.97 383.345 1118.39 474.798 1118.39 475.717Z" fill="#10000D"></path> <path d="M1116.21 299.235C1115.97 301.64 1111.73 303.032 1110.94 305.051C1110.07 307.282 1112.19 311.035 1110.76 312.747C1109.24 314.57 1104.89 313.432 1102.87 314.617C1100.84 315.814 1100.04 319.962 1097.65 320.452C1095.35 320.919 1092.66 317.491 1090.17 317.246C1087.68 317 1084.38 319.84 1082.21 318.931C1079.96 317.988 1079.99 313.764 1078.23 312.192C1076.48 310.638 1072 310.906 1070.86 308.82C1069.79 306.86 1072.6 303.597 1072.18 301.238C1071.8 299.104 1067.91 296.911 1068.15 294.506C1068.38 292.102 1072.63 290.675 1073.43 288.626C1074.3 286.382 1072.16 282.623 1073.59 280.874C1075.11 279.017 1079.49 280.078 1081.49 278.85C1083.53 277.601 1084.28 273.427 1086.67 272.904C1088.99 272.397 1091.72 275.796 1094.23 276.046C1096.74 276.296 1100.08 273.492 1102.26 274.444C1104.5 275.423 1104.42 279.661 1106.18 281.285C1107.9 282.88 1112.4 282.693 1113.53 284.811C1114.59 286.805 1111.76 290.074 1112.18 292.446C1112.56 294.605 1116.45 296.82 1116.21 299.235Z" fill="#10000D"></path> <path d="M1072.09 498.936L1081.69 494.041L1079.82 458.906L1067.2 458.957L1072.09 498.936Z" fill="#A34F2A"></path> <path d="M1060.3 503.423H1083.65L1081.69 494.041L1059.48 502.249L1060.3 503.423Z" fill="#A34F2A"></path> <path d="M1067.88 498.711C1071.86 505.345 1082.84 498.786 1082.84 498.786L1083.84 503.579H1059.28L1059.03 502.252L1067.88 498.711Z" fill="#10000D"></path> <path d="M1088.64 475.683H1058.86C1058.86 475.683 1038.69 349.222 1082.01 349.222L1088.64 475.683Z" fill="#896BFF"></path> <path d="M1088.04 475.613L1083.04 377.816L1076.99 375.355L1077.34 374.489L1083.94 377.174L1083.96 377.471L1088.98 475.564L1088.04 475.613Z" fill="#10000D"></path> <path d="M1050.91 363.583C1058.03 334.305 1071.31 313.132 1090.73 316.296C1111.03 319.603 1116.03 343.752 1113.49 373.777L1050.91 363.583Z" fill="white"></path> <path d="M1034.38 309.63L1033.06 310.952L1037.29 315.184L1038.61 313.862L1034.38 309.63Z" fill="#FFCD32"></path> <path d="M1052.99 309.632L1051.67 310.954L1055.9 315.186L1057.23 313.864L1052.99 309.632Z" fill="#FFCD32"></path> <path d="M1048.8 299.614L1044.56 303.846L1045.89 305.169L1050.12 300.937L1048.8 299.614Z" fill="#FFCD32"></path> <path d="M1034.38 329.658L1033.06 330.98L1037.29 335.212L1038.61 333.89L1034.38 329.658Z" fill="#FFCD32"></path> <path d="M1052.99 329.66L1051.67 330.982L1055.9 335.214L1057.23 333.892L1052.99 329.66Z" fill="#FFCD32"></path> <path d="M1071.6 329.661L1070.28 330.983L1074.51 335.215L1075.84 333.893L1071.6 329.661Z" fill="#FFCD32"></path> <path d="M1090.21 329.655L1088.89 330.978L1093.12 335.21L1094.45 333.888L1090.21 329.655Z" fill="#FFCD32"></path> <path d="M1108.82 329.658L1107.5 330.98L1111.73 335.212L1113.06 333.89L1108.82 329.658Z" fill="#FFCD32"></path> <path d="M1104.63 319.643L1100.39 323.875L1101.72 325.198L1105.95 320.966L1104.63 319.643Z" fill="#FFCD32"></path> <path d="M1086.02 319.644L1081.78 323.876L1083.11 325.198L1087.34 320.966L1086.02 319.644Z" fill="#FFCD32"></path> <path d="M1067.41 319.645L1063.17 323.877L1064.5 325.199L1068.73 320.967L1067.41 319.645Z" fill="#FFCD32"></path> <path d="M1048.8 319.646L1044.56 323.878L1045.89 325.2L1050.12 320.969L1048.8 319.646Z" fill="#FFCD32"></path> <path d="M1056.4 352.257L1055.08 353.579L1059.31 357.811L1060.64 356.489L1056.4 352.257Z" fill="#FFCD32"></path> <path d="M1071.6 349.69L1070.28 351.012L1074.51 355.244L1075.84 353.922L1071.6 349.69Z" fill="#FFCD32"></path> <path d="M1090.21 349.684L1088.89 351.006L1093.12 355.238L1094.45 353.916L1090.21 349.684Z" fill="#FFCD32"></path> <path d="M1108.82 349.687L1107.5 351.009L1111.73 355.241L1113.06 353.919L1108.82 349.687Z" fill="#FFCD32"></path> <path d="M1123.24 339.672L1119 343.904L1120.33 345.227L1124.56 340.995L1123.24 339.672Z" fill="#FFCD32"></path> <path d="M1104.63 339.672L1100.39 343.904L1101.72 345.226L1105.95 340.995L1104.63 339.672Z" fill="#FFCD32"></path> <path d="M1086.02 339.672L1081.78 343.904L1083.11 345.226L1087.34 340.994L1086.02 339.672Z" fill="#FFCD32"></path> <path d="M1067.41 339.673L1063.17 343.905L1064.5 345.228L1068.73 340.995L1067.41 339.673Z" fill="#FFCD32"></path> <path d="M1108.82 369.712L1107.5 371.034L1111.73 375.266L1113.06 373.944L1108.82 369.712Z" fill="#FFCD32"></path> <path d="M1123.24 359.699L1119 363.931L1120.33 365.253L1124.56 361.021L1123.24 359.699Z" fill="#FFCD32"></path> <path d="M1104.62 359.7L1100.39 363.932L1101.72 365.254L1105.95 361.022L1104.62 359.7Z" fill="#FFCD32"></path> <path d="M1086.01 359.699L1081.78 363.931L1083.11 365.254L1087.34 361.022L1086.01 359.699Z" fill="#FFCD32"></path> <path d="M1067.41 359.7L1063.17 363.932L1064.5 365.255L1068.73 361.022L1067.41 359.7Z" fill="#FFCD32"></path> <path d="M1048.8 359.701L1044.56 363.934L1045.89 365.256L1050.12 361.023L1048.8 359.701Z" fill="#FFCD32"></path> <path d="M1113.92 374.32L1050.33 363.964L1050.45 363.473C1058.63 329.847 1072.96 312.924 1090.81 315.836C1100.53 317.418 1107.36 323.821 1111.12 334.866C1114.38 344.448 1115.33 357.553 1113.96 373.816L1113.92 374.32ZM1051.48 363.203L1113.07 373.234C1114.37 357.334 1113.42 344.528 1110.23 335.168C1106.6 324.475 1100.01 318.282 1090.66 316.758C1067.53 312.993 1056.22 343.999 1051.48 363.203Z" fill="#10000D"></path> <path d="M1087.99 321.034C1086.94 320.842 1086.01 320.241 1085.4 319.363C1084.8 318.485 1084.56 317.402 1084.76 316.353L1085.05 313.987L1087.37 302.041L1095.29 303.488L1092.67 317.799C1092.48 318.848 1091.88 319.779 1091 320.385C1090.12 320.992 1089.04 321.225 1087.99 321.034V321.034Z" fill="#A34F2A"></path> <path d="M1083.32 315.602L1096.46 309.612L1086.75 300.897L1083.32 315.602Z" fill="#10000D"></path> <path d="M1084.72 312.098C1077.99 310.625 1076.37 303.141 1078.4 296.004C1080.86 287.367 1087.33 280.98 1095.92 284.56C1111.59 291.09 1101.33 315.729 1084.72 312.098Z" fill="#A34F2A"></path> <path d="M1092.05 298.693C1091.99 298.845 1091.89 298.977 1091.76 299.074C1091.63 299.17 1091.48 299.225 1091.32 299.233C1091.15 299.241 1090.99 299.201 1090.86 299.118C1090.72 299.036 1090.61 298.913 1090.54 298.768C1090.47 298.622 1090.44 298.459 1090.47 298.299C1090.49 298.139 1090.56 297.99 1090.67 297.87C1090.78 297.75 1090.92 297.664 1091.07 297.624C1091.23 297.585 1091.4 297.592 1091.55 297.646C1091.65 297.682 1091.74 297.737 1091.82 297.809C1091.9 297.881 1091.97 297.969 1092.01 298.066C1092.06 298.163 1092.09 298.269 1092.09 298.376C1092.1 298.484 1092.08 298.592 1092.05 298.693V298.693Z" fill="#10000D"></path> <path d="M1083.67 296.578C1083.62 296.73 1083.52 296.863 1083.39 296.959C1083.26 297.055 1083.1 297.111 1082.94 297.119C1082.78 297.127 1082.62 297.087 1082.48 297.004C1082.34 296.921 1082.23 296.799 1082.16 296.653C1082.09 296.507 1082.07 296.344 1082.09 296.184C1082.12 296.024 1082.19 295.875 1082.29 295.755C1082.4 295.635 1082.54 295.55 1082.7 295.51C1082.86 295.47 1083.02 295.477 1083.17 295.531C1083.27 295.567 1083.37 295.623 1083.45 295.695C1083.53 295.767 1083.59 295.854 1083.64 295.951C1083.69 296.049 1083.71 296.154 1083.72 296.262C1083.72 296.369 1083.71 296.477 1083.67 296.578V296.578Z" fill="#10000D"></path> <path d="M1093.59 297.873C1093.49 297.428 1093.28 297.012 1093 296.658C1092.71 296.303 1092.34 296.02 1091.93 295.83C1091.57 295.705 1091.19 295.67 1090.82 295.726C1090.44 295.783 1090.09 295.93 1089.78 296.155L1089.28 295.37C1089.7 295.065 1090.2 294.868 1090.72 294.796C1091.24 294.725 1091.77 294.78 1092.27 294.958C1092.82 295.199 1093.31 295.566 1093.7 296.031C1094.09 296.496 1094.36 297.045 1094.49 297.635L1093.59 297.873Z" fill="#10000D"></path> <path d="M1086.41 304.389H1086.34C1085.73 304.384 1085.12 304.248 1084.57 303.99C1084.01 303.732 1083.52 303.358 1083.12 302.893L1083.81 302.272C1084.13 302.639 1084.52 302.933 1084.96 303.137C1085.4 303.34 1085.87 303.448 1086.36 303.452H1086.41C1086.96 303.447 1087.51 303.331 1088.02 303.112C1088.52 302.892 1088.98 302.573 1089.36 302.173L1090.04 302.815C1089.57 303.308 1089.01 303.701 1088.38 303.972C1087.76 304.242 1087.09 304.384 1086.41 304.389Z" fill="#10000D"></path> <path d="M1084.65 301.44L1082.49 300.664L1084.68 295.045C1084.62 294.748 1084.49 294.471 1084.29 294.239C1084.1 294.007 1083.85 293.828 1083.56 293.717C1083.17 293.632 1082.76 293.646 1082.37 293.757C1081.98 293.868 1081.62 294.074 1081.33 294.355L1080.74 293.638C1081.15 293.252 1081.65 292.975 1082.19 292.834C1082.74 292.692 1083.31 292.69 1083.85 292.828C1084.31 292.998 1084.71 293.284 1085.02 293.657C1085.33 294.031 1085.54 294.478 1085.63 294.957L1085.67 295.102L1083.71 300.107L1084.97 300.556L1084.65 301.44Z" fill="#10000D"></path> <path d="M1106.74 287.261C1104.34 281.336 1088.9 278.99 1083.59 281.179C1077.22 283.805 1078.95 295.823 1089.81 287.74C1089.63 293.84 1095.67 297.928 1100.43 296.108C1091.16 311.212 1102.75 308.996 1104.15 305.715C1105.55 302.435 1109.14 293.184 1106.74 287.261Z" fill="#10000D"></path> <path d="M1060.28 360.153L1060.14 361.077L1093.09 366.273L1093.24 365.35L1060.28 360.153Z" fill="#10000D"></path> <path d="M1033.48 299.146C1033.58 299.048 1033.71 298.974 1033.84 298.927C1033.98 298.88 1034.12 298.861 1034.26 298.872C1034.41 298.884 1034.54 298.925 1034.67 298.992C1034.8 299.06 1034.91 299.153 1035 299.266C1035 299.266 1033.01 296.935 1033.92 296.158C1034.65 295.537 1035.61 296.292 1035.61 296.292C1035.61 296.292 1033.9 294.289 1034.81 293.512C1035.72 292.736 1037.43 294.739 1037.43 294.739C1037.32 294.62 1037.25 294.481 1037.2 294.331C1037.15 294.182 1037.13 294.024 1037.14 293.868C1037.16 293.711 1037.2 293.558 1037.27 293.418C1037.34 293.278 1037.44 293.154 1037.56 293.052C1038.83 291.964 1042.34 296.813 1042.34 296.813C1042.34 296.813 1041.77 294.058 1043.11 293.662C1044.62 293.22 1048.1 303.567 1048.1 303.567C1048.24 304.144 1042.22 309.875 1041.65 310.016L1036.57 304.435L1036.18 303.979C1036.18 303.979 1032.58 300.128 1033.48 299.146Z" fill="#A34F2A"></path> <path d="M1037.47 294.071L1036.76 294.678L1040.49 299.048L1041.2 298.442L1037.47 294.071Z" fill="#10000D"></path> <path d="M1035.65 295.626L1034.94 296.232L1038.67 300.603L1039.38 299.997L1035.65 295.626Z" fill="#10000D"></path> <path d="M1035.07 298.635L1034.36 299.242L1036.85 302.156L1037.56 301.549L1035.07 298.635Z" fill="#10000D"></path> <path d="M1094.63 324.144C1073.27 327.313 1062.4 317.843 1049.34 301.909C1049.21 301.749 1040.04 310.025 1040.17 310.187C1044.71 315.498 1062.33 349.363 1108.61 333.468" fill="white"></path> <path d="M1034.38 309.63L1033.06 310.952L1037.29 315.184L1038.61 313.862L1034.38 309.63Z" fill="#FFCD32"></path> <path d="M1052.99 309.632L1051.67 310.954L1055.9 315.186L1057.23 313.864L1052.99 309.632Z" fill="#FFCD32"></path> <path d="M1048.8 299.614L1044.56 303.846L1045.89 305.169L1050.12 300.937L1048.8 299.614Z" fill="#FFCD32"></path> <path d="M1034.38 329.658L1033.06 330.98L1037.29 335.212L1038.61 333.89L1034.38 329.658Z" fill="#FFCD32"></path> <path d="M1052.99 329.66L1051.67 330.982L1055.9 335.214L1057.23 333.892L1052.99 329.66Z" fill="#FFCD32"></path> <path d="M1071.6 329.661L1070.28 330.983L1074.51 335.215L1075.84 333.893L1071.6 329.661Z" fill="#FFCD32"></path> <path d="M1090.21 329.655L1088.89 330.978L1093.12 335.21L1094.45 333.888L1090.21 329.655Z" fill="#FFCD32"></path> <path d="M1108.82 329.658L1107.5 330.98L1111.73 335.212L1113.06 333.89L1108.82 329.658Z" fill="#FFCD32"></path> <path d="M1104.63 319.643L1100.39 323.875L1101.72 325.198L1105.95 320.966L1104.63 319.643Z" fill="#FFCD32"></path> <path d="M1086.02 319.644L1081.78 323.876L1083.11 325.198L1087.34 320.966L1086.02 319.644Z" fill="#FFCD32"></path> <path d="M1067.41 319.645L1063.17 323.877L1064.5 325.199L1068.73 320.967L1067.41 319.645Z" fill="#FFCD32"></path> <path d="M1048.8 319.646L1044.56 323.878L1045.89 325.2L1050.12 320.969L1048.8 319.646Z" fill="#FFCD32"></path> <path d="M1056.4 352.257L1055.08 353.579L1059.31 357.811L1060.64 356.489L1056.4 352.257Z" fill="#FFCD32"></path> <path d="M1071.6 349.69L1070.28 351.012L1074.51 355.244L1075.84 353.922L1071.6 349.69Z" fill="#FFCD32"></path> <path d="M1090.21 349.684L1088.89 351.006L1093.12 355.238L1094.45 353.916L1090.21 349.684Z" fill="#FFCD32"></path> <path d="M1108.82 349.687L1107.5 351.009L1111.73 355.241L1113.06 353.919L1108.82 349.687Z" fill="#FFCD32"></path> <path d="M1123.24 339.672L1119 343.904L1120.33 345.227L1124.56 340.995L1123.24 339.672Z" fill="#FFCD32"></path> <path d="M1104.63 339.672L1100.39 343.904L1101.72 345.226L1105.95 340.995L1104.63 339.672Z" fill="#FFCD32"></path> <path d="M1086.02 339.672L1081.78 343.904L1083.11 345.226L1087.34 340.994L1086.02 339.672Z" fill="#FFCD32"></path> <path d="M1067.41 339.673L1063.17 343.905L1064.5 345.228L1068.73 340.995L1067.41 339.673Z" fill="#FFCD32"></path> <path d="M1108.82 369.712L1107.5 371.034L1111.73 375.266L1113.06 373.944L1108.82 369.712Z" fill="#FFCD32"></path> <path d="M1123.24 359.699L1119 363.931L1120.33 365.253L1124.56 361.021L1123.24 359.699Z" fill="#FFCD32"></path> <path d="M1104.62 359.7L1100.39 363.932L1101.72 365.254L1105.95 361.022L1104.62 359.7Z" fill="#FFCD32"></path> <path d="M1086.01 359.699L1081.78 363.931L1083.11 365.254L1087.34 361.022L1086.01 359.699Z" fill="#FFCD32"></path> <path d="M1067.41 359.7L1063.17 363.932L1064.5 365.255L1068.73 361.022L1067.41 359.7Z" fill="#FFCD32"></path> <path d="M1048.8 359.701L1044.56 363.934L1045.89 365.256L1050.12 361.023L1048.8 359.701Z" fill="#FFCD32"></path> <path d="M1086.03 337.941C1059.98 337.941 1046.62 319.695 1041.5 312.696C1040.79 311.74 1040.24 310.983 1039.82 310.491L1039.64 310.284L1039.74 310.015C1039.94 309.462 1048.74 301.535 1049.25 301.446L1049.52 301.401L1049.7 301.613C1063.62 318.599 1074.38 326.671 1094.56 323.679L1094.7 324.604C1074.2 327.644 1063.26 319.563 1049.24 302.529C1047.81 303.666 1041.98 308.934 1040.78 310.181C1041.18 310.679 1041.66 311.341 1042.25 312.141C1048.66 320.893 1068.17 347.538 1109.78 332.45L1110.1 333.328C1101.08 336.601 1093.09 337.941 1086.03 337.941Z" fill="#10000D"></path> <path d="M1303.78 503.326H787.217V504.261H1303.78V503.326Z" fill="#10000D"></path> <path d="M1260.07 515.013H830.928V515.948H1260.07V515.013Z" fill="#10000D"></path> </svg> 