<?xml version="1.0" encoding="UTF-8" standalone="no"?>
<svg width="50px" height="50px" viewBox="0 0 50 50" version="1.1" xmlns="http://www.w3.org/2000/svg" xmlns:xlink="http://www.w3.org/1999/xlink" xmlns:sketch="http://www.bohemiancoding.com/sketch/ns">
    <!-- Generator: Sketch 3.5.1 (25234) - http://www.bohemiancoding.com/sketch -->
    <title>Group 43</title>
    <desc>Created with Sketch.</desc>
    <defs></defs>
    <g id="Welcome" stroke="none" stroke-width="1" fill="none" fill-rule="evenodd" sketch:type="MSPage">
        <g id="Group-43" sketch:type="MSLayerGroup">
            <rect id="Rectangle-695" opacity="0" fill="#FFFFFF" sketch:type="MSShapeGroup" x="0" y="0" width="50" height="50"></rect>
            <path d="M49,22 L42,22 L42,1 C42,0.448 41.553,0 41,0 L1,0 C0.448,0 0,0.448 0,1 L0,33 C0,33.553 0.448,34 1,34 L8,34 L8,41 C8,41.369 8.203,41.708 8.528,41.882 C8.676,41.961 8.838,42 9,42 C9.194,42 9.387,41.943 9.555,41.832 L21.303,34 L22,34 L22,41 C22,41.553 22.448,42 23,42 L28.697,42 L40.445,49.832 C40.612,49.943 40.806,50 41,50 C41.162,50 41.324,49.961 41.472,49.882 C41.797,49.708 42,49.369 42,49 L42,42 L49,42 C49.553,42 50,41.553 50,41 L50,23 C50,22.448 49.553,22 49,22 L49,22 Z M21,32 C20.803,32 20.609,32.059 20.445,32.168 L10,39.132 L10,33 C10,32.447 9.552,32 9,32 L2,32 L2,2 L40,2 L40,32 L21,32 L21,32 Z M48,40 L41,40 C40.447,40 40,40.447 40,41 L40,47.132 L29.555,40.168 C29.391,40.059 29.197,40 29,40 L24,40 L24,34 L41,34 C41.553,34 42,33.553 42,33 L42,24 L48,24 L48,40 L48,40 Z" id="Shape" fill="#000000" sketch:type="MSShapeGroup"></path>
        </g>
    </g>
</svg>