<?xml version="1.0" encoding="UTF-8"?> <!-- Generator: Adobe Illustrator 19.0.0, SVG Export Plug-In . SVG Version: 6.00 Build 0) --> <svg xmlns="http://www.w3.org/2000/svg" xmlns:xlink="http://www.w3.org/1999/xlink" id="Capa_1" x="0px" y="0px" viewBox="0 0 512 512" style="enable-background:new 0 0 512 512;" xml:space="preserve"> <path style="fill:#F0F0FA;" d="M502,256c0,2.994-110.153,160-246,160S10,257.991,10,256c0-2.991,110.153-160,246-160 S502,254.009,502,256z"></path> <circle style="fill:#C8F5FF;" cx="256" cy="256" r="126"></circle> <path d="M256,392c-74.991,0-136-61.01-136-136c0-21.58,5.185-43.065,14.993-62.133c2.526-4.911,8.557-6.846,13.467-4.318 c4.911,2.526,6.845,8.556,4.318,13.467C144.299,219.498,140,237.324,140,256c0,63.963,52.038,116,116,116s116-52.037,116-116 s-52.038-116-116-116c-16.743,0-32.892,3.486-48,10.363c-5.027,2.287-10.956,0.068-13.244-4.959 c-2.288-5.026-0.068-10.956,4.959-13.244C217.442,124.091,236.379,120,256,120c74.991,0,136,61.01,136,136S330.991,392,256,392z"></path> <path style="fill:#5A55E1;" d="M321.025,225.062c-3.135,12.161-14.177,21.146-27.317,21.146c-15.579,0-28.208-12.629-28.208-28.208 c0-13.062,8.879-24.045,20.929-27.255C277.184,186.426,266.878,184,256,184c-39.765,0-72,32.235-72,72c0,39.764,32.235,72,72,72 c39.764,0,72-32.236,72-72C328,244.924,325.493,234.436,321.025,225.062z"></path> <path d="M256,426c-32.592,0-66.322-8.678-100.251-25.791c-26.889-13.563-53.923-32.405-80.352-56.003 c-23.789-21.241-42.375-42.179-53.777-56.003c-6.906-8.373-11.812-14.888-14.711-18.879C0.904,261.06,0,259.316,0,256 c0-3.163,0.808-5.088,6.866-13.554c2.844-3.974,7.71-10.506,14.744-19.06c11.323-13.77,29.847-34.659,53.799-55.979 C117.133,130.271,182.333,86,256,86c32.592,0,66.322,8.678,100.251,25.791c26.889,13.563,53.923,32.405,80.352,56.003 c23.789,21.241,42.375,42.179,53.777,56.003c6.906,8.373,11.812,14.888,14.711,18.879C511.096,250.94,512,252.684,512,256 c0,2.771,0,4.959-13.463,22.4c-6.625,8.582-17.639,22.085-32.486,37.673c-3.81,3.999-10.139,4.153-14.138,0.345 c-3.999-3.81-4.153-10.139-0.344-14.138c19.462-20.434,32.943-38.056,38.587-46.148c-8.5-11.954-33.897-44.611-70.35-76.491 C381.393,146.046,321.793,106,256,106c-65.78,0-125.227,39.709-163.514,73.021c-37.196,32.363-62.409,65.105-70.63,76.864 c8.511,11.967,33.901,44.608,70.338,76.475C130.607,365.954,190.207,406,256,406c46.473,0,95.055-19.291,144.396-57.338 c4.374-3.373,10.654-2.561,14.025,1.813c3.373,4.374,2.561,10.653-1.813,14.025C359.687,405.309,306.996,426,256,426z"></path> <path d="M256,338c-45.215,0-82-36.785-82-82s36.785-82,82-82c12.331,0,24.197,2.679,35.269,7.961 c3.796,1.812,6.053,5.805,5.647,9.99c-0.406,4.187-3.388,7.672-7.461,8.72c-7.944,2.044-13.492,9.213-13.492,17.433 c0,9.925,8.075,18,18,18c8.204,0,15.369-5.535,17.424-13.462c1.056-4.071,4.546-7.046,8.733-7.444 c4.189-0.399,8.176,1.867,9.98,5.665c5.242,11.039,7.9,22.861,7.9,35.138C338,301.215,301.215,338,256,338z M256,194 c-34.187,0-62,27.813-62,62s27.813,62,62,62s62-27.813,62-62c0-2.714-0.171-5.398-0.513-8.047c-6.533,5.146-14.748,8.15-23.524,8.15 c-20.953,0-38-17.047-38-38c0-8.805,3.019-17.038,8.187-23.577C261.468,194.176,258.75,194,256,194z"></path> <path d="M256,74c-5.523,0-10-4.478-10-10V10c0-5.522,4.477-10,10-10c5.523,0,10,4.478,10,10v54C266,69.522,261.523,74,256,74z"></path> <path d="M372.884,93.885c-2.559,0-5.118-0.977-7.071-2.929c-3.905-3.905-3.906-10.237,0-14.143l47.382-47.383 c3.905-3.904,10.237-3.904,14.142,0c3.905,3.905,3.905,10.237,0,14.143l-47.382,47.383 C378.003,92.908,375.443,93.885,372.884,93.885z"></path> <path d="M139.116,93.885c-2.56,0-5.118-0.977-7.071-2.929L84.662,43.573c-3.905-3.905-3.905-10.237,0-14.143 c3.905-3.904,10.236-3.903,14.142,0l47.382,47.383c3.905,3.905,3.905,10.237,0,14.143C144.234,92.908,141.675,93.885,139.116,93.885 z"></path> <path d="M256,512c-5.523,0-10-4.478-10-10v-54c0-5.522,4.477-10,10-10c5.523,0,10,4.478,10,10v54C266,507.522,261.523,512,256,512z"></path> <path d="M91.733,485.498c-2.559,0-5.118-0.977-7.071-2.929c-3.905-3.905-3.905-10.237,0-14.143l47.382-47.383 c3.905-3.904,10.237-3.904,14.142,0c3.905,3.905,3.906,10.237,0,14.143l-47.382,47.383 C96.852,484.521,94.292,485.498,91.733,485.498z"></path> <path d="M420.267,485.498c-2.56,0-5.118-0.977-7.071-2.929l-47.382-47.383c-3.905-3.905-3.905-10.237,0-14.143 c3.905-3.904,10.236-3.903,14.142,0l47.382,47.383c3.905,3.905,3.905,10.237,0,14.143 C425.385,484.521,422.826,485.498,420.267,485.498z"></path> <path d="M169.29,174.58c-2.63,0-5.21-1.07-7.07-2.931c-1.86-1.859-2.93-4.439-2.93-7.069s1.07-5.21,2.93-7.07 c1.86-1.86,4.44-2.93,7.07-2.93s5.21,1.069,7.07,2.93s2.93,4.44,2.93,7.07s-1.07,5.21-2.93,7.069 C174.5,173.51,171.92,174.58,169.29,174.58z"></path> <path d="M433.76,343.689c-2.63,0-5.21-1.069-7.07-2.93c-1.86-1.87-2.93-4.44-2.93-7.07c0-2.64,1.07-5.21,2.93-7.08 c1.86-1.859,4.44-2.92,7.07-2.92s5.21,1.061,7.07,2.92c1.86,1.86,2.93,4.44,2.93,7.08c0,2.63-1.07,5.2-2.93,7.07 C438.97,342.62,436.39,343.689,433.76,343.689z"></path> <g> </g> <g> </g> <g> </g> <g> </g> <g> </g> <g> </g> <g> </g> <g> </g> <g> </g> <g> </g> <g> </g> <g> </g> <g> </g> <g> </g> <g> </g> </svg> 