<svg xmlns="http://www.w3.org/2000/svg" viewBox="0 0 24 24"><path d="M10.5 11H13.5V9.5C13.5 8.7 12.8 8.2 12 8.2C11.2 8.2 10.5 8.7 10.5 9.5V11Z"/><path fill-rule="evenodd" d="M4.19 4.47L11.19 1.36C11.7 1.13 12.3 1.13 12.81 1.36L19.81 4.47C20.53 4.79 21 5.51 21 6.3V11C21 16.55 17.16 21.74 12 23C6.84 21.74 3 16.55 3 11V6.3C3 5.51 3.47 4.79 4.19 4.47ZM14.8 9.5V11C15.4 11 16 11.6 16 12.3V15.8C16 16.4 15.4 17 14.7 17H9.2C8.6 17 8 16.4 8 15.7V12.2C8 11.6 8.6 11 9.2 11V9.5C9.2 8.1 10.6 7 12 7C13.4 7 14.8 8.1 14.8 9.5Z" clip-rule="evenodd"/></svg>