<svg xmlns="http://www.w3.org/2000/svg" viewBox="0 0 24 24"><path fill-rule="evenodd" d="M2.83032 4.36538C2.83032 3.95916 2.99169 3.56957 3.27894 3.28233C3.56618 2.99508 3.95577 2.83371 4.36199 2.83371H19.6303C19.8316 2.83338 20.031 2.87276 20.2171 2.9496C20.4032 3.02644 20.5723 3.13922 20.7147 3.28149C20.8571 3.42376 20.9701 3.59273 21.0471 3.77872C21.1242 3.96471 21.1638 4.16407 21.1637 4.36538V19.6337C21.1639 19.8351 21.1244 20.0345 21.0475 20.2206C20.9705 20.4066 20.8577 20.5757 20.7153 20.7181C20.573 20.8606 20.404 20.9735 20.2179 21.0505C20.0319 21.1276 19.8325 21.1672 19.6312 21.167H4.36199C4.16078 21.167 3.96154 21.1274 3.77565 21.0504C3.58977 20.9733 3.42088 20.8605 3.27864 20.7181C3.1364 20.5758 3.0236 20.4069 2.94667 20.2209C2.86975 20.035 2.83021 19.8358 2.83032 19.6345V4.36538ZM10.087 9.82371H12.5695V11.0704C12.9278 10.3537 13.8445 9.70871 15.222 9.70871C17.8628 9.70871 18.4887 11.1362 18.4887 13.7554V18.607H15.8162V14.352C15.8162 12.8604 15.4578 12.0187 14.5478 12.0187C13.2853 12.0187 12.7603 12.9262 12.7603 14.352V18.607H10.087V9.82371ZM5.50366 18.4929H8.17699V9.70871H5.50366V18.492V18.4929ZM8.55949 6.84371C8.56453 7.07261 8.5238 7.3002 8.43969 7.51314C8.35558 7.72608 8.22978 7.92007 8.06968 8.08374C7.90958 8.2474 7.7184 8.37744 7.50737 8.46622C7.29633 8.555 7.06969 8.60073 6.84074 8.60073C6.61179 8.60073 6.38515 8.555 6.17411 8.46622C5.96307 8.37744 5.7719 8.2474 5.6118 8.08374C5.4517 7.92007 5.3259 7.72608 5.24179 7.51314C5.15768 7.3002 5.11695 7.07261 5.12199 6.84371C5.13188 6.39442 5.31731 5.96687 5.63856 5.65262C5.95981 5.33836 6.39134 5.16239 6.84074 5.16239C7.29014 5.16239 7.72167 5.33836 8.04292 5.65262C8.36417 5.96687 8.5496 6.39442 8.55949 6.84371Z" clip-rule="evenodd"/></svg>