<svg xmlns="http://www.w3.org/2000/svg" viewBox="0 0 24 24"><path d="M16.6896 14.5918H15.0996V19.5918C15.0996 20.1418 14.6496 20.5918 14.0996 20.5918H10.0996C9.54961 20.5918 9.09961 20.1418 9.09961 19.5918V14.5918H7.50961C6.61961 14.5918 6.16961 13.5118 6.79961 12.8818L11.3896 8.2918C11.7796 7.9018 12.4096 7.9018 12.7996 8.2918L17.3896 12.8818C18.0196 13.5118 17.5796 14.5918 16.6896 14.5918ZM5.09961 4.5918C5.09961 4.0418 5.54961 3.5918 6.09961 3.5918H18.0996C18.6496 3.5918 19.0996 4.0418 19.0996 4.5918C19.0996 5.1418 18.6496 5.5918 18.0996 5.5918H6.09961C5.54961 5.5918 5.09961 5.1418 5.09961 4.5918Z"/></svg>