<svg width="24" height="24" viewBox="0 0 24 24" fill="none" xmlns="http://www.w3.org/2000/svg">
    <path d="M6.202 14.6386C6.202 15.795 5.25736 16.7396 4.101 16.7396C2.94464 16.7396 2 15.795 2 14.6386C2 13.4822 2.94464 12.5376 4.101 12.5376H6.202V14.6386Z" fill="#E01E5A"/>
    <path d="M7.26025 14.6386C7.26025 13.4822 8.20489 12.5376 9.36125 12.5376C10.5176 12.5376 11.4623 13.4822 11.4623 14.6386V19.8992C11.4623 21.0556 10.5176 22.0003 9.36125 22.0003C8.20489 22.0003 7.26025 21.0556 7.26025 19.8992V14.6386Z" fill="#E01E5A"/>
    <path d="M9.36125 6.20201C8.20489 6.20201 7.26025 5.25737 7.26025 4.10101C7.26025 2.94464 8.20489 2 9.36125 2C10.5176 2 11.4623 2.94464 11.4623 4.10101V6.20201H9.36125Z" fill="#36C5F0"/>
    <path d="M9.36168 7.26065C10.518 7.26065 11.4627 8.20529 11.4627 9.36165C11.4627 10.518 10.518 11.4626 9.36168 11.4626H4.10101C2.94464 11.4626 2 10.518 2 9.36165C2 8.20529 2.94464 7.26065 4.10101 7.26065H9.36168Z" fill="#36C5F0"/>
    <path d="M17.7979 9.36165C17.7979 8.20529 18.7425 7.26065 19.8988 7.26065C21.0552 7.26065 21.9998 8.20529 21.9998 9.36165C21.9998 10.518 21.0552 11.4626 19.8988 11.4626H17.7979V9.36165Z" fill="#2EB67D"/>
    <path d="M16.7394 9.36165C16.7394 10.518 15.7947 11.4627 14.6384 11.4627C13.482 11.4627 12.5374 10.518 12.5374 9.36165V4.101C12.5374 2.94464 13.482 2 14.6384 2C15.7947 2 16.7394 2.94464 16.7394 4.101V9.36165Z" fill="#2EB67D"/>
    <path d="M14.6384 17.7982C15.7947 17.7982 16.7394 18.7429 16.7394 19.8992C16.7394 21.0556 15.7947 22.0002 14.6384 22.0002C13.482 22.0002 12.5374 21.0556 12.5374 19.8992V17.7982H14.6384Z" fill="#ECB22E"/>
    <path d="M14.6384 16.7396C13.482 16.7396 12.5374 15.795 12.5374 14.6386C12.5374 13.4822 13.482 12.5376 14.6384 12.5376H19.899C21.0554 12.5376 22 13.4822 22 14.6386C22 15.795 21.0554 16.7396 19.899 16.7396H14.6384Z" fill="#ECB22E"/>
</svg>
