<svg xmlns="http://www.w3.org/2000/svg" viewBox="0 0 24 24"><path d="M14 3H5C3.9 3 3 3.9 3 5V19C3 20.1 3.9 21 5 21H14C15.1 21 16 20.1 16 19V16C16 15.45 15.55 15 15 15C14.45 15 14 15.45 14 16V18C14 18.55 13.55 19 13 19H6C5.45 19 5 18.55 5 18V6C5 5.45 5.45 5 6 5H13C13.55 5 14 5.45 14 6V8C14 8.55 14.45 9 15 9C15.55 9 16 8.55 16 8V5C16 3.9 15.11 3 14 3Z"/><path d="M17.7409 16.2131C18.1284 16.5956 18.7544 16.5956 19.142 16.2131L22.7093 12.6916C23.0969 12.309 23.0969 11.691 22.7093 11.3084L19.142 7.78692C18.7544 7.40436 18.1284 7.40436 17.7409 7.78692C17.3533 8.16948 17.3533 8.78747 17.7409 9.17003L19.609 11.024H10.9937C10.4472 11.024 10 11.4654 10 12.0049C10 12.5444 10.4472 12.9858 10.9937 12.9858H19.609L17.7409 14.83C17.3533 15.2125 17.3633 15.8403 17.7409 16.2131Z"/></svg>