<svg width="24" height="24" viewBox="0 0 24 24" fill="none" xmlns="http://www.w3.org/2000/svg">
    <path d="M17.06 13C15.2 13 13.64 14.33 13.24 16.1C12.29 15.69 11.42 15.8 10.76 16.09C10.35 14.31 8.79 13 6.94 13C4.77 13 3 14.79 3 17C3 19.21 4.77 21 6.94 21C9 21 10.68 19.38 10.84 17.32C11.18 17.08 12.07 16.63 13.16 17.34C13.34 19.39 15 21 17.06 21C19.23 21 21 19.21 21 17C21 14.79 19.23 13 17.06 13ZM6.94 19.86C5.38 19.86 4.13 18.58 4.13 17C4.13 15.42 5.39 14.14 6.94 14.14C8.5 14.14 9.75 15.42 9.75 17C9.75 18.58 8.5 19.86 6.94 19.86ZM17.06 19.86C15.5 19.86 14.25 18.58 14.25 17C14.25 15.42 15.5 14.14 17.06 14.14C18.62 14.14 19.88 15.42 19.88 17C19.88 18.58 18.61 19.86 17.06 19.86ZM22 10.5H2V12H22V10.5ZM15.53 2.62999C15.31 2.13999 14.75 1.87999 14.22 2.04999L12 2.78999L9.77 2.04999L9.72 2.03999C9.19 1.88999 8.63 2.16999 8.43 2.67999L6 8.99999H18L15.56 2.67999L15.53 2.62999Z" fill="white"/>
</svg>
