<svg xmlns="http://www.w3.org/2000/svg" viewBox="0 0 24 24"><path d="M5.5 14C5.77614 14 6 13.7761 6 13.5 6 13.2239 5.77614 13 5.5 13 5.22386 13 5 13.2239 5 13.5 5 13.7761 5.22386 14 5.5 14zM7.5585 15C7.5585 15.2761 7.33465 15.5 7.0585 15.5 6.78236 15.5 6.5585 15.2761 6.5585 15 6.5585 14.7239 6.78236 14.5 7.0585 14.5 7.33465 14.5 7.5585 14.7239 7.5585 15zM17.5 15C17.7761 15 18 14.7761 18 14.5 18 14.2239 17.7761 14 17.5 14 17.2239 14 17 14.2239 17 14.5 17 14.7761 17.2239 15 17.5 15z"/><path fill-rule="evenodd" d="M21.903 12.3985C21.9009 12.4135 21.8988 12.4285 21.8966 12.4435C21.197 17.2823 17.0327 21 12 21C6.80836 21 2.54076 17.0438 2.04757 11.9816C2.0161 11.6587 2 11.3312 2 11C2 5.47715 6.47715 1 12 1C17.5228 1 22 5.47715 22 11C22 11.4746 21.9669 11.9415 21.903 12.3985ZM20.4213 12.1613C20.1222 12.1226 19.8683 12.3132 19.5895 12.5223C19.2858 12.7501 18.9528 13 18.5 13C17.6143 13 17.2081 12.3038 16.9467 11.7329C16.5921 14.1469 14.5125 16 12 16C9.49948 16 7.42768 14.1645 7.0585 11.7673C6.65281 11.7259 6.2407 11.7593 6 12C4.5 13 4 11.5 4 11.5C3.77784 11.4106 3.65115 11.3862 3.50993 11.4146C3.72615 15.9165 7.44458 19.5 12 19.5C16.3005 19.5 19.8551 16.3063 20.4213 12.1613ZM12.4053 2.00896C12.4874 2.0126 12.5693 2.01735 12.6509 2.02318C12.8533 2.08717 13 2.27645 13 2.5C13 2.77614 12.7761 3 12.5 3C12.2239 3 12 2.77614 12 2.5C12 2.25625 12.1744 2.05323 12.4053 2.00896ZM18.7903 5.09284C18.8442 5.15479 18.8973 5.21748 18.9496 5.28089C18.9819 5.34706 19 5.42141 19 5.5C19 5.77614 18.7761 6 18.5 6C18.2239 6 18 5.77614 18 5.5C18 5.22386 18.2239 5 18.5 5C18.6082 5 18.7084 5.03439 18.7903 5.09284ZM9 3.5C9 3.77614 8.77614 4 8.5 4C8.22386 4 8 3.77614 8 3.5C8 3.22386 8.22386 3 8.5 3C8.77614 3 9 3.22386 9 3.5ZM9 6.5C9 6.77614 8.77614 7 8.5 7C8.22386 7 8 6.77614 8 6.5C8 6.22386 8.22386 6 8.5 6C8.77614 6 9 6.22386 9 6.5ZM10.5 5C10.7761 5 11 4.77614 11 4.5C11 4.22386 10.7761 4 10.5 4C10.2239 4 10 4.22386 10 4.5C10 4.77614 10.2239 5 10.5 5ZM16 4.5C16 4.77614 15.7761 5 15.5 5C15.2239 5 15 4.77614 15 4.5C15 4.22386 15.2239 4 15.5 4C15.7761 4 16 4.22386 16 4.5ZM12.5 6C12.7761 6 13 5.77614 13 5.5C13 5.22386 12.7761 5 12.5 5C12.2239 5 12 5.22386 12 5.5C12 5.77614 12.2239 6 12.5 6ZM17 7.5C17 7.77614 16.7761 8 16.5 8C16.2239 8 16 7.77614 16 7.5C16 7.22386 16.2239 7 16.5 7C16.7761 7 17 7.22386 17 7.5ZM20 9.5C20 9.77614 19.7761 10 19.5 10C19.2239 10 19 9.77614 19 9.5C19 9.22386 19.2239 9 19.5 9C19.7761 9 20 9.22386 20 9.5ZM5.5 9C5.77614 9 6 8.77614 6 8.5C6 8.22386 5.77614 8 5.5 8C5.22386 8 5 8.22386 5 8.5C5 8.77614 5.22386 9 5.5 9ZM7 5.5C7 5.77614 6.77614 6 6.5 6C6.22386 6 6 5.77614 6 5.5C6 5.22386 6.22386 5 6.5 5C6.77614 5 7 5.22386 7 5.5ZM12 14.5C13.933 14.5 15.5 12.933 15.5 11C15.5 9.067 13.933 7.5 12 7.5C10.067 7.5 8.5 9.067 8.5 11C8.5 12.933 10.067 14.5 12 14.5Z" clip-rule="evenodd"/></svg>