<svg xmlns="http://www.w3.org/2000/svg" viewBox="0 0 24 24"><path d="M3.8999 16.5918V6.5918C3.8999 6.0418 3.4499 5.5918 2.8999 5.5918 2.3499 5.5918 1.8999 6.0418 1.8999 6.5918V16.5918C1.8999 17.1418 2.3499 17.5918 2.8999 17.5918 3.4499 17.5918 3.8999 17.1418 3.8999 16.5918zM19.38 10.5918L16.5 7.7118C16.11 7.3218 16.12 6.6818 16.5 6.2918 16.89 5.9018 17.52 5.9018 17.91 6.2918L22.5 10.8818C22.89 11.2718 22.89 11.9018 22.5 12.2918L17.91 16.8818C17.52 17.2718 16.89 17.2718 16.5 16.8818 16.11 16.4918 16.11 15.8618 16.5 15.4718L19.38 12.5918H6.21C5.66 12.5918 5.21 12.1418 5.21 11.5918 5.21 11.0418 5.66 10.5918 6.21 10.5918H19.38z"/></svg>