<svg xmlns="http://www.w3.org/2000/svg" viewBox="0 0 24 24"><path d="M22 15.0232V9.24966C22 8.27831 20.8376 7.78718 20.1596 8.47476L17.6949 10.985V7.16508C17.6949 6.5648 17.2105 6.07367 16.6186 6.07367H10.5807L20.1703 15.7981C20.8376 16.4857 22 15.9945 22 15.0232ZM2.31481 2.31924C1.89506 2.74488 1.89506 3.43247 2.31481 3.85812L4.4889 6.07367H3.70322C3.11126 6.07367 2.62693 6.5648 2.62693 7.16508V18.0791C2.62693 18.6794 3.11126 19.1705 3.70322 19.1705H16.6186C16.8446 19.1705 17.0383 19.0832 17.2105 18.9741L19.8797 21.6808C20.2995 22.1064 20.9775 22.1064 21.3973 21.6808C21.817 21.2551 21.817 20.5675 21.3973 20.1419L3.83237 2.31924C3.41262 1.89359 2.73456 1.89359 2.31481 2.31924Z"/></svg>