<svg xmlns="http://www.w3.org/2000/svg" viewBox="0 0 24 24"><path d="M16.6896 9.5918H15.0996V4.5918C15.0996 4.0418 14.6496 3.5918 14.0996 3.5918H10.0996C9.54961 3.5918 9.09961 4.0418 9.09961 4.5918V9.5918H7.50961C6.61961 9.5918 6.16961 10.6718 6.79961 11.3018L11.3896 15.8918C11.7796 16.2818 12.4096 16.2818 12.7996 15.8918L17.3896 11.3018C18.0196 10.6718 17.5796 9.5918 16.6896 9.5918ZM5.09961 19.5918C5.09961 20.1418 5.54961 20.5918 6.09961 20.5918H18.0996C18.6496 20.5918 19.0996 20.1418 19.0996 19.5918C19.0996 19.0418 18.6496 18.5918 18.0996 18.5918H6.09961C5.54961 18.5918 5.09961 19.0418 5.09961 19.5918Z"/></svg>