<svg xmlns="http://www.w3.org/2000/svg" viewBox="0 0 24 24"><path d="M22.0001 12.2293C22.0001 11.5496 21.9439 10.8662 21.8239 10.1975H12.2017V14.048H17.7119C17.4832 15.2898 16.7485 16.3883 15.6727 17.0864V19.5848H18.9601C20.8905 17.8433 22.0001 15.2714 22.0001 12.2293Z"/><path d="M12.2016 21.9986C14.953 21.9986 17.2733 21.1132 18.9638 19.5848L15.6764 17.0864C14.7618 17.6963 13.5811 18.0417 12.2054 18.0417C9.544 18.0417 7.28744 16.2818 6.47778 13.9157H3.08545V16.4912C4.81723 19.8677 8.3445 21.9986 12.2016 21.9986Z"/><path d="M6.47377 13.9157C6.04644 12.6738 6.04644 11.3291 6.47377 10.0873V7.51176H3.08517C1.63828 10.3371 1.63828 13.6658 3.08517 16.4912L6.47377 13.9157Z"/><path d="M12.2016 5.95764C13.656 5.93559 15.0617 6.47201 16.115 7.45666L19.0275 4.60191C17.1833 2.90449 14.7356 1.97128 12.2016 2.00067C8.3445 2.00067 4.81723 4.13163 3.08545 7.51177L6.47403 10.0873C7.27995 7.71752 9.54026 5.95764 12.2016 5.95764Z"/></svg>