<svg xmlns="http://www.w3.org/2000/svg" viewBox="0 0 24 24"><path d="M22.7366 11.3844L12.9488 1.91763L12 1L4.63211 8.12619L1.26342 11.3844C1.09474 11.5477 1 11.7691 1 12C1 12.2309 1.09474 12.4523 1.26342 12.6156L7.9948 19.1262L12 23L19.3679 15.8738L19.482 15.7635L22.7366 12.6156C22.9053 12.4523 23 12.2309 23 12C23 11.7691 22.9053 11.5477 22.7366 11.3844ZM12 15.2524L8.63731 12L12 8.74762L15.3627 12L12 15.2524Z"/><path d="M12.0001 8.74851C10.9425 7.72547 10.3463 6.33926 10.3418 4.89256C10.3373 3.44586 10.9248 2.0562 11.9761 1.02702L4.61719 8.1416L8.62239 12.0154L12.0001 8.74851Z"/><path d="M15.3717 11.9913L12 15.2524C12.5262 15.761 12.9436 16.3649 13.2284 17.0296C13.5131 17.6943 13.6597 18.4067 13.6597 19.1262C13.6597 19.8457 13.5131 20.5581 13.2284 21.2228C12.9436 21.8875 12.5262 22.4914 12 23L19.3769 15.8651L15.3717 11.9913Z"/><defs><linearGradient id="paint0_linear_4535_640" x1="11.3996" x2="6.86042" y1="5.45839" y2="10.1515" gradientUnits="userSpaceOnUse"><stop offset="0.18" stop-color="#0052CC"/><stop offset="1" stop-color="#2684FF"/></linearGradient><linearGradient id="paint1_linear_4535_640" x1="298.076" x2="457.015" y1="675.597" y2="569.093" gradientUnits="userSpaceOnUse"><stop offset="0.18" stop-color="#0052CC"/><stop offset="1" stop-color="#2684FF"/></linearGradient></defs></svg>