<svg xmlns="http://www.w3.org/2000/svg" viewBox="0 0 24 24"><path d="M13 17C13.5523 17 14 16.5523 14 16 14 15.4477 13.5523 15 13 15H8C7.44772 15 7 15.4477 7 16 7 16.5523 7.44772 17 8 17H13zM16 13C16.5523 13 17 12.5523 17 12 17 11.4477 16.5523 11 16 11H8C7.44772 11 7 11.4477 7 12 7 12.5523 7.44772 13 8 13H16zM16 9C16.5523 9 17 8.55228 17 8 17 7.44772 16.5523 7 16 7H8C7.44772 7 7 7.44772 7 8 7 8.55228 7.44772 9 8 9H16z"/><path fill-rule="evenodd" d="M5 3H19C20.1 3 21 3.9 21 5V19C21 20.1 20.1 21 19 21H5C3.9 21 3 20.1 3 19V5C3 3.9 3.9 3 5 3ZM5 19H19V5H5V19Z" clip-rule="evenodd"/></svg>