<svg xmlns="http://www.w3.org/2000/svg" viewBox="0 0 24 24"><path d="M3.45 10.8571C5.35538 10.8571 6.9 9.32212 6.9 7.42857C6.9 5.53502 5.35538 4 3.45 4C1.54462 4 0 5.53502 0 7.42857C0 9.32212 1.54462 10.8571 3.45 10.8571Z"/><path d="M3.45 13.1429C6.62564 13.1429 9.2 10.5845 9.2 7.42857C9.2 7.03718 9.16041 6.65498 9.08498 6.28571H17.25C17.8825 6.28571 18.4 6.8 18.4 7.42857V11.4286L21.0335 8.8C21.758 8.08 23 8.59429 23 9.61143V16.6629C23 17.68 21.758 18.1943 21.0335 17.4743L18.4 14.8571V18.8571C18.4 19.4857 17.8825 20 17.25 20H3.45C2.8175 20 2.3 19.4857 2.3 18.8571V13.0286C2.67158 13.1035 3.05616 13.1429 3.45 13.1429Z"/></svg>