<svg xmlns="http://www.w3.org/2000/svg" viewBox="0 0 24 24"><path d="M17.06 14C15.2 14 13.64 15.33 13.24 17.1C12.29 16.69 11.42 16.8 10.76 17.09C10.35 15.31 8.79 14 6.94 14C4.77 14 3 15.79 3 18C3 20.21 4.77 22 6.94 22C9 22 10.68 20.38 10.84 18.32C11.18 18.08 12.07 17.63 13.16 18.34C13.34 20.39 15 22 17.06 22C19.23 22 21 20.21 21 18C21 15.79 19.23 14 17.06 14ZM6.94 20.86C5.38 20.86 4.13 19.58 4.13 18C4.13 16.42 5.39 15.14 6.94 15.14C8.5 15.14 9.75 16.42 9.75 18C9.75 19.58 8.5 20.86 6.94 20.86ZM17.06 20.86C15.5 20.86 14.25 19.58 14.25 18C14.25 16.42 15.5 15.14 17.06 15.14C18.62 15.14 19.88 16.42 19.88 18C19.88 19.58 18.61 20.86 17.06 20.86ZM23 10.5C23 9.94771 22.5523 9.49999 22 9.49999H2C1.44772 9.49999 1 9.94771 1 10.5V11C1 11.5523 1.44772 12 2 12H22C22.5523 12 23 11.5523 23 11V10.5ZM15.53 1.62999C15.31 1.13999 14.75 0.879994 14.22 1.04999L12 1.78999L9.77 1.04999L9.72 1.03999C9.19 0.889994 8.63 1.16999 8.43 1.67999L6.52248 6.64111C6.27064 7.2961 6.75413 7.99999 7.45586 7.99999H16.542C17.2443 7.99999 17.7278 7.29502 17.4749 6.63983L15.56 1.67999L15.53 1.62999Z"/><path d="M6.94 20.86C5.38 20.86 4.13 19.58 4.13 18 4.13 16.42 5.39 15.14 6.94 15.14 8.5 15.14 9.75 16.42 9.75 18 9.75 19.58 8.5 20.86 6.94 20.86zM17.06 20.86C15.5 20.86 14.25 19.58 14.25 18 14.25 16.42 15.5 15.14 17.06 15.14 18.62 15.14 19.88 16.42 19.88 18 19.88 19.58 18.61 20.86 17.06 20.86z"/></svg>