<svg xmlns="http://www.w3.org/2000/svg" viewBox="0 0 24 24"><path d="M11 2C9.89543 2 9 2.89543 9 4H5.5C4.94772 4 4.5 4.44772 4.5 5C4.5 5.55228 4.94772 6 5.5 6H18.5C19.0523 6 19.5 5.55228 19.5 5C19.5 4.44772 19.0523 4 18.5 4H15C15 2.89543 14.1046 2 13 2H11Z"/><path fill-rule="evenodd" d="M18 8H6V20C6 21.1046 6.89543 22 8 22H16C17.1046 22 18 21.1046 18 20V8ZM10 11C9.44772 11 9 11.4477 9 12V18C9 18.5523 9.44772 19 10 19C10.5523 19 11 18.5523 11 18V12C11 11.4477 10.5523 11 10 11ZM13 12C13 11.4477 13.4477 11 14 11C14.5523 11 15 11.4477 15 12V18C15 18.5523 14.5523 19 14 19C13.4477 19 13 18.5523 13 18V12Z" clip-rule="evenodd"/></svg>