<svg xmlns="http://www.w3.org/2000/svg" viewBox="0 0 24 24"><path d="M18.9596 4.4518L21.7496 7.2418C21.9396 7.4318 21.9396 7.7518 21.7396 7.9418L18.9496 10.7318C18.6396 11.0518 18.0996 10.8318 18.0996 10.3818V8.5918H4.09961C3.54961 8.5918 3.09961 8.1418 3.09961 7.5918 3.09961 7.0418 3.54961 6.5918 4.09961 6.5918H18.0996V4.8018C18.0996 4.3518 18.6396 4.1318 18.9596 4.4518zM5.23938 18.7318L2.44938 15.9418C2.25938 15.7518 2.25938 15.4318 2.45938 15.2418L5.24938 12.4518C5.55938 12.1318 6.09938 12.3518 6.09938 12.8018V14.5918H20.0994C20.6494 14.5918 21.0994 15.0418 21.0994 15.5918 21.0994 16.1418 20.6494 16.5918 20.0994 16.5918H6.09938V18.3818C6.09938 18.8318 5.55938 19.0518 5.23938 18.7318z"/></svg>