<svg xmlns="http://www.w3.org/2000/svg" viewBox="0 0 24 24"><path d="M14.7273 12.0027C16.7364 12.0027 18.3636 10.3754 18.3636 8.36634C18.3636 6.35725 16.7364 4.72998 14.7273 4.72998C12.7182 4.72998 11.0909 6.35725 11.0909 8.36634C11.0909 10.3754 12.7182 12.0027 14.7273 12.0027ZM6.54545 10.1845V8.36634C6.54545 7.86634 6.13636 7.45725 5.63636 7.45725C5.13636 7.45725 4.72727 7.86634 4.72727 8.36634V10.1845H2.90909C2.40909 10.1845 2 10.5936 2 11.0936C2 11.5936 2.40909 12.0027 2.90909 12.0027H4.72727V13.8209C4.72727 14.3209 5.13636 14.73 5.63636 14.73C6.13636 14.73 6.54545 14.3209 6.54545 13.8209V12.0027H8.36364C8.86364 12.0027 9.27273 11.5936 9.27273 11.0936C9.27273 10.5936 8.86364 10.1845 8.36364 10.1845H6.54545ZM14.7273 13.8209C12.3 13.8209 7.45455 15.0391 7.45455 17.4573V18.3663C7.45455 18.8663 7.86364 19.2754 8.36364 19.2754H21.0909C21.5909 19.2754 22 18.8663 22 18.3663V17.4573C22 15.0391 17.1545 13.8209 14.7273 13.8209Z"/></svg>