<svg xmlns="http://www.w3.org/2000/svg" viewBox="0 0 40 40"><path d="M20.0004 39.2859C30.6515 39.2859 39.2859 30.6515 39.2859 20.0004C39.2859 9.34928 30.6515 0.714844 20.0004 0.714844C9.34928 0.714844 0.714844 9.34928 0.714844 20.0004C0.714844 30.6515 9.34928 39.2859 20.0004 39.2859Z"/><path d="M20.0001 0C8.97195 0 0 8.97195 0 19.9999C0 31.028 8.97195 40 20.0001 40C31.028 40 40 31.028 40 19.9999C40 8.97195 31.028 0 20.0001 0ZM20.0001 38.5704C9.76031 38.5704 1.42961 30.2398 1.42961 19.9999C1.42961 9.76023 9.76023 1.42961 20.0001 1.42961C30.2398 1.42961 38.5704 9.76023 38.5704 19.9999C38.5704 30.2397 30.2397 38.5704 20.0001 38.5704Z"/><path fill-opacity="0.48" d="M20.0001 0C8.97195 0 0 8.97195 0 19.9999C0 31.028 8.97195 40 20.0001 40C31.028 40 40 31.028 40 19.9999C40 8.97195 31.028 0 20.0001 0ZM20.0001 38.5704C9.76031 38.5704 1.42961 30.2398 1.42961 19.9999C1.42961 9.76023 9.76023 1.42961 20.0001 1.42961C30.2398 1.42961 38.5704 9.76023 38.5704 19.9999C38.5704 30.2397 30.2397 38.5704 20.0001 38.5704Z"/><path d="M10.2929 13.1716C9.90237 13.5621 9.90237 14.1952 10.2929 14.5858L11.7071 16L10.2929 17.4142C9.90237 17.8047 9.90237 18.4379 10.2929 18.8284C10.6834 19.2189 11.3166 19.2189 11.7071 18.8284L13.1213 17.4142L14.5355 18.8284C14.9261 19.2189 15.5592 19.2189 15.9497 18.8284C16.3403 18.4379 16.3403 17.8047 15.9497 17.4142L14.5355 16L15.9497 14.5858C16.3403 14.1952 16.3403 13.5621 15.9497 13.1716C15.5592 12.781 14.9261 12.781 14.5355 13.1716L13.1213 14.5858L11.7071 13.1716C11.3166 12.781 10.6834 12.781 10.2929 13.1716Z"/><path fill-opacity="0.48" d="M10.2929 13.1716C9.90237 13.5621 9.90237 14.1952 10.2929 14.5858L11.7071 16L10.2929 17.4142C9.90237 17.8047 9.90237 18.4379 10.2929 18.8284C10.6834 19.2189 11.3166 19.2189 11.7071 18.8284L13.1213 17.4142L14.5355 18.8284C14.9261 19.2189 15.5592 19.2189 15.9497 18.8284C16.3403 18.4379 16.3403 17.8047 15.9497 17.4142L14.5355 16L15.9497 14.5858C16.3403 14.1952 16.3403 13.5621 15.9497 13.1716C15.5592 12.781 14.9261 12.781 14.5355 13.1716L13.1213 14.5858L11.7071 13.1716C11.3166 12.781 10.6834 12.781 10.2929 13.1716Z"/><path d="M24.2929 13.1716C23.9024 13.5621 23.9024 14.1952 24.2929 14.5858L25.7071 16L24.2929 17.4142C23.9024 17.8047 23.9024 18.4379 24.2929 18.8284C24.6834 19.2189 25.3166 19.2189 25.7071 18.8284L27.1213 17.4142L28.5355 18.8284C28.9261 19.2189 29.5592 19.2189 29.9497 18.8284C30.3403 18.4379 30.3403 17.8047 29.9497 17.4142L28.5355 16L29.9497 14.5858C30.3403 14.1952 30.3403 13.5621 29.9497 13.1716C29.5592 12.781 28.9261 12.781 28.5355 13.1716L27.1213 14.5858L25.7071 13.1716C25.3166 12.781 24.6834 12.781 24.2929 13.1716Z"/><path fill-opacity="0.48" d="M24.2929 13.1716C23.9024 13.5621 23.9024 14.1952 24.2929 14.5858L25.7071 16L24.2929 17.4142C23.9024 17.8047 23.9024 18.4379 24.2929 18.8284C24.6834 19.2189 25.3166 19.2189 25.7071 18.8284L27.1213 17.4142L28.5355 18.8284C28.9261 19.2189 29.5592 19.2189 29.9497 18.8284C30.3403 18.4379 30.3403 17.8047 29.9497 17.4142L28.5355 16L29.9497 14.5858C30.3403 14.1952 30.3403 13.5621 29.9497 13.1716C29.5592 12.781 28.9261 12.781 28.5355 13.1716L27.1213 14.5858L25.7071 13.1716C25.3166 12.781 24.6834 12.781 24.2929 13.1716Z"/><rect width="12" height="2" x="14" y="26" rx="1"/><rect width="12" height="2" x="14" y="26" fill-opacity="0.48" rx="1"/></svg>