<svg xmlns="http://www.w3.org/2000/svg" viewBox="0 0 24 24"><path d="M8.93565 5.85565L11.7257 3.06565C11.9157 2.87565 12.2357 2.87565 12.4257 3.07565L15.2157 5.86565C15.5357 6.17565 15.3157 6.71565 14.8657 6.71565H13.0757V11H17.36V9.21001C17.36 8.76001 17.9 8.54001 18.22 8.86001L21.01 11.65C21.2 11.84 21.2 12.16 21 12.35L18.21 15.14C17.9 15.46 17.36 15.24 17.36 14.79V13H13.0757V17.2844H14.8657C15.3157 17.2844 15.5357 17.8244 15.2157 18.1344L12.4257 20.9244C12.2357 21.1244 11.9157 21.1244 11.7257 20.9344L8.93565 18.1444C8.61565 17.8244 8.83565 17.2844 9.28565 17.2844H11.0757L11.0757 13L6.79127 13L6.79127 14.79C6.79127 15.24 6.25127 15.46 5.93127 15.14L3.14127 12.35C2.95127 12.16 2.95127 11.84 3.15127 11.65L5.94127 8.86001C6.25127 8.54001 6.79127 8.76001 6.79127 9.21001V11L11.0757 11L11.0757 6.71565H9.28565C8.83565 6.71565 8.61565 6.17565 8.93565 5.85565Z"/></svg>