<svg xmlns="http://www.w3.org/2000/svg" viewBox="0 0 24 24"><path d="M19.6914 5.37139C19.9542 4.71453 19.4704 4 18.763 4H6.23999V3C6.23999 2.44772 5.79227 2 5.23999 2C4.68771 2 4.23999 2.44772 4.23999 3V21C4.23999 21.5523 4.68771 22 5.23999 22C5.79227 22 6.23999 21.5523 6.23999 21V14H18.763C19.4704 14 19.9542 13.2855 19.6914 12.6286L18.3885 9.37139C18.2932 9.13298 18.2932 8.86702 18.3885 8.62861L19.6914 5.37139ZM16.38 9.74L17.28 12H6.23999V6H17.29L16.39 8.26L16.2398 8.63057C16.1436 8.86778 16.142 9.13283 16.2354 9.37115L16.38 9.74ZM13.24 9C13.24 10.1 12.34 11 11.24 11C10.14 11 9.23999 10.1 9.23999 9C9.23999 7.9 10.14 7 11.24 7C12.34 7 13.24 7.9 13.24 9Z"/></svg>