<svg xmlns="http://www.w3.org/2000/svg" viewBox="0 0 24 24"><path fill-rule="evenodd" d="M8.76522 3C7.67572 3 6.67185 3.59068 6.14275 4.54307L2.80941 10.5431C2.30604 11.4491 2.30604 12.5509 2.80941 13.4569L6.14275 19.4569C6.67185 20.4093 7.67572 21 8.76522 21H15.2348C16.3243 21 17.3282 20.4093 17.8573 19.4569L21.1906 13.4569C21.694 12.5509 21.694 11.4491 21.1906 10.5431L17.8573 4.54307C17.3282 3.59068 16.3243 3 15.2348 3H8.76522ZM12 16C14.2091 16 16 14.2091 16 12C16 9.79086 14.2091 8 12 8C9.79085 8 7.99999 9.79086 7.99999 12C7.99999 14.2091 9.79085 16 12 16Z" clip-rule="evenodd"/></svg>