<svg xmlns="http://www.w3.org/2000/svg" viewBox="0 0 91 19"><path d="M83.6437 18.2685C82.9107 18.3326 82.3618 17.6099 82.6203 16.921L88.3324 1.69724C88.4676 1.33673 88.7979 1.0859 89.1815 1.05234L89.7343 1.00398C90.4673.939849 91.0162 1.66258 90.7577 2.35147L85.0456 17.5752C84.9103 17.9358 84.5801 18.1866 84.1965 18.2201L83.6437 18.2685zM65.6214 14.9019C65.6214 15.1228 65.8005 15.3019 66.0214 15.3019H68.6234C68.8443 15.3019 69.0234 15.1228 69.0234 14.9019V8.69988C69.0234 8.47897 69.2025 8.29988 69.4234 8.29988H70.8014C71.0223 8.29988 71.2014 8.1208 71.2014 7.89988V6.07188C71.2014 5.85097 71.0223 5.67188 70.8014 5.67188H69.2034C69.0742 5.67188 68.9694 5.56712 68.9694 5.43788 68.9694 4.82588 69.2934 4.51988 69.9414 4.51988 70.1932 4.51988 70.4429 4.54231 70.6907 4.58715 70.9565 4.63527 71.2194 4.44301 71.2194 4.17288V2.6035C71.2194 2.42685 71.1038 2.26975 70.9319 2.22912 70.3868 2.1003 69.7386 2.03588 68.9874 2.03588 67.8594 2.03588 67.0134 2.31788 66.4494 2.88188 65.8974 3.43388 65.6214 4.27388 65.6214 5.40189 65.6214 5.52118 65.5247 5.61788 65.4054 5.61788H64.8874C64.6665 5.61788 64.4874 5.79697 64.4874 6.01788V7.89988C64.4874 8.1208 64.6665 8.29988 64.8874 8.29988H65.2214C65.4423 8.29988 65.6214 8.47897 65.6214 8.69988V14.9019zM13.7824 15.3019C13.5615 15.3019 13.3824 15.1228 13.3824 14.9019V2.56188C13.3824 2.34097 13.5615 2.16188 13.7824 2.16188H16.4024C16.6234 2.16188 16.8024 2.34097 16.8024 2.56188V5.7316C16.8024 6.1123 17.3173 6.30245 17.6184 6.06947 18.2401 5.58841 18.9401 5.34788 19.7184 5.34788 20.7504 5.34788 21.5604 5.67188 22.1484 6.31988 22.7364 6.95588 23.0304 7.82588 23.0304 8.92988V14.9019C23.0304 15.1228 22.8514 15.3019 22.6304 15.3019H20.0104C19.7895 15.3019 19.6104 15.1228 19.6104 14.9019V10.0279C19.6104 9.51188 19.4844 9.10988 19.2324 8.82188 18.9924 8.53388 18.6624 8.38988 18.2424 8.38988 17.8104 8.38988 17.4624 8.53388 17.1984 8.82188 16.9344 9.10988 16.8024 9.51188 16.8024 10.0279V14.9019C16.8024 15.1228 16.6234 15.3019 16.4024 15.3019H13.7824zM6.498 15.5539C4.674 15.5539 3.132 14.9359 1.872 13.6999.624 12.4519 0 10.8859 0 9.00188 0 7.15388.63 5.59988 1.89 4.33988 3.162 3.07988 4.746 2.44988 6.642 2.44988 8.75235 2.44988 10.4382 3.23526 11.6995 4.806 11.8346 4.97423 11.7987 5.21873 11.6281 5.35086L9.68884 6.85309C9.51631 6.98674 9.26976 6.95583 9.12069 6.79644 8.39708 6.02274 7.55885 5.63589 6.606 5.63589 5.73 5.63589 5.01 5.95988 4.446 6.60788 3.882 7.25588 3.6 8.05388 3.6 9.00188 3.6 9.96188 3.882 10.7659 4.446 11.4139 5.01 12.0499 5.73 12.3679 6.606 12.3679 7.218 12.3679 7.74 12.2419 8.172 11.9899 8.52047 11.7769 8.86503 11.4859 9.20569 11.1168 9.34755 10.9631 9.58163 10.9317 9.752 11.053L11.7477 12.4746C11.9294 12.604 11.9708 12.8577 11.8308 13.0314 11.2284 13.7787 10.5428 14.3736 9.774 14.8159 8.898 15.3079 7.806 15.5539 6.498 15.5539z"/><path fill-rule="evenodd" d="M24.7906 17.7819C24.7906 18.0028 24.9697 18.1819 25.1906 18.1819H27.8106C28.0316 18.1819 28.2106 18.0028 28.2106 17.7819V15.1934C28.2106 14.8223 28.7 14.6289 29.003 14.8431 29.6395 15.293 30.3654 15.5179 31.1806 15.5179 32.3806 15.5179 33.3946 15.0559 34.2226 14.1319 35.0626 13.1959 35.4826 11.9599 35.4826 10.4239 35.4826 8.89988 35.0626 7.67588 34.2226 6.75188 33.3826 5.81588 32.3626 5.34788 31.1626 5.34788 30.3159 5.34788 29.5551 5.62596 28.8805 6.18212 28.633 6.38617 28.2106 6.22637 28.2106 5.90558 28.2106 5.71687 28.0577 5.56388 27.8689 5.56388H25.1906C24.9697 5.56388 24.7906 5.74297 24.7906 5.96388V17.7819zM31.5406 12.0259C31.1566 12.4459 30.6826 12.6559 30.1186 12.6559 29.5666 12.6559 29.0986 12.4459 28.7146 12.0259 28.3306 11.6059 28.1386 11.0779 28.1386 10.4419 28.1386 9.79388 28.3306 9.25988 28.7146 8.83988 29.0986 8.41988 29.5666 8.20988 30.1186 8.20988 30.6826 8.20988 31.1566 8.41988 31.5406 8.83988 31.9246 9.24788 32.1166 9.76989 32.1166 10.4059 32.1166 11.0659 31.9246 11.6059 31.5406 12.0259zM41.9227 15.5359C40.3867 15.5359 39.1087 15.0439 38.0887 14.0599 37.0687 13.0639 36.5587 11.8579 36.5587 10.4419 36.5587 9.03788 37.0687 7.83788 38.0887 6.84188 39.1207 5.84588 40.4107 5.34788 41.9587 5.34788 43.4947 5.34788 44.7727 5.84588 45.7927 6.84188 46.8127 7.82588 47.3227 9.02588 47.3227 10.4419 47.3227 11.8459 46.8067 13.0459 45.7747 14.0419 44.7547 15.0379 43.4707 15.5359 41.9227 15.5359zM41.9587 12.6379C42.5707 12.6379 43.0627 12.4279 43.4347 12.0079 43.8067 11.5879 43.9927 11.0659 43.9927 10.4419 43.9927 9.84188 43.7947 9.32588 43.3987 8.89388 43.0027 8.46188 42.5107 8.24588 41.9227 8.24588 41.3107 8.24588 40.8187 8.45588 40.4467 8.87588 40.0747 9.29588 39.8887 9.81788 39.8887 10.4419 39.8887 11.0419 40.0867 11.5579 40.4827 11.9899 40.8787 12.4219 41.3707 12.6379 41.9587 12.6379z" clip-rule="evenodd"/><path d="M48.7672 14.9019C48.7672 15.1228 48.9463 15.3019 49.1672 15.3019H51.7872C52.0081 15.3019 52.1872 15.1228 52.1872 14.9019V13.1642C52.1872 13.0685 52.2215 12.976 52.2839 12.9034L52.7058 12.4126C52.8843 12.205 53.2138 12.234 53.3533 12.4695L54.915 15.1058C54.987 15.2273 55.1179 15.3019 55.2592 15.3019H58.0893C58.3997 15.3019 58.5918 14.9638 58.433 14.6972L55.4671 9.71812C55.3788 9.56994 55.3955 9.38186 55.5084 9.2515L58.1297 6.2258C58.3542 5.96676 58.1702 5.56388 57.8274 5.56388H55.0236C54.9032 5.56388 54.7891 5.61819 54.7131 5.71171L52.8977 7.94705C52.6603 8.23942 52.1872 8.07152 52.1872 7.69488V2.56188C52.1872 2.34097 52.0081 2.16188 51.7872 2.16188H49.1672C48.9463 2.16188 48.7672 2.34097 48.7672 2.56188V14.9019zM60.0849 15.3019C59.864 15.3019 59.6849 15.1228 59.6849 14.9019V5.96388C59.6849 5.74297 59.864 5.56388 60.0849 5.56388H62.7049C62.9258 5.56388 63.1049 5.74297 63.1049 5.96388V14.9019C63.1049 15.1228 62.9258 15.3019 62.7049 15.3019H60.0849zM60.0129 4.68188C59.792 4.68188 59.6129 4.5028 59.6129 4.28188V2.56188C59.6129 2.34097 59.792 2.16188 60.0129 2.16188H62.7769C62.9978 2.16188 63.1769 2.34097 63.1769 2.56188V4.28188C63.1769 4.5028 62.9978 4.68188 62.7769 4.68188H60.0129zM75.1667 18.2359C74.2015 18.2359 73.2649 18.0106 72.3572 17.5601 72.1721 17.4682 72.0988 17.2455 72.1826 17.0566L72.9127 15.4107C73.0104 15.1906 73.2783 15.1082 73.4944 15.2146 73.9051 15.4168 74.2706 15.5179 74.5907 15.5179 74.8479 15.5179 75.0628 15.4406 75.2356 15.286 75.338 15.1944 75.3518 15.0445 75.3009 14.9168L71.7856 6.1122C71.6808 5.84949 71.8743 5.56388 72.1571 5.56388H74.8599C75.0323 5.56388 75.1853 5.6744 75.2396 5.83809L76.7021 10.2529C76.8243 10.6217 77.3476 10.6174 77.4636 10.2465L78.841 5.84444C78.8932 5.67752 79.0478 5.56388 79.2227 5.56388H81.8615C82.1408 5.56388 82.3341 5.84283 82.2361 6.10433L78.8747 15.0679C78.4427 16.2199 77.9567 17.0359 77.4167 17.5159 76.8767 17.9959 76.1267 18.2359 75.1667 18.2359z"/></svg>