<svg xmlns="http://www.w3.org/2000/svg" viewBox="0 0 24 24"><path d="M20 6.5H19V12.5C19 14 17.5 15.5 16 15.5H6V16.5C6 17.6 6.9 18.5 8 18.5H18L21.3172 20.8172C21.5691 21.0691 22 20.8907 22 20.5343V8.5C22 7.4 21.1 6.5 20 6.5Z"/><path fill-rule="evenodd" d="M17 11.5V4.5C17 3.4 16.1 2.5 15 2.5H4C2.9 2.5 2 3.4 2 4.5V16.5343C2 16.8907 2.43086 17.0691 2.68284 16.8172L6 13.5H15C16.1 13.5 17 12.6 17 11.5ZM5.00001 6.5C5.00001 5.94772 5.44772 5.5 6.00001 5.5H13C13.5523 5.5 14 5.94772 14 6.5C14 7.05228 13.5523 7.5 13 7.5H6.00001C5.44772 7.5 5.00001 7.05228 5.00001 6.5ZM6.00001 8.5C5.44772 8.5 5.00001 8.94772 5.00001 9.5C5.00001 10.0523 5.44772 10.5 6.00001 10.5H13C13.5523 10.5 14 10.0523 14 9.5C14 8.94772 13.5523 8.5 13 8.5H6.00001Z" clip-rule="evenodd"/></svg>