<svg xmlns="http://www.w3.org/2000/svg" viewBox="0 0 24 24"><path stroke-width="2" d="M5 4H19C19.5545 4 20 4.44903 20 5V19C20 19.551 19.5545 20 19 20H5C4.44554 20 4 19.551 4 19V5C4 4.44903 4.44554 4 5 4Z"/><path fill-rule="evenodd" d="M19 5H5V19H19V5ZM9.29289 16.2929C9.68342 16.6834 10.3166 16.6834 10.7071 16.2929L18.2954 8.70461C18.6849 8.31506 18.6857 7.68343 18.2975 7.29251C17.9074 6.89963 17.2719 6.89811 16.8804 7.28961L10 14.17L7.11549 11.2935C6.7257 10.9048 6.09474 10.9053 5.70549 11.2945C5.31586 11.6841 5.31586 12.3159 5.70549 12.7055L9.29289 16.2929Z" clip-rule="evenodd"/></svg>