<svg xmlns="http://www.w3.org/2000/svg" viewBox="0 0 24 24"><path d="M11 5.41253L9.12003 7.29253C8.73003 7.68253 8.10003 7.68253 7.71003 7.29253C7.32003 6.90253 7.32003 6.27253 7.71003 5.88253L11.3 2.29253C11.69 1.90253 12.32 1.90253 12.71 2.29253L16.3 5.88253C16.69 6.27253 16.69 6.90253 16.3 7.29253C15.91 7.68253 15.28 7.68253 14.89 7.29253L13 5.41253V14.0825C13 14.6325 12.55 15.0825 12 15.0825C11.45 15.0825 11 14.6325 11 14.0825V5.41253Z"/><path d="M5 19V13C5 12.45 4.55 12 4 12C3.45 12 3 12.45 3 13V20C3 21.1 3.9 22 5 22H19C20.1 22 21 21.1 21 20V13C21 12.45 20.55 12 20 12C19.45 12 19 12.45 19 13V19C19 19.55 18.55 20 18 20H6C5.45 20 5 19.55 5 19Z"/></svg>