<svg xmlns="http://www.w3.org/2000/svg" viewBox="0 0 24 24"><path d="M19.46 7.99999L20.25 6.24999L22 5.45999C22.39 5.27999 22.39 4.72999 22 4.54999L20.25 3.75999L19.46 1.99999C19.28 1.60999 18.73 1.60999 18.55 1.99999L17.76 3.74999L16 4.53999C15.61 4.71999 15.61 5.26999 16 5.44999L17.75 6.23999L18.54 7.99999C18.72 8.38999 19.28 8.38999 19.46 7.99999ZM11.5 9.49999L9.91004 5.99999C9.56004 5.21999 8.44004 5.21999 8.09004 5.99999L6.50004 9.49999L3.00004 11.09C2.22004 11.45 2.22004 12.56 3.00004 12.91L6.50004 14.5L8.09004 18C8.45004 18.78 9.56004 18.78 9.91004 18L11.5 14.5L15 12.91C15.78 12.55 15.78 11.44 15 11.09L11.5 9.49999ZM18.54 16L17.75 17.75L16 18.54C15.61 18.72 15.61 19.27 16 19.45L17.75 20.24L18.54 22C18.72 22.39 19.27 22.39 19.45 22L20.24 20.25L22 19.46C22.39 19.28 22.39 18.73 22 18.55L20.25 17.76L19.46 16C19.28 15.61 18.72 15.61 18.54 16Z"/></svg>