<svg xmlns="http://www.w3.org/2000/svg" viewBox="0 0 24 24"><path d="M19.5 2H4.5C3.11929 2 2 3.11929 2 4.5V19.5C2 20.8807 3.11929 22 4.5 22H19.5C20.8807 22 22 20.8807 22 19.5V4.5C22 3.11929 20.8807 2 19.5 2Z"/><path d="M18.2001 4.59999H14.5C13.8373 4.59999 13.3 5.13725 13.3 5.79999V12.15C13.3 12.8127 13.8373 13.35 14.5 13.35H18.2001C18.8628 13.35 19.4001 12.8127 19.4001 12.15V5.79999C19.4001 5.13725 18.8628 4.59999 18.2001 4.59999zM9.5001 4.59999H5.8001C5.13736 4.59999 4.6001 5.13725 4.6001 5.79999V17.15C4.6001 17.8127 5.13736 18.35 5.8001 18.35H9.5001C10.1628 18.35 10.7001 17.8127 10.7001 17.15V5.79999C10.7001 5.13725 10.1628 4.59999 9.5001 4.59999z"/></svg>