<svg xmlns="http://www.w3.org/2000/svg" viewBox="0 0 24 24"><path d="M2 16C2 14.8954 2.89543 14 4 14H6C7.10457 14 8 14.8954 8 16V18C8 19.1046 7.10457 20 6 20H4C2.89543 20 2 19.1046 2 18V16zM20 9C20 8.44772 19.5523 8 19 8H11C10.4477 8 10 8.44772 10 9 10 9.55228 10.4477 10 11 10H19C19.5523 10 20 9.55228 20 9zM2 8C2 9.10457 2.89543 10 4 10H6C7.10457 10 8 9.10457 8 8V6C8 4.89543 7.10457 4 6 4H4C2.89543 4 2 4.89543 2 6V8zM11 4C10.4477 4 10 4.44772 10 5 10 5.55228 10.4477 6 11 6H21C21.5523 6 22 5.55228 22 5 22 4.44772 21.5523 4 21 4H11zM10 19C10 19.5523 10.4477 20 11 20H15C15.5523 20 16 19.5523 16 19 16 18.4477 15.5523 18 15 18H11C10.4477 18 10 18.4477 10 19zM21 16H11C10.4477 16 10 15.5523 10 15 10 14.4477 10.4477 14 11 14H21C21.5523 14 22 14.4477 22 15 22 15.5523 21.5523 16 21 16z"/></svg>