<svg xmlns="http://www.w3.org/2000/svg" viewBox="0 0 24 24"><path d="M23 11C23 11.5523 22.5523 12 22 12H18C17.4477 12 17 11.5523 17 11V10.7335C17 10.2599 17.1681 9.80171 17.4742 9.44042L20.39 6H18C17.4477 6 17 5.55228 17 5C17 4.44772 17.4477 4 18 4H22C22.5523 4 23 4.44772 23 5V5.26815C23 5.74073 22.8327 6.19804 22.5276 6.559L19.62 10H22C22.5523 10 23 10.4477 23 11ZM15 15C15 15.5523 14.5523 16 14 16H10C9.44772 16 9 15.5523 9 15V14.7335C9 14.2599 9.16805 13.8017 9.47424 13.4404L12.39 10H10C9.44772 10 9 9.55228 9 9C9 8.44772 9.44772 8 10 8H14C14.5523 8 15 8.44772 15 9V9.26815C15 9.74073 14.8327 10.198 14.5276 10.559L11.62 14H14C14.5523 14 15 14.4477 15 15ZM7 19C7 19.5523 6.55228 20 6 20H2C1.44772 20 1 19.5523 1 19V18.7335C1 18.2599 1.16805 17.8017 1.47424 17.4404L4.39 14H2C1.44772 14 1 13.5523 1 13C1 12.4477 1.44772 12 2 12H6C6.55228 12 7 12.4477 7 13V13.2681C7 13.7407 6.83266 14.198 6.52764 14.559L3.62 18H6C6.55228 18 7 18.4477 7 19Z"/></svg>