<svg xmlns="http://www.w3.org/2000/svg" viewBox="0 0 24 24"><path d="M6 7C6 6.44771 6.44772 6 7 6H10C10.5523 6 11 6.44772 11 7V17C11 17.5523 10.5523 18 10 18H7C6.44772 18 6 17.5523 6 17V7zM14 6C13.4477 6 13 6.44772 13 7V13C13 13.5523 13.4477 14 14 14H17C17.5523 14 18 13.5523 18 13V7C18 6.44772 17.5523 6 17 6H14z"/><path fill-rule="evenodd" d="M4 2C2.89543 2 2 2.89543 2 4V20C2 21.1046 2.89543 22 4 22H20C21.1046 22 22 21.1046 22 20V4C22 2.89543 21.1046 2 20 2H4ZM20 4H4V20H20V4Z" clip-rule="evenodd"/></svg>