<?xml version="1.0" encoding="UTF-8"?> <svg xmlns="http://www.w3.org/2000/svg" width="460" height="340" viewBox="0 0 460 340" fill="none"> <g clip-path="url(#clip0_322_26069)"> <rect width="460" height="340" rx="8" fill="#F6F6F6"></rect> <g filter="url(#filter0_d_322_26069)"> <rect x="16" y="14" width="427" height="519" rx="12" fill="white"></rect> <path d="M48.616 62.288C47.48 62.288 46.456 62.112 45.544 61.76C44.632 61.392 43.856 60.856 43.216 60.152C42.576 59.432 42.08 58.544 41.728 57.488C41.376 56.416 41.2 55.168 41.2 53.744C41.2 52.336 41.376 51.088 41.728 50C42.08 48.896 42.576 47.976 43.216 47.24C43.856 46.488 44.632 45.92 45.544 45.536C46.456 45.152 47.48 44.96 48.616 44.96C50.168 44.96 51.448 45.28 52.456 45.92C53.464 46.544 54.272 47.536 54.88 48.896L51.736 50.528C51.512 49.824 51.16 49.264 50.68 48.848C50.216 48.416 49.528 48.2 48.616 48.2C47.544 48.2 46.68 48.552 46.024 49.256C45.384 49.944 45.064 50.952 45.064 52.28V54.968C45.064 56.296 45.384 57.312 46.024 58.016C46.68 58.704 47.544 59.048 48.616 59.048C49.512 59.048 50.224 58.808 50.752 58.328C51.296 57.832 51.696 57.24 51.952 56.552L54.928 58.28C54.304 59.56 53.48 60.552 52.456 61.256C51.448 61.944 50.168 62.288 48.616 62.288ZM57.2888 44.24H60.8408V51.536H60.9848C61.2088 50.88 61.6008 50.312 62.1608 49.832C62.7208 49.352 63.4968 49.112 64.4888 49.112C65.7848 49.112 66.7608 49.544 67.4168 50.408C68.0888 51.272 68.4248 52.504 68.4248 54.104V62H64.8728V54.392C64.8728 53.576 64.7448 52.976 64.4888 52.592C64.2328 52.192 63.7768 51.992 63.1208 51.992C62.8328 51.992 62.5528 52.032 62.2808 52.112C62.0088 52.176 61.7608 52.288 61.5368 52.448C61.3288 52.608 61.1608 52.808 61.0328 53.048C60.9048 53.272 60.8408 53.536 60.8408 53.84V62H57.2888V44.24ZM76.6977 62.288C75.7697 62.288 74.9377 62.136 74.2017 61.832C73.4817 61.528 72.8657 61.088 72.3537 60.512C71.8577 59.936 71.4737 59.24 71.2017 58.424C70.9297 57.608 70.7937 56.696 70.7937 55.688C70.7937 54.68 70.9297 53.768 71.2017 52.952C71.4737 52.136 71.8577 51.448 72.3537 50.888C72.8657 50.312 73.4817 49.872 74.2017 49.568C74.9377 49.264 75.7697 49.112 76.6977 49.112C77.6257 49.112 78.4497 49.264 79.1697 49.568C79.9057 49.872 80.5217 50.312 81.0177 50.888C81.5297 51.448 81.9217 52.136 82.1937 52.952C82.4657 53.768 82.6017 54.68 82.6017 55.688C82.6017 56.696 82.4657 57.608 82.1937 58.424C81.9217 59.24 81.5297 59.936 81.0177 60.512C80.5217 61.088 79.9057 61.528 79.1697 61.832C78.4497 62.136 77.6257 62.288 76.6977 62.288ZM76.6977 59.48C77.4017 59.48 77.9457 59.264 78.3297 58.832C78.7137 58.4 78.9057 57.784 78.9057 56.984V54.416C78.9057 53.616 78.7137 53 78.3297 52.568C77.9457 52.136 77.4017 51.92 76.6977 51.92C75.9937 51.92 75.4497 52.136 75.0657 52.568C74.6817 53 74.4897 53.616 74.4897 54.416V56.984C74.4897 57.784 74.6817 58.4 75.0657 58.832C75.4497 59.264 75.9937 59.48 76.6977 59.48ZM90.2446 62.288C89.3166 62.288 88.4846 62.136 87.7486 61.832C87.0286 61.528 86.4126 61.088 85.9006 60.512C85.4046 59.936 85.0206 59.24 84.7486 58.424C84.4766 57.608 84.3406 56.696 84.3406 55.688C84.3406 54.68 84.4766 53.768 84.7486 52.952C85.0206 52.136 85.4046 51.448 85.9006 50.888C86.4126 50.312 87.0286 49.872 87.7486 49.568C88.4846 49.264 89.3166 49.112 90.2446 49.112C91.1726 49.112 91.9966 49.264 92.7166 49.568C93.4526 49.872 94.0686 50.312 94.5646 50.888C95.0766 51.448 95.4686 52.136 95.7406 52.952C96.0126 53.768 96.1486 54.68 96.1486 55.688C96.1486 56.696 96.0126 57.608 95.7406 58.424C95.4686 59.24 95.0766 59.936 94.5646 60.512C94.0686 61.088 93.4526 61.528 92.7166 61.832C91.9966 62.136 91.1726 62.288 90.2446 62.288ZM90.2446 59.48C90.9486 59.48 91.4926 59.264 91.8766 58.832C92.2606 58.4 92.4526 57.784 92.4526 56.984V54.416C92.4526 53.616 92.2606 53 91.8766 52.568C91.4926 52.136 90.9486 51.92 90.2446 51.92C89.5406 51.92 88.9966 52.136 88.6126 52.568C88.2286 53 88.0366 53.616 88.0366 54.416V56.984C88.0366 57.784 88.2286 58.4 88.6126 58.832C88.9966 59.264 89.5406 59.48 90.2446 59.48ZM102.951 62.288C101.735 62.288 100.711 62.096 99.8794 61.712C99.0474 61.312 98.3034 60.752 97.6474 60.032L99.7354 57.92C100.183 58.416 100.679 58.808 101.223 59.096C101.767 59.384 102.383 59.528 103.071 59.528C103.775 59.528 104.263 59.424 104.535 59.216C104.807 58.992 104.943 58.696 104.943 58.328C104.943 57.736 104.519 57.384 103.671 57.272L102.303 57.104C99.4714 56.752 98.0554 55.456 98.0554 53.216C98.0554 52.608 98.1674 52.056 98.3914 51.56C98.6314 51.048 98.9594 50.616 99.3754 50.264C99.8074 49.896 100.319 49.616 100.911 49.424C101.519 49.216 102.199 49.112 102.951 49.112C103.607 49.112 104.183 49.16 104.679 49.256C105.191 49.336 105.639 49.464 106.023 49.64C106.423 49.8 106.783 50.008 107.103 50.264C107.439 50.504 107.767 50.776 108.087 51.08L106.047 53.168C105.647 52.768 105.191 52.456 104.679 52.232C104.183 51.992 103.671 51.872 103.143 51.872C102.535 51.872 102.103 51.968 101.847 52.16C101.591 52.352 101.463 52.608 101.463 52.928C101.463 53.264 101.551 53.528 101.727 53.72C101.919 53.896 102.271 54.024 102.783 54.104L104.199 54.296C106.967 54.664 108.351 55.928 108.351 58.088C108.351 58.696 108.223 59.256 107.967 59.768C107.711 60.28 107.343 60.728 106.863 61.112C106.399 61.48 105.831 61.768 105.159 61.976C104.503 62.184 103.767 62.288 102.951 62.288ZM116.029 62.288C115.069 62.288 114.213 62.136 113.461 61.832C112.709 61.512 112.069 61.072 111.541 60.512C111.029 59.936 110.637 59.24 110.365 58.424C110.109 57.608 109.981 56.696 109.981 55.688C109.981 54.696 110.109 53.8 110.365 53C110.621 52.184 110.997 51.488 111.493 50.912C112.005 50.336 112.629 49.896 113.365 49.592C114.101 49.272 114.941 49.112 115.885 49.112C116.925 49.112 117.813 49.288 118.549 49.64C119.301 49.992 119.909 50.464 120.373 51.056C120.853 51.648 121.197 52.336 121.405 53.12C121.629 53.888 121.741 54.696 121.741 55.544V56.6H113.653V56.792C113.653 57.624 113.877 58.288 114.325 58.784C114.773 59.264 115.477 59.504 116.437 59.504C117.173 59.504 117.773 59.36 118.237 59.072C118.701 58.768 119.133 58.408 119.533 57.992L121.309 60.2C120.749 60.856 120.013 61.368 119.101 61.736C118.205 62.104 117.181 62.288 116.029 62.288ZM115.957 51.728C115.237 51.728 114.669 51.968 114.253 52.448C113.853 52.912 113.653 53.536 113.653 54.32V54.512H118.069V54.296C118.069 53.528 117.893 52.912 117.541 52.448C117.205 51.968 116.677 51.728 115.957 51.728ZM139.234 62C138.594 62 138.058 61.8 137.626 61.4C137.21 61 136.946 60.464 136.834 59.792H136.69C136.498 60.608 136.074 61.232 135.418 61.664C134.762 62.08 133.954 62.288 132.994 62.288C131.73 62.288 130.762 61.952 130.09 61.28C129.418 60.608 129.082 59.72 129.082 58.616C129.082 57.288 129.562 56.304 130.522 55.664C131.498 55.008 132.818 54.68 134.482 54.68H136.474V53.888C136.474 53.28 136.314 52.8 135.994 52.448C135.674 52.08 135.138 51.896 134.386 51.896C133.682 51.896 133.122 52.048 132.706 52.352C132.29 52.656 131.946 53 131.674 53.384L129.562 51.512C130.074 50.76 130.714 50.176 131.482 49.76C132.266 49.328 133.322 49.112 134.65 49.112C136.442 49.112 137.786 49.504 138.682 50.288C139.578 51.072 140.026 52.216 140.026 53.72V59.24H141.202V62H139.234ZM134.314 59.816C134.906 59.816 135.41 59.688 135.826 59.432C136.258 59.176 136.474 58.76 136.474 58.184V56.696H134.746C133.354 56.696 132.658 57.168 132.658 58.112V58.472C132.658 58.936 132.802 59.28 133.09 59.504C133.378 59.712 133.786 59.816 134.314 59.816ZM153.674 62C152.442 62 151.506 61.688 150.866 61.064C150.242 60.44 149.93 59.528 149.93 58.328V52.16H148.154V49.4H149.042C149.522 49.4 149.85 49.288 150.026 49.064C150.202 48.824 150.29 48.488 150.29 48.056V45.992H153.482V49.4H155.978V52.16H153.482V59.24H155.786V62H153.674ZM163.607 62.288C162.647 62.288 161.791 62.136 161.039 61.832C160.287 61.512 159.647 61.072 159.119 60.512C158.607 59.936 158.215 59.24 157.943 58.424C157.687 57.608 157.559 56.696 157.559 55.688C157.559 54.696 157.687 53.8 157.943 53C158.199 52.184 158.575 51.488 159.071 50.912C159.583 50.336 160.207 49.896 160.943 49.592C161.679 49.272 162.519 49.112 163.463 49.112C164.503 49.112 165.391 49.288 166.127 49.64C166.879 49.992 167.487 50.464 167.951 51.056C168.431 51.648 168.775 52.336 168.983 53.12C169.207 53.888 169.319 54.696 169.319 55.544V56.6H161.231V56.792C161.231 57.624 161.455 58.288 161.903 58.784C162.351 59.264 163.055 59.504 164.015 59.504C164.751 59.504 165.351 59.36 165.815 59.072C166.279 58.768 166.711 58.408 167.111 57.992L168.887 60.2C168.327 60.856 167.591 61.368 166.679 61.736C165.783 62.104 164.759 62.288 163.607 62.288ZM163.535 51.728C162.815 51.728 162.247 51.968 161.831 52.448C161.431 52.912 161.231 53.536 161.231 54.32V54.512H165.647V54.296C165.647 53.528 165.471 52.912 165.119 52.448C164.783 51.968 164.255 51.728 163.535 51.728ZM176.916 62.288C175.972 62.288 175.132 62.136 174.396 61.832C173.66 61.512 173.044 61.072 172.548 60.512C172.052 59.936 171.676 59.24 171.42 58.424C171.164 57.608 171.036 56.696 171.036 55.688C171.036 54.68 171.164 53.776 171.42 52.976C171.676 52.16 172.052 51.464 172.548 50.888C173.044 50.312 173.66 49.872 174.396 49.568C175.132 49.264 175.972 49.112 176.916 49.112C178.196 49.112 179.26 49.4 180.108 49.976C180.972 50.552 181.588 51.36 181.956 52.4L179.076 53.648C178.964 53.168 178.732 52.76 178.38 52.424C178.028 52.088 177.54 51.92 176.916 51.92C176.196 51.92 175.652 52.16 175.284 52.64C174.916 53.104 174.732 53.736 174.732 54.536V56.888C174.732 57.688 174.916 58.32 175.284 58.784C175.652 59.248 176.196 59.48 176.916 59.48C177.556 59.48 178.06 59.312 178.428 58.976C178.812 58.624 179.092 58.168 179.268 57.608L182.028 58.808C181.612 60.008 180.964 60.888 180.084 61.448C179.22 62.008 178.164 62.288 176.916 62.288ZM184.226 44.24H187.778V51.536H187.922C188.146 50.88 188.538 50.312 189.098 49.832C189.658 49.352 190.434 49.112 191.426 49.112C192.722 49.112 193.698 49.544 194.354 50.408C195.026 51.272 195.362 52.504 195.362 54.104V62H191.81V54.392C191.81 53.576 191.682 52.976 191.426 52.592C191.17 52.192 190.714 51.992 190.058 51.992C189.77 51.992 189.49 52.032 189.218 52.112C188.946 52.176 188.698 52.288 188.474 52.448C188.266 52.608 188.098 52.808 187.97 53.048C187.842 53.272 187.778 53.536 187.778 53.84V62H184.226V44.24ZM198.523 62V49.4H202.075V51.536H202.219C202.443 50.88 202.835 50.312 203.395 49.832C203.955 49.352 204.731 49.112 205.723 49.112C207.019 49.112 207.995 49.544 208.651 50.408C209.323 51.272 209.659 52.504 209.659 54.104V62H206.107V54.392C206.107 53.576 205.979 52.976 205.723 52.592C205.467 52.192 205.011 51.992 204.355 51.992C204.067 51.992 203.787 52.032 203.515 52.112C203.243 52.176 202.995 52.288 202.771 52.448C202.563 52.608 202.395 52.808 202.267 53.048C202.139 53.272 202.075 53.536 202.075 53.84V62H198.523ZM214.596 48.056C213.876 48.056 213.348 47.896 213.012 47.576C212.692 47.24 212.532 46.816 212.532 46.304V45.776C212.532 45.264 212.692 44.848 213.012 44.528C213.348 44.192 213.876 44.024 214.596 44.024C215.316 44.024 215.836 44.192 216.156 44.528C216.492 44.848 216.66 45.264 216.66 45.776V46.304C216.66 46.816 216.492 47.24 216.156 47.576C215.836 47.896 215.316 48.056 214.596 48.056ZM212.82 49.4H216.372V62H212.82V49.4ZM227.415 59.888H227.295C227.199 60.224 227.047 60.544 226.839 60.848C226.631 61.136 226.375 61.392 226.071 61.616C225.783 61.824 225.447 61.984 225.063 62.096C224.695 62.224 224.311 62.288 223.911 62.288C222.311 62.288 221.103 61.728 220.287 60.608C219.471 59.472 219.063 57.832 219.063 55.688C219.063 53.544 219.471 51.912 220.287 50.792C221.103 49.672 222.311 49.112 223.911 49.112C224.727 49.112 225.447 49.336 226.071 49.784C226.711 50.232 227.119 50.808 227.295 51.512H227.415V49.4H230.967V66.8H227.415V59.888ZM225.087 59.408C225.759 59.408 226.311 59.248 226.743 58.928C227.191 58.592 227.415 58.136 227.415 57.56V53.84C227.415 53.264 227.191 52.816 226.743 52.496C226.311 52.16 225.759 51.992 225.087 51.992C224.415 51.992 223.855 52.232 223.407 52.712C222.975 53.176 222.759 53.808 222.759 54.608V56.792C222.759 57.592 222.975 58.232 223.407 58.712C223.855 59.176 224.415 59.408 225.087 59.408ZM241.729 59.888H241.609C241.497 60.208 241.345 60.512 241.153 60.8C240.977 61.088 240.745 61.344 240.457 61.568C240.169 61.792 239.825 61.968 239.425 62.096C239.041 62.224 238.593 62.288 238.081 62.288C236.785 62.288 235.801 61.864 235.129 61.016C234.473 60.152 234.145 58.92 234.145 57.32V49.4H237.697V57.008C237.697 57.776 237.833 58.368 238.105 58.784C238.377 59.2 238.841 59.408 239.497 59.408C239.769 59.408 240.041 59.368 240.313 59.288C240.585 59.208 240.825 59.096 241.033 58.952C241.241 58.792 241.409 58.6 241.537 58.376C241.665 58.152 241.729 57.888 241.729 57.584V49.4H245.281V62H241.729V59.888ZM253.842 62.288C252.882 62.288 252.026 62.136 251.274 61.832C250.522 61.512 249.882 61.072 249.354 60.512C248.842 59.936 248.45 59.24 248.178 58.424C247.922 57.608 247.794 56.696 247.794 55.688C247.794 54.696 247.922 53.8 248.178 53C248.434 52.184 248.81 51.488 249.306 50.912C249.818 50.336 250.442 49.896 251.178 49.592C251.914 49.272 252.754 49.112 253.698 49.112C254.738 49.112 255.626 49.288 256.362 49.64C257.114 49.992 257.722 50.464 258.186 51.056C258.666 51.648 259.01 52.336 259.218 53.12C259.442 53.888 259.554 54.696 259.554 55.544V56.6H251.466V56.792C251.466 57.624 251.69 58.288 252.138 58.784C252.586 59.264 253.29 59.504 254.25 59.504C254.986 59.504 255.586 59.36 256.05 59.072C256.514 58.768 256.946 58.408 257.346 57.992L259.122 60.2C258.562 60.856 257.826 61.368 256.914 61.736C256.018 62.104 254.994 62.288 253.842 62.288ZM253.77 51.728C253.05 51.728 252.482 51.968 252.066 52.448C251.666 52.912 251.466 53.536 251.466 54.32V54.512H255.882V54.296C255.882 53.528 255.706 52.912 255.354 52.448C255.018 51.968 254.49 51.728 253.77 51.728Z" fill="#141414"></path> <rect x="41" y="93" width="377" height="102" rx="7" fill="white"></rect> <rect x="41" y="93" width="377" height="102" rx="7" fill="#141414" fill-opacity="0.04"></rect> <rect x="57" y="113" width="62" height="62" rx="3" fill="white"></rect> <rect x="57" y="113" width="62" height="62" rx="3" fill="#141414" fill-opacity="0.04"></rect> <rect x="64" y="120" width="12" height="48" rx="4" fill="#3D5AFE"></rect> <rect x="82" y="120" width="12" height="48" rx="4" fill="#3D5AFE"></rect> <rect x="100" y="120" width="12" height="48" rx="4" fill="#3D5AFE"></rect> <rect x="57" y="113" width="62" height="62" rx="3" stroke="#3D5AFE" stroke-width="2"></rect> <path d="M145.584 128.672H145.536L144.72 130.304L142.544 134.256L140.416 130.32L139.568 128.56H139.52V136H137.232V124.832H139.808L142.544 130.064H142.576L145.28 124.832H147.872V136H145.584V128.672ZM156.421 136C155.995 136 155.637 135.867 155.349 135.6C155.072 135.333 154.896 134.976 154.821 134.528H154.725C154.597 135.072 154.315 135.488 153.877 135.776C153.44 136.053 152.901 136.192 152.261 136.192C151.419 136.192 150.773 135.968 150.325 135.52C149.877 135.072 149.653 134.48 149.653 133.744C149.653 132.859 149.973 132.203 150.613 131.776C151.264 131.339 152.144 131.12 153.253 131.12H154.581V130.592C154.581 130.187 154.475 129.867 154.261 129.632C154.048 129.387 153.691 129.264 153.189 129.264C152.72 129.264 152.347 129.365 152.069 129.568C151.792 129.771 151.563 130 151.381 130.256L149.973 129.008C150.315 128.507 150.741 128.117 151.253 127.84C151.776 127.552 152.48 127.408 153.365 127.408C154.56 127.408 155.456 127.669 156.053 128.192C156.651 128.715 156.949 129.477 156.949 130.48V134.16H157.733V136H156.421ZM153.141 134.544C153.536 134.544 153.872 134.459 154.149 134.288C154.437 134.117 154.581 133.84 154.581 133.456V132.464H153.429C152.501 132.464 152.037 132.779 152.037 133.408V133.648C152.037 133.957 152.133 134.187 152.325 134.336C152.517 134.475 152.789 134.544 153.141 134.544ZM164.475 134.592H164.395C164.331 134.816 164.229 135.029 164.091 135.232C163.952 135.424 163.781 135.595 163.579 135.744C163.387 135.883 163.163 135.989 162.907 136.064C162.661 136.149 162.405 136.192 162.139 136.192C161.072 136.192 160.267 135.819 159.723 135.072C159.179 134.315 158.907 133.221 158.907 131.792C158.907 130.363 159.179 129.275 159.723 128.528C160.267 127.781 161.072 127.408 162.139 127.408C162.683 127.408 163.163 127.557 163.579 127.856C164.005 128.155 164.277 128.539 164.395 129.008H164.475V124.16H166.843V136H164.475V134.592ZM162.923 134.272C163.371 134.272 163.739 134.165 164.027 133.952C164.325 133.728 164.475 133.424 164.475 133.04V130.56C164.475 130.176 164.325 129.877 164.027 129.664C163.739 129.44 163.371 129.328 162.923 129.328C162.475 129.328 162.101 129.488 161.803 129.808C161.515 130.117 161.371 130.539 161.371 131.072V132.528C161.371 133.061 161.515 133.488 161.803 133.808C162.101 134.117 162.475 134.272 162.923 134.272ZM170.433 136.176C169.953 136.176 169.596 136.059 169.361 135.824C169.137 135.579 169.025 135.269 169.025 134.896V134.576C169.025 134.203 169.137 133.899 169.361 133.664C169.596 133.419 169.953 133.296 170.433 133.296C170.913 133.296 171.265 133.419 171.489 133.664C171.724 133.899 171.841 134.203 171.841 134.576V134.896C171.841 135.269 171.724 135.579 171.489 135.824C171.265 136.059 170.913 136.176 170.433 136.176ZM181.536 136.192C180.554 136.192 179.722 136.027 179.039 135.696C178.357 135.355 177.776 134.917 177.296 134.384L178.896 132.768C179.653 133.621 180.586 134.048 181.696 134.048C182.293 134.048 182.736 133.925 183.024 133.68C183.312 133.435 183.456 133.109 183.456 132.704C183.456 132.395 183.37 132.139 183.2 131.936C183.029 131.723 182.682 131.579 182.16 131.504L181.056 131.36C179.872 131.211 179.002 130.853 178.448 130.288C177.904 129.723 177.632 128.971 177.632 128.032C177.632 127.531 177.728 127.072 177.92 126.656C178.112 126.24 178.384 125.883 178.736 125.584C179.098 125.285 179.536 125.056 180.048 124.896C180.57 124.725 181.162 124.64 181.824 124.64C182.666 124.64 183.408 124.773 184.048 125.04C184.688 125.307 185.237 125.696 185.696 126.208L184.08 127.84C183.813 127.531 183.488 127.28 183.104 127.088C182.73 126.885 182.256 126.784 181.68 126.784C181.136 126.784 180.73 126.88 180.464 127.072C180.197 127.264 180.064 127.531 180.064 127.872C180.064 128.256 180.165 128.533 180.368 128.704C180.581 128.875 180.922 128.997 181.391 129.072L182.496 129.248C183.648 129.429 184.501 129.787 185.056 130.32C185.61 130.843 185.888 131.589 185.888 132.56C185.888 133.093 185.792 133.584 185.6 134.032C185.408 134.48 185.125 134.864 184.752 135.184C184.389 135.504 183.936 135.755 183.392 135.936C182.848 136.107 182.229 136.192 181.536 136.192ZM193.984 136C193.557 136 193.2 135.867 192.912 135.6C192.635 135.333 192.459 134.976 192.384 134.528H192.288C192.16 135.072 191.877 135.488 191.44 135.776C191.003 136.053 190.464 136.192 189.824 136.192C188.981 136.192 188.336 135.968 187.888 135.52C187.44 135.072 187.216 134.48 187.216 133.744C187.216 132.859 187.536 132.203 188.176 131.776C188.827 131.339 189.707 131.12 190.816 131.12H192.144V130.592C192.144 130.187 192.037 129.867 191.824 129.632C191.611 129.387 191.253 129.264 190.752 129.264C190.283 129.264 189.909 129.365 189.632 129.568C189.355 129.771 189.125 130 188.944 130.256L187.536 129.008C187.877 128.507 188.304 128.117 188.816 127.84C189.339 127.552 190.043 127.408 190.928 127.408C192.123 127.408 193.019 127.669 193.616 128.192C194.213 128.715 194.512 129.477 194.512 130.48V134.16H195.296V136H193.984ZM190.704 134.544C191.099 134.544 191.435 134.459 191.712 134.288C192 134.117 192.144 133.84 192.144 133.456V132.464H190.992C190.064 132.464 189.6 132.779 189.6 133.408V133.648C189.6 133.957 189.696 134.187 189.888 134.336C190.08 134.475 190.352 134.544 190.704 134.544ZM202.037 134.592H201.957C201.893 134.816 201.792 135.029 201.653 135.232C201.515 135.424 201.344 135.595 201.141 135.744C200.949 135.883 200.725 135.989 200.469 136.064C200.224 136.149 199.968 136.192 199.701 136.192C198.635 136.192 197.829 135.819 197.285 135.072C196.741 134.315 196.469 133.221 196.469 131.792C196.469 130.363 196.741 129.275 197.285 128.528C197.829 127.781 198.635 127.408 199.701 127.408C200.245 127.408 200.725 127.557 201.141 127.856C201.568 128.155 201.84 128.539 201.957 129.008H202.037V124.16H204.405V136H202.037V134.592ZM200.485 134.272C200.933 134.272 201.301 134.165 201.589 133.952C201.888 133.728 202.037 133.424 202.037 133.04V130.56C202.037 130.176 201.888 129.877 201.589 129.664C201.301 129.44 200.933 129.328 200.485 129.328C200.037 129.328 199.664 129.488 199.365 129.808C199.077 130.117 198.933 130.539 198.933 131.072V132.528C198.933 133.061 199.077 133.488 199.365 133.808C199.664 134.117 200.037 134.272 200.485 134.272ZM207.996 136.176C207.516 136.176 207.158 136.059 206.924 135.824C206.7 135.579 206.588 135.269 206.588 134.896V134.576C206.588 134.203 206.7 133.899 206.924 133.664C207.158 133.419 207.516 133.296 207.996 133.296C208.476 133.296 208.828 133.419 209.052 133.664C209.286 133.899 209.404 134.203 209.404 134.576V134.896C209.404 135.269 209.286 135.579 209.052 135.824C208.828 136.059 208.476 136.176 207.996 136.176ZM222.57 134.224H222.49C222.405 134.789 222.117 135.259 221.626 135.632C221.135 136.005 220.469 136.192 219.626 136.192C218.986 136.192 218.389 136.069 217.834 135.824C217.279 135.579 216.794 135.216 216.378 134.736C215.962 134.256 215.637 133.659 215.402 132.944C215.167 132.229 215.05 131.403 215.05 130.464C215.05 129.525 215.173 128.693 215.418 127.968C215.663 127.243 216.005 126.635 216.442 126.144C216.89 125.653 217.423 125.28 218.042 125.024C218.661 124.768 219.349 124.64 220.106 124.64C221.109 124.64 221.973 124.859 222.698 125.296C223.423 125.723 223.994 126.368 224.41 127.232L222.426 128.368C222.255 127.931 221.989 127.563 221.626 127.264C221.263 126.955 220.757 126.8 220.106 126.8C219.349 126.8 218.746 127.019 218.298 127.456C217.85 127.893 217.626 128.581 217.626 129.52V131.312C217.626 132.24 217.85 132.928 218.298 133.376C218.746 133.813 219.349 134.032 220.106 134.032C220.405 134.032 220.687 134 220.954 133.936C221.221 133.861 221.455 133.755 221.658 133.616C221.861 133.467 222.015 133.291 222.122 133.088C222.239 132.885 222.298 132.645 222.298 132.368V131.808H220.218V129.776H224.618V136H222.57V134.224ZM229.206 136C228.395 136 227.798 135.803 227.414 135.408C227.041 135.013 226.854 134.443 226.854 133.696V124.16H229.222V134.16H230.278V136H229.206ZM237.906 136C237.479 136 237.122 135.867 236.834 135.6C236.556 135.333 236.38 134.976 236.306 134.528H236.21C236.082 135.072 235.799 135.488 235.362 135.776C234.924 136.053 234.386 136.192 233.746 136.192C232.903 136.192 232.258 135.968 231.81 135.52C231.362 135.072 231.138 134.48 231.138 133.744C231.138 132.859 231.458 132.203 232.098 131.776C232.748 131.339 233.628 131.12 234.738 131.12H236.066V130.592C236.066 130.187 235.959 129.867 235.746 129.632C235.532 129.387 235.175 129.264 234.674 129.264C234.204 129.264 233.831 129.365 233.554 129.568C233.276 129.771 233.047 130 232.866 130.256L231.458 129.008C231.799 128.507 232.226 128.117 232.738 127.84C233.26 127.552 233.964 127.408 234.85 127.408C236.044 127.408 236.94 127.669 237.538 128.192C238.135 128.715 238.434 129.477 238.434 130.48V134.16H239.218V136H237.906ZM234.626 134.544C235.02 134.544 235.356 134.459 235.634 134.288C235.922 134.117 236.066 133.84 236.066 133.456V132.464H234.914C233.986 132.464 233.522 132.779 233.522 133.408V133.648C233.522 133.957 233.618 134.187 233.81 134.336C234.002 134.475 234.274 134.544 234.626 134.544ZM245.959 134.592H245.879C245.815 134.816 245.714 135.029 245.575 135.232C245.436 135.424 245.266 135.595 245.063 135.744C244.871 135.883 244.647 135.989 244.391 136.064C244.146 136.149 243.89 136.192 243.623 136.192C242.556 136.192 241.751 135.819 241.207 135.072C240.663 134.315 240.391 133.221 240.391 131.792C240.391 130.363 240.663 129.275 241.207 128.528C241.751 127.781 242.556 127.408 243.623 127.408C244.167 127.408 244.647 127.557 245.063 127.856C245.49 128.155 245.762 128.539 245.879 129.008H245.959V124.16H248.327V136H245.959V134.592ZM244.407 134.272C244.855 134.272 245.223 134.165 245.511 133.952C245.81 133.728 245.959 133.424 245.959 133.04V130.56C245.959 130.176 245.81 129.877 245.511 129.664C245.223 129.44 244.855 129.328 244.407 129.328C243.959 129.328 243.586 129.488 243.287 129.808C242.999 130.117 242.855 130.539 242.855 131.072V132.528C242.855 133.061 242.999 133.488 243.287 133.808C243.586 134.117 243.959 134.272 244.407 134.272ZM251.918 136.176C251.438 136.176 251.08 136.059 250.846 135.824C250.622 135.579 250.51 135.269 250.51 134.896V134.576C250.51 134.203 250.622 133.899 250.846 133.664C251.08 133.419 251.438 133.296 251.918 133.296C252.398 133.296 252.75 133.419 252.974 133.664C253.208 133.899 253.326 134.203 253.326 134.576V134.896C253.326 135.269 253.208 135.579 252.974 135.824C252.75 136.059 252.398 136.176 251.918 136.176Z" fill="#3D5AFE"></path> <path d="M137.204 154.228H140.662C141.287 154.228 141.852 154.331 142.356 154.536C142.869 154.741 143.303 155.049 143.658 155.46C144.022 155.861 144.302 156.37 144.498 156.986C144.694 157.593 144.792 158.302 144.792 159.114C144.792 159.926 144.694 160.64 144.498 161.256C144.302 161.863 144.022 162.371 143.658 162.782C143.303 163.183 142.869 163.487 142.356 163.692C141.852 163.897 141.287 164 140.662 164H137.204V154.228ZM140.662 162.6C141.39 162.6 141.978 162.371 142.426 161.914C142.874 161.457 143.098 160.785 143.098 159.898V158.33C143.098 157.443 142.874 156.771 142.426 156.314C141.978 155.857 141.39 155.628 140.662 155.628H138.786V162.6H140.662ZM147.619 155.418C147.301 155.418 147.068 155.343 146.919 155.194C146.779 155.045 146.709 154.853 146.709 154.62V154.382C146.709 154.149 146.779 153.957 146.919 153.808C147.068 153.659 147.301 153.584 147.619 153.584C147.936 153.584 148.165 153.659 148.305 153.808C148.445 153.957 148.515 154.149 148.515 154.382V154.62C148.515 154.853 148.445 155.045 148.305 155.194C148.165 155.343 147.936 155.418 147.619 155.418ZM146.849 156.72H148.375V164H146.849V156.72ZM153.064 164.168C152.373 164.168 151.794 164.047 151.328 163.804C150.861 163.561 150.455 163.225 150.11 162.796L151.09 161.9C151.36 162.227 151.659 162.483 151.986 162.67C152.322 162.847 152.709 162.936 153.148 162.936C153.596 162.936 153.927 162.852 154.142 162.684C154.366 162.507 154.478 162.264 154.478 161.956C154.478 161.723 154.398 161.527 154.24 161.368C154.09 161.2 153.824 161.093 153.442 161.046L152.77 160.962C152.023 160.869 151.435 160.654 151.006 160.318C150.586 159.973 150.376 159.464 150.376 158.792C150.376 158.437 150.441 158.125 150.572 157.854C150.702 157.574 150.884 157.341 151.118 157.154C151.36 156.958 151.645 156.809 151.972 156.706C152.308 156.603 152.676 156.552 153.078 156.552C153.731 156.552 154.263 156.655 154.674 156.86C155.094 157.065 155.467 157.35 155.794 157.714L154.856 158.61C154.669 158.386 154.422 158.195 154.114 158.036C153.815 157.868 153.47 157.784 153.078 157.784C152.658 157.784 152.345 157.868 152.14 158.036C151.944 158.204 151.846 158.423 151.846 158.694C151.846 158.974 151.934 159.184 152.112 159.324C152.289 159.464 152.574 159.567 152.966 159.632L153.638 159.716C154.44 159.837 155.024 160.075 155.388 160.43C155.761 160.775 155.948 161.242 155.948 161.83C155.948 162.185 155.878 162.507 155.738 162.796C155.607 163.076 155.416 163.319 155.164 163.524C154.912 163.729 154.608 163.888 154.254 164C153.899 164.112 153.502 164.168 153.064 164.168ZM160.686 164.168C160.163 164.168 159.696 164.079 159.286 163.902C158.875 163.725 158.53 163.473 158.25 163.146C157.97 162.81 157.755 162.409 157.606 161.942C157.456 161.466 157.382 160.939 157.382 160.36C157.382 159.781 157.456 159.259 157.606 158.792C157.755 158.316 157.97 157.915 158.25 157.588C158.53 157.252 158.875 156.995 159.286 156.818C159.696 156.641 160.163 156.552 160.686 156.552C161.414 156.552 162.011 156.715 162.478 157.042C162.944 157.369 163.285 157.803 163.5 158.344L162.24 158.932C162.137 158.596 161.955 158.33 161.694 158.134C161.442 157.929 161.106 157.826 160.686 157.826C160.126 157.826 159.701 158.003 159.412 158.358C159.132 158.703 158.992 159.156 158.992 159.716V161.018C158.992 161.578 159.132 162.035 159.412 162.39C159.701 162.735 160.126 162.908 160.686 162.908C161.134 162.908 161.488 162.801 161.75 162.586C162.02 162.362 162.235 162.068 162.394 161.704L163.556 162.32C163.313 162.917 162.949 163.375 162.464 163.692C161.978 164.009 161.386 164.168 160.686 164.168ZM169.618 162.796H169.562C169.497 162.973 169.408 163.146 169.296 163.314C169.194 163.482 169.058 163.631 168.89 163.762C168.732 163.883 168.536 163.981 168.302 164.056C168.078 164.131 167.817 164.168 167.518 164.168C166.762 164.168 166.174 163.925 165.754 163.44C165.344 162.955 165.138 162.259 165.138 161.354V156.72H166.664V161.158C166.664 162.287 167.131 162.852 168.064 162.852C168.26 162.852 168.452 162.829 168.638 162.782C168.825 162.726 168.988 162.647 169.128 162.544C169.278 162.441 169.394 162.311 169.478 162.152C169.572 161.993 169.618 161.807 169.618 161.592V156.72H171.144V164H169.618V162.796ZM175.84 164.168C175.149 164.168 174.57 164.047 174.104 163.804C173.637 163.561 173.231 163.225 172.886 162.796L173.866 161.9C174.136 162.227 174.435 162.483 174.762 162.67C175.098 162.847 175.485 162.936 175.924 162.936C176.372 162.936 176.703 162.852 176.918 162.684C177.142 162.507 177.254 162.264 177.254 161.956C177.254 161.723 177.174 161.527 177.016 161.368C176.866 161.2 176.6 161.093 176.218 161.046L175.546 160.962C174.799 160.869 174.211 160.654 173.782 160.318C173.362 159.973 173.152 159.464 173.152 158.792C173.152 158.437 173.217 158.125 173.348 157.854C173.478 157.574 173.66 157.341 173.894 157.154C174.136 156.958 174.421 156.809 174.748 156.706C175.084 156.603 175.452 156.552 175.854 156.552C176.507 156.552 177.039 156.655 177.45 156.86C177.87 157.065 178.243 157.35 178.57 157.714L177.632 158.61C177.445 158.386 177.198 158.195 176.89 158.036C176.591 157.868 176.246 157.784 175.854 157.784C175.434 157.784 175.121 157.868 174.916 158.036C174.72 158.204 174.622 158.423 174.622 158.694C174.622 158.974 174.71 159.184 174.888 159.324C175.065 159.464 175.35 159.567 175.742 159.632L176.414 159.716C177.216 159.837 177.8 160.075 178.164 160.43C178.537 160.775 178.724 161.242 178.724 161.83C178.724 162.185 178.654 162.507 178.514 162.796C178.383 163.076 178.192 163.319 177.94 163.524C177.688 163.729 177.384 163.888 177.03 164C176.675 164.112 176.278 164.168 175.84 164.168ZM182.875 164.168C182.185 164.168 181.606 164.047 181.139 163.804C180.673 163.561 180.267 163.225 179.921 162.796L180.901 161.9C181.172 162.227 181.471 162.483 181.797 162.67C182.133 162.847 182.521 162.936 182.959 162.936C183.407 162.936 183.739 162.852 183.953 162.684C184.177 162.507 184.289 162.264 184.289 161.956C184.289 161.723 184.21 161.527 184.051 161.368C183.902 161.2 183.636 161.093 183.253 161.046L182.581 160.962C181.835 160.869 181.247 160.654 180.817 160.318C180.397 159.973 180.187 159.464 180.187 158.792C180.187 158.437 180.253 158.125 180.383 157.854C180.514 157.574 180.696 157.341 180.929 157.154C181.172 156.958 181.457 156.809 181.783 156.706C182.119 156.603 182.488 156.552 182.889 156.552C183.543 156.552 184.075 156.655 184.485 156.86C184.905 157.065 185.279 157.35 185.605 157.714L184.667 158.61C184.481 158.386 184.233 158.195 183.925 158.036C183.627 157.868 183.281 157.784 182.889 157.784C182.469 157.784 182.157 157.868 181.951 158.036C181.755 158.204 181.657 158.423 181.657 158.694C181.657 158.974 181.746 159.184 181.923 159.324C182.101 159.464 182.385 159.567 182.777 159.632L183.449 159.716C184.252 159.837 184.835 160.075 185.199 160.43C185.573 160.775 185.759 161.242 185.759 161.83C185.759 162.185 185.689 162.507 185.549 162.796C185.419 163.076 185.227 163.319 184.975 163.524C184.723 163.729 184.42 163.888 184.065 164C183.711 164.112 183.314 164.168 182.875 164.168ZM191.192 153.64H192.718V157.924H192.788C192.947 157.532 193.185 157.205 193.502 156.944C193.829 156.683 194.272 156.552 194.832 156.552C195.579 156.552 196.157 156.799 196.568 157.294C196.988 157.779 197.198 158.475 197.198 159.38V164H195.672V159.562C195.672 158.433 195.215 157.868 194.3 157.868C194.104 157.868 193.908 157.896 193.712 157.952C193.525 157.999 193.357 158.073 193.208 158.176C193.059 158.279 192.937 158.409 192.844 158.568C192.76 158.727 192.718 158.909 192.718 159.114V164H191.192V153.64ZM202.369 164.168C201.865 164.168 201.403 164.079 200.983 163.902C200.572 163.725 200.222 163.473 199.933 163.146C199.644 162.81 199.42 162.409 199.261 161.942C199.102 161.466 199.023 160.939 199.023 160.36C199.023 159.781 199.102 159.259 199.261 158.792C199.42 158.316 199.644 157.915 199.933 157.588C200.222 157.252 200.572 156.995 200.983 156.818C201.403 156.641 201.865 156.552 202.369 156.552C202.873 156.552 203.33 156.641 203.741 156.818C204.161 156.995 204.516 157.252 204.805 157.588C205.094 157.915 205.318 158.316 205.477 158.792C205.636 159.259 205.715 159.781 205.715 160.36C205.715 160.939 205.636 161.466 205.477 161.942C205.318 162.409 205.094 162.81 204.805 163.146C204.516 163.473 204.161 163.725 203.741 163.902C203.33 164.079 202.873 164.168 202.369 164.168ZM202.369 162.908C202.892 162.908 203.312 162.749 203.629 162.432C203.946 162.105 204.105 161.62 204.105 160.976V159.744C204.105 159.1 203.946 158.619 203.629 158.302C203.312 157.975 202.892 157.812 202.369 157.812C201.846 157.812 201.426 157.975 201.109 158.302C200.792 158.619 200.633 159.1 200.633 159.744V160.976C200.633 161.62 200.792 162.105 201.109 162.432C201.426 162.749 201.846 162.908 202.369 162.908ZM206.792 156.72H208.276L209.018 159.772L209.676 162.53H209.718L210.474 159.772L211.356 156.72H212.728L213.624 159.772L214.394 162.53H214.436L215.08 159.772L215.836 156.72H217.25L215.29 164H213.568L212.616 160.682L212.028 158.638H212L211.426 160.682L210.46 164H208.78L206.792 156.72ZM224.428 164C223.896 164 223.495 163.865 223.224 163.594C222.953 163.314 222.818 162.922 222.818 162.418V157.966H221.684V156.72H222.3C222.552 156.72 222.725 156.664 222.818 156.552C222.921 156.44 222.972 156.258 222.972 156.006V154.732H224.344V156.72H225.87V157.966H224.344V162.754H225.758V164H224.428ZM227.725 153.64H229.251V157.924H229.321C229.48 157.532 229.718 157.205 230.035 156.944C230.362 156.683 230.805 156.552 231.365 156.552C232.112 156.552 232.691 156.799 233.101 157.294C233.521 157.779 233.731 158.475 233.731 159.38V164H232.205V159.562C232.205 158.433 231.748 157.868 230.833 157.868C230.637 157.868 230.441 157.896 230.245 157.952C230.059 157.999 229.891 158.073 229.741 158.176C229.592 158.279 229.471 158.409 229.377 158.568C229.293 158.727 229.251 158.909 229.251 159.114V164H227.725V153.64ZM238.902 164.168C238.38 164.168 237.913 164.079 237.502 163.902C237.092 163.725 236.742 163.473 236.452 163.146C236.163 162.81 235.939 162.409 235.78 161.942C235.631 161.466 235.556 160.939 235.556 160.36C235.556 159.781 235.631 159.259 235.78 158.792C235.939 158.316 236.163 157.915 236.452 157.588C236.742 157.252 237.092 156.995 237.502 156.818C237.913 156.641 238.38 156.552 238.902 156.552C239.434 156.552 239.901 156.645 240.302 156.832C240.713 157.019 241.054 157.28 241.324 157.616C241.595 157.943 241.796 158.325 241.926 158.764C242.066 159.203 242.136 159.674 242.136 160.178V160.752H237.138V160.99C237.138 161.55 237.302 162.012 237.628 162.376C237.964 162.731 238.44 162.908 239.056 162.908C239.504 162.908 239.882 162.81 240.19 162.614C240.498 162.418 240.76 162.152 240.974 161.816L241.87 162.698C241.6 163.146 241.208 163.505 240.694 163.776C240.181 164.037 239.584 164.168 238.902 164.168ZM238.902 157.742C238.641 157.742 238.398 157.789 238.174 157.882C237.96 157.975 237.773 158.106 237.614 158.274C237.465 158.442 237.348 158.643 237.264 158.876C237.18 159.109 237.138 159.366 237.138 159.646V159.744H240.526V159.604C240.526 159.044 240.382 158.596 240.092 158.26C239.803 157.915 239.406 157.742 238.902 157.742ZM249.55 164C249.018 164 248.617 163.865 248.346 163.594C248.076 163.314 247.94 162.922 247.94 162.418V157.966H246.806V156.72H247.422C247.674 156.72 247.847 156.664 247.94 156.552C248.043 156.44 248.094 156.258 248.094 156.006V154.732H249.466V156.72H250.992V157.966H249.466V162.754H250.88V164H249.55ZM255.649 164.168C255.126 164.168 254.659 164.079 254.249 163.902C253.838 163.725 253.488 163.473 253.199 163.146C252.909 162.81 252.685 162.409 252.527 161.942C252.377 161.466 252.303 160.939 252.303 160.36C252.303 159.781 252.377 159.259 252.527 158.792C252.685 158.316 252.909 157.915 253.199 157.588C253.488 157.252 253.838 156.995 254.249 156.818C254.659 156.641 255.126 156.552 255.649 156.552C256.181 156.552 256.647 156.645 257.049 156.832C257.459 157.019 257.8 157.28 258.071 157.616C258.341 157.943 258.542 158.325 258.673 158.764C258.813 159.203 258.883 159.674 258.883 160.178V160.752H253.885V160.99C253.885 161.55 254.048 162.012 254.375 162.376C254.711 162.731 255.187 162.908 255.803 162.908C256.251 162.908 256.629 162.81 256.937 162.614C257.245 162.418 257.506 162.152 257.721 161.816L258.617 162.698C258.346 163.146 257.954 163.505 257.441 163.776C256.927 164.037 256.33 164.168 255.649 164.168ZM255.649 157.742C255.387 157.742 255.145 157.789 254.921 157.882C254.706 157.975 254.519 158.106 254.361 158.274C254.211 158.442 254.095 158.643 254.011 158.876C253.927 159.109 253.885 159.366 253.885 159.646V159.744H257.273V159.604C257.273 159.044 257.128 158.596 256.839 158.26C256.549 157.915 256.153 157.742 255.649 157.742ZM266.106 164C265.705 164 265.397 163.888 265.182 163.664C264.967 163.431 264.837 163.137 264.79 162.782H264.72C264.58 163.239 264.323 163.585 263.95 163.818C263.577 164.051 263.124 164.168 262.592 164.168C261.836 164.168 261.253 163.972 260.842 163.58C260.441 163.188 260.24 162.661 260.24 161.998C260.24 161.27 260.501 160.724 261.024 160.36C261.556 159.996 262.331 159.814 263.348 159.814H264.664V159.198C264.664 158.75 264.543 158.405 264.3 158.162C264.057 157.919 263.679 157.798 263.166 157.798C262.737 157.798 262.387 157.891 262.116 158.078C261.845 158.265 261.617 158.503 261.43 158.792L260.52 157.966C260.763 157.555 261.103 157.219 261.542 156.958C261.981 156.687 262.555 156.552 263.264 156.552C264.207 156.552 264.93 156.771 265.434 157.21C265.938 157.649 266.19 158.279 266.19 159.1V162.754H266.96V164H266.106ZM263.026 163.006C263.502 163.006 263.894 162.903 264.202 162.698C264.51 162.483 264.664 162.199 264.664 161.844V160.794H263.376C262.321 160.794 261.794 161.121 261.794 161.774V162.026C261.794 162.353 261.901 162.6 262.116 162.768C262.34 162.927 262.643 163.006 263.026 163.006ZM268.656 164V156.72H270.182V157.924H270.252C270.326 157.737 270.415 157.56 270.518 157.392C270.63 157.224 270.76 157.079 270.91 156.958C271.068 156.827 271.25 156.729 271.456 156.664C271.67 156.589 271.918 156.552 272.198 156.552C272.692 156.552 273.131 156.673 273.514 156.916C273.896 157.159 274.176 157.532 274.354 158.036H274.396C274.526 157.625 274.778 157.275 275.152 156.986C275.525 156.697 276.006 156.552 276.594 156.552C277.322 156.552 277.886 156.799 278.288 157.294C278.689 157.779 278.89 158.475 278.89 159.38V164H277.364V159.562C277.364 159.002 277.256 158.582 277.042 158.302C276.827 158.013 276.486 157.868 276.02 157.868C275.824 157.868 275.637 157.896 275.46 157.952C275.282 157.999 275.124 158.073 274.984 158.176C274.853 158.279 274.746 158.409 274.662 158.568C274.578 158.727 274.536 158.909 274.536 159.114V164H273.01V159.562C273.01 158.433 272.566 157.868 271.68 157.868C271.493 157.868 271.306 157.896 271.12 157.952C270.942 157.999 270.784 158.073 270.644 158.176C270.504 158.279 270.392 158.409 270.308 158.568C270.224 158.727 270.182 158.909 270.182 159.114V164H268.656ZM285.088 157.966H283.982V156.72H285.088V155.516C285.088 154.928 285.242 154.471 285.55 154.144C285.858 153.808 286.32 153.64 286.936 153.64H288.14V154.886H286.614V156.72H288.14V157.966H286.614V164H285.088V157.966ZM292.469 164.168C291.946 164.168 291.48 164.079 291.069 163.902C290.658 163.725 290.308 163.473 290.019 163.146C289.73 162.81 289.506 162.409 289.347 161.942C289.198 161.466 289.123 160.939 289.123 160.36C289.123 159.781 289.198 159.259 289.347 158.792C289.506 158.316 289.73 157.915 290.019 157.588C290.308 157.252 290.658 156.995 291.069 156.818C291.48 156.641 291.946 156.552 292.469 156.552C293.001 156.552 293.468 156.645 293.869 156.832C294.28 157.019 294.62 157.28 294.891 157.616C295.162 157.943 295.362 158.325 295.493 158.764C295.633 159.203 295.703 159.674 295.703 160.178V160.752H290.705V160.99C290.705 161.55 290.868 162.012 291.195 162.376C291.531 162.731 292.007 162.908 292.623 162.908C293.071 162.908 293.449 162.81 293.757 162.614C294.065 162.418 294.326 162.152 294.541 161.816L295.437 162.698C295.166 163.146 294.774 163.505 294.261 163.776C293.748 164.037 293.15 164.168 292.469 164.168ZM292.469 157.742C292.208 157.742 291.965 157.789 291.741 157.882C291.526 157.975 291.34 158.106 291.181 158.274C291.032 158.442 290.915 158.643 290.831 158.876C290.747 159.109 290.705 159.366 290.705 159.646V159.744H294.093V159.604C294.093 159.044 293.948 158.596 293.659 158.26C293.37 157.915 292.973 157.742 292.469 157.742ZM300.448 164.168C299.926 164.168 299.459 164.079 299.048 163.902C298.638 163.725 298.288 163.473 297.998 163.146C297.709 162.81 297.485 162.409 297.326 161.942C297.177 161.466 297.102 160.939 297.102 160.36C297.102 159.781 297.177 159.259 297.326 158.792C297.485 158.316 297.709 157.915 297.998 157.588C298.288 157.252 298.638 156.995 299.048 156.818C299.459 156.641 299.926 156.552 300.448 156.552C300.98 156.552 301.447 156.645 301.848 156.832C302.259 157.019 302.6 157.28 302.87 157.616C303.141 157.943 303.342 158.325 303.472 158.764C303.612 159.203 303.682 159.674 303.682 160.178V160.752H298.684V160.99C298.684 161.55 298.848 162.012 299.174 162.376C299.51 162.731 299.986 162.908 300.602 162.908C301.05 162.908 301.428 162.81 301.736 162.614C302.044 162.418 302.306 162.152 302.52 161.816L303.416 162.698C303.146 163.146 302.754 163.505 302.24 163.776C301.727 164.037 301.13 164.168 300.448 164.168ZM300.448 157.742C300.187 157.742 299.944 157.789 299.72 157.882C299.506 157.975 299.319 158.106 299.16 158.274C299.011 158.442 298.894 158.643 298.81 158.876C298.726 159.109 298.684 159.366 298.684 159.646V159.744H302.072V159.604C302.072 159.044 301.928 158.596 301.638 158.26C301.349 157.915 300.952 157.742 300.448 157.742ZM307.126 164C306.603 164 306.211 163.869 305.95 163.608C305.698 163.337 305.572 162.964 305.572 162.488V153.64H307.098V162.754H308.106V164H307.126ZM312.074 164.168C311.383 164.168 310.805 164.047 310.338 163.804C309.871 163.561 309.465 163.225 309.12 162.796L310.1 161.9C310.371 162.227 310.669 162.483 310.996 162.67C311.332 162.847 311.719 162.936 312.158 162.936C312.606 162.936 312.937 162.852 313.152 162.684C313.376 162.507 313.488 162.264 313.488 161.956C313.488 161.723 313.409 161.527 313.25 161.368C313.101 161.2 312.835 161.093 312.452 161.046L311.78 160.962C311.033 160.869 310.445 160.654 310.016 160.318C309.596 159.973 309.386 159.464 309.386 158.792C309.386 158.437 309.451 158.125 309.582 157.854C309.713 157.574 309.895 157.341 310.128 157.154C310.371 156.958 310.655 156.809 310.982 156.706C311.318 156.603 311.687 156.552 312.088 156.552C312.741 156.552 313.273 156.655 313.684 156.86C314.104 157.065 314.477 157.35 314.804 157.714L313.866 158.61C313.679 158.386 313.432 158.195 313.124 158.036C312.825 157.868 312.48 157.784 312.088 157.784C311.668 157.784 311.355 157.868 311.15 158.036C310.954 158.204 310.856 158.423 310.856 158.694C310.856 158.974 310.945 159.184 311.122 159.324C311.299 159.464 311.584 159.567 311.976 159.632L312.648 159.716C313.451 159.837 314.034 160.075 314.398 160.43C314.771 160.775 314.958 161.242 314.958 161.83C314.958 162.185 314.888 162.507 314.748 162.796C314.617 163.076 314.426 163.319 314.174 163.524C313.922 163.729 313.619 163.888 313.264 164C312.909 164.112 312.513 164.168 312.074 164.168Z" fill="#3D5AFE"></path> <rect x="41" y="93" width="377" height="102" rx="7" stroke="#3D5AFE" stroke-width="2"></rect> <rect x="40" y="204" width="379" height="104" rx="8" fill="white"></rect> <rect x="40" y="204" width="379" height="104" rx="8" fill="#141414" fill-opacity="0.04"></rect> <rect x="57" y="225" width="62" height="62" rx="3" fill="white"></rect> <rect x="57" y="225" width="62" height="62" rx="3" fill="#141414" fill-opacity="0.04"></rect> <rect x="64" y="232" width="12" height="48" rx="4" fill="white"></rect> <rect x="64" y="232" width="12" height="48" rx="4" fill="#141414" fill-opacity="0.16"></rect> <rect x="82" y="232" width="12" height="48" rx="4" fill="white"></rect> <rect x="82" y="232" width="12" height="48" rx="4" fill="#141414" fill-opacity="0.16"></rect> <rect x="100" y="232" width="12" height="48" rx="4" fill="white"></rect> <rect x="100" y="232" width="12" height="48" rx="4" fill="#141414" fill-opacity="0.16"></rect> <rect x="57" y="225" width="62" height="62" rx="3" stroke="white" stroke-width="2"></rect> <rect x="57" y="225" width="62" height="62" rx="3" stroke="#141414" stroke-opacity="0.16" stroke-width="2"></rect> <path d="M140.848 248.192C139.867 248.192 139.035 248.027 138.352 247.696C137.669 247.355 137.088 246.917 136.608 246.384L138.208 244.768C138.965 245.621 139.899 246.048 141.008 246.048C141.605 246.048 142.048 245.925 142.336 245.68C142.624 245.435 142.768 245.109 142.768 244.704C142.768 244.395 142.683 244.139 142.512 243.936C142.341 243.723 141.995 243.579 141.472 243.504L140.368 243.36C139.184 243.211 138.315 242.853 137.76 242.288C137.216 241.723 136.944 240.971 136.944 240.032C136.944 239.531 137.04 239.072 137.232 238.656C137.424 238.24 137.696 237.883 138.048 237.584C138.411 237.285 138.848 237.056 139.36 236.896C139.883 236.725 140.475 236.64 141.136 236.64C141.979 236.64 142.72 236.773 143.36 237.04C144 237.307 144.549 237.696 145.008 238.208L143.392 239.84C143.125 239.531 142.8 239.28 142.416 239.088C142.043 238.885 141.568 238.784 140.992 238.784C140.448 238.784 140.043 238.88 139.776 239.072C139.509 239.264 139.376 239.531 139.376 239.872C139.376 240.256 139.477 240.533 139.68 240.704C139.893 240.875 140.235 240.997 140.704 241.072L141.808 241.248C142.96 241.429 143.813 241.787 144.368 242.32C144.923 242.843 145.2 243.589 145.2 244.56C145.2 245.093 145.104 245.584 144.912 246.032C144.72 246.48 144.437 246.864 144.064 247.184C143.701 247.504 143.248 247.755 142.704 247.936C142.16 248.107 141.541 248.192 140.848 248.192ZM149.954 248C149.133 248 148.509 247.792 148.082 247.376C147.666 246.96 147.458 246.352 147.458 245.552V241.44H146.274V239.6H146.866C147.186 239.6 147.405 239.525 147.522 239.376C147.64 239.216 147.698 238.992 147.698 238.704V237.328H149.826V239.6H151.49V241.44H149.826V246.16H151.362V248H149.954ZM159.343 248C158.917 248 158.559 247.867 158.271 247.6C157.994 247.333 157.818 246.976 157.743 246.528H157.647C157.519 247.072 157.237 247.488 156.799 247.776C156.362 248.053 155.823 248.192 155.183 248.192C154.341 248.192 153.695 247.968 153.247 247.52C152.799 247.072 152.575 246.48 152.575 245.744C152.575 244.859 152.895 244.203 153.535 243.776C154.186 243.339 155.066 243.12 156.175 243.12H157.503V242.592C157.503 242.187 157.397 241.867 157.183 241.632C156.97 241.387 156.613 241.264 156.111 241.264C155.642 241.264 155.269 241.365 154.991 241.568C154.714 241.771 154.485 242 154.303 242.256L152.895 241.008C153.237 240.507 153.663 240.117 154.175 239.84C154.698 239.552 155.402 239.408 156.287 239.408C157.482 239.408 158.378 239.669 158.975 240.192C159.573 240.715 159.871 241.477 159.871 242.48V246.16H160.655V248H159.343ZM156.063 246.544C156.458 246.544 156.794 246.459 157.071 246.288C157.359 246.117 157.503 245.84 157.503 245.456V244.464H156.351C155.423 244.464 154.959 244.779 154.959 245.408V245.648C154.959 245.957 155.055 246.187 155.247 246.336C155.439 246.475 155.711 246.544 156.063 246.544ZM162.245 248V239.6H164.613V241.424H164.693C164.735 241.189 164.81 240.965 164.917 240.752C165.023 240.528 165.162 240.331 165.333 240.16C165.514 239.989 165.727 239.856 165.973 239.76C166.218 239.653 166.506 239.6 166.837 239.6H167.253V241.808H166.661C165.967 241.808 165.45 241.899 165.109 242.08C164.778 242.261 164.613 242.597 164.613 243.088V248H162.245ZM171.72 248C170.899 248 170.275 247.792 169.848 247.376C169.432 246.96 169.224 246.352 169.224 245.552V241.44H168.04V239.6H168.632C168.952 239.6 169.171 239.525 169.288 239.376C169.405 239.216 169.464 238.992 169.464 238.704V237.328H171.592V239.6H173.256V241.44H171.592V246.16H173.128V248H171.72ZM176.277 248.176C175.797 248.176 175.44 248.059 175.205 247.824C174.981 247.579 174.869 247.269 174.869 246.896V246.576C174.869 246.203 174.981 245.899 175.205 245.664C175.44 245.419 175.797 245.296 176.277 245.296C176.757 245.296 177.109 245.419 177.333 245.664C177.568 245.899 177.685 246.203 177.685 246.576V246.896C177.685 247.269 177.568 247.579 177.333 247.824C177.109 248.059 176.757 248.176 176.277 248.176ZM187.379 248.192C186.398 248.192 185.566 248.027 184.883 247.696C184.201 247.355 183.619 246.917 183.139 246.384L184.739 244.768C185.497 245.621 186.43 246.048 187.539 246.048C188.137 246.048 188.579 245.925 188.867 245.68C189.155 245.435 189.299 245.109 189.299 244.704C189.299 244.395 189.214 244.139 189.043 243.936C188.873 243.723 188.526 243.579 188.003 243.504L186.899 243.36C185.715 243.211 184.846 242.853 184.291 242.288C183.747 241.723 183.475 240.971 183.475 240.032C183.475 239.531 183.571 239.072 183.763 238.656C183.955 238.24 184.227 237.883 184.579 237.584C184.942 237.285 185.379 237.056 185.891 236.896C186.414 236.725 187.006 236.64 187.667 236.64C188.51 236.64 189.251 236.773 189.891 237.04C190.531 237.307 191.081 237.696 191.539 238.208L189.923 239.84C189.657 239.531 189.331 239.28 188.947 239.088C188.574 238.885 188.099 238.784 187.523 238.784C186.979 238.784 186.574 238.88 186.307 239.072C186.041 239.264 185.907 239.531 185.907 239.872C185.907 240.256 186.009 240.533 186.211 240.704C186.425 240.875 186.766 240.997 187.235 241.072L188.339 241.248C189.491 241.429 190.345 241.787 190.899 242.32C191.454 242.843 191.731 243.589 191.731 244.56C191.731 245.093 191.635 245.584 191.443 246.032C191.251 246.48 190.969 246.864 190.595 247.184C190.233 247.504 189.779 247.755 189.235 247.936C188.691 248.107 188.073 248.192 187.379 248.192ZM196.486 248C195.664 248 195.04 247.792 194.614 247.376C194.198 246.96 193.99 246.352 193.99 245.552V241.44H192.806V239.6H193.398C193.718 239.6 193.936 239.525 194.054 239.376C194.171 239.216 194.23 238.992 194.23 238.704V237.328H196.358V239.6H198.022V241.44H196.358V246.16H197.894V248H196.486ZM203.012 248.192C202.393 248.192 201.839 248.091 201.348 247.888C200.868 247.685 200.457 247.392 200.116 247.008C199.785 246.624 199.529 246.16 199.348 245.616C199.167 245.072 199.076 244.464 199.076 243.792C199.076 243.12 199.167 242.512 199.348 241.968C199.529 241.424 199.785 240.965 200.116 240.592C200.457 240.208 200.868 239.915 201.348 239.712C201.839 239.509 202.393 239.408 203.012 239.408C203.631 239.408 204.18 239.509 204.66 239.712C205.151 239.915 205.561 240.208 205.892 240.592C206.233 240.965 206.495 241.424 206.676 241.968C206.857 242.512 206.948 243.12 206.948 243.792C206.948 244.464 206.857 245.072 206.676 245.616C206.495 246.16 206.233 246.624 205.892 247.008C205.561 247.392 205.151 247.685 204.66 247.888C204.18 248.091 203.631 248.192 203.012 248.192ZM203.012 246.32C203.481 246.32 203.844 246.176 204.1 245.888C204.356 245.6 204.484 245.189 204.484 244.656V242.944C204.484 242.411 204.356 242 204.1 241.712C203.844 241.424 203.481 241.28 203.012 241.28C202.543 241.28 202.18 241.424 201.924 241.712C201.668 242 201.54 242.411 201.54 242.944V244.656C201.54 245.189 201.668 245.6 201.924 245.888C202.18 246.176 202.543 246.32 203.012 246.32ZM208.635 239.6H211.003V241.008H211.083C211.201 240.539 211.467 240.155 211.883 239.856C212.31 239.557 212.795 239.408 213.339 239.408C214.406 239.408 215.211 239.781 215.755 240.528C216.299 241.275 216.571 242.363 216.571 243.792C216.571 245.221 216.299 246.315 215.755 247.072C215.211 247.819 214.406 248.192 213.339 248.192C213.062 248.192 212.801 248.149 212.555 248.064C212.31 247.989 212.086 247.883 211.883 247.744C211.691 247.595 211.526 247.424 211.387 247.232C211.249 247.029 211.147 246.816 211.083 246.592H211.003V251.2H208.635V239.6ZM212.555 246.272C213.003 246.272 213.371 246.117 213.659 245.808C213.958 245.488 214.107 245.061 214.107 244.528V243.072C214.107 242.539 213.958 242.117 213.659 241.808C213.371 241.488 213.003 241.328 212.555 241.328C212.107 241.328 211.734 241.44 211.435 241.664C211.147 241.877 211.003 242.176 211.003 242.56V245.04C211.003 245.424 211.147 245.728 211.435 245.952C211.734 246.165 212.107 246.272 212.555 246.272ZM219.511 248.176C219.031 248.176 218.674 248.059 218.439 247.824C218.215 247.579 218.103 247.269 218.103 246.896V246.576C218.103 246.203 218.215 245.899 218.439 245.664C218.674 245.419 219.031 245.296 219.511 245.296C219.991 245.296 220.343 245.419 220.567 245.664C220.802 245.899 220.919 246.203 220.919 246.576V246.896C220.919 247.269 220.802 247.579 220.567 247.824C220.343 248.059 219.991 248.176 219.511 248.176ZM231.51 248.192C230.752 248.192 230.07 248.075 229.462 247.84C228.854 247.595 228.336 247.237 227.91 246.768C227.483 246.288 227.152 245.696 226.918 244.992C226.683 244.277 226.566 243.445 226.566 242.496C226.566 241.557 226.683 240.725 226.918 240C227.152 239.264 227.483 238.651 227.91 238.16C228.336 237.659 228.854 237.28 229.462 237.024C230.07 236.768 230.752 236.64 231.51 236.64C232.544 236.64 233.398 236.853 234.07 237.28C234.742 237.696 235.28 238.357 235.686 239.264L233.59 240.352C233.44 239.883 233.206 239.509 232.886 239.232C232.576 238.944 232.118 238.8 231.51 238.8C230.795 238.8 230.219 239.035 229.782 239.504C229.355 239.963 229.142 240.635 229.142 241.52V243.312C229.142 244.197 229.355 244.875 229.782 245.344C230.219 245.803 230.795 246.032 231.51 246.032C232.107 246.032 232.582 245.872 232.934 245.552C233.296 245.221 233.563 244.827 233.734 244.368L235.718 245.52C235.302 246.373 234.752 247.035 234.07 247.504C233.398 247.963 232.544 248.192 231.51 248.192ZM240.7 248.192C240.081 248.192 239.526 248.091 239.036 247.888C238.556 247.685 238.145 247.392 237.804 247.008C237.473 246.624 237.217 246.16 237.036 245.616C236.854 245.072 236.764 244.464 236.764 243.792C236.764 243.12 236.854 242.512 237.036 241.968C237.217 241.424 237.473 240.965 237.804 240.592C238.145 240.208 238.556 239.915 239.036 239.712C239.526 239.509 240.081 239.408 240.7 239.408C241.318 239.408 241.868 239.509 242.348 239.712C242.838 239.915 243.249 240.208 243.58 240.592C243.921 240.965 244.182 241.424 244.364 241.968C244.545 242.512 244.635 243.12 244.635 243.792C244.635 244.464 244.545 245.072 244.364 245.616C244.182 246.16 243.921 246.624 243.58 247.008C243.249 247.392 242.838 247.685 242.348 247.888C241.868 248.091 241.318 248.192 240.7 248.192ZM240.7 246.32C241.169 246.32 241.532 246.176 241.788 245.888C242.044 245.6 242.172 245.189 242.172 244.656V242.944C242.172 242.411 242.044 242 241.788 241.712C241.532 241.424 241.169 241.28 240.7 241.28C240.23 241.28 239.868 241.424 239.612 241.712C239.356 242 239.228 242.411 239.228 242.944V244.656C239.228 245.189 239.356 245.6 239.612 245.888C239.868 246.176 240.23 246.32 240.7 246.32ZM246.323 248V239.6H248.691V241.024H248.787C248.936 240.587 249.197 240.208 249.571 239.888C249.944 239.568 250.461 239.408 251.123 239.408C251.987 239.408 252.637 239.696 253.075 240.272C253.523 240.848 253.747 241.669 253.747 242.736V248H251.379V242.928C251.379 242.384 251.293 241.984 251.123 241.728C250.952 241.461 250.648 241.328 250.211 241.328C250.019 241.328 249.832 241.355 249.651 241.408C249.469 241.451 249.304 241.525 249.155 241.632C249.016 241.739 248.904 241.872 248.819 242.032C248.733 242.181 248.691 242.357 248.691 242.56V248H246.323ZM258.798 248C257.977 248 257.353 247.792 256.926 247.376C256.51 246.96 256.302 246.352 256.302 245.552V241.44H255.118V239.6H255.71C256.03 239.6 256.249 239.525 256.366 239.376C256.483 239.216 256.542 238.992 256.542 238.704V237.328H258.67V239.6H260.334V241.44H258.67V246.16H260.206V248H258.798ZM263.163 238.704C262.683 238.704 262.331 238.597 262.107 238.384C261.894 238.16 261.787 237.877 261.787 237.536V237.184C261.787 236.843 261.894 236.565 262.107 236.352C262.331 236.128 262.683 236.016 263.163 236.016C263.643 236.016 263.99 236.128 264.203 236.352C264.427 236.565 264.539 236.843 264.539 237.184V237.536C264.539 237.877 264.427 238.16 264.203 238.384C263.99 238.597 263.643 238.704 263.163 238.704ZM261.979 239.6H264.347V248H261.979V239.6ZM266.557 248V239.6H268.925V241.024H269.021C269.17 240.587 269.432 240.208 269.805 239.888C270.178 239.568 270.696 239.408 271.357 239.408C272.221 239.408 272.872 239.696 273.309 240.272C273.757 240.848 273.981 241.669 273.981 242.736V248H271.613V242.928C271.613 242.384 271.528 241.984 271.357 241.728C271.186 241.461 270.882 241.328 270.445 241.328C270.253 241.328 270.066 241.355 269.885 241.408C269.704 241.451 269.538 241.525 269.389 241.632C269.25 241.739 269.138 241.872 269.053 242.032C268.968 242.181 268.925 242.357 268.925 242.56V248H266.557ZM281.048 246.592H280.968C280.894 246.805 280.792 247.008 280.664 247.2C280.547 247.392 280.392 247.563 280.2 247.712C280.008 247.861 279.779 247.979 279.512 248.064C279.256 248.149 278.958 248.192 278.616 248.192C277.752 248.192 277.096 247.909 276.648 247.344C276.211 246.768 275.992 245.947 275.992 244.88V239.6H278.36V244.672C278.36 245.184 278.451 245.579 278.632 245.856C278.814 246.133 279.123 246.272 279.56 246.272C279.742 246.272 279.923 246.245 280.104 246.192C280.286 246.139 280.446 246.064 280.584 245.968C280.723 245.861 280.835 245.733 280.92 245.584C281.006 245.435 281.048 245.259 281.048 245.056V239.6H283.416V248H281.048V246.592ZM289.124 248.192C288.484 248.192 287.913 248.091 287.412 247.888C286.91 247.675 286.484 247.381 286.132 247.008C285.79 246.624 285.529 246.16 285.348 245.616C285.177 245.072 285.092 244.464 285.092 243.792C285.092 243.131 285.177 242.533 285.348 242C285.518 241.456 285.769 240.992 286.1 240.608C286.441 240.224 286.857 239.931 287.348 239.728C287.838 239.515 288.398 239.408 289.028 239.408C289.721 239.408 290.313 239.525 290.804 239.76C291.305 239.995 291.71 240.309 292.02 240.704C292.34 241.099 292.569 241.557 292.708 242.08C292.857 242.592 292.932 243.131 292.932 243.696V244.4H287.54V244.528C287.54 245.083 287.689 245.525 287.988 245.856C288.286 246.176 288.756 246.336 289.396 246.336C289.886 246.336 290.286 246.24 290.596 246.048C290.905 245.845 291.193 245.605 291.46 245.328L292.644 246.8C292.27 247.237 291.78 247.579 291.172 247.824C290.574 248.069 289.892 248.192 289.124 248.192ZM289.076 241.152C288.596 241.152 288.217 241.312 287.94 241.632C287.673 241.941 287.54 242.357 287.54 242.88V243.008H290.484V242.864C290.484 242.352 290.366 241.941 290.132 241.632C289.908 241.312 289.556 241.152 289.076 241.152ZM295.746 248.176C295.266 248.176 294.908 248.059 294.674 247.824C294.45 247.579 294.338 247.269 294.338 246.896V246.576C294.338 246.203 294.45 245.899 294.674 245.664C294.908 245.419 295.266 245.296 295.746 245.296C296.226 245.296 296.578 245.419 296.802 245.664C297.036 245.899 297.154 246.203 297.154 246.576V246.896C297.154 247.269 297.036 247.579 296.802 247.824C296.578 248.059 296.226 248.176 295.746 248.176Z" fill="#141414"></path> <path d="M137.204 276V266.228H138.786V274.6H142.762V276H137.204ZM147.189 276.168C146.685 276.168 146.223 276.079 145.803 275.902C145.392 275.725 145.042 275.473 144.753 275.146C144.464 274.81 144.24 274.409 144.081 273.942C143.922 273.466 143.843 272.939 143.843 272.36C143.843 271.781 143.922 271.259 144.081 270.792C144.24 270.316 144.464 269.915 144.753 269.588C145.042 269.252 145.392 268.995 145.803 268.818C146.223 268.641 146.685 268.552 147.189 268.552C147.693 268.552 148.15 268.641 148.561 268.818C148.981 268.995 149.336 269.252 149.625 269.588C149.914 269.915 150.138 270.316 150.297 270.792C150.456 271.259 150.535 271.781 150.535 272.36C150.535 272.939 150.456 273.466 150.297 273.942C150.138 274.409 149.914 274.81 149.625 275.146C149.336 275.473 148.981 275.725 148.561 275.902C148.15 276.079 147.693 276.168 147.189 276.168ZM147.189 274.908C147.712 274.908 148.132 274.749 148.449 274.432C148.766 274.105 148.925 273.62 148.925 272.976V271.744C148.925 271.1 148.766 270.619 148.449 270.302C148.132 269.975 147.712 269.812 147.189 269.812C146.666 269.812 146.246 269.975 145.929 270.302C145.612 270.619 145.453 271.1 145.453 271.744V272.976C145.453 273.62 145.612 274.105 145.929 274.432C146.246 274.749 146.666 274.908 147.189 274.908ZM155.291 276.168C154.787 276.168 154.325 276.079 153.905 275.902C153.495 275.725 153.145 275.473 152.855 275.146C152.566 274.81 152.342 274.409 152.183 273.942C152.025 273.466 151.945 272.939 151.945 272.36C151.945 271.781 152.025 271.259 152.183 270.792C152.342 270.316 152.566 269.915 152.855 269.588C153.145 269.252 153.495 268.995 153.905 268.818C154.325 268.641 154.787 268.552 155.291 268.552C155.795 268.552 156.253 268.641 156.663 268.818C157.083 268.995 157.438 269.252 157.727 269.588C158.017 269.915 158.241 270.316 158.399 270.792C158.558 271.259 158.637 271.781 158.637 272.36C158.637 272.939 158.558 273.466 158.399 273.942C158.241 274.409 158.017 274.81 157.727 275.146C157.438 275.473 157.083 275.725 156.663 275.902C156.253 276.079 155.795 276.168 155.291 276.168ZM155.291 274.908C155.814 274.908 156.234 274.749 156.551 274.432C156.869 274.105 157.027 273.62 157.027 272.976V271.744C157.027 271.1 156.869 270.619 156.551 270.302C156.234 269.975 155.814 269.812 155.291 269.812C154.769 269.812 154.349 269.975 154.031 270.302C153.714 270.619 153.555 271.1 153.555 271.744V272.976C153.555 273.62 153.714 274.105 154.031 274.432C154.349 274.749 154.769 274.908 155.291 274.908ZM160.538 265.64H162.064V271.996H162.134L163.142 270.694L164.892 268.72H166.67L164.122 271.534L166.978 276H165.158L163.072 272.528L162.064 273.62V276H160.538V265.64ZM172.281 269.966H171.175V268.72H172.281V267.516C172.281 266.928 172.435 266.471 172.743 266.144C173.051 265.808 173.513 265.64 174.129 265.64H175.333V266.886H173.807V268.72H175.333V269.966H173.807V276H172.281V269.966ZM179.662 276.168C179.158 276.168 178.696 276.079 178.276 275.902C177.865 275.725 177.515 275.473 177.226 275.146C176.936 274.81 176.712 274.409 176.554 273.942C176.395 273.466 176.316 272.939 176.316 272.36C176.316 271.781 176.395 271.259 176.554 270.792C176.712 270.316 176.936 269.915 177.226 269.588C177.515 269.252 177.865 268.995 178.276 268.818C178.696 268.641 179.158 268.552 179.662 268.552C180.166 268.552 180.623 268.641 181.034 268.818C181.454 268.995 181.808 269.252 182.098 269.588C182.387 269.915 182.611 270.316 182.77 270.792C182.928 271.259 183.008 271.781 183.008 272.36C183.008 272.939 182.928 273.466 182.77 273.942C182.611 274.409 182.387 274.81 182.098 275.146C181.808 275.473 181.454 275.725 181.034 275.902C180.623 276.079 180.166 276.168 179.662 276.168ZM179.662 274.908C180.184 274.908 180.604 274.749 180.922 274.432C181.239 274.105 181.398 273.62 181.398 272.976V271.744C181.398 271.1 181.239 270.619 180.922 270.302C180.604 269.975 180.184 269.812 179.662 269.812C179.139 269.812 178.719 269.975 178.402 270.302C178.084 270.619 177.926 271.1 177.926 271.744V272.976C177.926 273.62 178.084 274.105 178.402 274.432C178.719 274.749 179.139 274.908 179.662 274.908ZM184.908 276V268.72H186.434V270.12H186.504C186.607 269.747 186.821 269.42 187.148 269.14C187.475 268.86 187.927 268.72 188.506 268.72H188.912V270.19H188.31C187.703 270.19 187.237 270.288 186.91 270.484C186.593 270.68 186.434 270.969 186.434 271.352V276H184.908ZM189.808 268.72H191.292L192.034 271.772L192.692 274.53H192.734L193.49 271.772L194.372 268.72H195.744L196.64 271.772L197.41 274.53H197.452L198.096 271.772L198.852 268.72H200.266L198.306 276H196.584L195.632 272.682L195.044 270.638H195.016L194.442 272.682L193.476 276H191.796L189.808 268.72ZM207.103 276C206.702 276 206.394 275.888 206.179 275.664C205.964 275.431 205.834 275.137 205.787 274.782H205.717C205.577 275.239 205.32 275.585 204.947 275.818C204.574 276.051 204.121 276.168 203.589 276.168C202.833 276.168 202.25 275.972 201.839 275.58C201.438 275.188 201.237 274.661 201.237 273.998C201.237 273.27 201.498 272.724 202.021 272.36C202.553 271.996 203.328 271.814 204.345 271.814H205.661V271.198C205.661 270.75 205.54 270.405 205.297 270.162C205.054 269.919 204.676 269.798 204.163 269.798C203.734 269.798 203.384 269.891 203.113 270.078C202.842 270.265 202.614 270.503 202.427 270.792L201.517 269.966C201.76 269.555 202.1 269.219 202.539 268.958C202.978 268.687 203.552 268.552 204.261 268.552C205.204 268.552 205.927 268.771 206.431 269.21C206.935 269.649 207.187 270.279 207.187 271.1V274.754H207.957V276H207.103ZM204.023 275.006C204.499 275.006 204.891 274.903 205.199 274.698C205.507 274.483 205.661 274.199 205.661 273.844V272.794H204.373C203.318 272.794 202.791 273.121 202.791 273.774V274.026C202.791 274.353 202.898 274.6 203.113 274.768C203.337 274.927 203.64 275.006 204.023 275.006ZM209.653 276V268.72H211.179V270.12H211.249C211.351 269.747 211.566 269.42 211.893 269.14C212.219 268.86 212.672 268.72 213.251 268.72H213.657V270.19H213.055C212.448 270.19 211.981 270.288 211.655 270.484C211.337 270.68 211.179 270.969 211.179 271.352V276H209.653ZM219.722 274.796H219.652C219.493 275.225 219.232 275.561 218.868 275.804C218.513 276.047 218.093 276.168 217.608 276.168C216.684 276.168 215.97 275.837 215.466 275.174C214.962 274.502 214.71 273.564 214.71 272.36C214.71 271.156 214.962 270.223 215.466 269.56C215.97 268.888 216.684 268.552 217.608 268.552C218.093 268.552 218.513 268.673 218.868 268.916C219.232 269.149 219.493 269.485 219.652 269.924H219.722V265.64H221.248V276H219.722V274.796ZM218.07 274.852C218.536 274.852 218.928 274.74 219.246 274.516C219.563 274.283 219.722 273.979 219.722 273.606V271.114C219.722 270.741 219.563 270.442 219.246 270.218C218.928 269.985 218.536 269.868 218.07 269.868C217.538 269.868 217.113 270.041 216.796 270.386C216.478 270.722 216.32 271.17 216.32 271.73V272.99C216.32 273.55 216.478 274.003 216.796 274.348C217.113 274.684 217.538 274.852 218.07 274.852ZM232.471 276C232.07 276 231.762 275.888 231.547 275.664C231.333 275.431 231.202 275.137 231.155 274.782H231.085C230.945 275.239 230.689 275.585 230.315 275.818C229.942 276.051 229.489 276.168 228.957 276.168C228.201 276.168 227.618 275.972 227.207 275.58C226.806 275.188 226.605 274.661 226.605 273.998C226.605 273.27 226.867 272.724 227.389 272.36C227.921 271.996 228.696 271.814 229.713 271.814H231.029V271.198C231.029 270.75 230.908 270.405 230.665 270.162C230.423 269.919 230.045 269.798 229.531 269.798C229.102 269.798 228.752 269.891 228.481 270.078C228.211 270.265 227.982 270.503 227.795 270.792L226.885 269.966C227.128 269.555 227.469 269.219 227.907 268.958C228.346 268.687 228.92 268.552 229.629 268.552C230.572 268.552 231.295 268.771 231.799 269.21C232.303 269.649 232.555 270.279 232.555 271.1V274.754H233.325V276H232.471ZM229.391 275.006C229.867 275.006 230.259 274.903 230.567 274.698C230.875 274.483 231.029 274.199 231.029 273.844V272.794H229.741C228.687 272.794 228.159 273.121 228.159 273.774V274.026C228.159 274.353 228.267 274.6 228.481 274.768C228.705 274.927 229.009 275.006 229.391 275.006ZM235.021 276V268.72H236.547V269.924H236.617C236.776 269.532 237.014 269.205 237.331 268.944C237.658 268.683 238.101 268.552 238.661 268.552C239.408 268.552 239.986 268.799 240.397 269.294C240.817 269.779 241.027 270.475 241.027 271.38V276H239.501V271.576C239.501 270.437 239.044 269.868 238.129 269.868C237.933 269.868 237.737 269.896 237.541 269.952C237.354 269.999 237.186 270.073 237.037 270.176C236.888 270.279 236.766 270.409 236.673 270.568C236.589 270.727 236.547 270.913 236.547 271.128V276H235.021ZM247.92 274.796H247.85C247.691 275.225 247.43 275.561 247.066 275.804C246.711 276.047 246.291 276.168 245.806 276.168C244.882 276.168 244.168 275.837 243.664 275.174C243.16 274.502 242.908 273.564 242.908 272.36C242.908 271.156 243.16 270.223 243.664 269.56C244.168 268.888 244.882 268.552 245.806 268.552C246.291 268.552 246.711 268.673 247.066 268.916C247.43 269.149 247.691 269.485 247.85 269.924H247.92V265.64H249.446V276H247.92V274.796ZM246.268 274.852C246.735 274.852 247.127 274.74 247.444 274.516C247.761 274.283 247.92 273.979 247.92 273.606V271.114C247.92 270.741 247.761 270.442 247.444 270.218C247.127 269.985 246.735 269.868 246.268 269.868C245.736 269.868 245.311 270.041 244.994 270.386C244.677 270.722 244.518 271.17 244.518 271.73V272.99C244.518 273.55 244.677 274.003 244.994 274.348C245.311 274.684 245.736 274.852 246.268 274.852ZM255.336 265.64H256.862V269.924H256.932C257.09 269.485 257.347 269.149 257.702 268.916C258.066 268.673 258.49 268.552 258.976 268.552C259.9 268.552 260.614 268.888 261.118 269.56C261.622 270.223 261.874 271.156 261.874 272.36C261.874 273.564 261.622 274.502 261.118 275.174C260.614 275.837 259.9 276.168 258.976 276.168C258.49 276.168 258.066 276.047 257.702 275.804C257.347 275.561 257.09 275.225 256.932 274.796H256.862V276H255.336V265.64ZM258.514 274.852C259.046 274.852 259.47 274.684 259.788 274.348C260.105 274.003 260.264 273.55 260.264 272.99V271.73C260.264 271.17 260.105 270.722 259.788 270.386C259.47 270.041 259.046 269.868 258.514 269.868C258.047 269.868 257.655 269.985 257.338 270.218C257.02 270.442 256.862 270.741 256.862 271.114V273.606C256.862 273.979 257.02 274.283 257.338 274.516C257.655 274.74 258.047 274.852 258.514 274.852ZM269.155 276C268.754 276 268.446 275.888 268.231 275.664C268.016 275.431 267.886 275.137 267.839 274.782H267.769C267.629 275.239 267.372 275.585 266.999 275.818C266.626 276.051 266.173 276.168 265.641 276.168C264.885 276.168 264.302 275.972 263.891 275.58C263.49 275.188 263.289 274.661 263.289 273.998C263.289 273.27 263.55 272.724 264.073 272.36C264.605 271.996 265.38 271.814 266.397 271.814H267.713V271.198C267.713 270.75 267.592 270.405 267.349 270.162C267.106 269.919 266.728 269.798 266.215 269.798C265.786 269.798 265.436 269.891 265.165 270.078C264.894 270.265 264.666 270.503 264.479 270.792L263.569 269.966C263.812 269.555 264.152 269.219 264.591 268.958C265.03 268.687 265.604 268.552 266.313 268.552C267.256 268.552 267.979 268.771 268.483 269.21C268.987 269.649 269.239 270.279 269.239 271.1V274.754H270.009V276H269.155ZM266.075 275.006C266.551 275.006 266.943 274.903 267.251 274.698C267.559 274.483 267.713 274.199 267.713 273.844V272.794H266.425C265.37 272.794 264.843 273.121 264.843 273.774V274.026C264.843 274.353 264.95 274.6 265.165 274.768C265.389 274.927 265.692 275.006 266.075 275.006ZM274.519 276.168C273.996 276.168 273.529 276.079 273.119 275.902C272.708 275.725 272.363 275.473 272.083 275.146C271.803 274.81 271.588 274.409 271.439 273.942C271.289 273.466 271.215 272.939 271.215 272.36C271.215 271.781 271.289 271.259 271.439 270.792C271.588 270.316 271.803 269.915 272.083 269.588C272.363 269.252 272.708 268.995 273.119 268.818C273.529 268.641 273.996 268.552 274.519 268.552C275.247 268.552 275.844 268.715 276.311 269.042C276.777 269.369 277.118 269.803 277.333 270.344L276.073 270.932C275.97 270.596 275.788 270.33 275.527 270.134C275.275 269.929 274.939 269.826 274.519 269.826C273.959 269.826 273.534 270.003 273.245 270.358C272.965 270.703 272.825 271.156 272.825 271.716V273.018C272.825 273.578 272.965 274.035 273.245 274.39C273.534 274.735 273.959 274.908 274.519 274.908C274.967 274.908 275.321 274.801 275.583 274.586C275.853 274.362 276.068 274.068 276.227 273.704L277.389 274.32C277.146 274.917 276.782 275.375 276.297 275.692C275.811 276.009 275.219 276.168 274.519 276.168ZM279.041 265.64H280.567V271.996H280.637L281.645 270.694L283.395 268.72H285.173L282.625 271.534L285.481 276H283.661L281.575 272.528L280.567 273.62V276H279.041V265.64Z" fill="#141414"></path> <rect x="40" y="316" width="379" height="104" rx="8" fill="white"></rect> <rect x="40" y="316" width="379" height="104" rx="8" fill="#141414" fill-opacity="0.04"></rect> <rect x="57" y="337" width="62" height="62" rx="3" fill="white"></rect> <rect x="57" y="337" width="62" height="62" rx="3" fill="#141414" fill-opacity="0.04"></rect> <rect x="57" y="337" width="62" height="62" rx="3" stroke="white" stroke-width="2"></rect> <rect x="57" y="337" width="62" height="62" rx="3" stroke="#141414" stroke-opacity="0.16" stroke-width="2"></rect> <path d="M138.992 349L136.464 337.832H138.864L139.92 343.192L140.512 346.296H140.56L141.264 343.192L142.496 337.832H145.152L146.4 343.192L147.088 346.296H147.136L147.728 343.192L148.8 337.832H151.104L148.512 349H145.744L144.336 342.952L143.792 340.504H143.744L143.184 342.952L141.776 349H138.992ZM152.667 337.16H155.035V342.024H155.131C155.28 341.587 155.541 341.208 155.915 340.888C156.288 340.568 156.805 340.408 157.467 340.408C158.331 340.408 158.981 340.696 159.419 341.272C159.867 341.848 160.091 342.669 160.091 343.736V349H157.723V343.928C157.723 343.384 157.637 342.984 157.467 342.728C157.296 342.461 156.992 342.328 156.555 342.328C156.363 342.328 156.176 342.355 155.995 342.408C155.813 342.451 155.648 342.525 155.499 342.632C155.36 342.739 155.248 342.872 155.163 343.032C155.077 343.181 155.035 343.357 155.035 343.56V349H152.667V337.16ZM168.406 349C167.979 349 167.622 348.867 167.334 348.6C167.056 348.333 166.88 347.976 166.806 347.528H166.71C166.582 348.072 166.299 348.488 165.862 348.776C165.424 349.053 164.886 349.192 164.246 349.192C163.403 349.192 162.758 348.968 162.31 348.52C161.862 348.072 161.638 347.48 161.638 346.744C161.638 345.859 161.958 345.203 162.598 344.776C163.248 344.339 164.128 344.12 165.238 344.12H166.566V343.592C166.566 343.187 166.459 342.867 166.246 342.632C166.032 342.387 165.675 342.264 165.174 342.264C164.704 342.264 164.331 342.365 164.054 342.568C163.776 342.771 163.547 343 163.366 343.256L161.958 342.008C162.299 341.507 162.726 341.117 163.238 340.84C163.76 340.552 164.464 340.408 165.35 340.408C166.544 340.408 167.44 340.669 168.038 341.192C168.635 341.715 168.934 342.477 168.934 343.48V347.16H169.718V349H168.406ZM165.126 347.544C165.52 347.544 165.856 347.459 166.134 347.288C166.422 347.117 166.566 346.84 166.566 346.456V345.464H165.414C164.486 345.464 164.022 345.779 164.022 346.408V346.648C164.022 346.957 164.118 347.187 164.31 347.336C164.502 347.475 164.774 347.544 165.126 347.544ZM174.157 349C173.336 349 172.712 348.792 172.285 348.376C171.869 347.96 171.661 347.352 171.661 346.552V342.44H170.477V340.6H171.069C171.389 340.6 171.608 340.525 171.725 340.376C171.843 340.216 171.901 339.992 171.901 339.704V338.328H174.029V340.6H175.693V342.44H174.029V347.16H175.565V349H174.157ZM180.32 340.6H182.608L183.424 343.992L184 346.552H184.064L184.736 343.992L185.696 340.6H187.856L188.832 343.992L189.52 346.552H189.584L190.16 343.992L190.976 340.6H193.168L190.848 349H188.368L187.344 345.448L186.752 343.272H186.704L186.128 345.448L185.104 349H182.672L180.32 340.6ZM197.921 349.192C197.281 349.192 196.71 349.091 196.209 348.888C195.707 348.675 195.281 348.381 194.929 348.008C194.587 347.624 194.326 347.16 194.145 346.616C193.974 346.072 193.889 345.464 193.889 344.792C193.889 344.131 193.974 343.533 194.145 343C194.315 342.456 194.566 341.992 194.897 341.608C195.238 341.224 195.654 340.931 196.145 340.728C196.635 340.515 197.195 340.408 197.825 340.408C198.518 340.408 199.11 340.525 199.601 340.76C200.102 340.995 200.507 341.309 200.817 341.704C201.137 342.099 201.366 342.557 201.505 343.08C201.654 343.592 201.729 344.131 201.729 344.696V345.4H196.337V345.528C196.337 346.083 196.486 346.525 196.785 346.856C197.083 347.176 197.553 347.336 198.193 347.336C198.683 347.336 199.083 347.24 199.393 347.048C199.702 346.845 199.99 346.605 200.257 346.328L201.441 347.8C201.067 348.237 200.577 348.579 199.969 348.824C199.371 349.069 198.689 349.192 197.921 349.192ZM197.873 342.152C197.393 342.152 197.014 342.312 196.737 342.632C196.47 342.941 196.337 343.357 196.337 343.88V344.008H199.281V343.864C199.281 343.352 199.163 342.941 198.929 342.632C198.705 342.312 198.353 342.152 197.873 342.152ZM203.401 349V340.6H205.769V342.024H205.865C206.014 341.587 206.276 341.208 206.649 340.888C207.022 340.568 207.54 340.408 208.201 340.408C209.065 340.408 209.716 340.696 210.153 341.272C210.601 341.848 210.825 342.669 210.825 343.736V349H208.457V343.928C208.457 343.384 208.372 342.984 208.201 342.728C208.03 342.461 207.726 342.328 207.289 342.328C207.097 342.328 206.91 342.355 206.729 342.408C206.548 342.451 206.382 342.525 206.233 342.632C206.094 342.739 205.982 342.872 205.897 343.032C205.812 343.181 205.769 343.357 205.769 343.56V349H203.401ZM215.876 349C215.055 349 214.431 348.792 214.004 348.376C213.588 347.96 213.38 347.352 213.38 346.552V342.44H212.196V340.6H212.788C213.108 340.6 213.327 340.525 213.444 340.376C213.561 340.216 213.62 339.992 213.62 339.704V338.328H215.748V340.6H217.412V342.44H215.748V347.16H217.284V349H215.876ZM222.038 340.6H224.326L225.142 343.992L225.718 346.552H225.782L226.454 343.992L227.414 340.6H229.574L230.55 343.992L231.238 346.552H231.302L231.878 343.992L232.694 340.6H234.886L232.566 349H230.086L229.062 345.448L228.47 343.272H228.422L227.846 345.448L226.822 349H224.39L222.038 340.6ZM239.639 349.192C238.999 349.192 238.429 349.091 237.927 348.888C237.426 348.675 236.999 348.381 236.647 348.008C236.306 347.624 236.045 347.16 235.863 346.616C235.693 346.072 235.607 345.464 235.607 344.792C235.607 344.131 235.693 343.533 235.863 343C236.034 342.456 236.285 341.992 236.615 341.608C236.957 341.224 237.373 340.931 237.863 340.728C238.354 340.515 238.914 340.408 239.543 340.408C240.237 340.408 240.829 340.525 241.319 340.76C241.821 340.995 242.226 341.309 242.535 341.704C242.855 342.099 243.085 342.557 243.223 343.08C243.373 343.592 243.447 344.131 243.447 344.696V345.4H238.055V345.528C238.055 346.083 238.205 346.525 238.503 346.856C238.802 347.176 239.271 347.336 239.911 347.336C240.402 347.336 240.802 347.24 241.111 347.048C241.421 346.845 241.709 346.605 241.975 346.328L243.159 347.8C242.786 348.237 242.295 348.579 241.687 348.824C241.09 349.069 240.407 349.192 239.639 349.192ZM239.591 342.152C239.111 342.152 238.733 342.312 238.455 342.632C238.189 342.941 238.055 343.357 238.055 343.88V344.008H240.999V343.864C240.999 343.352 240.882 342.941 240.647 342.632C240.423 342.312 240.071 342.152 239.591 342.152ZM247.472 349C246.661 349 246.064 348.803 245.68 348.408C245.306 348.013 245.12 347.443 245.12 346.696V337.16H247.488V347.16H248.544V349H247.472ZM252.19 349C251.38 349 250.782 348.803 250.398 348.408C250.025 348.013 249.838 347.443 249.838 346.696V337.16H252.206V347.16H253.262V349H252.19ZM256.106 345.272V342.824C256.949 342.792 257.578 342.653 257.994 342.408C258.421 342.152 258.634 341.725 258.634 341.128V340.904C258.634 340.499 258.511 340.189 258.266 339.976C258.031 339.763 257.722 339.656 257.338 339.656C256.922 339.656 256.575 339.784 256.298 340.04C256.031 340.296 255.85 340.621 255.754 341.016L253.802 340.2C253.898 339.88 254.037 339.571 254.218 339.272C254.399 338.963 254.634 338.691 254.922 338.456C255.221 338.211 255.573 338.013 255.978 337.864C256.394 337.715 256.874 337.64 257.418 337.64C257.973 337.64 258.479 337.72 258.938 337.88C259.397 338.04 259.791 338.264 260.122 338.552C260.453 338.84 260.703 339.187 260.874 339.592C261.055 339.997 261.146 340.445 261.146 340.936C261.146 341.384 261.071 341.789 260.922 342.152C260.773 342.515 260.57 342.835 260.314 343.112C260.058 343.379 259.759 343.597 259.418 343.768C259.077 343.939 258.719 344.056 258.346 344.12V345.272H256.106ZM257.258 349.192C256.746 349.192 256.378 349.075 256.154 348.84C255.941 348.605 255.834 348.317 255.834 347.976V347.592C255.834 347.251 255.941 346.963 256.154 346.728C256.378 346.493 256.746 346.376 257.258 346.376C257.77 346.376 258.133 346.493 258.346 346.728C258.57 346.963 258.682 347.251 258.682 347.592V347.976C258.682 348.317 258.57 348.605 258.346 348.84C258.133 349.075 257.77 349.192 257.258 349.192ZM268.351 349L265.823 337.832H268.223L269.279 343.192L269.871 346.296H269.919L270.623 343.192L271.855 337.832H274.511L275.759 343.192L276.447 346.296H276.495L277.087 343.192L278.159 337.832H280.463L277.871 349H275.103L273.695 342.952L273.151 340.504H273.103L272.543 342.952L271.135 349H268.351ZM282.026 337.16H284.394V342.024H284.49C284.639 341.587 284.901 341.208 285.274 340.888C285.647 340.568 286.165 340.408 286.826 340.408C287.69 340.408 288.341 340.696 288.778 341.272C289.226 341.848 289.45 342.669 289.45 343.736V349H287.082V343.928C287.082 343.384 286.997 342.984 286.826 342.728C286.655 342.461 286.351 342.328 285.914 342.328C285.722 342.328 285.535 342.355 285.354 342.408C285.173 342.451 285.007 342.525 284.858 342.632C284.719 342.739 284.607 342.872 284.522 343.032C284.437 343.181 284.394 343.357 284.394 343.56V349H282.026V337.16ZM297.765 349C297.338 349 296.981 348.867 296.693 348.6C296.416 348.333 296.24 347.976 296.165 347.528H296.069C295.941 348.072 295.658 348.488 295.221 348.776C294.784 349.053 294.245 349.192 293.605 349.192C292.762 349.192 292.117 348.968 291.669 348.52C291.221 348.072 290.997 347.48 290.997 346.744C290.997 345.859 291.317 345.203 291.957 344.776C292.608 344.339 293.488 344.12 294.597 344.12H295.925V343.592C295.925 343.187 295.818 342.867 295.605 342.632C295.392 342.387 295.034 342.264 294.533 342.264C294.064 342.264 293.69 342.365 293.413 342.568C293.136 342.771 292.906 343 292.725 343.256L291.317 342.008C291.658 341.507 292.085 341.117 292.597 340.84C293.12 340.552 293.824 340.408 294.709 340.408C295.904 340.408 296.8 340.669 297.397 341.192C297.994 341.715 298.293 342.477 298.293 343.48V347.16H299.077V349H297.765ZM294.485 347.544C294.88 347.544 295.216 347.459 295.493 347.288C295.781 347.117 295.925 346.84 295.925 346.456V345.464H294.773C293.845 345.464 293.381 345.779 293.381 346.408V346.648C293.381 346.957 293.477 347.187 293.669 347.336C293.861 347.475 294.133 347.544 294.485 347.544ZM303.517 349C302.695 349 302.071 348.792 301.645 348.376C301.229 347.96 301.021 347.352 301.021 346.552V342.44H299.837V340.6H300.429C300.749 340.6 300.967 340.525 301.085 340.376C301.202 340.216 301.261 339.992 301.261 339.704V338.328H303.389V340.6H305.053V342.44H303.389V347.16H304.925V349H303.517ZM315.631 347.592H315.551C315.487 347.816 315.386 348.029 315.247 348.232C315.108 348.424 314.938 348.595 314.735 348.744C314.543 348.883 314.319 348.989 314.063 349.064C313.818 349.149 313.562 349.192 313.295 349.192C312.228 349.192 311.423 348.819 310.879 348.072C310.335 347.315 310.063 346.221 310.063 344.792C310.063 343.363 310.335 342.275 310.879 341.528C311.423 340.781 312.228 340.408 313.295 340.408C313.839 340.408 314.319 340.557 314.735 340.856C315.162 341.155 315.434 341.539 315.551 342.008H315.631V337.16H317.999V349H315.631V347.592ZM314.079 347.272C314.527 347.272 314.895 347.165 315.183 346.952C315.482 346.728 315.631 346.424 315.631 346.04V343.56C315.631 343.176 315.482 342.877 315.183 342.664C314.895 342.44 314.527 342.328 314.079 342.328C313.631 342.328 313.258 342.488 312.959 342.808C312.671 343.117 312.527 343.539 312.527 344.072V345.528C312.527 346.061 312.671 346.488 312.959 346.808C313.258 347.117 313.631 347.272 314.079 347.272ZM321.397 339.704C320.917 339.704 320.565 339.597 320.341 339.384C320.128 339.16 320.021 338.877 320.021 338.536V338.184C320.021 337.843 320.128 337.565 320.341 337.352C320.565 337.128 320.917 337.016 321.397 337.016C321.877 337.016 322.224 337.128 322.437 337.352C322.661 337.565 322.773 337.843 322.773 338.184V338.536C322.773 338.877 322.661 339.16 322.437 339.384C322.224 339.597 321.877 339.704 321.397 339.704ZM320.213 340.6H322.581V349H320.213V340.6ZM329.944 347.592H329.864C329.8 347.816 329.698 348.029 329.56 348.232C329.421 348.424 329.25 348.595 329.048 348.744C328.856 348.883 328.632 348.989 328.376 349.064C328.13 349.149 327.874 349.192 327.608 349.192C326.541 349.192 325.736 348.819 325.192 348.072C324.648 347.315 324.376 346.221 324.376 344.792C324.376 343.363 324.648 342.275 325.192 341.528C325.736 340.781 326.541 340.408 327.608 340.408C328.152 340.408 328.632 340.557 329.048 340.856C329.474 341.155 329.746 341.539 329.864 342.008H329.944V337.16H332.312V349H329.944V347.592ZM328.391 347.272C328.84 347.272 329.208 347.165 329.496 346.952C329.794 346.728 329.944 346.424 329.944 346.04V343.56C329.944 343.176 329.794 342.877 329.496 342.664C329.208 342.44 328.84 342.328 328.391 342.328C327.944 342.328 327.57 342.488 327.272 342.808C326.984 343.117 326.84 343.539 326.84 344.072V345.528C326.84 346.061 326.984 346.488 327.272 346.808C327.57 347.117 327.944 347.272 328.391 347.272ZM334.526 349V340.6H336.894V342.024H336.99C337.139 341.587 337.401 341.208 337.774 340.888C338.147 340.568 338.665 340.408 339.326 340.408C340.19 340.408 340.841 340.696 341.278 341.272C341.726 341.848 341.95 342.669 341.95 343.736V349H339.582V343.928C339.582 343.384 339.497 342.984 339.326 342.728C339.155 342.461 338.851 342.328 338.414 342.328C338.222 342.328 338.035 342.355 337.854 342.408C337.673 342.451 337.507 342.525 337.358 342.632C337.219 342.739 337.107 342.872 337.022 343.032C336.937 343.181 336.894 343.357 336.894 343.56V349H334.526ZM345.073 337C345.553 337 345.899 337.112 346.113 337.336C346.337 337.549 346.449 337.821 346.449 338.152V338.488C346.449 338.797 346.401 339.112 346.305 339.432C346.219 339.741 346.097 340.04 345.937 340.328C345.787 340.616 345.606 340.888 345.393 341.144C345.179 341.389 344.95 341.608 344.705 341.8H343.217C343.569 341.48 343.867 341.155 344.113 340.824C344.369 340.493 344.561 340.125 344.689 339.72C344.347 339.656 344.097 339.517 343.937 339.304C343.777 339.08 343.697 338.829 343.697 338.552V338.152C343.697 337.821 343.803 337.549 344.017 337.336C344.241 337.112 344.593 337 345.073 337ZM351.329 349C350.508 349 349.884 348.792 349.457 348.376C349.041 347.96 348.833 347.352 348.833 346.552V342.44H347.649V340.6H348.241C348.561 340.6 348.78 340.525 348.897 340.376C349.015 340.216 349.073 339.992 349.073 339.704V338.328H351.201V340.6H352.865V342.44H351.201V347.16H352.737V349H351.329ZM366.068 349.608C366.068 350.056 365.988 350.451 365.828 350.792C365.678 351.133 365.428 351.421 365.076 351.656C364.724 351.901 364.254 352.083 363.668 352.2C363.092 352.328 362.377 352.392 361.524 352.392C360.798 352.392 360.18 352.344 359.668 352.248C359.166 352.163 358.756 352.035 358.436 351.864C358.126 351.704 357.897 351.501 357.748 351.256C357.609 351.021 357.54 350.749 357.54 350.44C357.54 349.971 357.678 349.603 357.956 349.336C358.233 349.069 358.617 348.904 359.108 348.84V348.664C358.702 348.589 358.398 348.419 358.196 348.152C357.993 347.875 357.892 347.555 357.892 347.192C357.892 346.968 357.934 346.776 358.02 346.616C358.116 346.445 358.233 346.301 358.372 346.184C358.521 346.056 358.692 345.955 358.884 345.88C359.076 345.805 359.268 345.747 359.46 345.704V345.64C358.948 345.405 358.569 345.085 358.324 344.68C358.078 344.264 357.956 343.784 357.956 343.24C357.956 342.387 358.249 341.704 358.836 341.192C359.433 340.669 360.34 340.408 361.556 340.408C362.11 340.408 362.585 340.461 362.98 340.568V340.248C362.98 339.8 363.086 339.48 363.3 339.288C363.524 339.085 363.838 338.984 364.244 338.984H365.572V340.744H363.716V340.84C364.206 341.075 364.569 341.4 364.804 341.816C365.038 342.221 365.156 342.696 365.156 343.24C365.156 344.083 364.857 344.76 364.26 345.272C363.673 345.773 362.772 346.024 361.556 346.024C361.012 346.024 360.516 345.965 360.068 345.848C359.822 346.008 359.7 346.232 359.7 346.52C359.7 346.723 359.774 346.883 359.924 347C360.084 347.107 360.345 347.16 360.708 347.16H363.14C364.164 347.16 364.905 347.373 365.364 347.8C365.833 348.227 366.068 348.829 366.068 349.608ZM363.844 349.928C363.844 349.683 363.748 349.496 363.556 349.368C363.364 349.24 363.028 349.176 362.548 349.176H359.668C359.561 349.283 359.481 349.4 359.428 349.528C359.385 349.667 359.364 349.8 359.364 349.928C359.364 350.237 359.497 350.461 359.764 350.6C360.03 350.749 360.484 350.824 361.124 350.824H362.084C362.724 350.824 363.177 350.749 363.444 350.6C363.71 350.461 363.844 350.237 363.844 349.928ZM361.556 344.472C362.025 344.472 362.372 344.376 362.596 344.184C362.83 343.981 362.948 343.693 362.948 343.32V343.128C362.948 342.755 362.83 342.472 362.596 342.28C362.372 342.077 362.025 341.976 361.556 341.976C361.086 341.976 360.734 342.077 360.5 342.28C360.276 342.472 360.164 342.755 360.164 343.128V343.32C360.164 343.693 360.276 343.981 360.5 344.184C360.734 344.376 361.086 344.472 361.556 344.472ZM370.434 349.192C369.815 349.192 369.261 349.091 368.77 348.888C368.29 348.685 367.879 348.392 367.538 348.008C367.207 347.624 366.951 347.16 366.77 346.616C366.589 346.072 366.498 345.464 366.498 344.792C366.498 344.12 366.589 343.512 366.77 342.968C366.951 342.424 367.207 341.965 367.538 341.592C367.879 341.208 368.29 340.915 368.77 340.712C369.261 340.509 369.815 340.408 370.434 340.408C371.053 340.408 371.602 340.509 372.082 340.712C372.573 340.915 372.983 341.208 373.314 341.592C373.655 341.965 373.917 342.424 374.098 342.968C374.279 343.512 374.37 344.12 374.37 344.792C374.37 345.464 374.279 346.072 374.098 346.616C373.917 347.16 373.655 347.624 373.314 348.008C372.983 348.392 372.573 348.685 372.082 348.888C371.602 349.091 371.053 349.192 370.434 349.192ZM370.434 347.32C370.903 347.32 371.266 347.176 371.522 346.888C371.778 346.6 371.906 346.189 371.906 345.656V343.944C371.906 343.411 371.778 343 371.522 342.712C371.266 342.424 370.903 342.28 370.434 342.28C369.965 342.28 369.602 342.424 369.346 342.712C369.09 343 368.962 343.411 368.962 343.944V345.656C368.962 346.189 369.09 346.6 369.346 346.888C369.602 347.176 369.965 347.32 370.434 347.32ZM136.304 362.6H138.592L139.408 365.992L139.984 368.552H140.048L140.72 365.992L141.68 362.6H143.84L144.816 365.992L145.504 368.552H145.568L146.144 365.992L146.96 362.6H149.152L146.832 371H144.352L143.328 367.448L142.736 365.272H142.688L142.112 367.448L141.088 371H138.656L136.304 362.6ZM153.905 371.192C153.265 371.192 152.694 371.091 152.193 370.888C151.692 370.675 151.265 370.381 150.913 370.008C150.572 369.624 150.31 369.16 150.129 368.616C149.958 368.072 149.873 367.464 149.873 366.792C149.873 366.131 149.958 365.533 150.129 365C150.3 364.456 150.55 363.992 150.881 363.608C151.222 363.224 151.638 362.931 152.129 362.728C152.62 362.515 153.18 362.408 153.809 362.408C154.502 362.408 155.094 362.525 155.585 362.76C156.086 362.995 156.492 363.309 156.801 363.704C157.121 364.099 157.35 364.557 157.489 365.08C157.638 365.592 157.713 366.131 157.713 366.696V367.4H152.321V367.528C152.321 368.083 152.47 368.525 152.769 368.856C153.068 369.176 153.537 369.336 154.177 369.336C154.668 369.336 155.068 369.24 155.377 369.048C155.686 368.845 155.974 368.605 156.241 368.328L157.425 369.8C157.052 370.237 156.561 370.579 155.953 370.824C155.356 371.069 154.673 371.192 153.905 371.192ZM153.857 364.152C153.377 364.152 152.998 364.312 152.721 364.632C152.454 364.941 152.321 365.357 152.321 365.88V366.008H155.265V365.864C155.265 365.352 155.148 364.941 154.913 364.632C154.689 364.312 154.337 364.152 153.857 364.152ZM161.737 371C160.927 371 160.329 370.803 159.945 370.408C159.572 370.013 159.385 369.443 159.385 368.696V359.16H161.753V369.16H162.809V371H161.737ZM166.456 371C165.645 371 165.048 370.803 164.664 370.408C164.291 370.013 164.104 369.443 164.104 368.696V359.16H166.472V369.16H167.528V371H166.456ZM170.372 367.272V364.824C171.214 364.792 171.844 364.653 172.26 364.408C172.686 364.152 172.9 363.725 172.9 363.128V362.904C172.9 362.499 172.777 362.189 172.532 361.976C172.297 361.763 171.988 361.656 171.604 361.656C171.188 361.656 170.841 361.784 170.564 362.04C170.297 362.296 170.116 362.621 170.02 363.016L168.068 362.2C168.164 361.88 168.302 361.571 168.484 361.272C168.665 360.963 168.9 360.691 169.188 360.456C169.486 360.211 169.838 360.013 170.244 359.864C170.66 359.715 171.14 359.64 171.684 359.64C172.238 359.64 172.745 359.72 173.204 359.88C173.662 360.04 174.057 360.264 174.388 360.552C174.718 360.84 174.969 361.187 175.14 361.592C175.321 361.997 175.412 362.445 175.412 362.936C175.412 363.384 175.337 363.789 175.188 364.152C175.038 364.515 174.836 364.835 174.58 365.112C174.324 365.379 174.025 365.597 173.684 365.768C173.342 365.939 172.985 366.056 172.612 366.12V367.272H170.372ZM171.524 371.192C171.012 371.192 170.644 371.075 170.42 370.84C170.206 370.605 170.1 370.317 170.1 369.976V369.592C170.1 369.251 170.206 368.963 170.42 368.728C170.644 368.493 171.012 368.376 171.524 368.376C172.036 368.376 172.398 368.493 172.612 368.728C172.836 368.963 172.948 369.251 172.948 369.592V369.976C172.948 370.317 172.836 370.605 172.612 370.84C172.398 371.075 172.036 371.192 171.524 371.192Z" fill="#141414"></path> </g> </g> <defs> <filter id="filter0_d_322_26069" x="-16" y="-2" width="491" height="583" filterUnits="userSpaceOnUse" color-interpolation-filters="sRGB"> <feFlood flood-opacity="0" result="BackgroundImageFix"></feFlood> <feColorMatrix in="SourceAlpha" type="matrix" values="0 0 0 0 0 0 0 0 0 0 0 0 0 0 0 0 0 0 127 0" result="hardAlpha"></feColorMatrix> <feOffset dy="16"></feOffset> <feGaussianBlur stdDeviation="16"></feGaussianBlur> <feColorMatrix type="matrix" values="0 0 0 0 0 0 0 0 0 0 0 0 0 0 0 0 0 0 0.16 0"></feColorMatrix> <feBlend mode="normal" in2="BackgroundImageFix" result="effect1_dropShadow_322_26069"></feBlend> <feBlend mode="normal" in="SourceGraphic" in2="effect1_dropShadow_322_26069" result="shape"></feBlend> </filter> <clipPath id="clip0_322_26069"> <rect width="460" height="340" rx="8" fill="white"></rect> </clipPath> </defs> </svg> 