<?xml version="1.0" encoding="UTF-8"?> <svg xmlns="http://www.w3.org/2000/svg" width="91" height="18" viewBox="0 0 91 18" fill="none"> <path d="M83.6437 17.2685C82.9107 17.3326 82.3618 16.6099 82.6203 15.921L88.3324 0.697242C88.4676 0.336726 88.7979 0.0859011 89.1815 0.0523411L89.7343 0.00397716C90.4673 -0.0601508 91.0162 0.662577 90.7577 1.35147L85.0456 16.5752C84.9103 16.9358 84.5801 17.1866 84.1965 17.2201L83.6437 17.2685Z" fill="black"></path> <path d="M65.6214 13.9019C65.6214 14.1228 65.8005 14.3019 66.0214 14.3019H68.6234C68.8443 14.3019 69.0234 14.1228 69.0234 13.9019V7.69988C69.0234 7.47897 69.2025 7.29988 69.4234 7.29988H70.8014C71.0223 7.29988 71.2014 7.1208 71.2014 6.89988V5.07188C71.2014 4.85097 71.0223 4.67188 70.8014 4.67188H69.2034C69.0742 4.67188 68.9694 4.56712 68.9694 4.43788C68.9694 3.82588 69.2934 3.51988 69.9414 3.51988C70.1932 3.51988 70.4429 3.54231 70.6907 3.58715C70.9565 3.63527 71.2194 3.44301 71.2194 3.17288V1.6035C71.2194 1.42685 71.1038 1.26975 70.9319 1.22912C70.3868 1.1003 69.7386 1.03588 68.9874 1.03588C67.8594 1.03588 67.0134 1.31788 66.4494 1.88188C65.8974 2.43388 65.6214 3.27388 65.6214 4.40189C65.6214 4.52118 65.5247 4.61788 65.4054 4.61788H64.8874C64.6665 4.61788 64.4874 4.79697 64.4874 5.01788V6.89988C64.4874 7.1208 64.6665 7.29988 64.8874 7.29988H65.2214C65.4423 7.29988 65.6214 7.47897 65.6214 7.69988V13.9019Z" fill="black"></path> <path d="M13.7824 14.3019C13.5615 14.3019 13.3824 14.1228 13.3824 13.9019V1.56188C13.3824 1.34097 13.5615 1.16188 13.7824 1.16188H16.4024C16.6234 1.16188 16.8024 1.34097 16.8024 1.56188V4.7316C16.8024 5.1123 17.3173 5.30245 17.6184 5.06947C18.2401 4.58841 18.9401 4.34788 19.7184 4.34788C20.7504 4.34788 21.5604 4.67188 22.1484 5.31988C22.7364 5.95588 23.0304 6.82588 23.0304 7.92988V13.9019C23.0304 14.1228 22.8514 14.3019 22.6304 14.3019H20.0104C19.7895 14.3019 19.6104 14.1228 19.6104 13.9019V9.02788C19.6104 8.51188 19.4844 8.10988 19.2324 7.82188C18.9924 7.53388 18.6624 7.38988 18.2424 7.38988C17.8104 7.38988 17.4624 7.53388 17.1984 7.82188C16.9344 8.10988 16.8024 8.51188 16.8024 9.02788V13.9019C16.8024 14.1228 16.6234 14.3019 16.4024 14.3019H13.7824Z" fill="black"></path> <path d="M6.498 14.5539C4.674 14.5539 3.132 13.9359 1.872 12.6999C0.624 11.4519 0 9.88589 0 8.00188C0 6.15388 0.63 4.59988 1.89 3.33988C3.162 2.07988 4.746 1.44988 6.642 1.44988C8.75235 1.44988 10.4382 2.23526 11.6995 3.806C11.8346 3.97423 11.7987 4.21873 11.6281 4.35086L9.68884 5.85309C9.51631 5.98674 9.26976 5.95583 9.12069 5.79644C8.39708 5.02274 7.55885 4.63589 6.606 4.63589C5.73 4.63589 5.01 4.95988 4.446 5.60788C3.882 6.25588 3.6 7.05388 3.6 8.00188C3.6 8.96188 3.882 9.76588 4.446 10.4139C5.01 11.0499 5.73 11.3679 6.606 11.3679C7.218 11.3679 7.74 11.2419 8.172 10.9899C8.52047 10.7769 8.86503 10.4859 9.20569 10.1168C9.34755 9.96308 9.58163 9.93165 9.752 10.053L11.7477 11.4746C11.9294 11.604 11.9708 11.8577 11.8308 12.0314C11.2284 12.7787 10.5428 13.3736 9.774 13.8159C8.898 14.3079 7.806 14.5539 6.498 14.5539Z" fill="black"></path> <path fill-rule="evenodd" clip-rule="evenodd" d="M24.7906 16.7819C24.7906 17.0028 24.9697 17.1819 25.1906 17.1819H27.8106C28.0316 17.1819 28.2106 17.0028 28.2106 16.7819V14.1934C28.2106 13.8223 28.7 13.6289 29.003 13.8431C29.6395 14.293 30.3654 14.5179 31.1806 14.5179C32.3806 14.5179 33.3946 14.0559 34.2226 13.1319C35.0626 12.1959 35.4826 10.9599 35.4826 9.42388C35.4826 7.89988 35.0626 6.67588 34.2226 5.75188C33.3826 4.81588 32.3626 4.34788 31.1626 4.34788C30.3159 4.34788 29.5551 4.62596 28.8805 5.18212C28.633 5.38617 28.2106 5.22637 28.2106 4.90558C28.2106 4.71687 28.0577 4.56388 27.8689 4.56388H25.1906C24.9697 4.56388 24.7906 4.74297 24.7906 4.96388V16.7819ZM31.5406 11.0259C31.1566 11.4459 30.6826 11.6559 30.1186 11.6559C29.5666 11.6559 29.0986 11.4459 28.7146 11.0259C28.3306 10.6059 28.1386 10.0779 28.1386 9.44188C28.1386 8.79388 28.3306 8.25988 28.7146 7.83988C29.0986 7.41988 29.5666 7.20988 30.1186 7.20988C30.6826 7.20988 31.1566 7.41988 31.5406 7.83988C31.9246 8.24788 32.1166 8.76989 32.1166 9.40588C32.1166 10.0659 31.9246 10.6059 31.5406 11.0259Z" fill="black"></path> <path fill-rule="evenodd" clip-rule="evenodd" d="M41.9227 14.5359C40.3867 14.5359 39.1087 14.0439 38.0887 13.0599C37.0687 12.0639 36.5587 10.8579 36.5587 9.44188C36.5587 8.03788 37.0687 6.83788 38.0887 5.84188C39.1207 4.84588 40.4107 4.34788 41.9587 4.34788C43.4947 4.34788 44.7727 4.84588 45.7927 5.84188C46.8127 6.82588 47.3227 8.02588 47.3227 9.44188C47.3227 10.8459 46.8067 12.0459 45.7747 13.0419C44.7547 14.0379 43.4707 14.5359 41.9227 14.5359ZM41.9587 11.6379C42.5707 11.6379 43.0627 11.4279 43.4347 11.0079C43.8067 10.5879 43.9927 10.0659 43.9927 9.44188C43.9927 8.84188 43.7947 8.32588 43.3987 7.89388C43.0027 7.46188 42.5107 7.24588 41.9227 7.24588C41.3107 7.24588 40.8187 7.45588 40.4467 7.87588C40.0747 8.29588 39.8887 8.81788 39.8887 9.44188C39.8887 10.0419 40.0867 10.5579 40.4827 10.9899C40.8787 11.4219 41.3707 11.6379 41.9587 11.6379Z" fill="black"></path> <path d="M48.7672 13.9019C48.7672 14.1228 48.9463 14.3019 49.1672 14.3019H51.7872C52.0081 14.3019 52.1872 14.1228 52.1872 13.9019V12.1642C52.1872 12.0685 52.2215 11.976 52.2839 11.9034L52.7058 11.4126C52.8843 11.205 53.2138 11.234 53.3533 11.4695L54.915 14.1058C54.987 14.2273 55.1179 14.3019 55.2592 14.3019H58.0893C58.3997 14.3019 58.5918 13.9638 58.433 13.6972L55.4671 8.71812C55.3788 8.56994 55.3955 8.38186 55.5084 8.2515L58.1297 5.2258C58.3542 4.96676 58.1702 4.56388 57.8274 4.56388H55.0236C54.9032 4.56388 54.7891 4.61819 54.7131 4.71171L52.8977 6.94705C52.6603 7.23942 52.1872 7.07152 52.1872 6.69488V1.56188C52.1872 1.34097 52.0081 1.16188 51.7872 1.16188H49.1672C48.9463 1.16188 48.7672 1.34097 48.7672 1.56188V13.9019Z" fill="black"></path> <path d="M60.0849 14.3019C59.864 14.3019 59.6849 14.1228 59.6849 13.9019V4.96388C59.6849 4.74297 59.864 4.56388 60.0849 4.56388H62.7049C62.9258 4.56388 63.1049 4.74297 63.1049 4.96388V13.9019C63.1049 14.1228 62.9258 14.3019 62.7049 14.3019H60.0849Z" fill="black"></path> <path d="M60.0129 3.68188C59.792 3.68188 59.6129 3.5028 59.6129 3.28188V1.56188C59.6129 1.34097 59.792 1.16188 60.0129 1.16188H62.7769C62.9978 1.16188 63.1769 1.34097 63.1769 1.56188V3.28188C63.1769 3.5028 62.9978 3.68188 62.7769 3.68188H60.0129Z" fill="black"></path> <path d="M75.1667 17.2359C74.2015 17.2359 73.2649 17.0106 72.3572 16.5601C72.1721 16.4682 72.0988 16.2455 72.1826 16.0566L72.9127 14.4107C73.0104 14.1906 73.2783 14.1082 73.4944 14.2146C73.9051 14.4168 74.2706 14.5179 74.5907 14.5179C74.8479 14.5179 75.0628 14.4406 75.2356 14.286C75.338 14.1944 75.3518 14.0445 75.3009 13.9168L71.7856 5.1122C71.6808 4.84949 71.8743 4.56388 72.1571 4.56388H74.8599C75.0323 4.56388 75.1853 4.6744 75.2396 4.83809L76.7021 9.2529C76.8243 9.62173 77.3476 9.61737 77.4636 9.24655L78.841 4.84444C78.8932 4.67752 79.0478 4.56388 79.2227 4.56388H81.8615C82.1408 4.56388 82.3341 4.84283 82.2361 5.10433L78.8747 14.0679C78.4427 15.2199 77.9567 16.0359 77.4167 16.5159C76.8767 16.9959 76.1267 17.2359 75.1667 17.2359Z" fill="black"></path> </svg> 