<?xml version="1.0" encoding="UTF-8"?> <svg xmlns="http://www.w3.org/2000/svg" width="460" height="340" viewBox="0 0 460 340" fill="none"> <g clip-path="url(#clip0_143_9192)"> <rect width="460" height="340" rx="8" fill="#F6F6F6"></rect> <path d="M297.811 56.4773C296.508 56.5913 295.532 55.3065 295.992 54.0818L306.147 27.0173C306.387 26.3764 306.974 25.9305 307.656 25.8708L308.639 25.7848C309.942 25.6708 310.918 26.9557 310.458 28.1804L300.304 55.2449C300.063 55.8858 299.476 56.3317 298.794 56.3914L297.811 56.4773Z" fill="#141414"></path> <path d="M265.772 50.4922C265.772 50.885 266.09 51.2033 266.483 51.2033H271.108C271.501 51.2033 271.82 50.885 271.82 50.4922V39.4665C271.82 39.0737 272.138 38.7553 272.531 38.7553H274.98C275.373 38.7553 275.692 38.437 275.692 38.0442V34.7945C275.692 34.4017 275.373 34.0833 274.98 34.0833H272.14C271.91 34.0833 271.724 33.8971 271.724 33.6673C271.724 32.5793 272.3 32.0353 273.452 32.0353C273.899 32.0353 274.343 32.0752 274.784 32.1549C275.256 32.2405 275.724 31.8987 275.724 31.4184V28.6284C275.724 28.3144 275.518 28.0351 275.213 27.9629C274.243 27.7339 273.091 27.6193 271.756 27.6193C269.75 27.6193 268.246 28.1207 267.244 29.1233C266.262 30.1047 265.772 31.598 265.772 33.6033C265.772 33.8154 265.6 33.9873 265.388 33.9873H264.467C264.074 33.9873 263.756 34.3057 263.756 34.6985V38.0442C263.756 38.437 264.074 38.7553 264.467 38.7553H265.06C265.453 38.7553 265.772 39.0737 265.772 39.4665V50.4922Z" fill="#141414"></path> <path d="M173.613 51.2033C173.221 51.2033 172.902 50.885 172.902 50.4922V28.5545C172.902 28.1617 173.221 27.8433 173.613 27.8433H178.271C178.664 27.8433 178.982 28.1617 178.982 28.5545V34.1895C178.982 34.8663 179.898 35.2043 180.433 34.7902C181.538 33.935 182.783 33.5073 184.166 33.5073C186.001 33.5073 187.441 34.0833 188.486 35.2353C189.532 36.366 190.054 37.9127 190.054 39.8753V50.4922C190.054 50.885 189.736 51.2033 189.343 51.2033H184.685C184.293 51.2033 183.974 50.885 183.974 50.4922V41.8273C183.974 40.91 183.75 40.1953 183.302 39.6833C182.876 39.1713 182.289 38.9153 181.542 38.9153C180.774 38.9153 180.156 39.1713 179.686 39.6833C179.217 40.1953 178.982 40.91 178.982 41.8273V50.4922C178.982 50.885 178.664 51.2033 178.271 51.2033H173.613Z" fill="#141414"></path> <path d="M160.663 51.6513C157.421 51.6513 154.679 50.5527 152.439 48.3553C150.221 46.1367 149.111 43.3527 149.111 40.0033C149.111 36.718 150.231 33.9553 152.471 31.7153C154.733 29.4753 157.549 28.3553 160.919 28.3553C164.671 28.3553 167.668 29.7516 169.91 32.544C170.151 32.8431 170.087 33.2777 169.783 33.5126L166.336 36.1833C166.029 36.4209 165.591 36.3659 165.326 36.0826C164.039 34.7071 162.549 34.0193 160.855 34.0193C159.298 34.0193 158.018 34.5953 157.015 35.7473C156.013 36.8993 155.511 38.318 155.511 40.0033C155.511 41.71 156.013 43.1393 157.015 44.2913C158.018 45.422 159.298 45.9873 160.855 45.9873C161.943 45.9873 162.871 45.7633 163.639 45.3153C164.259 44.9368 164.871 44.4194 165.477 43.7632C165.729 43.4899 166.145 43.434 166.448 43.6498L169.996 46.177C170.319 46.4071 170.393 46.8582 170.144 47.1669C169.073 48.4955 167.854 49.553 166.487 50.3393C164.93 51.214 162.989 51.6513 160.663 51.6513Z" fill="#141414"></path> <path fill-rule="evenodd" clip-rule="evenodd" d="M193.184 55.6122C193.184 56.005 193.502 56.3233 193.895 56.3233H198.552C198.945 56.3233 199.264 56.005 199.264 55.6122V51.0105C199.264 50.3507 200.133 50.007 200.672 50.3878C201.804 51.1875 203.094 51.5873 204.544 51.5873C206.677 51.5873 208.48 50.766 209.952 49.1233C211.445 47.4593 212.192 45.262 212.192 42.5313C212.192 39.822 211.445 37.646 209.952 36.0033C208.458 34.3393 206.645 33.5073 204.512 33.5073C203.006 33.5073 201.654 34.0017 200.454 34.9904C200.014 35.3532 199.264 35.0691 199.264 34.4988C199.264 34.1633 198.992 33.8913 198.656 33.8913H193.895C193.502 33.8913 193.184 34.2097 193.184 34.6025V55.6122ZM205.184 45.3793C204.501 46.126 203.658 46.4993 202.656 46.4993C201.674 46.4993 200.842 46.126 200.16 45.3793C199.477 44.6327 199.136 43.694 199.136 42.5633C199.136 41.4113 199.477 40.462 200.16 39.7153C200.842 38.9687 201.674 38.5953 202.656 38.5953C203.658 38.5953 204.501 38.9687 205.184 39.7153C205.866 40.4407 206.208 41.3687 206.208 42.4993C206.208 43.6727 205.866 44.6327 205.184 45.3793Z" fill="#141414"></path> <path fill-rule="evenodd" clip-rule="evenodd" d="M223.641 51.6193C220.91 51.6193 218.638 50.7447 216.825 48.9953C215.011 47.2247 214.105 45.0807 214.105 42.5633C214.105 40.0673 215.011 37.934 216.825 36.1633C218.659 34.3927 220.953 33.5073 223.705 33.5073C226.435 33.5073 228.707 34.3927 230.521 36.1633C232.334 37.9127 233.241 40.046 233.241 42.5633C233.241 45.0593 232.323 47.1927 230.489 48.9633C228.675 50.734 226.393 51.6193 223.641 51.6193ZM223.705 46.4673C224.793 46.4673 225.667 46.094 226.329 45.3473C226.99 44.6007 227.321 43.6727 227.321 42.5633C227.321 41.4967 226.969 40.5793 226.265 39.8113C225.561 39.0433 224.686 38.6593 223.641 38.6593C222.553 38.6593 221.678 39.0327 221.017 39.7793C220.355 40.526 220.025 41.454 220.025 42.5633C220.025 43.63 220.377 44.5473 221.081 45.3153C221.785 46.0833 222.659 46.4673 223.705 46.4673Z" fill="#141414"></path> <path d="M235.809 50.4922C235.809 50.885 236.127 51.2033 236.52 51.2033H241.177C241.57 51.2033 241.889 50.885 241.889 50.4922V47.403C241.889 47.2329 241.95 47.0684 242.06 46.9394L242.811 46.0668C243.128 45.6978 243.714 45.7493 243.962 46.1679L246.738 50.8547C246.866 51.0708 247.099 51.2033 247.35 51.2033H252.381C252.933 51.2033 253.275 50.6023 252.992 50.1283L247.719 41.2767C247.563 41.0132 247.592 40.6789 247.793 40.4471L252.453 35.0681C252.852 34.6076 252.525 33.8913 251.916 33.8913H246.931C246.717 33.8913 246.514 33.9879 246.379 34.1541L243.152 38.1281C242.73 38.6478 241.889 38.3494 241.889 37.6798V28.5545C241.889 28.1617 241.57 27.8433 241.177 27.8433H236.52C236.127 27.8433 235.809 28.1617 235.809 28.5545V50.4922Z" fill="#141414"></path> <path d="M255.929 51.2033C255.536 51.2033 255.218 50.885 255.218 50.4922V34.6025C255.218 34.2097 255.536 33.8913 255.929 33.8913H260.587C260.979 33.8913 261.298 34.2097 261.298 34.6025V50.4922C261.298 50.885 260.979 51.2033 260.587 51.2033H255.929Z" fill="#141414"></path> <path d="M255.801 32.3233C255.408 32.3233 255.09 32.005 255.09 31.6122V28.5545C255.09 28.1617 255.408 27.8433 255.801 27.8433H260.715C261.107 27.8433 261.426 28.1617 261.426 28.5545V31.6122C261.426 32.005 261.107 32.3233 260.715 32.3233H255.801Z" fill="#141414"></path> <path d="M282.741 56.4193C281.025 56.4193 279.36 56.0189 277.746 55.2179C277.417 55.0546 277.287 54.6586 277.436 54.3229L278.734 51.3969C278.908 51.0055 279.384 50.8591 279.768 51.0482C280.498 51.4076 281.148 51.5873 281.717 51.5873C282.174 51.5873 282.556 51.4499 282.864 51.1751C283.046 51.0122 283.07 50.7457 282.98 50.5188L276.73 34.8661C276.544 34.3991 276.888 33.8913 277.391 33.8913H282.196C282.502 33.8913 282.774 34.0878 282.871 34.3788L285.471 42.2274C285.688 42.8831 286.618 42.8753 286.824 42.2161L289.273 34.3901C289.366 34.0934 289.641 33.8913 289.952 33.8913H294.643C295.139 33.8913 295.483 34.3873 295.309 34.8521L289.333 50.7873C288.565 52.8353 287.701 54.286 286.741 55.1393C285.781 55.9927 284.448 56.4193 282.741 56.4193Z" fill="#141414"></path> <g filter="url(#filter0_d_143_9192)"> <rect x="30" y="80" width="400" height="387" rx="12" fill="white"></rect> <path d="M65.664 111.248V123.152C65.664 123.92 65.536 124.624 65.28 125.264C65.04 125.888 64.68 126.424 64.2 126.872C63.72 127.304 63.136 127.648 62.448 127.904C61.776 128.144 61.008 128.264 60.144 128.264C59.312 128.264 58.576 128.152 57.936 127.928C57.312 127.704 56.768 127.384 56.304 126.968C55.856 126.552 55.488 126.056 55.2 125.48C54.912 124.904 54.712 124.264 54.6 123.56L58.008 122.888C58.28 124.344 58.976 125.072 60.096 125.072C60.624 125.072 61.072 124.904 61.44 124.568C61.824 124.232 62.016 123.704 62.016 122.984V114.176H56.928V111.248H65.664ZM74.1743 128.288C73.2463 128.288 72.4143 128.136 71.6783 127.832C70.9583 127.528 70.3423 127.088 69.8303 126.512C69.3343 125.936 68.9503 125.24 68.6783 124.424C68.4063 123.608 68.2703 122.696 68.2703 121.688C68.2703 120.68 68.4063 119.768 68.6783 118.952C68.9503 118.136 69.3343 117.448 69.8303 116.888C70.3423 116.312 70.9583 115.872 71.6783 115.568C72.4143 115.264 73.2463 115.112 74.1743 115.112C75.1023 115.112 75.9263 115.264 76.6463 115.568C77.3823 115.872 77.9983 116.312 78.4943 116.888C79.0063 117.448 79.3983 118.136 79.6703 118.952C79.9423 119.768 80.0782 120.68 80.0782 121.688C80.0782 122.696 79.9423 123.608 79.6703 124.424C79.3983 125.24 79.0063 125.936 78.4943 126.512C77.9983 127.088 77.3823 127.528 76.6463 127.832C75.9263 128.136 75.1023 128.288 74.1743 128.288ZM74.1743 125.48C74.8783 125.48 75.4223 125.264 75.8063 124.832C76.1903 124.4 76.3823 123.784 76.3823 122.984V120.416C76.3823 119.616 76.1903 119 75.8063 118.568C75.4223 118.136 74.8783 117.92 74.1743 117.92C73.4703 117.92 72.9263 118.136 72.5423 118.568C72.1583 119 71.9663 119.616 71.9663 120.416V122.984C71.9663 123.784 72.1583 124.4 72.5423 124.832C72.9263 125.264 73.4703 125.48 74.1743 125.48ZM84.3851 114.056C83.6651 114.056 83.1371 113.896 82.8011 113.576C82.4811 113.24 82.3211 112.816 82.3211 112.304V111.776C82.3211 111.264 82.4811 110.848 82.8011 110.528C83.1371 110.192 83.6651 110.024 84.3851 110.024C85.1051 110.024 85.6251 110.192 85.9451 110.528C86.2811 110.848 86.4491 111.264 86.4491 111.776V112.304C86.4491 112.816 86.2811 113.24 85.9451 113.576C85.6251 113.896 85.1051 114.056 84.3851 114.056ZM82.6091 115.4H86.1611V128H82.6091V115.4ZM89.4763 128V115.4H93.0283V117.536H93.1723C93.3963 116.88 93.7883 116.312 94.3483 115.832C94.9083 115.352 95.6843 115.112 96.6763 115.112C97.9723 115.112 98.9483 115.544 99.6043 116.408C100.276 117.272 100.612 118.504 100.612 120.104V128H97.0603V120.392C97.0603 119.576 96.9323 118.976 96.6763 118.592C96.4203 118.192 95.9643 117.992 95.3083 117.992C95.0203 117.992 94.7403 118.032 94.4683 118.112C94.1963 118.176 93.9483 118.288 93.7243 118.448C93.5163 118.608 93.3483 118.808 93.2203 119.048C93.0923 119.272 93.0283 119.536 93.0283 119.84V128H89.4763ZM113.717 128.288C112.501 128.288 111.477 128.096 110.645 127.712C109.813 127.312 109.069 126.752 108.413 126.032L110.501 123.92C110.949 124.416 111.445 124.808 111.989 125.096C112.533 125.384 113.149 125.528 113.837 125.528C114.541 125.528 115.029 125.424 115.301 125.216C115.573 124.992 115.709 124.696 115.709 124.328C115.709 123.736 115.285 123.384 114.437 123.272L113.069 123.104C110.237 122.752 108.821 121.456 108.821 119.216C108.821 118.608 108.933 118.056 109.157 117.56C109.397 117.048 109.725 116.616 110.141 116.264C110.573 115.896 111.085 115.616 111.677 115.424C112.285 115.216 112.965 115.112 113.717 115.112C114.373 115.112 114.949 115.16 115.445 115.256C115.957 115.336 116.405 115.464 116.789 115.64C117.189 115.8 117.549 116.008 117.869 116.264C118.205 116.504 118.533 116.776 118.853 117.08L116.813 119.168C116.413 118.768 115.957 118.456 115.445 118.232C114.949 117.992 114.437 117.872 113.909 117.872C113.301 117.872 112.869 117.968 112.613 118.16C112.357 118.352 112.229 118.608 112.229 118.928C112.229 119.264 112.317 119.528 112.493 119.72C112.685 119.896 113.037 120.024 113.549 120.104L114.965 120.296C117.733 120.664 119.117 121.928 119.117 124.088C119.117 124.696 118.989 125.256 118.733 125.768C118.477 126.28 118.109 126.728 117.629 127.112C117.165 127.48 116.597 127.768 115.925 127.976C115.269 128.184 114.533 128.288 113.717 128.288ZM126.795 128.288C125.835 128.288 124.979 128.136 124.227 127.832C123.475 127.512 122.835 127.072 122.307 126.512C121.795 125.936 121.403 125.24 121.131 124.424C120.875 123.608 120.747 122.696 120.747 121.688C120.747 120.696 120.875 119.8 121.131 119C121.387 118.184 121.763 117.488 122.259 116.912C122.771 116.336 123.395 115.896 124.131 115.592C124.867 115.272 125.707 115.112 126.651 115.112C127.691 115.112 128.579 115.288 129.315 115.64C130.067 115.992 130.675 116.464 131.139 117.056C131.619 117.648 131.963 118.336 132.171 119.12C132.395 119.888 132.507 120.696 132.507 121.544V122.6H124.419V122.792C124.419 123.624 124.643 124.288 125.091 124.784C125.539 125.264 126.243 125.504 127.203 125.504C127.939 125.504 128.539 125.36 129.003 125.072C129.467 124.768 129.899 124.408 130.299 123.992L132.075 126.2C131.515 126.856 130.779 127.368 129.867 127.736C128.971 128.104 127.947 128.288 126.795 128.288ZM126.723 117.728C126.003 117.728 125.435 117.968 125.019 118.448C124.619 118.912 124.419 119.536 124.419 120.32V120.512H128.835V120.296C128.835 119.528 128.659 118.912 128.307 118.448C127.971 117.968 127.443 117.728 126.723 117.728ZM139.287 128.288C138.071 128.288 137.047 128.096 136.215 127.712C135.383 127.312 134.639 126.752 133.983 126.032L136.071 123.92C136.519 124.416 137.015 124.808 137.559 125.096C138.103 125.384 138.719 125.528 139.407 125.528C140.111 125.528 140.599 125.424 140.871 125.216C141.143 124.992 141.279 124.696 141.279 124.328C141.279 123.736 140.855 123.384 140.007 123.272L138.639 123.104C135.807 122.752 134.391 121.456 134.391 119.216C134.391 118.608 134.503 118.056 134.727 117.56C134.967 117.048 135.295 116.616 135.711 116.264C136.143 115.896 136.655 115.616 137.247 115.424C137.855 115.216 138.535 115.112 139.287 115.112C139.943 115.112 140.519 115.16 141.015 115.256C141.527 115.336 141.975 115.464 142.359 115.64C142.759 115.8 143.119 116.008 143.439 116.264C143.775 116.504 144.103 116.776 144.423 117.08L142.383 119.168C141.983 118.768 141.527 118.456 141.015 118.232C140.519 117.992 140.007 117.872 139.479 117.872C138.871 117.872 138.439 117.968 138.183 118.16C137.927 118.352 137.799 118.608 137.799 118.928C137.799 119.264 137.887 119.528 138.063 119.72C138.255 119.896 138.607 120.024 139.119 120.104L140.535 120.296C143.303 120.664 144.687 121.928 144.687 124.088C144.687 124.696 144.559 125.256 144.303 125.768C144.047 126.28 143.679 126.728 143.199 127.112C142.735 127.48 142.167 127.768 141.495 127.976C140.839 128.184 140.103 128.288 139.287 128.288ZM151.217 128.288C150.001 128.288 148.977 128.096 148.145 127.712C147.313 127.312 146.569 126.752 145.913 126.032L148.001 123.92C148.449 124.416 148.945 124.808 149.489 125.096C150.033 125.384 150.649 125.528 151.337 125.528C152.041 125.528 152.529 125.424 152.801 125.216C153.073 124.992 153.209 124.696 153.209 124.328C153.209 123.736 152.785 123.384 151.937 123.272L150.569 123.104C147.737 122.752 146.321 121.456 146.321 119.216C146.321 118.608 146.433 118.056 146.657 117.56C146.897 117.048 147.225 116.616 147.641 116.264C148.073 115.896 148.585 115.616 149.177 115.424C149.785 115.216 150.465 115.112 151.217 115.112C151.873 115.112 152.449 115.16 152.945 115.256C153.457 115.336 153.905 115.464 154.289 115.64C154.689 115.8 155.049 116.008 155.369 116.264C155.705 116.504 156.033 116.776 156.353 117.08L154.313 119.168C153.913 118.768 153.457 118.456 152.945 118.232C152.449 117.992 151.937 117.872 151.409 117.872C150.801 117.872 150.369 117.968 150.113 118.16C149.857 118.352 149.729 118.608 149.729 118.928C149.729 119.264 149.817 119.528 149.993 119.72C150.185 119.896 150.537 120.024 151.049 120.104L152.465 120.296C155.233 120.664 156.617 121.928 156.617 124.088C156.617 124.696 156.489 125.256 156.233 125.768C155.977 126.28 155.609 126.728 155.129 127.112C154.665 127.48 154.097 127.768 153.425 127.976C152.769 128.184 152.033 128.288 151.217 128.288ZM160.815 114.056C160.095 114.056 159.567 113.896 159.231 113.576C158.911 113.24 158.751 112.816 158.751 112.304V111.776C158.751 111.264 158.911 110.848 159.231 110.528C159.567 110.192 160.095 110.024 160.815 110.024C161.535 110.024 162.055 110.192 162.375 110.528C162.711 110.848 162.879 111.264 162.879 111.776V112.304C162.879 112.816 162.711 113.24 162.375 113.576C162.055 113.896 161.535 114.056 160.815 114.056ZM159.039 115.4H162.591V128H159.039V115.4ZM171.018 128.288C170.09 128.288 169.258 128.136 168.522 127.832C167.802 127.528 167.186 127.088 166.674 126.512C166.178 125.936 165.794 125.24 165.522 124.424C165.25 123.608 165.114 122.696 165.114 121.688C165.114 120.68 165.25 119.768 165.522 118.952C165.794 118.136 166.178 117.448 166.674 116.888C167.186 116.312 167.802 115.872 168.522 115.568C169.258 115.264 170.09 115.112 171.018 115.112C171.946 115.112 172.77 115.264 173.49 115.568C174.226 115.872 174.842 116.312 175.338 116.888C175.85 117.448 176.242 118.136 176.514 118.952C176.786 119.768 176.922 120.68 176.922 121.688C176.922 122.696 176.786 123.608 176.514 124.424C176.242 125.24 175.85 125.936 175.338 126.512C174.842 127.088 174.226 127.528 173.49 127.832C172.77 128.136 171.946 128.288 171.018 128.288ZM171.018 125.48C171.722 125.48 172.266 125.264 172.65 124.832C173.034 124.4 173.226 123.784 173.226 122.984V120.416C173.226 119.616 173.034 119 172.65 118.568C172.266 118.136 171.722 117.92 171.018 117.92C170.314 117.92 169.77 118.136 169.386 118.568C169.002 119 168.81 119.616 168.81 120.416V122.984C168.81 123.784 169.002 124.4 169.386 124.832C169.77 125.264 170.314 125.48 171.018 125.48ZM179.453 128V115.4H183.005V117.536H183.149C183.373 116.88 183.765 116.312 184.325 115.832C184.885 115.352 185.661 115.112 186.653 115.112C187.949 115.112 188.925 115.544 189.581 116.408C190.253 117.272 190.589 118.504 190.589 120.104V128H187.037V120.392C187.037 119.576 186.909 118.976 186.653 118.592C186.397 118.192 185.941 117.992 185.285 117.992C184.997 117.992 184.717 118.032 184.445 118.112C184.173 118.176 183.925 118.288 183.701 118.448C183.493 118.608 183.325 118.808 183.197 119.048C183.069 119.272 183.005 119.536 183.005 119.84V128H179.453ZM208.734 128C208.094 128 207.558 127.8 207.126 127.4C206.71 127 206.446 126.464 206.334 125.792H206.19C205.998 126.608 205.574 127.232 204.918 127.664C204.262 128.08 203.454 128.288 202.494 128.288C201.23 128.288 200.262 127.952 199.59 127.28C198.918 126.608 198.582 125.72 198.582 124.616C198.582 123.288 199.062 122.304 200.022 121.664C200.998 121.008 202.318 120.68 203.982 120.68H205.974V119.888C205.974 119.28 205.814 118.8 205.494 118.448C205.174 118.08 204.638 117.896 203.886 117.896C203.182 117.896 202.622 118.048 202.206 118.352C201.79 118.656 201.446 119 201.174 119.384L199.062 117.512C199.574 116.76 200.214 116.176 200.982 115.76C201.766 115.328 202.822 115.112 204.15 115.112C205.942 115.112 207.286 115.504 208.182 116.288C209.078 117.072 209.526 118.216 209.526 119.72V125.24H210.702V128H208.734ZM203.814 125.816C204.406 125.816 204.91 125.688 205.326 125.432C205.758 125.176 205.974 124.76 205.974 124.184V122.696H204.246C202.854 122.696 202.158 123.168 202.158 124.112V124.472C202.158 124.936 202.302 125.28 202.59 125.504C202.878 125.712 203.286 125.816 203.814 125.816ZM217.358 128.288C216.142 128.288 215.118 128.096 214.286 127.712C213.454 127.312 212.71 126.752 212.054 126.032L214.142 123.92C214.59 124.416 215.086 124.808 215.63 125.096C216.174 125.384 216.79 125.528 217.478 125.528C218.182 125.528 218.67 125.424 218.942 125.216C219.214 124.992 219.35 124.696 219.35 124.328C219.35 123.736 218.926 123.384 218.078 123.272L216.71 123.104C213.878 122.752 212.462 121.456 212.462 119.216C212.462 118.608 212.574 118.056 212.798 117.56C213.038 117.048 213.366 116.616 213.782 116.264C214.214 115.896 214.726 115.616 215.318 115.424C215.926 115.216 216.606 115.112 217.358 115.112C218.014 115.112 218.59 115.16 219.086 115.256C219.598 115.336 220.046 115.464 220.43 115.64C220.83 115.8 221.19 116.008 221.51 116.264C221.846 116.504 222.174 116.776 222.494 117.08L220.454 119.168C220.054 118.768 219.598 118.456 219.086 118.232C218.59 117.992 218.078 117.872 217.55 117.872C216.942 117.872 216.51 117.968 216.254 118.16C215.998 118.352 215.87 118.608 215.87 118.928C215.87 119.264 215.958 119.528 216.134 119.72C216.326 119.896 216.678 120.024 217.19 120.104L218.606 120.296C221.374 120.664 222.758 121.928 222.758 124.088C222.758 124.696 222.63 125.256 222.374 125.768C222.118 126.28 221.75 126.728 221.27 127.112C220.806 127.48 220.238 127.768 219.566 127.976C218.91 128.184 218.174 128.288 217.358 128.288ZM240.163 128C239.523 128 238.987 127.8 238.555 127.4C238.139 127 237.875 126.464 237.763 125.792H237.619C237.427 126.608 237.003 127.232 236.347 127.664C235.691 128.08 234.883 128.288 233.923 128.288C232.659 128.288 231.691 127.952 231.019 127.28C230.347 126.608 230.011 125.72 230.011 124.616C230.011 123.288 230.491 122.304 231.451 121.664C232.427 121.008 233.747 120.68 235.411 120.68H237.403V119.888C237.403 119.28 237.243 118.8 236.923 118.448C236.603 118.08 236.067 117.896 235.315 117.896C234.611 117.896 234.051 118.048 233.635 118.352C233.219 118.656 232.875 119 232.603 119.384L230.491 117.512C231.003 116.76 231.643 116.176 232.411 115.76C233.195 115.328 234.251 115.112 235.579 115.112C237.371 115.112 238.715 115.504 239.611 116.288C240.507 117.072 240.955 118.216 240.955 119.72V125.24H242.131V128H240.163ZM235.243 125.816C235.835 125.816 236.339 125.688 236.755 125.432C237.187 125.176 237.403 124.76 237.403 124.184V122.696H235.675C234.283 122.696 233.587 123.168 233.587 124.112V124.472C233.587 124.936 233.731 125.28 234.019 125.504C234.307 125.712 234.715 125.816 235.243 125.816ZM261.851 128.912C261.851 129.584 261.731 130.176 261.491 130.688C261.267 131.2 260.891 131.632 260.363 131.984C259.835 132.352 259.131 132.624 258.251 132.8C257.387 132.992 256.315 133.088 255.035 133.088C253.947 133.088 253.019 133.016 252.251 132.872C251.499 132.744 250.883 132.552 250.403 132.296C249.939 132.056 249.595 131.752 249.371 131.384C249.163 131.032 249.059 130.624 249.059 130.16C249.059 129.456 249.267 128.904 249.683 128.504C250.099 128.104 250.675 127.856 251.411 127.76V127.496C250.803 127.384 250.347 127.128 250.043 126.728C249.739 126.312 249.587 125.832 249.587 125.288C249.587 124.952 249.651 124.664 249.779 124.424C249.923 124.168 250.099 123.952 250.307 123.776C250.531 123.584 250.787 123.432 251.075 123.32C251.363 123.208 251.651 123.12 251.939 123.056V122.96C251.171 122.608 250.603 122.128 250.235 121.52C249.867 120.896 249.683 120.176 249.683 119.36C249.683 118.08 250.123 117.056 251.003 116.288C251.899 115.504 253.259 115.112 255.083 115.112C255.915 115.112 256.627 115.192 257.219 115.352V114.872C257.219 114.2 257.379 113.72 257.699 113.432C258.035 113.128 258.507 112.976 259.115 112.976H261.107V115.616H258.323V115.76C259.059 116.112 259.603 116.6 259.955 117.224C260.307 117.832 260.483 118.544 260.483 119.36C260.483 120.624 260.035 121.64 259.139 122.408C258.259 123.16 256.907 123.536 255.083 123.536C254.267 123.536 253.523 123.448 252.851 123.272C252.483 123.512 252.299 123.848 252.299 124.28C252.299 124.584 252.411 124.824 252.635 125C252.875 125.16 253.267 125.24 253.811 125.24H257.459C258.995 125.24 260.107 125.56 260.795 126.2C261.499 126.84 261.851 127.744 261.851 128.912ZM258.515 129.392C258.515 129.024 258.371 128.744 258.083 128.552C257.795 128.36 257.291 128.264 256.571 128.264H252.251C252.091 128.424 251.971 128.6 251.891 128.792C251.827 129 251.795 129.2 251.795 129.392C251.795 129.856 251.995 130.192 252.395 130.4C252.795 130.624 253.475 130.736 254.435 130.736H255.875C256.835 130.736 257.515 130.624 257.915 130.4C258.315 130.192 258.515 129.856 258.515 129.392ZM255.083 121.208C255.787 121.208 256.307 121.064 256.643 120.776C256.995 120.472 257.171 120.04 257.171 119.48V119.192C257.171 118.632 256.995 118.208 256.643 117.92C256.307 117.616 255.787 117.464 255.083 117.464C254.379 117.464 253.851 117.616 253.499 117.92C253.163 118.208 252.995 118.632 252.995 119.192V119.48C252.995 120.04 253.163 120.472 253.499 120.776C253.851 121.064 254.379 121.208 255.083 121.208ZM270.776 125.888H270.656C270.544 126.208 270.392 126.512 270.2 126.8C270.024 127.088 269.792 127.344 269.504 127.568C269.216 127.792 268.872 127.968 268.472 128.096C268.088 128.224 267.64 128.288 267.128 128.288C265.832 128.288 264.848 127.864 264.176 127.016C263.52 126.152 263.192 124.92 263.192 123.32V115.4H266.744V123.008C266.744 123.776 266.88 124.368 267.152 124.784C267.424 125.2 267.888 125.408 268.544 125.408C268.816 125.408 269.088 125.368 269.36 125.288C269.632 125.208 269.872 125.096 270.08 124.952C270.288 124.792 270.456 124.6 270.584 124.376C270.712 124.152 270.776 123.888 270.776 123.584V115.4H274.328V128H270.776V125.888ZM282.889 128.288C281.929 128.288 281.073 128.136 280.321 127.832C279.569 127.512 278.929 127.072 278.401 126.512C277.889 125.936 277.497 125.24 277.225 124.424C276.969 123.608 276.841 122.696 276.841 121.688C276.841 120.696 276.969 119.8 277.225 119C277.481 118.184 277.857 117.488 278.353 116.912C278.865 116.336 279.489 115.896 280.225 115.592C280.961 115.272 281.801 115.112 282.745 115.112C283.785 115.112 284.673 115.288 285.409 115.64C286.161 115.992 286.769 116.464 287.233 117.056C287.713 117.648 288.057 118.336 288.265 119.12C288.489 119.888 288.601 120.696 288.601 121.544V122.6H280.513V122.792C280.513 123.624 280.737 124.288 281.185 124.784C281.633 125.264 282.337 125.504 283.297 125.504C284.033 125.504 284.633 125.36 285.097 125.072C285.561 124.768 285.993 124.408 286.393 123.992L288.169 126.2C287.609 126.856 286.873 127.368 285.961 127.736C285.065 128.104 284.041 128.288 282.889 128.288ZM282.817 117.728C282.097 117.728 281.529 117.968 281.113 118.448C280.713 118.912 280.513 119.536 280.513 120.32V120.512H284.929V120.296C284.929 119.528 284.753 118.912 284.401 118.448C284.065 117.968 283.537 117.728 282.817 117.728ZM295.381 128.288C294.165 128.288 293.141 128.096 292.309 127.712C291.477 127.312 290.733 126.752 290.077 126.032L292.165 123.92C292.613 124.416 293.109 124.808 293.653 125.096C294.197 125.384 294.813 125.528 295.501 125.528C296.205 125.528 296.693 125.424 296.965 125.216C297.237 124.992 297.373 124.696 297.373 124.328C297.373 123.736 296.949 123.384 296.101 123.272L294.733 123.104C291.901 122.752 290.485 121.456 290.485 119.216C290.485 118.608 290.597 118.056 290.821 117.56C291.061 117.048 291.389 116.616 291.805 116.264C292.237 115.896 292.749 115.616 293.341 115.424C293.949 115.216 294.629 115.112 295.381 115.112C296.037 115.112 296.613 115.16 297.109 115.256C297.621 115.336 298.069 115.464 298.453 115.64C298.853 115.8 299.213 116.008 299.533 116.264C299.869 116.504 300.197 116.776 300.517 117.08L298.477 119.168C298.077 118.768 297.621 118.456 297.109 118.232C296.613 117.992 296.101 117.872 295.573 117.872C294.965 117.872 294.533 117.968 294.277 118.16C294.021 118.352 293.893 118.608 293.893 118.928C293.893 119.264 293.981 119.528 294.157 119.72C294.349 119.896 294.701 120.024 295.213 120.104L296.629 120.296C299.397 120.664 300.781 121.928 300.781 124.088C300.781 124.696 300.653 125.256 300.397 125.768C300.141 126.28 299.773 126.728 299.293 127.112C298.829 127.48 298.261 127.768 297.589 127.976C296.933 128.184 296.197 128.288 295.381 128.288ZM307.431 128C306.199 128 305.263 127.688 304.623 127.064C303.999 126.44 303.687 125.528 303.687 124.328V118.16H301.911V115.4H302.799C303.279 115.4 303.607 115.288 303.783 115.064C303.959 114.824 304.047 114.488 304.047 114.056V111.992H307.239V115.4H309.735V118.16H307.239V125.24H309.543V128H307.431Z" fill="#141414"></path> <path d="M57.012 171V167.7L54.132 162.624H55.68L57.72 166.356H57.756L59.784 162.624H61.272L58.368 167.676V171H57.012ZM64.4457 171.144C64.0137 171.144 63.6177 171.068 63.2577 170.916C62.9057 170.764 62.6057 170.548 62.3577 170.268C62.1097 169.98 61.9177 169.636 61.7817 169.236C61.6457 168.828 61.5777 168.376 61.5777 167.88C61.5777 167.384 61.6457 166.936 61.7817 166.536C61.9177 166.128 62.1097 165.784 62.3577 165.504C62.6057 165.216 62.9057 164.996 63.2577 164.844C63.6177 164.692 64.0137 164.616 64.4457 164.616C64.8777 164.616 65.2697 164.692 65.6217 164.844C65.9817 164.996 66.2857 165.216 66.5337 165.504C66.7817 165.784 66.9737 166.128 67.1097 166.536C67.2457 166.936 67.3137 167.384 67.3137 167.88C67.3137 168.376 67.2457 168.828 67.1097 169.236C66.9737 169.636 66.7817 169.98 66.5337 170.268C66.2857 170.548 65.9817 170.764 65.6217 170.916C65.2697 171.068 64.8777 171.144 64.4457 171.144ZM64.4457 170.064C64.8937 170.064 65.2537 169.928 65.5257 169.656C65.7977 169.376 65.9337 168.96 65.9337 168.408V167.352C65.9337 166.8 65.7977 166.388 65.5257 166.116C65.2537 165.836 64.8937 165.696 64.4457 165.696C63.9977 165.696 63.6377 165.836 63.3657 166.116C63.0937 166.388 62.9577 166.8 62.9577 167.352V168.408C62.9577 168.96 63.0937 169.376 63.3657 169.656C63.6377 169.928 63.9977 170.064 64.4457 170.064ZM72.8512 169.968H72.8032C72.7472 170.12 72.6712 170.268 72.5752 170.412C72.4872 170.556 72.3712 170.684 72.2272 170.796C72.0912 170.9 71.9232 170.984 71.7232 171.048C71.5312 171.112 71.3072 171.144 71.0512 171.144C70.4032 171.144 69.8992 170.936 69.5392 170.52C69.1872 170.104 69.0112 169.508 69.0112 168.732V164.76H70.3192V168.564C70.3192 169.532 70.7192 170.016 71.5192 170.016C71.6872 170.016 71.8512 169.996 72.0112 169.956C72.1712 169.908 72.3112 169.84 72.4312 169.752C72.5592 169.664 72.6592 169.552 72.7312 169.416C72.8112 169.28 72.8512 169.12 72.8512 168.936V164.76H74.1592V171H72.8512V169.968ZM76.3321 171V164.76H77.6401V165.96H77.7001C77.7881 165.64 77.9721 165.36 78.2521 165.12C78.5321 164.88 78.9201 164.76 79.4161 164.76H79.7641V166.02H79.2481C78.7281 166.02 78.3281 166.104 78.0481 166.272C77.7761 166.44 77.6401 166.688 77.6401 167.016V171H76.3321ZM89.8338 171.588C89.8338 172.236 89.5858 172.724 89.0898 173.052C88.5938 173.38 87.7858 173.544 86.6658 173.544C86.1538 173.544 85.7178 173.508 85.3578 173.436C85.0058 173.372 84.7138 173.276 84.4818 173.148C84.2578 173.02 84.0938 172.864 83.9898 172.68C83.8858 172.496 83.8338 172.284 83.8338 172.044C83.8338 171.7 83.9258 171.432 84.1098 171.24C84.3018 171.048 84.5658 170.916 84.9018 170.844V170.712C84.4298 170.56 84.1938 170.24 84.1938 169.752C84.1938 169.432 84.3018 169.188 84.5178 169.02C84.7338 168.844 84.9938 168.72 85.2978 168.648V168.6C84.9298 168.424 84.6458 168.18 84.4458 167.868C84.2538 167.548 84.1578 167.176 84.1578 166.752C84.1578 166.112 84.3698 165.596 84.7938 165.204C85.2258 164.812 85.8418 164.616 86.6418 164.616C87.0818 164.616 87.4578 164.68 87.7698 164.808V164.64C87.7698 164.36 87.8338 164.144 87.9618 163.992C88.0978 163.832 88.3058 163.752 88.5858 163.752H89.5458V164.808H88.2738V165.06C88.5538 165.244 88.7698 165.484 88.9218 165.78C89.0738 166.068 89.1498 166.392 89.1498 166.752C89.1498 167.384 88.9338 167.896 88.5018 168.288C88.0698 168.672 87.4538 168.864 86.6538 168.864C86.3498 168.864 86.0778 168.832 85.8378 168.768C85.6778 168.824 85.5378 168.904 85.4178 169.008C85.2978 169.104 85.2378 169.232 85.2378 169.392C85.2378 169.56 85.3138 169.68 85.4658 169.752C85.6178 169.824 85.8338 169.86 86.1138 169.86H87.6498C88.4178 169.86 88.9738 170.016 89.3178 170.328C89.6618 170.632 89.8338 171.052 89.8338 171.588ZM88.6098 171.732C88.6098 171.516 88.5258 171.344 88.3578 171.216C88.1978 171.088 87.9018 171.024 87.4698 171.024H85.3578C85.0698 171.192 84.9258 171.432 84.9258 171.744C84.9258 172 85.0258 172.204 85.2258 172.356C85.4338 172.516 85.7818 172.596 86.2698 172.596H87.0858C88.1018 172.596 88.6098 172.308 88.6098 171.732ZM86.6538 167.916C87.0378 167.916 87.3338 167.832 87.5418 167.664C87.7578 167.488 87.8658 167.22 87.8658 166.86V166.62C87.8658 166.26 87.7578 165.996 87.5418 165.828C87.3338 165.652 87.0378 165.564 86.6538 165.564C86.2698 165.564 85.9698 165.652 85.7538 165.828C85.5458 165.996 85.4418 166.26 85.4418 166.62V166.86C85.4418 167.22 85.5458 167.488 85.7538 167.664C85.9698 167.832 86.2698 167.916 86.6538 167.916ZM94.8402 169.968H94.7922C94.7362 170.12 94.6602 170.268 94.5642 170.412C94.4762 170.556 94.3602 170.684 94.2162 170.796C94.0802 170.9 93.9122 170.984 93.7122 171.048C93.5202 171.112 93.2962 171.144 93.0402 171.144C92.3922 171.144 91.8882 170.936 91.5282 170.52C91.1762 170.104 91.0002 169.508 91.0002 168.732V164.76H92.3082V168.564C92.3082 169.532 92.7082 170.016 93.5082 170.016C93.6762 170.016 93.8402 169.996 94.0002 169.956C94.1602 169.908 94.3002 169.84 94.4202 169.752C94.5482 169.664 94.6482 169.552 94.7202 169.416C94.8002 169.28 94.8402 169.12 94.8402 168.936V164.76H96.1482V171H94.8402V169.968ZM100.769 171.144C100.321 171.144 99.9212 171.068 99.5692 170.916C99.2172 170.764 98.9172 170.548 98.6692 170.268C98.4212 169.98 98.2292 169.636 98.0932 169.236C97.9652 168.828 97.9012 168.376 97.9012 167.88C97.9012 167.384 97.9652 166.936 98.0932 166.536C98.2292 166.128 98.4212 165.784 98.6692 165.504C98.9172 165.216 99.2172 164.996 99.5692 164.844C99.9212 164.692 100.321 164.616 100.769 164.616C101.225 164.616 101.625 164.696 101.969 164.856C102.321 165.016 102.613 165.24 102.845 165.528C103.077 165.808 103.249 166.136 103.361 166.512C103.481 166.888 103.541 167.292 103.541 167.724V168.216H99.2572V168.42C99.2572 168.9 99.3972 169.296 99.6772 169.608C99.9652 169.912 100.373 170.064 100.901 170.064C101.285 170.064 101.609 169.98 101.873 169.812C102.137 169.644 102.361 169.416 102.545 169.128L103.313 169.884C103.081 170.268 102.745 170.576 102.305 170.808C101.865 171.032 101.353 171.144 100.769 171.144ZM100.769 165.636C100.545 165.636 100.337 165.676 100.145 165.756C99.9612 165.836 99.8012 165.948 99.6652 166.092C99.5372 166.236 99.4372 166.408 99.3652 166.608C99.2932 166.808 99.2572 167.028 99.2572 167.268V167.352H102.161V167.232C102.161 166.752 102.037 166.368 101.789 166.08C101.541 165.784 101.201 165.636 100.769 165.636ZM107.269 171.144C106.677 171.144 106.181 171.04 105.781 170.832C105.381 170.624 105.033 170.336 104.737 169.968L105.577 169.2C105.809 169.48 106.065 169.7 106.345 169.86C106.633 170.012 106.965 170.088 107.341 170.088C107.725 170.088 108.009 170.016 108.193 169.872C108.385 169.72 108.481 169.512 108.481 169.248C108.481 169.048 108.413 168.88 108.277 168.744C108.149 168.6 107.921 168.508 107.593 168.468L107.017 168.396C106.377 168.316 105.873 168.132 105.505 167.844C105.145 167.548 104.965 167.112 104.965 166.536C104.965 166.232 105.021 165.964 105.133 165.732C105.245 165.492 105.401 165.292 105.601 165.132C105.809 164.964 106.053 164.836 106.333 164.748C106.621 164.66 106.937 164.616 107.281 164.616C107.841 164.616 108.297 164.704 108.649 164.88C109.009 165.056 109.329 165.3 109.609 165.612L108.805 166.38C108.645 166.188 108.433 166.024 108.169 165.888C107.913 165.744 107.617 165.672 107.281 165.672C106.921 165.672 106.653 165.744 106.477 165.888C106.309 166.032 106.225 166.22 106.225 166.452C106.225 166.692 106.301 166.872 106.453 166.992C106.605 167.112 106.849 167.2 107.185 167.256L107.761 167.328C108.449 167.432 108.949 167.636 109.261 167.94C109.581 168.236 109.741 168.636 109.741 169.14C109.741 169.444 109.681 169.72 109.561 169.968C109.449 170.208 109.285 170.416 109.069 170.592C108.853 170.768 108.593 170.904 108.289 171C107.985 171.096 107.645 171.144 107.269 171.144ZM113.165 171C112.709 171 112.365 170.884 112.133 170.652C111.901 170.412 111.785 170.076 111.785 169.644V165.828H110.813V164.76H111.341C111.557 164.76 111.705 164.712 111.785 164.616C111.873 164.52 111.917 164.364 111.917 164.148V163.056H113.093V164.76H114.401V165.828H113.093V169.932H114.305V171H113.165ZM119.256 171V164.76H120.564V165.792H120.624C120.76 165.456 120.964 165.176 121.236 164.952C121.516 164.728 121.896 164.616 122.376 164.616C123.016 164.616 123.512 164.828 123.864 165.252C124.224 165.668 124.404 166.264 124.404 167.04V171H123.096V167.208C123.096 166.232 122.704 165.744 121.92 165.744C121.752 165.744 121.584 165.768 121.416 165.816C121.256 165.856 121.112 165.92 120.984 166.008C120.856 166.096 120.752 166.208 120.672 166.344C120.6 166.48 120.564 166.64 120.564 166.824V171H119.256ZM131.088 171C130.744 171 130.48 170.904 130.296 170.712C130.112 170.512 130 170.26 129.96 169.956H129.9C129.78 170.348 129.56 170.644 129.24 170.844C128.92 171.044 128.532 171.144 128.076 171.144C127.428 171.144 126.928 170.976 126.576 170.64C126.232 170.304 126.06 169.852 126.06 169.284C126.06 168.66 126.284 168.192 126.732 167.88C127.188 167.568 127.852 167.412 128.724 167.412H129.852V166.884C129.852 166.5 129.748 166.204 129.54 165.996C129.332 165.788 129.008 165.684 128.568 165.684C128.2 165.684 127.9 165.764 127.668 165.924C127.436 166.084 127.24 166.288 127.08 166.536L126.3 165.828C126.508 165.476 126.8 165.188 127.176 164.964C127.552 164.732 128.044 164.616 128.652 164.616C129.46 164.616 130.08 164.804 130.512 165.18C130.944 165.556 131.16 166.096 131.16 166.8V169.932H131.82V171H131.088ZM128.448 170.148C128.856 170.148 129.192 170.06 129.456 169.884C129.72 169.7 129.852 169.456 129.852 169.152V168.252H128.748C127.844 168.252 127.392 168.532 127.392 169.092V169.308C127.392 169.588 127.484 169.8 127.668 169.944C127.86 170.08 128.12 170.148 128.448 170.148ZM133.402 171V164.76H134.71V165.792H134.77C134.834 165.632 134.91 165.48 134.998 165.336C135.094 165.192 135.206 165.068 135.334 164.964C135.47 164.852 135.626 164.768 135.802 164.712C135.986 164.648 136.198 164.616 136.438 164.616C136.862 164.616 137.238 164.72 137.566 164.928C137.894 165.136 138.134 165.456 138.286 165.888H138.322C138.434 165.536 138.65 165.236 138.97 164.988C139.29 164.74 139.702 164.616 140.206 164.616C140.83 164.616 141.314 164.828 141.658 165.252C142.002 165.668 142.174 166.264 142.174 167.04V171H140.866V167.196C140.866 166.716 140.774 166.356 140.59 166.116C140.406 165.868 140.114 165.744 139.714 165.744C139.546 165.744 139.386 165.768 139.234 165.816C139.082 165.856 138.946 165.92 138.826 166.008C138.714 166.096 138.622 166.208 138.55 166.344C138.478 166.48 138.442 166.636 138.442 166.812V171H137.134V167.196C137.134 166.228 136.754 165.744 135.994 165.744C135.834 165.744 135.674 165.768 135.514 165.816C135.362 165.856 135.226 165.92 135.106 166.008C134.986 166.096 134.89 166.208 134.818 166.344C134.746 166.48 134.71 166.636 134.71 166.812V171H133.402ZM146.732 171.144C146.284 171.144 145.884 171.068 145.532 170.916C145.18 170.764 144.88 170.548 144.632 170.268C144.384 169.98 144.192 169.636 144.056 169.236C143.928 168.828 143.864 168.376 143.864 167.88C143.864 167.384 143.928 166.936 144.056 166.536C144.192 166.128 144.384 165.784 144.632 165.504C144.88 165.216 145.18 164.996 145.532 164.844C145.884 164.692 146.284 164.616 146.732 164.616C147.188 164.616 147.588 164.696 147.932 164.856C148.284 165.016 148.576 165.24 148.808 165.528C149.04 165.808 149.212 166.136 149.324 166.512C149.444 166.888 149.504 167.292 149.504 167.724V168.216H145.22V168.42C145.22 168.9 145.36 169.296 145.64 169.608C145.928 169.912 146.336 170.064 146.864 170.064C147.248 170.064 147.572 169.98 147.836 169.812C148.1 169.644 148.324 169.416 148.508 169.128L149.276 169.884C149.044 170.268 148.708 170.576 148.268 170.808C147.828 171.032 147.316 171.144 146.732 171.144ZM146.732 165.636C146.508 165.636 146.3 165.676 146.108 165.756C145.924 165.836 145.764 165.948 145.628 166.092C145.5 166.236 145.4 166.408 145.328 166.608C145.256 166.808 145.22 167.028 145.22 167.268V167.352H148.124V167.232C148.124 166.752 148 166.368 147.752 166.08C147.504 165.784 147.164 165.636 146.732 165.636Z" fill="#141414"></path> <path d="M57.012 171V167.7L54.132 162.624H55.68L57.72 166.356H57.756L59.784 162.624H61.272L58.368 167.676V171H57.012ZM64.4457 171.144C64.0137 171.144 63.6177 171.068 63.2577 170.916C62.9057 170.764 62.6057 170.548 62.3577 170.268C62.1097 169.98 61.9177 169.636 61.7817 169.236C61.6457 168.828 61.5777 168.376 61.5777 167.88C61.5777 167.384 61.6457 166.936 61.7817 166.536C61.9177 166.128 62.1097 165.784 62.3577 165.504C62.6057 165.216 62.9057 164.996 63.2577 164.844C63.6177 164.692 64.0137 164.616 64.4457 164.616C64.8777 164.616 65.2697 164.692 65.6217 164.844C65.9817 164.996 66.2857 165.216 66.5337 165.504C66.7817 165.784 66.9737 166.128 67.1097 166.536C67.2457 166.936 67.3137 167.384 67.3137 167.88C67.3137 168.376 67.2457 168.828 67.1097 169.236C66.9737 169.636 66.7817 169.98 66.5337 170.268C66.2857 170.548 65.9817 170.764 65.6217 170.916C65.2697 171.068 64.8777 171.144 64.4457 171.144ZM64.4457 170.064C64.8937 170.064 65.2537 169.928 65.5257 169.656C65.7977 169.376 65.9337 168.96 65.9337 168.408V167.352C65.9337 166.8 65.7977 166.388 65.5257 166.116C65.2537 165.836 64.8937 165.696 64.4457 165.696C63.9977 165.696 63.6377 165.836 63.3657 166.116C63.0937 166.388 62.9577 166.8 62.9577 167.352V168.408C62.9577 168.96 63.0937 169.376 63.3657 169.656C63.6377 169.928 63.9977 170.064 64.4457 170.064ZM72.8512 169.968H72.8032C72.7472 170.12 72.6712 170.268 72.5752 170.412C72.4872 170.556 72.3712 170.684 72.2272 170.796C72.0912 170.9 71.9232 170.984 71.7232 171.048C71.5312 171.112 71.3072 171.144 71.0512 171.144C70.4032 171.144 69.8992 170.936 69.5392 170.52C69.1872 170.104 69.0112 169.508 69.0112 168.732V164.76H70.3192V168.564C70.3192 169.532 70.7192 170.016 71.5192 170.016C71.6872 170.016 71.8512 169.996 72.0112 169.956C72.1712 169.908 72.3112 169.84 72.4312 169.752C72.5592 169.664 72.6592 169.552 72.7312 169.416C72.8112 169.28 72.8512 169.12 72.8512 168.936V164.76H74.1592V171H72.8512V169.968ZM76.3321 171V164.76H77.6401V165.96H77.7001C77.7881 165.64 77.9721 165.36 78.2521 165.12C78.5321 164.88 78.9201 164.76 79.4161 164.76H79.7641V166.02H79.2481C78.7281 166.02 78.3281 166.104 78.0481 166.272C77.7761 166.44 77.6401 166.688 77.6401 167.016V171H76.3321ZM89.8338 171.588C89.8338 172.236 89.5858 172.724 89.0898 173.052C88.5938 173.38 87.7858 173.544 86.6658 173.544C86.1538 173.544 85.7178 173.508 85.3578 173.436C85.0058 173.372 84.7138 173.276 84.4818 173.148C84.2578 173.02 84.0938 172.864 83.9898 172.68C83.8858 172.496 83.8338 172.284 83.8338 172.044C83.8338 171.7 83.9258 171.432 84.1098 171.24C84.3018 171.048 84.5658 170.916 84.9018 170.844V170.712C84.4298 170.56 84.1938 170.24 84.1938 169.752C84.1938 169.432 84.3018 169.188 84.5178 169.02C84.7338 168.844 84.9938 168.72 85.2978 168.648V168.6C84.9298 168.424 84.6458 168.18 84.4458 167.868C84.2538 167.548 84.1578 167.176 84.1578 166.752C84.1578 166.112 84.3698 165.596 84.7938 165.204C85.2258 164.812 85.8418 164.616 86.6418 164.616C87.0818 164.616 87.4578 164.68 87.7698 164.808V164.64C87.7698 164.36 87.8338 164.144 87.9618 163.992C88.0978 163.832 88.3058 163.752 88.5858 163.752H89.5458V164.808H88.2738V165.06C88.5538 165.244 88.7698 165.484 88.9218 165.78C89.0738 166.068 89.1498 166.392 89.1498 166.752C89.1498 167.384 88.9338 167.896 88.5018 168.288C88.0698 168.672 87.4538 168.864 86.6538 168.864C86.3498 168.864 86.0778 168.832 85.8378 168.768C85.6778 168.824 85.5378 168.904 85.4178 169.008C85.2978 169.104 85.2378 169.232 85.2378 169.392C85.2378 169.56 85.3138 169.68 85.4658 169.752C85.6178 169.824 85.8338 169.86 86.1138 169.86H87.6498C88.4178 169.86 88.9738 170.016 89.3178 170.328C89.6618 170.632 89.8338 171.052 89.8338 171.588ZM88.6098 171.732C88.6098 171.516 88.5258 171.344 88.3578 171.216C88.1978 171.088 87.9018 171.024 87.4698 171.024H85.3578C85.0698 171.192 84.9258 171.432 84.9258 171.744C84.9258 172 85.0258 172.204 85.2258 172.356C85.4338 172.516 85.7818 172.596 86.2698 172.596H87.0858C88.1018 172.596 88.6098 172.308 88.6098 171.732ZM86.6538 167.916C87.0378 167.916 87.3338 167.832 87.5418 167.664C87.7578 167.488 87.8658 167.22 87.8658 166.86V166.62C87.8658 166.26 87.7578 165.996 87.5418 165.828C87.3338 165.652 87.0378 165.564 86.6538 165.564C86.2698 165.564 85.9698 165.652 85.7538 165.828C85.5458 165.996 85.4418 166.26 85.4418 166.62V166.86C85.4418 167.22 85.5458 167.488 85.7538 167.664C85.9698 167.832 86.2698 167.916 86.6538 167.916ZM94.8402 169.968H94.7922C94.7362 170.12 94.6602 170.268 94.5642 170.412C94.4762 170.556 94.3602 170.684 94.2162 170.796C94.0802 170.9 93.9122 170.984 93.7122 171.048C93.5202 171.112 93.2962 171.144 93.0402 171.144C92.3922 171.144 91.8882 170.936 91.5282 170.52C91.1762 170.104 91.0002 169.508 91.0002 168.732V164.76H92.3082V168.564C92.3082 169.532 92.7082 170.016 93.5082 170.016C93.6762 170.016 93.8402 169.996 94.0002 169.956C94.1602 169.908 94.3002 169.84 94.4202 169.752C94.5482 169.664 94.6482 169.552 94.7202 169.416C94.8002 169.28 94.8402 169.12 94.8402 168.936V164.76H96.1482V171H94.8402V169.968ZM100.769 171.144C100.321 171.144 99.9212 171.068 99.5692 170.916C99.2172 170.764 98.9172 170.548 98.6692 170.268C98.4212 169.98 98.2292 169.636 98.0932 169.236C97.9652 168.828 97.9012 168.376 97.9012 167.88C97.9012 167.384 97.9652 166.936 98.0932 166.536C98.2292 166.128 98.4212 165.784 98.6692 165.504C98.9172 165.216 99.2172 164.996 99.5692 164.844C99.9212 164.692 100.321 164.616 100.769 164.616C101.225 164.616 101.625 164.696 101.969 164.856C102.321 165.016 102.613 165.24 102.845 165.528C103.077 165.808 103.249 166.136 103.361 166.512C103.481 166.888 103.541 167.292 103.541 167.724V168.216H99.2572V168.42C99.2572 168.9 99.3972 169.296 99.6772 169.608C99.9652 169.912 100.373 170.064 100.901 170.064C101.285 170.064 101.609 169.98 101.873 169.812C102.137 169.644 102.361 169.416 102.545 169.128L103.313 169.884C103.081 170.268 102.745 170.576 102.305 170.808C101.865 171.032 101.353 171.144 100.769 171.144ZM100.769 165.636C100.545 165.636 100.337 165.676 100.145 165.756C99.9612 165.836 99.8012 165.948 99.6652 166.092C99.5372 166.236 99.4372 166.408 99.3652 166.608C99.2932 166.808 99.2572 167.028 99.2572 167.268V167.352H102.161V167.232C102.161 166.752 102.037 166.368 101.789 166.08C101.541 165.784 101.201 165.636 100.769 165.636ZM107.269 171.144C106.677 171.144 106.181 171.04 105.781 170.832C105.381 170.624 105.033 170.336 104.737 169.968L105.577 169.2C105.809 169.48 106.065 169.7 106.345 169.86C106.633 170.012 106.965 170.088 107.341 170.088C107.725 170.088 108.009 170.016 108.193 169.872C108.385 169.72 108.481 169.512 108.481 169.248C108.481 169.048 108.413 168.88 108.277 168.744C108.149 168.6 107.921 168.508 107.593 168.468L107.017 168.396C106.377 168.316 105.873 168.132 105.505 167.844C105.145 167.548 104.965 167.112 104.965 166.536C104.965 166.232 105.021 165.964 105.133 165.732C105.245 165.492 105.401 165.292 105.601 165.132C105.809 164.964 106.053 164.836 106.333 164.748C106.621 164.66 106.937 164.616 107.281 164.616C107.841 164.616 108.297 164.704 108.649 164.88C109.009 165.056 109.329 165.3 109.609 165.612L108.805 166.38C108.645 166.188 108.433 166.024 108.169 165.888C107.913 165.744 107.617 165.672 107.281 165.672C106.921 165.672 106.653 165.744 106.477 165.888C106.309 166.032 106.225 166.22 106.225 166.452C106.225 166.692 106.301 166.872 106.453 166.992C106.605 167.112 106.849 167.2 107.185 167.256L107.761 167.328C108.449 167.432 108.949 167.636 109.261 167.94C109.581 168.236 109.741 168.636 109.741 169.14C109.741 169.444 109.681 169.72 109.561 169.968C109.449 170.208 109.285 170.416 109.069 170.592C108.853 170.768 108.593 170.904 108.289 171C107.985 171.096 107.645 171.144 107.269 171.144ZM113.165 171C112.709 171 112.365 170.884 112.133 170.652C111.901 170.412 111.785 170.076 111.785 169.644V165.828H110.813V164.76H111.341C111.557 164.76 111.705 164.712 111.785 164.616C111.873 164.52 111.917 164.364 111.917 164.148V163.056H113.093V164.76H114.401V165.828H113.093V169.932H114.305V171H113.165ZM119.256 171V164.76H120.564V165.792H120.624C120.76 165.456 120.964 165.176 121.236 164.952C121.516 164.728 121.896 164.616 122.376 164.616C123.016 164.616 123.512 164.828 123.864 165.252C124.224 165.668 124.404 166.264 124.404 167.04V171H123.096V167.208C123.096 166.232 122.704 165.744 121.92 165.744C121.752 165.744 121.584 165.768 121.416 165.816C121.256 165.856 121.112 165.92 120.984 166.008C120.856 166.096 120.752 166.208 120.672 166.344C120.6 166.48 120.564 166.64 120.564 166.824V171H119.256ZM131.088 171C130.744 171 130.48 170.904 130.296 170.712C130.112 170.512 130 170.26 129.96 169.956H129.9C129.78 170.348 129.56 170.644 129.24 170.844C128.92 171.044 128.532 171.144 128.076 171.144C127.428 171.144 126.928 170.976 126.576 170.64C126.232 170.304 126.06 169.852 126.06 169.284C126.06 168.66 126.284 168.192 126.732 167.88C127.188 167.568 127.852 167.412 128.724 167.412H129.852V166.884C129.852 166.5 129.748 166.204 129.54 165.996C129.332 165.788 129.008 165.684 128.568 165.684C128.2 165.684 127.9 165.764 127.668 165.924C127.436 166.084 127.24 166.288 127.08 166.536L126.3 165.828C126.508 165.476 126.8 165.188 127.176 164.964C127.552 164.732 128.044 164.616 128.652 164.616C129.46 164.616 130.08 164.804 130.512 165.18C130.944 165.556 131.16 166.096 131.16 166.8V169.932H131.82V171H131.088ZM128.448 170.148C128.856 170.148 129.192 170.06 129.456 169.884C129.72 169.7 129.852 169.456 129.852 169.152V168.252H128.748C127.844 168.252 127.392 168.532 127.392 169.092V169.308C127.392 169.588 127.484 169.8 127.668 169.944C127.86 170.08 128.12 170.148 128.448 170.148ZM133.402 171V164.76H134.71V165.792H134.77C134.834 165.632 134.91 165.48 134.998 165.336C135.094 165.192 135.206 165.068 135.334 164.964C135.47 164.852 135.626 164.768 135.802 164.712C135.986 164.648 136.198 164.616 136.438 164.616C136.862 164.616 137.238 164.72 137.566 164.928C137.894 165.136 138.134 165.456 138.286 165.888H138.322C138.434 165.536 138.65 165.236 138.97 164.988C139.29 164.74 139.702 164.616 140.206 164.616C140.83 164.616 141.314 164.828 141.658 165.252C142.002 165.668 142.174 166.264 142.174 167.04V171H140.866V167.196C140.866 166.716 140.774 166.356 140.59 166.116C140.406 165.868 140.114 165.744 139.714 165.744C139.546 165.744 139.386 165.768 139.234 165.816C139.082 165.856 138.946 165.92 138.826 166.008C138.714 166.096 138.622 166.208 138.55 166.344C138.478 166.48 138.442 166.636 138.442 166.812V171H137.134V167.196C137.134 166.228 136.754 165.744 135.994 165.744C135.834 165.744 135.674 165.768 135.514 165.816C135.362 165.856 135.226 165.92 135.106 166.008C134.986 166.096 134.89 166.208 134.818 166.344C134.746 166.48 134.71 166.636 134.71 166.812V171H133.402ZM146.732 171.144C146.284 171.144 145.884 171.068 145.532 170.916C145.18 170.764 144.88 170.548 144.632 170.268C144.384 169.98 144.192 169.636 144.056 169.236C143.928 168.828 143.864 168.376 143.864 167.88C143.864 167.384 143.928 166.936 144.056 166.536C144.192 166.128 144.384 165.784 144.632 165.504C144.88 165.216 145.18 164.996 145.532 164.844C145.884 164.692 146.284 164.616 146.732 164.616C147.188 164.616 147.588 164.696 147.932 164.856C148.284 165.016 148.576 165.24 148.808 165.528C149.04 165.808 149.212 166.136 149.324 166.512C149.444 166.888 149.504 167.292 149.504 167.724V168.216H145.22V168.42C145.22 168.9 145.36 169.296 145.64 169.608C145.928 169.912 146.336 170.064 146.864 170.064C147.248 170.064 147.572 169.98 147.836 169.812C148.1 169.644 148.324 169.416 148.508 169.128L149.276 169.884C149.044 170.268 148.708 170.576 148.268 170.808C147.828 171.032 147.316 171.144 146.732 171.144ZM146.732 165.636C146.508 165.636 146.3 165.676 146.108 165.756C145.924 165.836 145.764 165.948 145.628 166.092C145.5 166.236 145.4 166.408 145.328 166.608C145.256 166.808 145.22 167.028 145.22 167.268V167.352H148.124V167.232C148.124 166.752 148 166.368 147.752 166.08C147.504 165.784 147.164 165.636 146.732 165.636Z" fill="white" fill-opacity="0.2"></path> <path d="M54 190C54 185.582 57.5817 182 62 182H398C402.418 182 406 185.582 406 190V214C406 218.418 402.418 222 398 222H62C57.5817 222 54 218.418 54 214V190Z" fill="white"></path> <path d="M54 190C54 185.582 57.5817 182 62 182H398C402.418 182 406 185.582 406 190V214C406 218.418 402.418 222 398 222H62C57.5817 222 54 218.418 54 214V190Z" fill="#141414" fill-opacity="0.04"></path> <path d="M73.836 201.596L72.758 199.524H72.716V207H71.204V197.228H72.968L76.16 202.632L77.238 204.704H77.28V197.228H78.792V207H77.028L73.836 201.596ZM82.0561 198.418C81.7388 198.418 81.5055 198.343 81.3561 198.194C81.2161 198.045 81.1461 197.853 81.1461 197.62V197.382C81.1461 197.149 81.2161 196.957 81.3561 196.808C81.5055 196.659 81.7388 196.584 82.0561 196.584C82.3735 196.584 82.6021 196.659 82.7421 196.808C82.8821 196.957 82.9521 197.149 82.9521 197.382V197.62C82.9521 197.853 82.8821 198.045 82.7421 198.194C82.6021 198.343 82.3735 198.418 82.0561 198.418ZM81.2861 199.72H82.8121V207H81.2861V199.72ZM88.0052 207.168C87.4826 207.168 87.0159 207.079 86.6052 206.902C86.1946 206.725 85.8492 206.473 85.5692 206.146C85.2892 205.81 85.0746 205.409 84.9252 204.942C84.7759 204.466 84.7012 203.939 84.7012 203.36C84.7012 202.781 84.7759 202.259 84.9252 201.792C85.0746 201.316 85.2892 200.915 85.5692 200.588C85.8492 200.252 86.1946 199.995 86.6052 199.818C87.0159 199.641 87.4826 199.552 88.0052 199.552C88.7332 199.552 89.3306 199.715 89.7972 200.042C90.2639 200.369 90.6046 200.803 90.8192 201.344L89.5592 201.932C89.4566 201.596 89.2746 201.33 89.0132 201.134C88.7612 200.929 88.4252 200.826 88.0052 200.826C87.4452 200.826 87.0206 201.003 86.7312 201.358C86.4512 201.703 86.3112 202.156 86.3112 202.716V204.018C86.3112 204.578 86.4512 205.035 86.7312 205.39C87.0206 205.735 87.4452 205.908 88.0052 205.908C88.4532 205.908 88.8079 205.801 89.0692 205.586C89.3399 205.362 89.5546 205.068 89.7132 204.704L90.8752 205.32C90.6326 205.917 90.2686 206.375 89.7832 206.692C89.2979 207.009 88.7052 207.168 88.0052 207.168ZM92.5279 196.64H94.0539V202.996H94.1239L95.1319 201.694L96.8819 199.72H98.6599L96.1119 202.534L98.9679 207H97.1479L95.0619 203.528L94.0539 204.62V207H92.5279V196.64ZM100.384 207V199.72H101.91V200.924H101.98C102.139 200.532 102.377 200.205 102.694 199.944C103.021 199.683 103.464 199.552 104.024 199.552C104.771 199.552 105.35 199.799 105.76 200.294C106.18 200.779 106.39 201.475 106.39 202.38V207H104.864V202.576C104.864 201.437 104.407 200.868 103.492 200.868C103.296 200.868 103.1 200.896 102.904 200.952C102.718 200.999 102.55 201.073 102.4 201.176C102.251 201.279 102.13 201.409 102.036 201.568C101.952 201.727 101.91 201.913 101.91 202.128V207H100.384ZM114.039 207C113.638 207 113.33 206.888 113.115 206.664C112.901 206.431 112.77 206.137 112.723 205.782H112.653C112.513 206.239 112.257 206.585 111.883 206.818C111.51 207.051 111.057 207.168 110.525 207.168C109.769 207.168 109.186 206.972 108.775 206.58C108.374 206.188 108.173 205.661 108.173 204.998C108.173 204.27 108.435 203.724 108.957 203.36C109.489 202.996 110.264 202.814 111.281 202.814H112.597V202.198C112.597 201.75 112.476 201.405 112.233 201.162C111.991 200.919 111.613 200.798 111.099 200.798C110.67 200.798 110.32 200.891 110.049 201.078C109.779 201.265 109.55 201.503 109.363 201.792L108.453 200.966C108.696 200.555 109.037 200.219 109.475 199.958C109.914 199.687 110.488 199.552 111.197 199.552C112.14 199.552 112.863 199.771 113.367 200.21C113.871 200.649 114.123 201.279 114.123 202.1V205.754H114.893V207H114.039ZM110.959 206.006C111.435 206.006 111.827 205.903 112.135 205.698C112.443 205.483 112.597 205.199 112.597 204.844V203.794H111.309C110.255 203.794 109.727 204.121 109.727 204.774V205.026C109.727 205.353 109.835 205.6 110.049 205.768C110.273 205.927 110.577 206.006 110.959 206.006ZM116.589 207V199.72H118.115V200.924H118.185C118.26 200.737 118.348 200.56 118.451 200.392C118.563 200.224 118.694 200.079 118.843 199.958C119.002 199.827 119.184 199.729 119.389 199.664C119.604 199.589 119.851 199.552 120.131 199.552C120.626 199.552 121.064 199.673 121.447 199.916C121.83 200.159 122.11 200.532 122.287 201.036H122.329C122.46 200.625 122.712 200.275 123.085 199.986C123.458 199.697 123.939 199.552 124.527 199.552C125.255 199.552 125.82 199.799 126.221 200.294C126.622 200.779 126.823 201.475 126.823 202.38V207H125.297V202.562C125.297 202.002 125.19 201.582 124.975 201.302C124.76 201.013 124.42 200.868 123.953 200.868C123.757 200.868 123.57 200.896 123.393 200.952C123.216 200.999 123.057 201.073 122.917 201.176C122.786 201.279 122.679 201.409 122.595 201.568C122.511 201.727 122.469 201.909 122.469 202.114V207H120.943V202.562C120.943 201.433 120.5 200.868 119.613 200.868C119.426 200.868 119.24 200.896 119.053 200.952C118.876 200.999 118.717 201.073 118.577 201.176C118.437 201.279 118.325 201.409 118.241 201.568C118.157 201.727 118.115 201.909 118.115 202.114V207H116.589ZM131.991 207.168C131.468 207.168 131.001 207.079 130.591 206.902C130.18 206.725 129.83 206.473 129.541 206.146C129.251 205.81 129.027 205.409 128.869 204.942C128.719 204.466 128.645 203.939 128.645 203.36C128.645 202.781 128.719 202.259 128.869 201.792C129.027 201.316 129.251 200.915 129.541 200.588C129.83 200.252 130.18 199.995 130.591 199.818C131.001 199.641 131.468 199.552 131.991 199.552C132.523 199.552 132.989 199.645 133.391 199.832C133.801 200.019 134.142 200.28 134.413 200.616C134.683 200.943 134.884 201.325 135.015 201.764C135.155 202.203 135.225 202.674 135.225 203.178V203.752H130.227V203.99C130.227 204.55 130.39 205.012 130.717 205.376C131.053 205.731 131.529 205.908 132.145 205.908C132.593 205.908 132.971 205.81 133.279 205.614C133.587 205.418 133.848 205.152 134.063 204.816L134.959 205.698C134.688 206.146 134.296 206.505 133.783 206.776C133.269 207.037 132.672 207.168 131.991 207.168ZM131.991 200.742C131.729 200.742 131.487 200.789 131.263 200.882C131.048 200.975 130.861 201.106 130.703 201.274C130.553 201.442 130.437 201.643 130.353 201.876C130.269 202.109 130.227 202.366 130.227 202.646V202.744H133.615V202.604C133.615 202.044 133.47 201.596 133.181 201.26C132.891 200.915 132.495 200.742 131.991 200.742Z" fill="#141414"></path> <path d="M73.836 201.596L72.758 199.524H72.716V207H71.204V197.228H72.968L76.16 202.632L77.238 204.704H77.28V197.228H78.792V207H77.028L73.836 201.596ZM82.0561 198.418C81.7388 198.418 81.5055 198.343 81.3561 198.194C81.2161 198.045 81.1461 197.853 81.1461 197.62V197.382C81.1461 197.149 81.2161 196.957 81.3561 196.808C81.5055 196.659 81.7388 196.584 82.0561 196.584C82.3735 196.584 82.6021 196.659 82.7421 196.808C82.8821 196.957 82.9521 197.149 82.9521 197.382V197.62C82.9521 197.853 82.8821 198.045 82.7421 198.194C82.6021 198.343 82.3735 198.418 82.0561 198.418ZM81.2861 199.72H82.8121V207H81.2861V199.72ZM88.0052 207.168C87.4826 207.168 87.0159 207.079 86.6052 206.902C86.1946 206.725 85.8492 206.473 85.5692 206.146C85.2892 205.81 85.0746 205.409 84.9252 204.942C84.7759 204.466 84.7012 203.939 84.7012 203.36C84.7012 202.781 84.7759 202.259 84.9252 201.792C85.0746 201.316 85.2892 200.915 85.5692 200.588C85.8492 200.252 86.1946 199.995 86.6052 199.818C87.0159 199.641 87.4826 199.552 88.0052 199.552C88.7332 199.552 89.3306 199.715 89.7972 200.042C90.2639 200.369 90.6046 200.803 90.8192 201.344L89.5592 201.932C89.4566 201.596 89.2746 201.33 89.0132 201.134C88.7612 200.929 88.4252 200.826 88.0052 200.826C87.4452 200.826 87.0206 201.003 86.7312 201.358C86.4512 201.703 86.3112 202.156 86.3112 202.716V204.018C86.3112 204.578 86.4512 205.035 86.7312 205.39C87.0206 205.735 87.4452 205.908 88.0052 205.908C88.4532 205.908 88.8079 205.801 89.0692 205.586C89.3399 205.362 89.5546 205.068 89.7132 204.704L90.8752 205.32C90.6326 205.917 90.2686 206.375 89.7832 206.692C89.2979 207.009 88.7052 207.168 88.0052 207.168ZM92.5279 196.64H94.0539V202.996H94.1239L95.1319 201.694L96.8819 199.72H98.6599L96.1119 202.534L98.9679 207H97.1479L95.0619 203.528L94.0539 204.62V207H92.5279V196.64ZM100.384 207V199.72H101.91V200.924H101.98C102.139 200.532 102.377 200.205 102.694 199.944C103.021 199.683 103.464 199.552 104.024 199.552C104.771 199.552 105.35 199.799 105.76 200.294C106.18 200.779 106.39 201.475 106.39 202.38V207H104.864V202.576C104.864 201.437 104.407 200.868 103.492 200.868C103.296 200.868 103.1 200.896 102.904 200.952C102.718 200.999 102.55 201.073 102.4 201.176C102.251 201.279 102.13 201.409 102.036 201.568C101.952 201.727 101.91 201.913 101.91 202.128V207H100.384ZM114.039 207C113.638 207 113.33 206.888 113.115 206.664C112.901 206.431 112.77 206.137 112.723 205.782H112.653C112.513 206.239 112.257 206.585 111.883 206.818C111.51 207.051 111.057 207.168 110.525 207.168C109.769 207.168 109.186 206.972 108.775 206.58C108.374 206.188 108.173 205.661 108.173 204.998C108.173 204.27 108.435 203.724 108.957 203.36C109.489 202.996 110.264 202.814 111.281 202.814H112.597V202.198C112.597 201.75 112.476 201.405 112.233 201.162C111.991 200.919 111.613 200.798 111.099 200.798C110.67 200.798 110.32 200.891 110.049 201.078C109.779 201.265 109.55 201.503 109.363 201.792L108.453 200.966C108.696 200.555 109.037 200.219 109.475 199.958C109.914 199.687 110.488 199.552 111.197 199.552C112.14 199.552 112.863 199.771 113.367 200.21C113.871 200.649 114.123 201.279 114.123 202.1V205.754H114.893V207H114.039ZM110.959 206.006C111.435 206.006 111.827 205.903 112.135 205.698C112.443 205.483 112.597 205.199 112.597 204.844V203.794H111.309C110.255 203.794 109.727 204.121 109.727 204.774V205.026C109.727 205.353 109.835 205.6 110.049 205.768C110.273 205.927 110.577 206.006 110.959 206.006ZM116.589 207V199.72H118.115V200.924H118.185C118.26 200.737 118.348 200.56 118.451 200.392C118.563 200.224 118.694 200.079 118.843 199.958C119.002 199.827 119.184 199.729 119.389 199.664C119.604 199.589 119.851 199.552 120.131 199.552C120.626 199.552 121.064 199.673 121.447 199.916C121.83 200.159 122.11 200.532 122.287 201.036H122.329C122.46 200.625 122.712 200.275 123.085 199.986C123.458 199.697 123.939 199.552 124.527 199.552C125.255 199.552 125.82 199.799 126.221 200.294C126.622 200.779 126.823 201.475 126.823 202.38V207H125.297V202.562C125.297 202.002 125.19 201.582 124.975 201.302C124.76 201.013 124.42 200.868 123.953 200.868C123.757 200.868 123.57 200.896 123.393 200.952C123.216 200.999 123.057 201.073 122.917 201.176C122.786 201.279 122.679 201.409 122.595 201.568C122.511 201.727 122.469 201.909 122.469 202.114V207H120.943V202.562C120.943 201.433 120.5 200.868 119.613 200.868C119.426 200.868 119.24 200.896 119.053 200.952C118.876 200.999 118.717 201.073 118.577 201.176C118.437 201.279 118.325 201.409 118.241 201.568C118.157 201.727 118.115 201.909 118.115 202.114V207H116.589ZM131.991 207.168C131.468 207.168 131.001 207.079 130.591 206.902C130.18 206.725 129.83 206.473 129.541 206.146C129.251 205.81 129.027 205.409 128.869 204.942C128.719 204.466 128.645 203.939 128.645 203.36C128.645 202.781 128.719 202.259 128.869 201.792C129.027 201.316 129.251 200.915 129.541 200.588C129.83 200.252 130.18 199.995 130.591 199.818C131.001 199.641 131.468 199.552 131.991 199.552C132.523 199.552 132.989 199.645 133.391 199.832C133.801 200.019 134.142 200.28 134.413 200.616C134.683 200.943 134.884 201.325 135.015 201.764C135.155 202.203 135.225 202.674 135.225 203.178V203.752H130.227V203.99C130.227 204.55 130.39 205.012 130.717 205.376C131.053 205.731 131.529 205.908 132.145 205.908C132.593 205.908 132.971 205.81 133.279 205.614C133.587 205.418 133.848 205.152 134.063 204.816L134.959 205.698C134.688 206.146 134.296 206.505 133.783 206.776C133.269 207.037 132.672 207.168 131.991 207.168ZM131.991 200.742C131.729 200.742 131.487 200.789 131.263 200.882C131.048 200.975 130.861 201.106 130.703 201.274C130.553 201.442 130.437 201.643 130.353 201.876C130.269 202.109 130.227 202.366 130.227 202.646V202.744H133.615V202.604C133.615 202.044 133.47 201.596 133.181 201.26C132.891 200.915 132.495 200.742 131.991 200.742Z" fill="white" fill-opacity="0.68"></path> <path d="M57.012 259V255.7L54.132 250.624H55.68L57.72 254.356H57.756L59.784 250.624H61.272L58.368 255.676V259H57.012ZM64.4457 259.144C64.0137 259.144 63.6177 259.068 63.2577 258.916C62.9057 258.764 62.6057 258.548 62.3577 258.268C62.1097 257.98 61.9177 257.636 61.7817 257.236C61.6457 256.828 61.5777 256.376 61.5777 255.88C61.5777 255.384 61.6457 254.936 61.7817 254.536C61.9177 254.128 62.1097 253.784 62.3577 253.504C62.6057 253.216 62.9057 252.996 63.2577 252.844C63.6177 252.692 64.0137 252.616 64.4457 252.616C64.8777 252.616 65.2697 252.692 65.6217 252.844C65.9817 252.996 66.2857 253.216 66.5337 253.504C66.7817 253.784 66.9737 254.128 67.1097 254.536C67.2457 254.936 67.3137 255.384 67.3137 255.88C67.3137 256.376 67.2457 256.828 67.1097 257.236C66.9737 257.636 66.7817 257.98 66.5337 258.268C66.2857 258.548 65.9817 258.764 65.6217 258.916C65.2697 259.068 64.8777 259.144 64.4457 259.144ZM64.4457 258.064C64.8937 258.064 65.2537 257.928 65.5257 257.656C65.7977 257.376 65.9337 256.96 65.9337 256.408V255.352C65.9337 254.8 65.7977 254.388 65.5257 254.116C65.2537 253.836 64.8937 253.696 64.4457 253.696C63.9977 253.696 63.6377 253.836 63.3657 254.116C63.0937 254.388 62.9577 254.8 62.9577 255.352V256.408C62.9577 256.96 63.0937 257.376 63.3657 257.656C63.6377 257.928 63.9977 258.064 64.4457 258.064ZM72.8512 257.968H72.8032C72.7472 258.12 72.6712 258.268 72.5752 258.412C72.4872 258.556 72.3712 258.684 72.2272 258.796C72.0912 258.9 71.9232 258.984 71.7232 259.048C71.5312 259.112 71.3072 259.144 71.0512 259.144C70.4032 259.144 69.8992 258.936 69.5392 258.52C69.1872 258.104 69.0112 257.508 69.0112 256.732V252.76H70.3192V256.564C70.3192 257.532 70.7192 258.016 71.5192 258.016C71.6872 258.016 71.8512 257.996 72.0112 257.956C72.1712 257.908 72.3112 257.84 72.4312 257.752C72.5592 257.664 72.6592 257.552 72.7312 257.416C72.8112 257.28 72.8512 257.12 72.8512 256.936V252.76H74.1592V259H72.8512V257.968ZM76.3321 259V252.76H77.6401V253.96H77.7001C77.7881 253.64 77.9721 253.36 78.2521 253.12C78.5321 252.88 78.9201 252.76 79.4161 252.76H79.7641V254.02H79.2481C78.7281 254.02 78.3281 254.104 78.0481 254.272C77.7761 254.44 77.6401 254.688 77.6401 255.016V259H76.3321ZM86.0898 259C85.6338 259 85.2898 258.884 85.0578 258.652C84.8258 258.412 84.7098 258.076 84.7098 257.644V253.828H83.7378V252.76H84.2658C84.4818 252.76 84.6298 252.712 84.7098 252.616C84.7978 252.52 84.8418 252.364 84.8418 252.148V251.056H86.0178V252.76H87.3258V253.828H86.0178V257.932H87.2298V259H86.0898ZM91.4457 259.144C90.9977 259.144 90.5977 259.068 90.2457 258.916C89.8937 258.764 89.5937 258.548 89.3457 258.268C89.0977 257.98 88.9057 257.636 88.7697 257.236C88.6417 256.828 88.5777 256.376 88.5777 255.88C88.5777 255.384 88.6417 254.936 88.7697 254.536C88.9057 254.128 89.0977 253.784 89.3457 253.504C89.5937 253.216 89.8937 252.996 90.2457 252.844C90.5977 252.692 90.9977 252.616 91.4457 252.616C91.9017 252.616 92.3017 252.696 92.6457 252.856C92.9977 253.016 93.2897 253.24 93.5217 253.528C93.7537 253.808 93.9257 254.136 94.0377 254.512C94.1577 254.888 94.2177 255.292 94.2177 255.724V256.216H89.9337V256.42C89.9337 256.9 90.0737 257.296 90.3537 257.608C90.6417 257.912 91.0497 258.064 91.5777 258.064C91.9617 258.064 92.2857 257.98 92.5497 257.812C92.8137 257.644 93.0377 257.416 93.2217 257.128L93.9897 257.884C93.7577 258.268 93.4217 258.576 92.9817 258.808C92.5417 259.032 92.0297 259.144 91.4457 259.144ZM91.4457 253.636C91.2217 253.636 91.0137 253.676 90.8217 253.756C90.6377 253.836 90.4777 253.948 90.3417 254.092C90.2137 254.236 90.1137 254.408 90.0417 254.608C89.9697 254.808 89.9337 255.028 89.9337 255.268V255.352H92.8377V255.232C92.8377 254.752 92.7137 254.368 92.4657 254.08C92.2177 253.784 91.8777 253.636 91.4457 253.636ZM100.538 259C100.194 259 99.9297 258.904 99.7457 258.712C99.5617 258.512 99.4497 258.26 99.4097 257.956H99.3497C99.2297 258.348 99.0097 258.644 98.6897 258.844C98.3697 259.044 97.9817 259.144 97.5257 259.144C96.8777 259.144 96.3777 258.976 96.0257 258.64C95.6817 258.304 95.5097 257.852 95.5097 257.284C95.5097 256.66 95.7337 256.192 96.1817 255.88C96.6377 255.568 97.3017 255.412 98.1737 255.412H99.3017V254.884C99.3017 254.5 99.1977 254.204 98.9897 253.996C98.7817 253.788 98.4577 253.684 98.0177 253.684C97.6497 253.684 97.3497 253.764 97.1177 253.924C96.8857 254.084 96.6897 254.288 96.5297 254.536L95.7497 253.828C95.9577 253.476 96.2497 253.188 96.6257 252.964C97.0017 252.732 97.4937 252.616 98.1017 252.616C98.9097 252.616 99.5297 252.804 99.9617 253.18C100.394 253.556 100.61 254.096 100.61 254.8V257.932H101.27V259H100.538ZM97.8977 258.148C98.3057 258.148 98.6417 258.06 98.9057 257.884C99.1697 257.7 99.3017 257.456 99.3017 257.152V256.252H98.1977C97.2937 256.252 96.8417 256.532 96.8417 257.092V257.308C96.8417 257.588 96.9337 257.8 97.1177 257.944C97.3097 258.08 97.5697 258.148 97.8977 258.148ZM102.852 259V252.76H104.16V253.792H104.22C104.284 253.632 104.36 253.48 104.448 253.336C104.544 253.192 104.656 253.068 104.784 252.964C104.92 252.852 105.076 252.768 105.252 252.712C105.436 252.648 105.648 252.616 105.888 252.616C106.312 252.616 106.688 252.72 107.016 252.928C107.344 253.136 107.584 253.456 107.736 253.888H107.772C107.884 253.536 108.1 253.236 108.42 252.988C108.74 252.74 109.152 252.616 109.656 252.616C110.28 252.616 110.764 252.828 111.108 253.252C111.452 253.668 111.624 254.264 111.624 255.04V259H110.316V255.196C110.316 254.716 110.224 254.356 110.04 254.116C109.856 253.868 109.564 253.744 109.164 253.744C108.996 253.744 108.836 253.768 108.684 253.816C108.532 253.856 108.396 253.92 108.276 254.008C108.164 254.096 108.072 254.208 108 254.344C107.928 254.48 107.892 254.636 107.892 254.812V259H106.584V255.196C106.584 254.228 106.204 253.744 105.444 253.744C105.284 253.744 105.124 253.768 104.964 253.816C104.812 253.856 104.676 253.92 104.556 254.008C104.436 254.096 104.34 254.208 104.268 254.344C104.196 254.48 104.16 254.636 104.16 254.812V259H102.852Z" fill="#141414"></path> <path d="M57.012 259V255.7L54.132 250.624H55.68L57.72 254.356H57.756L59.784 250.624H61.272L58.368 255.676V259H57.012ZM64.4457 259.144C64.0137 259.144 63.6177 259.068 63.2577 258.916C62.9057 258.764 62.6057 258.548 62.3577 258.268C62.1097 257.98 61.9177 257.636 61.7817 257.236C61.6457 256.828 61.5777 256.376 61.5777 255.88C61.5777 255.384 61.6457 254.936 61.7817 254.536C61.9177 254.128 62.1097 253.784 62.3577 253.504C62.6057 253.216 62.9057 252.996 63.2577 252.844C63.6177 252.692 64.0137 252.616 64.4457 252.616C64.8777 252.616 65.2697 252.692 65.6217 252.844C65.9817 252.996 66.2857 253.216 66.5337 253.504C66.7817 253.784 66.9737 254.128 67.1097 254.536C67.2457 254.936 67.3137 255.384 67.3137 255.88C67.3137 256.376 67.2457 256.828 67.1097 257.236C66.9737 257.636 66.7817 257.98 66.5337 258.268C66.2857 258.548 65.9817 258.764 65.6217 258.916C65.2697 259.068 64.8777 259.144 64.4457 259.144ZM64.4457 258.064C64.8937 258.064 65.2537 257.928 65.5257 257.656C65.7977 257.376 65.9337 256.96 65.9337 256.408V255.352C65.9337 254.8 65.7977 254.388 65.5257 254.116C65.2537 253.836 64.8937 253.696 64.4457 253.696C63.9977 253.696 63.6377 253.836 63.3657 254.116C63.0937 254.388 62.9577 254.8 62.9577 255.352V256.408C62.9577 256.96 63.0937 257.376 63.3657 257.656C63.6377 257.928 63.9977 258.064 64.4457 258.064ZM72.8512 257.968H72.8032C72.7472 258.12 72.6712 258.268 72.5752 258.412C72.4872 258.556 72.3712 258.684 72.2272 258.796C72.0912 258.9 71.9232 258.984 71.7232 259.048C71.5312 259.112 71.3072 259.144 71.0512 259.144C70.4032 259.144 69.8992 258.936 69.5392 258.52C69.1872 258.104 69.0112 257.508 69.0112 256.732V252.76H70.3192V256.564C70.3192 257.532 70.7192 258.016 71.5192 258.016C71.6872 258.016 71.8512 257.996 72.0112 257.956C72.1712 257.908 72.3112 257.84 72.4312 257.752C72.5592 257.664 72.6592 257.552 72.7312 257.416C72.8112 257.28 72.8512 257.12 72.8512 256.936V252.76H74.1592V259H72.8512V257.968ZM76.3321 259V252.76H77.6401V253.96H77.7001C77.7881 253.64 77.9721 253.36 78.2521 253.12C78.5321 252.88 78.9201 252.76 79.4161 252.76H79.7641V254.02H79.2481C78.7281 254.02 78.3281 254.104 78.0481 254.272C77.7761 254.44 77.6401 254.688 77.6401 255.016V259H76.3321ZM86.0898 259C85.6338 259 85.2898 258.884 85.0578 258.652C84.8258 258.412 84.7098 258.076 84.7098 257.644V253.828H83.7378V252.76H84.2658C84.4818 252.76 84.6298 252.712 84.7098 252.616C84.7978 252.52 84.8418 252.364 84.8418 252.148V251.056H86.0178V252.76H87.3258V253.828H86.0178V257.932H87.2298V259H86.0898ZM91.4457 259.144C90.9977 259.144 90.5977 259.068 90.2457 258.916C89.8937 258.764 89.5937 258.548 89.3457 258.268C89.0977 257.98 88.9057 257.636 88.7697 257.236C88.6417 256.828 88.5777 256.376 88.5777 255.88C88.5777 255.384 88.6417 254.936 88.7697 254.536C88.9057 254.128 89.0977 253.784 89.3457 253.504C89.5937 253.216 89.8937 252.996 90.2457 252.844C90.5977 252.692 90.9977 252.616 91.4457 252.616C91.9017 252.616 92.3017 252.696 92.6457 252.856C92.9977 253.016 93.2897 253.24 93.5217 253.528C93.7537 253.808 93.9257 254.136 94.0377 254.512C94.1577 254.888 94.2177 255.292 94.2177 255.724V256.216H89.9337V256.42C89.9337 256.9 90.0737 257.296 90.3537 257.608C90.6417 257.912 91.0497 258.064 91.5777 258.064C91.9617 258.064 92.2857 257.98 92.5497 257.812C92.8137 257.644 93.0377 257.416 93.2217 257.128L93.9897 257.884C93.7577 258.268 93.4217 258.576 92.9817 258.808C92.5417 259.032 92.0297 259.144 91.4457 259.144ZM91.4457 253.636C91.2217 253.636 91.0137 253.676 90.8217 253.756C90.6377 253.836 90.4777 253.948 90.3417 254.092C90.2137 254.236 90.1137 254.408 90.0417 254.608C89.9697 254.808 89.9337 255.028 89.9337 255.268V255.352H92.8377V255.232C92.8377 254.752 92.7137 254.368 92.4657 254.08C92.2177 253.784 91.8777 253.636 91.4457 253.636ZM100.538 259C100.194 259 99.9297 258.904 99.7457 258.712C99.5617 258.512 99.4497 258.26 99.4097 257.956H99.3497C99.2297 258.348 99.0097 258.644 98.6897 258.844C98.3697 259.044 97.9817 259.144 97.5257 259.144C96.8777 259.144 96.3777 258.976 96.0257 258.64C95.6817 258.304 95.5097 257.852 95.5097 257.284C95.5097 256.66 95.7337 256.192 96.1817 255.88C96.6377 255.568 97.3017 255.412 98.1737 255.412H99.3017V254.884C99.3017 254.5 99.1977 254.204 98.9897 253.996C98.7817 253.788 98.4577 253.684 98.0177 253.684C97.6497 253.684 97.3497 253.764 97.1177 253.924C96.8857 254.084 96.6897 254.288 96.5297 254.536L95.7497 253.828C95.9577 253.476 96.2497 253.188 96.6257 252.964C97.0017 252.732 97.4937 252.616 98.1017 252.616C98.9097 252.616 99.5297 252.804 99.9617 253.18C100.394 253.556 100.61 254.096 100.61 254.8V257.932H101.27V259H100.538ZM97.8977 258.148C98.3057 258.148 98.6417 258.06 98.9057 257.884C99.1697 257.7 99.3017 257.456 99.3017 257.152V256.252H98.1977C97.2937 256.252 96.8417 256.532 96.8417 257.092V257.308C96.8417 257.588 96.9337 257.8 97.1177 257.944C97.3097 258.08 97.5697 258.148 97.8977 258.148ZM102.852 259V252.76H104.16V253.792H104.22C104.284 253.632 104.36 253.48 104.448 253.336C104.544 253.192 104.656 253.068 104.784 252.964C104.92 252.852 105.076 252.768 105.252 252.712C105.436 252.648 105.648 252.616 105.888 252.616C106.312 252.616 106.688 252.72 107.016 252.928C107.344 253.136 107.584 253.456 107.736 253.888H107.772C107.884 253.536 108.1 253.236 108.42 252.988C108.74 252.74 109.152 252.616 109.656 252.616C110.28 252.616 110.764 252.828 111.108 253.252C111.452 253.668 111.624 254.264 111.624 255.04V259H110.316V255.196C110.316 254.716 110.224 254.356 110.04 254.116C109.856 253.868 109.564 253.744 109.164 253.744C108.996 253.744 108.836 253.768 108.684 253.816C108.532 253.856 108.396 253.92 108.276 254.008C108.164 254.096 108.072 254.208 108 254.344C107.928 254.48 107.892 254.636 107.892 254.812V259H106.584V255.196C106.584 254.228 106.204 253.744 105.444 253.744C105.284 253.744 105.124 253.768 104.964 253.816C104.812 253.856 104.676 253.92 104.556 254.008C104.436 254.096 104.34 254.208 104.268 254.344C104.196 254.48 104.16 254.636 104.16 254.812V259H102.852Z" fill="white" fill-opacity="0.2"></path> <path d="M54 278C54 273.582 57.5817 270 62 270H398C402.418 270 406 273.582 406 278V302C406 306.418 402.418 310 398 310H62C57.5817 310 54 306.418 54 302V278Z" fill="white"></path> <path d="M54 278C54 273.582 57.5817 270 62 270H398C402.418 270 406 273.582 406 278V302C406 306.418 402.418 310 398 310H62C57.5817 310 54 306.418 54 302V278Z" fill="#141414" fill-opacity="0.04"></path> <path d="M71.204 295V285.228H75.404C76.3093 285.228 77.0093 285.494 77.504 286.026C77.9987 286.558 78.246 287.272 78.246 288.168C78.246 289.064 77.9987 289.778 77.504 290.31C77.0093 290.842 76.3093 291.108 75.404 291.108H72.786V295H71.204ZM72.786 289.722H75.306C75.7073 289.722 76.02 289.619 76.244 289.414C76.468 289.199 76.58 288.896 76.58 288.504V287.832C76.58 287.44 76.468 287.141 76.244 286.936C76.02 286.721 75.7073 286.614 75.306 286.614H72.786V289.722ZM79.9326 295V287.72H81.4586V289.12H81.5286C81.6313 288.747 81.846 288.42 82.1726 288.14C82.4993 287.86 82.952 287.72 83.5306 287.72H83.9366V289.19H83.3346C82.728 289.19 82.2613 289.288 81.9346 289.484C81.6173 289.68 81.4586 289.969 81.4586 290.352V295H79.9326ZM88.2796 295.168C87.7756 295.168 87.3136 295.079 86.8936 294.902C86.483 294.725 86.133 294.473 85.8436 294.146C85.5543 293.81 85.3303 293.409 85.1716 292.942C85.013 292.466 84.9336 291.939 84.9336 291.36C84.9336 290.781 85.013 290.259 85.1716 289.792C85.3303 289.316 85.5543 288.915 85.8436 288.588C86.133 288.252 86.483 287.995 86.8936 287.818C87.3136 287.641 87.7756 287.552 88.2796 287.552C88.7836 287.552 89.241 287.641 89.6516 287.818C90.0716 287.995 90.4263 288.252 90.7156 288.588C91.005 288.915 91.229 289.316 91.3876 289.792C91.5463 290.259 91.6256 290.781 91.6256 291.36C91.6256 291.939 91.5463 292.466 91.3876 292.942C91.229 293.409 91.005 293.81 90.7156 294.146C90.4263 294.473 90.0716 294.725 89.6516 294.902C89.241 295.079 88.7836 295.168 88.2796 295.168ZM88.2796 293.908C88.8023 293.908 89.2223 293.749 89.5396 293.432C89.857 293.105 90.0156 292.62 90.0156 291.976V290.744C90.0156 290.1 89.857 289.619 89.5396 289.302C89.2223 288.975 88.8023 288.812 88.2796 288.812C87.757 288.812 87.337 288.975 87.0196 289.302C86.7023 289.619 86.5436 290.1 86.5436 290.744V291.976C86.5436 292.62 86.7023 293.105 87.0196 293.432C87.337 293.749 87.757 293.908 88.2796 293.908ZM98.104 293.796H98.034C97.8753 294.225 97.614 294.561 97.25 294.804C96.8953 295.047 96.4753 295.168 95.99 295.168C95.066 295.168 94.352 294.837 93.848 294.174C93.344 293.502 93.092 292.564 93.092 291.36C93.092 290.156 93.344 289.223 93.848 288.56C94.352 287.888 95.066 287.552 95.99 287.552C96.4753 287.552 96.8953 287.673 97.25 287.916C97.614 288.149 97.8753 288.485 98.034 288.924H98.104V284.64H99.63V295H98.104V293.796ZM96.452 293.852C96.9187 293.852 97.3107 293.74 97.628 293.516C97.9453 293.283 98.104 292.979 98.104 292.606V290.114C98.104 289.741 97.9453 289.442 97.628 289.218C97.3107 288.985 96.9187 288.868 96.452 288.868C95.92 288.868 95.4953 289.041 95.178 289.386C94.8607 289.722 94.702 290.17 94.702 290.73V291.99C94.702 292.55 94.8607 293.003 95.178 293.348C95.4953 293.684 95.92 293.852 96.452 293.852ZM106.421 293.796H106.365C106.3 293.973 106.211 294.146 106.099 294.314C105.996 294.482 105.861 294.631 105.693 294.762C105.534 294.883 105.338 294.981 105.105 295.056C104.881 295.131 104.62 295.168 104.321 295.168C103.565 295.168 102.977 294.925 102.557 294.44C102.146 293.955 101.941 293.259 101.941 292.354V287.72H103.467V292.158C103.467 293.287 103.934 293.852 104.867 293.852C105.063 293.852 105.254 293.829 105.441 293.782C105.628 293.726 105.791 293.647 105.931 293.544C106.08 293.441 106.197 293.311 106.281 293.152C106.374 292.993 106.421 292.807 106.421 292.592V287.72H107.947V295H106.421V293.796ZM113.146 295.168C112.624 295.168 112.157 295.079 111.746 294.902C111.336 294.725 110.99 294.473 110.71 294.146C110.43 293.81 110.216 293.409 110.066 292.942C109.917 292.466 109.842 291.939 109.842 291.36C109.842 290.781 109.917 290.259 110.066 289.792C110.216 289.316 110.43 288.915 110.71 288.588C110.99 288.252 111.336 287.995 111.746 287.818C112.157 287.641 112.624 287.552 113.146 287.552C113.874 287.552 114.472 287.715 114.938 288.042C115.405 288.369 115.746 288.803 115.96 289.344L114.7 289.932C114.598 289.596 114.416 289.33 114.154 289.134C113.902 288.929 113.566 288.826 113.146 288.826C112.586 288.826 112.162 289.003 111.872 289.358C111.592 289.703 111.452 290.156 111.452 290.716V292.018C111.452 292.578 111.592 293.035 111.872 293.39C112.162 293.735 112.586 293.908 113.146 293.908C113.594 293.908 113.949 293.801 114.21 293.586C114.481 293.362 114.696 293.068 114.854 292.704L116.016 293.32C115.774 293.917 115.41 294.375 114.924 294.692C114.439 295.009 113.846 295.168 113.146 295.168ZM119.685 295C119.153 295 118.752 294.865 118.481 294.594C118.21 294.314 118.075 293.922 118.075 293.418V288.966H116.941V287.72H117.557C117.809 287.72 117.982 287.664 118.075 287.552C118.178 287.44 118.229 287.258 118.229 287.006V285.732H119.601V287.72H121.127V288.966H119.601V293.754H121.015V295H119.685ZM126.603 295V285.228H132.707V286.628H128.185V289.344H132.203V290.744H128.185V295H126.603ZM134.333 295V287.72H135.859V289.12H135.929C136.032 288.747 136.247 288.42 136.573 288.14C136.9 287.86 137.353 287.72 137.931 287.72H138.337V289.19H137.735C137.129 289.19 136.662 289.288 136.335 289.484C136.018 289.68 135.859 289.969 135.859 290.352V295H134.333ZM142.68 295.168C142.176 295.168 141.714 295.079 141.294 294.902C140.884 294.725 140.534 294.473 140.244 294.146C139.955 293.81 139.731 293.409 139.572 292.942C139.414 292.466 139.334 291.939 139.334 291.36C139.334 290.781 139.414 290.259 139.572 289.792C139.731 289.316 139.955 288.915 140.244 288.588C140.534 288.252 140.884 287.995 141.294 287.818C141.714 287.641 142.176 287.552 142.68 287.552C143.184 287.552 143.642 287.641 144.052 287.818C144.472 287.995 144.827 288.252 145.116 288.588C145.406 288.915 145.63 289.316 145.788 289.792C145.947 290.259 146.026 290.781 146.026 291.36C146.026 291.939 145.947 292.466 145.788 292.942C145.63 293.409 145.406 293.81 145.116 294.146C144.827 294.473 144.472 294.725 144.052 294.902C143.642 295.079 143.184 295.168 142.68 295.168ZM142.68 293.908C143.203 293.908 143.623 293.749 143.94 293.432C144.258 293.105 144.416 292.62 144.416 291.976V290.744C144.416 290.1 144.258 289.619 143.94 289.302C143.623 288.975 143.203 288.812 142.68 288.812C142.158 288.812 141.738 288.975 141.42 289.302C141.103 289.619 140.944 290.1 140.944 290.744V291.976C140.944 292.62 141.103 293.105 141.42 293.432C141.738 293.749 142.158 293.908 142.68 293.908ZM147.927 295V287.72H149.453V288.924H149.523C149.681 288.532 149.919 288.205 150.237 287.944C150.563 287.683 151.007 287.552 151.567 287.552C152.313 287.552 152.892 287.799 153.303 288.294C153.723 288.779 153.933 289.475 153.933 290.38V295H152.407V290.576C152.407 289.437 151.949 288.868 151.035 288.868C150.839 288.868 150.643 288.896 150.447 288.952C150.26 288.999 150.092 289.073 149.943 289.176C149.793 289.279 149.672 289.409 149.579 289.568C149.495 289.727 149.453 289.913 149.453 290.128V295H147.927ZM158.264 295C157.732 295 157.331 294.865 157.06 294.594C156.789 294.314 156.654 293.922 156.654 293.418V288.966H155.52V287.72H156.136C156.388 287.72 156.561 287.664 156.654 287.552C156.757 287.44 156.808 287.258 156.808 287.006V285.732H158.18V287.72H159.706V288.966H158.18V293.754H159.594V295H158.264ZM161.118 291.514V289.96H164.996V291.514H161.118ZM170.154 295.168C169.632 295.168 169.165 295.079 168.754 294.902C168.344 294.725 167.994 294.473 167.704 294.146C167.415 293.81 167.191 293.409 167.032 292.942C166.883 292.466 166.808 291.939 166.808 291.36C166.808 290.781 166.883 290.259 167.032 289.792C167.191 289.316 167.415 288.915 167.704 288.588C167.994 288.252 168.344 287.995 168.754 287.818C169.165 287.641 169.632 287.552 170.154 287.552C170.686 287.552 171.153 287.645 171.554 287.832C171.965 288.019 172.306 288.28 172.576 288.616C172.847 288.943 173.048 289.325 173.178 289.764C173.318 290.203 173.388 290.674 173.388 291.178V291.752H168.39V291.99C168.39 292.55 168.554 293.012 168.88 293.376C169.216 293.731 169.692 293.908 170.308 293.908C170.756 293.908 171.134 293.81 171.442 293.614C171.75 293.418 172.012 293.152 172.226 292.816L173.122 293.698C172.852 294.146 172.46 294.505 171.946 294.776C171.433 295.037 170.836 295.168 170.154 295.168ZM170.154 288.742C169.893 288.742 169.65 288.789 169.426 288.882C169.212 288.975 169.025 289.106 168.866 289.274C168.717 289.442 168.6 289.643 168.516 289.876C168.432 290.109 168.39 290.366 168.39 290.646V290.744H171.778V290.604C171.778 290.044 171.634 289.596 171.344 289.26C171.055 288.915 170.658 288.742 170.154 288.742ZM175.278 295V287.72H176.804V288.924H176.874C177.032 288.532 177.27 288.205 177.588 287.944C177.914 287.683 178.358 287.552 178.918 287.552C179.664 287.552 180.243 287.799 180.654 288.294C181.074 288.779 181.284 289.475 181.284 290.38V295H179.758V290.576C179.758 289.437 179.3 288.868 178.386 288.868C178.19 288.868 177.994 288.896 177.798 288.952C177.611 288.999 177.443 289.073 177.294 289.176C177.144 289.279 177.023 289.409 176.93 289.568C176.846 289.727 176.804 289.913 176.804 290.128V295H175.278ZM188.177 293.796H188.107C187.948 294.225 187.687 294.561 187.323 294.804C186.968 295.047 186.548 295.168 186.063 295.168C185.139 295.168 184.425 294.837 183.921 294.174C183.417 293.502 183.165 292.564 183.165 291.36C183.165 290.156 183.417 289.223 183.921 288.56C184.425 287.888 185.139 287.552 186.063 287.552C186.548 287.552 186.968 287.673 187.323 287.916C187.687 288.149 187.948 288.485 188.107 288.924H188.177V284.64H189.703V295H188.177V293.796ZM186.525 293.852C186.991 293.852 187.383 293.74 187.701 293.516C188.018 293.283 188.177 292.979 188.177 292.606V290.114C188.177 289.741 188.018 289.442 187.701 289.218C187.383 288.985 186.991 288.868 186.525 288.868C185.993 288.868 185.568 289.041 185.251 289.386C184.933 289.722 184.775 290.17 184.775 290.73V291.99C184.775 292.55 184.933 293.003 185.251 293.348C185.568 293.684 185.993 293.852 186.525 293.852Z" fill="#141414"></path> <path d="M385.88 287.29L382 291.17L378.12 287.29C377.73 286.9 377.1 286.9 376.71 287.29C376.32 287.68 376.32 288.31 376.71 288.7L381.3 293.29C381.69 293.68 382.32 293.68 382.71 293.29L387.3 288.7C387.69 288.31 387.69 287.68 387.3 287.29C386.91 286.91 386.27 286.9 385.88 287.29V287.29Z" fill="#141414"></path> <path d="M385.88 287.29L382 291.17L378.12 287.29C377.73 286.9 377.1 286.9 376.71 287.29C376.32 287.68 376.32 288.31 376.71 288.7L381.3 293.29C381.69 293.68 382.32 293.68 382.71 293.29L387.3 288.7C387.69 288.31 387.69 287.68 387.3 287.29C386.91 286.91 386.27 286.9 385.88 287.29V287.29Z" fill="white" fill-opacity="0.48"></path> <g opacity="0.4"> <path d="M299 342C299 337.582 302.582 334 307 334H398C402.418 334 406 337.582 406 342V366C406 370.418 402.418 374 398 374H307C302.582 374 299 370.418 299 366V342Z" fill="#9147FF"></path> </g> </g> </g> <defs> <filter id="filter0_d_143_9192" x="28" y="79" width="404" height="391" filterUnits="userSpaceOnUse" color-interpolation-filters="sRGB"> <feFlood flood-opacity="0" result="BackgroundImageFix"></feFlood> <feColorMatrix in="SourceAlpha" type="matrix" values="0 0 0 0 0 0 0 0 0 0 0 0 0 0 0 0 0 0 127 0" result="hardAlpha"></feColorMatrix> <feOffset dy="1"></feOffset> <feGaussianBlur stdDeviation="1"></feGaussianBlur> <feColorMatrix type="matrix" values="0 0 0 0 0 0 0 0 0 0 0 0 0 0 0 0 0 0 0.24 0"></feColorMatrix> <feBlend mode="normal" in2="BackgroundImageFix" result="effect1_dropShadow_143_9192"></feBlend> <feBlend mode="normal" in="SourceGraphic" in2="effect1_dropShadow_143_9192" result="shape"></feBlend> </filter> <clipPath id="clip0_143_9192"> <rect width="460" height="340" rx="8" fill="white"></rect> </clipPath> </defs> </svg> 